<?xml version="1.0" encoding="utf-8"?>
<!-- Generator: Adobe Illustrator 19.2.0, SVG Export Plug-In . SVG Version: 6.00 Build 0)  -->
<svg version="1.0" xmlns="http://www.w3.org/2000/svg" xmlns:xlink="http://www.w3.org/1999/xlink" x="0px" y="0px"
	 viewBox="0 0 76.7 20" style="enable-background:new 0 0 76.7 20;" xml:space="preserve">
<style type="text/css">
	.st0{clip-path:url(#SVGID_2_);}
	.st1{fill:#CBC7BF;}
	.st2{clip-path:url(#SVGID_2_);fill:#FFFFFF;}
	.st3{clip-path:url(#SVGID_2_);fill:#EDE7D4;}
</style>
<g id="Layer_1">
</g>
<g id="Layer_2">
	<g>
		<defs>
			<rect id="SVGID_1_" width="76.7" height="20"/>
		</defs>
		<clipPath id="SVGID_2_">
			<use xlink:href="#SVGID_1_"  style="overflow:visible;"/>
		</clipPath>
		<g class="st0">
			<path class="st1" d="M206.3,132.9V-5.9c0-2.2-1.8-4-4-4h-74.5l-17-17H4c-2.2,0-4,1.8-4,4v155.8"/>
		</g>
		<rect x="6.7" y="3.8" class="st2" width="69.3" height="30"/>
		<path class="st3" d="M205.8,132.5V4c0-2.2-1.8-4-4-4c0,0-69.6,0-128.3,0c-8.7,0-11.8,13-19,13c-18,0-49.9,0-50,0c-2.2,0-4,1.8-4,4
			v115.5H205.8z"/>
		<g class="st0">
			<path class="st1" d="M206.3,132.9V-5.9c0-2.2-1.8-4-4-4h-74.5l-17-17H4c-2.2,0-4,1.8-4,4v155.8"/>
		</g>
		<rect x="6.7" y="3.8" class="st2" width="69.3" height="30"/>
		<path class="st3" d="M205.8,132.5V4c0-2.2-1.8-4-4-4c0,0-69.6,0-128.3,0c-8.7,0-11.8,13-19,13c-18,0-49.9,0-50,0c-2.2,0-4,1.8-4,4
			v115.5H205.8z"/>
	</g>
</g>
</svg>
