<?xml version="1.0" encoding="utf-8"?>
<!-- Generator: Adobe Illustrator 16.0.0, SVG Export Plug-In . SVG Version: 6.00 Build 0)  -->
<!DOCTYPE svg PUBLIC "-//W3C//DTD SVG 1.0//EN" "http://www.w3.org/TR/2001/REC-SVG-20010904/DTD/svg10.dtd">
<svg version="1.0" id="Layer_1" xmlns="http://www.w3.org/2000/svg" xmlns:xlink="http://www.w3.org/1999/xlink" x="0px" y="0px"
	 width="18px" height="18px" viewBox="0 0 18 18" enable-background="new 0 0 18 18" xml:space="preserve">
<path fill="#FFFFFF" d="M17.296,10.176l-0.958-0.354c0.077-0.697,0.051-1.41-0.079-2.117l0.925-0.427
	c0.577-0.265,0.83-0.952,0.563-1.528l-0.539-1.172C16.941,4,16.257,3.746,15.68,4.013L14.753,4.44
	c-0.452-0.561-0.979-1.041-1.556-1.438l0.354-0.956c0.221-0.599-0.085-1.262-0.683-1.48L11.659,0.12
	c-0.58-0.214-1.269,0.104-1.479,0.682L9.825,1.756c-0.697-0.074-1.409-0.05-2.117,0.081L7.282,0.912
	c-0.267-0.578-0.95-0.831-1.528-0.565l-1.172,0.54C4.005,1.154,3.75,1.84,4.016,2.417l0.429,0.925
	C3.885,3.795,3.403,4.318,3.007,4.9L2.05,4.545C1.473,4.331,0.782,4.649,0.57,5.226L0.122,6.438C0.015,6.727,0.026,7.04,0.155,7.32
	c0.132,0.278,0.36,0.492,0.648,0.599L1.76,8.272c-0.076,0.698-0.05,1.41,0.08,2.117l-0.924,0.426
	c-0.578,0.268-0.831,0.953-0.564,1.527l0.539,1.174c0.268,0.576,0.952,0.83,1.529,0.564l0.926-0.43
	c0.452,0.562,0.979,1.043,1.556,1.439l-0.353,0.957c-0.106,0.289-0.095,0.602,0.034,0.883c0.13,0.279,0.356,0.492,0.646,0.6
	l1.211,0.445c0.289,0.107,0.604,0.096,0.881-0.033c0.279-0.129,0.492-0.357,0.6-0.646l0.354-0.959
	c0.697,0.076,1.409,0.052,2.118-0.08l0.426,0.925c0.266,0.577,0.949,0.832,1.527,0.563l1.172-0.539
	c0.578-0.269,0.83-0.953,0.565-1.529l-0.429-0.926c0.561-0.453,1.041-0.979,1.437-1.558l0.959,0.354
	c0.288,0.105,0.604,0.094,0.884-0.035c0.279-0.127,0.49-0.359,0.598-0.646l0.447-1.212C18.198,11.061,17.891,10.396,17.296,10.176z
	 M10.957,13.188c-0.604,0.279-1.245,0.42-1.905,0.42c-1.773,0-3.398-1.041-4.143-2.65C3.858,8.672,4.86,5.959,7.142,4.908
	c0.604-0.278,1.245-0.42,1.904-0.42c1.772,0,3.399,1.041,4.144,2.651C14.239,9.424,13.239,12.137,10.957,13.188z"/>
</svg>
