<?xml version="1.0" encoding="utf-8"?>
<!-- Generator: Adobe Illustrator 16.0.0, SVG Export Plug-In . SVG Version: 6.00 Build 0)  -->
<!DOCTYPE svg PUBLIC "-//W3C//DTD SVG 1.0//EN" "http://www.w3.org/TR/2001/REC-SVG-20010904/DTD/svg10.dtd">
<svg version="1.0" id="Layer_1" xmlns="http://www.w3.org/2000/svg" xmlns:xlink="http://www.w3.org/1999/xlink" x="0px" y="0px"
	 width="18px" height="18px" viewBox="0 0 18 18" enable-background="new 0 0 18 18" xml:space="preserve">
<path fill="#FFFFFF" d="M8.929,0.101c-4.94,0.066-8.893,4.127-8.828,9.07c0.065,4.938,4.126,8.894,9.069,8.828
	c4.941-0.063,8.891-4.126,8.829-9.068C17.932,3.99,13.87,0.036,8.929,0.101 M8.902,14.498H8.853
	c-0.761-0.021-1.296-0.585-1.276-1.335c0.021-0.736,0.571-1.271,1.307-1.271l0.045,0.002c0.782,0.02,1.312,0.578,1.292,1.347
	C10.198,13.982,9.656,14.498,8.902,14.498 M12.105,8.144c-0.182,0.254-0.572,0.571-1.068,0.957l-0.545,0.377
	c-0.305,0.234-0.482,0.452-0.553,0.667c-0.053,0.174-0.078,0.217-0.082,0.561v0.088H7.771l0.008-0.177
	c0.024-0.726,0.042-1.15,0.342-1.504C8.594,8.557,9.633,7.89,9.677,7.859c0.148-0.112,0.275-0.238,0.369-0.376
	c0.22-0.302,0.313-0.539,0.313-0.773c0-0.321-0.096-0.623-0.285-0.89c-0.184-0.256-0.53-0.387-1.031-0.387
	c-0.497,0-0.839,0.156-1.043,0.48C7.791,6.247,7.684,6.599,7.684,6.956v0.09h-2.15l0.005-0.094c0.058-1.316,0.525-2.266,1.396-2.818
	c0.548-0.353,1.229-0.532,2.024-0.532c1.039,0,1.918,0.254,2.609,0.752c0.699,0.505,1.057,1.262,1.057,2.249
	C12.622,7.155,12.448,7.674,12.105,8.144"/>
</svg>
