<?xml version="1.0" encoding="utf-8"?>
<!-- Generator: Adobe Illustrator 16.0.0, SVG Export Plug-In . SVG Version: 6.00 Build 0)  -->
<!DOCTYPE svg PUBLIC "-//W3C//DTD SVG 1.0//EN" "http://www.w3.org/TR/2001/REC-SVG-20010904/DTD/svg10.dtd">
<svg version="1.0" id="Layer_1" xmlns="http://www.w3.org/2000/svg" xmlns:xlink="http://www.w3.org/1999/xlink" x="0px" y="0px"
	 width="18px" height="18px" viewBox="0 0 18 18" enable-background="new 0 0 18 18" xml:space="preserve">
<g>
	<path fill="#FFFFFF" d="M5.369,5.715c0.063,0.287,0.166,0.473,0.284,0.587c0.281,1.842,2.035,3.41,3.445,3.345
		c1.792-0.082,3.062-1.904,3.347-3.345c0.117-0.115,0.23-0.359,0.301-0.647c0.074-0.332,0.156-0.83-0.055-1.095
		c-0.01-0.015-0.092-0.083-0.104-0.096c0.199-0.684,0.643-1.907-0.459-3.004c-0.6-0.596-1.428-0.894-2.178-1.132
		c-2.216-0.694-3.778,0.28-4.498,1.907C5.4,2.349,5.064,3.079,5.472,4.466C5.431,4.49,5.396,4.523,5.365,4.562
		C5.154,4.824,5.292,5.385,5.369,5.715z"/>
	<path fill="#FFFFFF" d="M16.82,15.842c-0.062-1.268-0.139-3.275-1.312-4.919c0,0-0.334-0.431-1.131-0.717
		c0,0-1.727-0.495-2.521-1.03L11.496,9.41l0.039,2.221l-2.179,5.479c-0.049,0.123-0.17,0.201-0.305,0.201
		c-0.137,0-0.26-0.078-0.307-0.201l-2.179-5.479c0,0,0.041-2.214,0.041-2.221C6.61,9.428,6.242,9.176,6.242,9.176
		c-0.793,0.535-2.521,1.03-2.521,1.03c-0.793,0.286-1.129,0.717-1.129,0.717c-1.174,1.644-1.252,3.651-1.313,4.919
		c-0.043,0.876,0.151,1.202,0.397,1.297c3.039,1.148,11.706,1.148,14.745,0C16.668,17.044,16.861,16.718,16.82,15.842z"/>
	<path fill="#FFFFFF" d="M9.128,10.354l-0.101,0.002c-0.313,0-0.637-0.057-0.948-0.158l0.862,1.244l-0.772,0.705l0.797,4.563
		c0.008,0.039,0.043,0.065,0.086,0.065c0.041,0,0.078-0.026,0.084-0.065l0.798-4.563l-0.774-0.705l0.852-1.226
		C9.73,10.292,9.437,10.342,9.128,10.354z"/>
</g>
</svg>
