<!-- Generator: Adobe Illustrator 21.0.0, SVG Export Plug-In  -->
<svg version="1.1"
	 xmlns="http://www.w3.org/2000/svg" xmlns:xlink="http://www.w3.org/1999/xlink" xmlns:a="http://ns.adobe.com/AdobeSVGViewerExtensions/3.0/"
	 x="0px" y="0px" width="318.4px" height="250.7px" viewBox="0 0 318.4 250.7" enable-background="new 0 0 318.4 250.7"
	 xml:space="preserve">
<defs>
</defs>
<g>
	<rect fill="#F2F1F2" width="318.4" height="246.1"/>
	<text transform="matrix(1 0 0 1 20.6821 21.604)"><tspan x="0" y="0" fill="#414142" font-family="'Arial-BoldMT'" font-size="12px">Related Links</tspan><tspan x="78" y="0" fill="#414142" font-family="'ArialMT'" font-size="12px"> (ihs-type-body Bold ihs-color-g5)</tspan></text>
	<text transform="matrix(1 0 0 1 21.6821 41.604)"><tspan x="0" y="0" fill="#1465B1" font-family="'Arial-BoldMT'" font-size="12px">Link </tspan><tspan x="28" y="0" fill="#1465B1" font-family="'ArialMT'" font-size="12px"> (ihs-type-body ihs-color-g1)</tspan></text>
	<text transform="matrix(1 0 0 1 21.6821 58.9373)"><tspan x="0" y="0" fill="#1465B1" font-family="'Arial-BoldMT'" font-size="12px">Link </tspan><tspan x="28" y="0" fill="#1465B1" font-family="'ArialMT'" font-size="12px"> </tspan></text>
	<text transform="matrix(1 0 0 1 21.6821 76.2705)" fill="#1465B1" font-family="'Arial-BoldMT'" font-size="12px">Link </text>
	<text transform="matrix(1 0 0 1 21.6821 93.604)"><tspan x="0" y="0" fill="#1465B1" font-family="'Arial-BoldMT'" font-size="12px">Link </tspan><tspan x="28" y="0" fill="#1465B1" font-family="'ArialMT'" font-size="12px"> </tspan></text>
	<text transform="matrix(1 0 0 1 21.6821 144.9373)" fill="#414142" font-family="'Arial-BoldMT'" font-size="12px">Latest Transactions</text>
	<rect x="21.7" y="153.6" fill="none" width="285.2" height="58"/>
	<text transform="matrix(1 0 0 1 21.6816 163.9373)"><tspan x="0" y="0" fill="#1465B1" font-family="'Arial-BoldMT'" font-size="12px">Atracium</tspan><tspan x="52" y="0" fill="#1465B1" font-family="'Arial-BoldMT'" font-size="12px" letter-spacing="16">	</tspan><tspan x="72" y="0" fill="#1465B1" font-family="'Arial-BoldMT'" font-size="12px"> </tspan><tspan x="0" y="14.4" fill="#414142" font-family="'ArialMT'" font-size="12px">South Korea</tspan><tspan x="66.7" y="14.4" fill="#414142" font-family="'ArialMT'" font-size="12px" letter-spacing="1">	</tspan><tspan x="72" y="14.4" fill="#414142" font-family="'ArialMT'" font-size="12px" letter-spacing="32">	</tspan><tspan x="108" y="14.4" fill="#414142" font-family="'ArialMT'" font-size="12px">Retail Price: KRW 1,632.00</tspan></text>
	<rect x="21.7" y="192.6" fill="none" width="285.2" height="58"/>
	<text transform="matrix(1 0 0 1 21.6816 202.9373)"><tspan x="0" y="0" fill="#1465B1" font-family="'Arial-BoldMT'" font-size="12px">Atracium</tspan><tspan x="52" y="0" fill="#1465B1" font-family="'Arial-BoldMT'" font-size="12px" letter-spacing="16">	</tspan><tspan x="72" y="0" fill="#1465B1" font-family="'Arial-BoldMT'" font-size="12px"> </tspan><tspan x="0" y="14.4" fill="#414142" font-family="'ArialMT'" font-size="12px">South Korea</tspan><tspan x="66.7" y="14.4" fill="#414142" font-family="'ArialMT'" font-size="12px" letter-spacing="1">	</tspan><tspan x="72" y="14.4" fill="#414142" font-family="'ArialMT'" font-size="12px" letter-spacing="32">	</tspan><tspan x="108" y="14.4" fill="#414142" font-family="'ArialMT'" font-size="12px">Retail Price: KRW 1,632.00</tspan></text>
</g>
</svg>
