<svg xmlns="http://www.w3.org/2000/svg" viewBox="0 0 15.5 12"><title>Asset 82</title><g id="Layer_2" data-name="Layer 2"><g id="Layer_1-2" data-name="Layer 1"><path d="M7.22,5.3a1.09,1.09,0,0,1,.21.32A1,1,0,0,1,7.5,6a1,1,0,0,1-.07.38,1.07,1.07,0,0,1-.21.33l-5,5a.88.88,0,0,1-.31.22,1,1,0,0,1-.38.07.89.89,0,0,1-.37-.08,1,1,0,0,1-.31-.22l-.59-.57a1.07,1.07,0,0,1-.21-.33,1,1,0,0,1,0-.75.94.94,0,0,1,.21-.32L4,6,.28,2.26a1.07,1.07,0,0,1-.21-.33,1,1,0,0,1,0-.75A.94.94,0,0,1,.28.87L.87.28a.82.82,0,0,1,.3-.21A1,1,0,0,1,1.55,0a1,1,0,0,1,.38.07,1,1,0,0,1,.31.21Z" style="fill:#acb0b5"/><path d="M15.22,5.3a1.09,1.09,0,0,1,.21.32A1,1,0,0,1,15.5,6a1,1,0,0,1-.07.38,1.07,1.07,0,0,1-.21.33l-5,5a.88.88,0,0,1-.31.22,1,1,0,0,1-.38.07.89.89,0,0,1-.37-.08,1,1,0,0,1-.31-.22l-.59-.57a1.07,1.07,0,0,1-.21-.33,1,1,0,0,1,0-.75.94.94,0,0,1,.21-.32L12,6,8.28,2.26a1.07,1.07,0,0,1-.21-.33,1,1,0,0,1,0-.75A.94.94,0,0,1,8.28.87L8.87.28a.82.82,0,0,1,.3-.21A1,1,0,0,1,9.55,0a1,1,0,0,1,.38.07,1,1,0,0,1,.31.21Z" style="fill:#acb0b5"/></g></g></svg>