<svg xmlns="http://www.w3.org/2000/svg" viewBox="0 0 5 8.87"><title>Caret-base</title><g id="Layer_2" data-name="Layer 2"><g id="Layer_1-2" data-name="Layer 1"><path d="M.94,8.71a.57.57,0,0,1-.18.12.52.52,0,0,1-.21,0,.5.5,0,0,1-.21,0,.71.71,0,0,1-.18-.12A.71.71,0,0,1,0,8.53a.5.5,0,0,1,0-.21V.55A.53.53,0,0,1,0,.34.57.57,0,0,1,.16.16.57.57,0,0,1,.35,0,.56.56,0,0,1,.55,0,.59.59,0,0,1,.77,0,.47.47,0,0,1,.94.16L4.83,4A.51.51,0,0,1,5,4.22a.52.52,0,0,1,0,.21.5.5,0,0,1,0,.21.62.62,0,0,1-.13.18Z" style="fill:#009697"/></g></g></svg>