<svg xmlns="http://www.w3.org/2000/svg" viewBox="0 0 8 14.2"><title>Caret-lg</title><g id="Layer_2" data-name="Layer 2"><g id="Layer_1-2" data-name="Layer 1"><path d="M1.51,13.93a.91.91,0,0,1-.28.19.84.84,0,0,1-.34.07.79.79,0,0,1-.33-.07,1.14,1.14,0,0,1-.29-.19,1.14,1.14,0,0,1-.19-.29A.79.79,0,0,1,0,13.31V.89A.84.84,0,0,1,.07.55.92.92,0,0,1,.26.26.91.91,0,0,1,.55.06.89.89,0,0,1,.89,0a.94.94,0,0,1,.34.06.75.75,0,0,1,.28.2L7.72,6.47a.81.81,0,0,1,.21.28A.84.84,0,0,1,8,7.1a.79.79,0,0,1-.07.33,1,1,0,0,1-.21.29Z" style="fill:#009697"/></g></g></svg>