<svg xmlns="http://www.w3.org/2000/svg" viewBox="0 0 10 16"><title>Chevron-lg</title><g id="Layer_2" data-name="Layer 2"><g id="Layer_1-2" data-name="Layer 1"><path d="M9.63,7.06a1.45,1.45,0,0,1,.28.43A1.32,1.32,0,0,1,10,8a1.33,1.33,0,0,1-.09.5,1.42,1.42,0,0,1-.28.44L3,15.61a1.18,1.18,0,0,1-.41.3,1.32,1.32,0,0,1-.51.09,1.19,1.19,0,0,1-.49-.1,1.38,1.38,0,0,1-.41-.29l-.78-.77a1.42,1.42,0,0,1-.28-.44,1.38,1.38,0,0,1,0-1A1.25,1.25,0,0,1,.38,13l5-5-5-5a1.42,1.42,0,0,1-.28-.44,1.38,1.38,0,0,1,0-1,1.25,1.25,0,0,1,.28-.42L1.16.38A1.1,1.1,0,0,1,1.56.09,1.33,1.33,0,0,1,2.06,0a1.32,1.32,0,0,1,.51.09A1.27,1.27,0,0,1,3,.38Z" style="fill:#acb0b5"/></g></g></svg>