<svg xmlns="http://www.w3.org/2000/svg" viewBox="0 0 21 21"><title>clear-lg</title><g id="Layer_2" data-name="Layer 2"><g id="Layer_1-2" data-name="Layer 1"><circle cx="10.5" cy="10.5" r="10" style="fill:none;stroke:#acb0b5;stroke-miterlimit:10"/><path d="M16.44,14.2l0,.07a.43.43,0,0,1,0,.21.34.34,0,0,1-.1.19l-1.72,1.72a.34.34,0,0,1-.19.1.43.43,0,0,1-.21,0l-.07,0-.06,0L10.5,12.75,6.86,16.39l-.06,0-.07,0a.43.43,0,0,1-.21,0,.34.34,0,0,1-.19-.1L4.61,14.67a.34.34,0,0,1-.1-.19.43.43,0,0,1,0-.21l0-.07,0-.06L8.25,10.5,4.61,6.86l0-.07,0-.07a.4.4,0,0,1,0-.21.34.34,0,0,1,.1-.19L6.33,4.61a.38.38,0,0,1,.19-.11.39.39,0,0,1,.21,0l.07,0,.06.05L10.5,8.25l3.64-3.63.06-.05.07,0a.39.39,0,0,1,.21,0,.38.38,0,0,1,.19.11l1.72,1.71a.43.43,0,0,1,.09.19.36.36,0,0,1,0,.21l0,.07,0,.07L12.75,10.5l3.64,3.64Z" style="fill:#acb0b5"/></g></g></svg>