<svg xmlns="http://www.w3.org/2000/svg" viewBox="0 0 12 12"><title>Close-lg</title><g id="Layer_2" data-name="Layer 2"><g id="Layer_1-2" data-name="Layer 1"><path d="M11.94,9.7l0,.07A.43.43,0,0,1,12,10a.34.34,0,0,1-.1.19l-1.72,1.72A.34.34,0,0,1,10,12a.43.43,0,0,1-.21,0l-.07,0-.06,0L6,8.25,2.36,11.89l-.06,0-.07,0A.43.43,0,0,1,2,12a.34.34,0,0,1-.19-.1L.11,10.17A.34.34,0,0,1,0,10a.43.43,0,0,1,0-.21l0-.07,0-.06L3.75,6,.11,2.36l0-.07,0-.07A.4.4,0,0,1,0,2a.34.34,0,0,1,.1-.19L1.83.11A.38.38,0,0,1,2,0a.39.39,0,0,1,.21,0l.07,0,.06.05L6,3.75,9.64.11,9.7.06l.07,0A.39.39,0,0,1,10,0a.38.38,0,0,1,.19.11l1.72,1.71A.43.43,0,0,1,12,2a.36.36,0,0,1,0,.21l0,.07,0,.07L8.25,6l3.64,3.64Z" style="fill:#acb0b5"/></g></g></svg>