<svg xmlns="http://www.w3.org/2000/svg" viewBox="0 0 1366 1134.23"><defs><style>.cls-1{fill:#84888d;}.cls-2{fill:#c1c5ca;}.cls-10,.cls-3{fill:#fff;}.cls-4{fill:#cf1034;}.cls-11,.cls-5,.cls-6,.cls-7,.cls-8,.cls-9{fill:none;}.cls-12,.cls-5,.cls-9{stroke:#fff;}.cls-11,.cls-5,.cls-6,.cls-7,.cls-9{stroke-linecap:round;}.cls-10,.cls-11,.cls-12,.cls-5,.cls-6,.cls-7,.cls-8,.cls-9{stroke-miterlimit:10;}.cls-5{stroke-width:6px;}.cls-11,.cls-6{stroke:#acb0b5;}.cls-6,.cls-9{stroke-width:7px;}.cls-7{stroke:#c1c5ca;}.cls-8{stroke:#84888d;}.cls-10,.cls-8{stroke-width:2px;}.cls-10{stroke:#000;}.cls-11{stroke-width:4px;}</style></defs><title>Content first 1 dont</title><g id="Layer_2" data-name="Layer 2"><g id="Layer_1-2" data-name="Layer 1"><rect class="cls-1" y="1056" width="1366" height="24"/><rect class="cls-2" x="0.5" y="0.5" width="1365" height="89"/><path class="cls-3" d="M1365,1V89H1V1H1365m1-1H0V90H1366V0Z"/><rect class="cls-1" y="65" width="1366" height="24"/><rect class="cls-4" x="22" y="1095" width="1311" height="15"/><path class="cls-4" d="M643,1134v-14.32H648a12,12,0,0,1,2.55.21,4.84,4.84,0,0,1,2.1,1,5.82,5.82,0,0,1,1.69,2.45,9.6,9.6,0,0,1,.56,3.4,10,10,0,0,1-.38,2.89,7,7,0,0,1-1,2.08,5.18,5.18,0,0,1-1.3,1.3,5.33,5.33,0,0,1-1.71.72,9.74,9.74,0,0,1-2.3.24Zm1.89-1.69H648a7.42,7.42,0,0,0,2.22-.26,3.17,3.17,0,0,0,1.28-.74,4.51,4.51,0,0,0,1-1.81,8.86,8.86,0,0,0,.38-2.76,6.66,6.66,0,0,0-.74-3.45,3.71,3.71,0,0,0-1.79-1.62,7.41,7.41,0,0,0-2.45-.29h-3Z"/><path class="cls-4" d="M656.61,1128.81a5.35,5.35,0,0,1,1.6-4.27,4.82,4.82,0,0,1,3.26-1.15,4.65,4.65,0,0,1,3.5,1.4,5.33,5.33,0,0,1,1.36,3.87,6.86,6.86,0,0,1-.6,3.15,4.25,4.25,0,0,1-1.75,1.78,5.09,5.09,0,0,1-2.5.63,4.66,4.66,0,0,1-3.52-1.4A5.58,5.58,0,0,1,656.61,1128.81Zm1.81,0a4.42,4.42,0,0,0,.87,3,2.89,2.89,0,0,0,4.37,0,4.52,4.52,0,0,0,.87-3,4.29,4.29,0,0,0-.87-2.92,2.9,2.9,0,0,0-4.36,0A4.4,4.4,0,0,0,658.41,1128.81Z"/><path class="cls-4" d="M668.38,1134v-10.37H670v1.47a3.73,3.73,0,0,1,3.3-1.71,4.33,4.33,0,0,1,1.72.34,2.71,2.71,0,0,1,1.18.88,3.39,3.39,0,0,1,.55,1.3,10.08,10.08,0,0,1,.1,1.71V1134h-1.76v-6.31a4.74,4.74,0,0,0-.21-1.61,1.69,1.69,0,0,0-.73-.85,2.31,2.31,0,0,0-1.23-.32,2.85,2.85,0,0,0-1.94.71,3.52,3.52,0,0,0-.82,2.71V1134Z"/><path class="cls-4" d="M679.4,1121.58v-2h1.88v1.61a4.31,4.31,0,0,1-.3,1.88,2.66,2.66,0,0,1-1.31,1.19l-.43-.69a1.53,1.53,0,0,0,.79-.68,2.85,2.85,0,0,0,.29-1.27Z"/><path class="cls-4" d="M687.79,1132.43,688,1134a6.5,6.5,0,0,1-1.33.16,3,3,0,0,1-1.48-.3,1.69,1.69,0,0,1-.74-.8,6.29,6.29,0,0,1-.21-2.08v-6H683v-1.37h1.29v-2.57L686,1120v3.62h1.77V1125H686v6.06a3.09,3.09,0,0,0,.09,1,.74.74,0,0,0,.3.34,1.17,1.17,0,0,0,.6.13A5.67,5.67,0,0,0,687.79,1132.43Z"/><rect class="cls-1" x="19.5" y="100.5" width="367.5" height="944" rx="2" ry="2"/><rect class="cls-3" x="41" y="151" width="325" height="870"/><line class="cls-5" x1="41" y1="125" x2="172" y2="125"/><line class="cls-6" x1="94.74" y1="170.5" x2="322.65" y2="170.5"/><line class="cls-6" x1="113.51" y1="196.5" x2="322.65" y2="196.5"/><line class="cls-6" x1="113.51" y1="222.5" x2="322.65" y2="222.5"/><line class="cls-6" x1="113.51" y1="248.5" x2="322.65" y2="248.5"/><line class="cls-6" x1="113.51" y1="274.5" x2="322.65" y2="274.5"/><line class="cls-6" x1="94.74" y1="324.5" x2="322.65" y2="324.5"/><line class="cls-6" x1="113.51" y1="350.5" x2="322.65" y2="350.5"/><line class="cls-6" x1="113.51" y1="376.5" x2="322.65" y2="376.5"/><line class="cls-6" x1="113.51" y1="402.5" x2="322.65" y2="402.5"/><line class="cls-6" x1="113.51" y1="428.5" x2="322.65" y2="428.5"/><line class="cls-6" x1="94.74" y1="476.5" x2="322.65" y2="476.5"/><line class="cls-6" x1="113.51" y1="502.5" x2="322.65" y2="502.5"/><line class="cls-6" x1="113.51" y1="528.5" x2="322.65" y2="528.5"/><line class="cls-6" x1="113.51" y1="554.5" x2="322.65" y2="554.5"/><line class="cls-6" x1="113.51" y1="580.5" x2="322.65" y2="580.5"/><line class="cls-6" x1="94.74" y1="628.5" x2="322.65" y2="628.5"/><line class="cls-6" x1="94.74" y1="662.5" x2="322.65" y2="662.5"/><line class="cls-6" x1="94.74" y1="694.5" x2="322.65" y2="694.5"/><line class="cls-6" x1="94.74" y1="728.5" x2="322.65" y2="728.5"/><line class="cls-6" x1="94.74" y1="762.5" x2="322.65" y2="762.5"/><line class="cls-7" x1="365.38" y1="302.5" x2="41.64" y2="302.5"/><line class="cls-7" x1="365.38" y1="452.5" x2="41.64" y2="452.5"/><line class="cls-7" x1="365.38" y1="602.5" x2="41.64" y2="602.5"/><line class="cls-7" x1="365.38" y1="645.5" x2="41.64" y2="645.5"/><line class="cls-7" x1="365.38" y1="678.5" x2="41.64" y2="678.5"/><line class="cls-7" x1="365.38" y1="711.5" x2="41.64" y2="711.5"/><line class="cls-7" x1="365.38" y1="745.5" x2="41.64" y2="745.5"/><line class="cls-7" x1="365.38" y1="790.5" x2="41.64" y2="790.5"/><rect class="cls-1" x="404.5" y="101.5" width="942.5" height="82" rx="2" ry="2"/><rect class="cls-3" x="427" y="120" width="179" height="44" rx="12" ry="12"/><rect class="cls-3" x="622" y="120" width="179" height="44" rx="12" ry="12"/><rect class="cls-3" x="818" y="120" width="179" height="44" rx="12" ry="12"/><rect class="cls-3" x="1015" y="120" width="179" height="44" rx="12" ry="12"/><line class="cls-6" x1="456.51" y1="142.5" x2="568.5" y2="142.5"/><line class="cls-6" x1="650.51" y1="142.5" x2="762.5" y2="142.5"/><line class="cls-6" x1="851.51" y1="142.5" x2="963.5" y2="142.5"/><line class="cls-6" x1="1048.51" y1="142.5" x2="1160.5" y2="142.5"/><rect class="cls-8" x="404" y="222" width="943" height="568" rx="5" ry="5"/><rect x="404" y="221" width="943" height="53"/><line class="cls-9" x1="426.51" y1="245.5" x2="538.5" y2="245.5"/><line class="cls-9" x1="571.51" y1="245.5" x2="683.5" y2="245.5"/><line class="cls-9" x1="725.51" y1="245.5" x2="837.5" y2="245.5"/><line class="cls-9" x1="865.51" y1="245.5" x2="977.5" y2="245.5"/><line class="cls-9" x1="1014.51" y1="245.5" x2="1126.5" y2="245.5"/><line class="cls-9" x1="1160.51" y1="245.5" x2="1272.5" y2="245.5"/><line class="cls-10" x1="553.5" y1="220.5" x2="553.5" y2="789.5"/><line class="cls-10" x1="1347" y1="297" x2="405" y2="297"/><line class="cls-10" x1="703" y1="221" x2="703" y2="790"/><line class="cls-10" x1="852" y1="221" x2="852" y2="790"/><line class="cls-10" x1="997" y1="221" x2="997" y2="790"/><line class="cls-10" x1="1141" y1="221" x2="1141" y2="790"/><line class="cls-11" x1="417" y1="285" x2="513" y2="285"/><line class="cls-11" x1="569" y1="285" x2="665" y2="285"/><line class="cls-11" x1="717" y1="285" x2="813" y2="285"/><line class="cls-11" x1="864" y1="285" x2="960" y2="285"/><line class="cls-11" x1="1009" y1="285" x2="1105" y2="285"/><line class="cls-11" x1="1154" y1="285" x2="1330" y2="285"/><line class="cls-10" x1="1347" y1="321" x2="405" y2="321"/><line class="cls-11" x1="417" y1="309" x2="513" y2="309"/><line class="cls-11" x1="569" y1="309" x2="665" y2="309"/><line class="cls-11" x1="717" y1="309" x2="813" y2="309"/><line class="cls-11" x1="864" y1="309" x2="960" y2="309"/><line class="cls-11" x1="1009" y1="309" x2="1105" y2="309"/><line class="cls-11" x1="1154" y1="309" x2="1330" y2="309"/><line class="cls-10" x1="1347" y1="345" x2="405" y2="345"/><line class="cls-11" x1="417" y1="333" x2="513" y2="333"/><line class="cls-11" x1="569" y1="333" x2="665" y2="333"/><line class="cls-11" x1="717" y1="333" x2="813" y2="333"/><line class="cls-11" x1="864" y1="333" x2="960" y2="333"/><line class="cls-11" x1="1009" y1="333" x2="1105" y2="333"/><line class="cls-11" x1="1154" y1="333" x2="1330" y2="333"/><line class="cls-10" x1="1347" y1="369" x2="405" y2="369"/><line class="cls-11" x1="417" y1="357" x2="513" y2="357"/><line class="cls-11" x1="569" y1="357" x2="665" y2="357"/><line class="cls-11" x1="717" y1="357" x2="813" y2="357"/><line class="cls-11" x1="864" y1="357" x2="960" y2="357"/><line class="cls-11" x1="1009" y1="357" x2="1105" y2="357"/><line class="cls-11" x1="1154" y1="357" x2="1330" y2="357"/><line class="cls-10" x1="1347" y1="393" x2="405" y2="393"/><line class="cls-11" x1="417" y1="381" x2="513" y2="381"/><line class="cls-11" x1="569" y1="381" x2="665" y2="381"/><line class="cls-11" x1="717" y1="381" x2="813" y2="381"/><line class="cls-11" x1="864" y1="381" x2="960" y2="381"/><line class="cls-11" x1="1009" y1="381" x2="1105" y2="381"/><line class="cls-11" x1="1154" y1="381" x2="1330" y2="381"/><line class="cls-10" x1="1347" y1="417" x2="405" y2="417"/><line class="cls-11" x1="417" y1="405" x2="513" y2="405"/><line class="cls-11" x1="569" y1="405" x2="665" y2="405"/><line class="cls-11" x1="717" y1="405" x2="813" y2="405"/><line class="cls-11" x1="864" y1="405" x2="960" y2="405"/><line class="cls-11" x1="1009" y1="405" x2="1105" y2="405"/><line class="cls-11" x1="1154" y1="405" x2="1330" y2="405"/><line class="cls-10" x1="1347" y1="441" x2="405" y2="441"/><line class="cls-11" x1="417" y1="429" x2="513" y2="429"/><line class="cls-11" x1="569" y1="429" x2="665" y2="429"/><line class="cls-11" x1="717" y1="429" x2="813" y2="429"/><line class="cls-11" x1="864" y1="429" x2="960" y2="429"/><line class="cls-11" x1="1009" y1="429" x2="1105" y2="429"/><line class="cls-11" x1="1154" y1="429" x2="1330" y2="429"/><line class="cls-10" x1="1347" y1="465" x2="405" y2="465"/><line class="cls-11" x1="417" y1="453" x2="513" y2="453"/><line class="cls-11" x1="569" y1="453" x2="665" y2="453"/><line class="cls-11" x1="717" y1="453" x2="813" y2="453"/><line class="cls-11" x1="864" y1="453" x2="960" y2="453"/><line class="cls-11" x1="1009" y1="453" x2="1105" y2="453"/><line class="cls-11" x1="1154" y1="453" x2="1330" y2="453"/><line class="cls-10" x1="1347" y1="489" x2="405" y2="489"/><line class="cls-11" x1="417" y1="477" x2="513" y2="477"/><line class="cls-11" x1="569" y1="477" x2="665" y2="477"/><line class="cls-11" x1="717" y1="477" x2="813" y2="477"/><line class="cls-11" x1="864" y1="477" x2="960" y2="477"/><line class="cls-11" x1="1009" y1="477" x2="1105" y2="477"/><line class="cls-11" x1="1154" y1="477" x2="1330" y2="477"/><line class="cls-10" x1="1347" y1="513" x2="405" y2="513"/><line class="cls-11" x1="417" y1="501" x2="513" y2="501"/><line class="cls-11" x1="569" y1="501" x2="665" y2="501"/><line class="cls-11" x1="717" y1="501" x2="813" y2="501"/><line class="cls-11" x1="864" y1="501" x2="960" y2="501"/><line class="cls-11" x1="1009" y1="501" x2="1105" y2="501"/><line class="cls-11" x1="1154" y1="501" x2="1330" y2="501"/><line class="cls-10" x1="1347" y1="537" x2="405" y2="537"/><line class="cls-11" x1="417" y1="525" x2="513" y2="525"/><line class="cls-11" x1="569" y1="525" x2="665" y2="525"/><line class="cls-11" x1="717" y1="525" x2="813" y2="525"/><line class="cls-11" x1="864" y1="525" x2="960" y2="525"/><line class="cls-11" x1="1009" y1="525" x2="1105" y2="525"/><line class="cls-11" x1="1154" y1="525" x2="1330" y2="525"/><line class="cls-10" x1="1347" y1="561" x2="405" y2="561"/><line class="cls-11" x1="417" y1="549" x2="513" y2="549"/><line class="cls-11" x1="569" y1="549" x2="665" y2="549"/><line class="cls-11" x1="717" y1="549" x2="813" y2="549"/><line class="cls-11" x1="864" y1="549" x2="960" y2="549"/><line class="cls-11" x1="1009" y1="549" x2="1105" y2="549"/><line class="cls-11" x1="1154" y1="549" x2="1330" y2="549"/><line class="cls-10" x1="1347" y1="585" x2="405" y2="585"/><line class="cls-11" x1="417" y1="573" x2="513" y2="573"/><line class="cls-11" x1="569" y1="573" x2="665" y2="573"/><line class="cls-11" x1="717" y1="573" x2="813" y2="573"/><line class="cls-11" x1="864" y1="573" x2="960" y2="573"/><line class="cls-11" x1="1009" y1="573" x2="1105" y2="573"/><line class="cls-11" x1="1154" y1="573" x2="1330" y2="573"/><line class="cls-10" x1="1347" y1="609" x2="405" y2="609"/><line class="cls-11" x1="417" y1="597" x2="513" y2="597"/><line class="cls-11" x1="569" y1="597" x2="665" y2="597"/><line class="cls-11" x1="717" y1="597" x2="813" y2="597"/><line class="cls-11" x1="864" y1="597" x2="960" y2="597"/><line class="cls-11" x1="1009" y1="597" x2="1105" y2="597"/><line class="cls-11" x1="1154" y1="597" x2="1330" y2="597"/><line class="cls-10" x1="1347" y1="633" x2="405" y2="633"/><line class="cls-11" x1="417" y1="621" x2="513" y2="621"/><line class="cls-11" x1="569" y1="621" x2="665" y2="621"/><line class="cls-11" x1="717" y1="621" x2="813" y2="621"/><line class="cls-11" x1="864" y1="621" x2="960" y2="621"/><line class="cls-11" x1="1009" y1="621" x2="1105" y2="621"/><line class="cls-11" x1="1154" y1="621" x2="1330" y2="621"/><line class="cls-10" x1="1347" y1="657" x2="405" y2="657"/><line class="cls-11" x1="417" y1="645" x2="513" y2="645"/><line class="cls-11" x1="569" y1="645" x2="665" y2="645"/><line class="cls-11" x1="717" y1="645" x2="813" y2="645"/><line class="cls-11" x1="864" y1="645" x2="960" y2="645"/><line class="cls-11" x1="1009" y1="645" x2="1105" y2="645"/><line class="cls-11" x1="1154" y1="645" x2="1330" y2="645"/><line class="cls-10" x1="1347" y1="681" x2="405" y2="681"/><line class="cls-11" x1="417" y1="669" x2="513" y2="669"/><line class="cls-11" x1="569" y1="669" x2="665" y2="669"/><line class="cls-11" x1="717" y1="669" x2="813" y2="669"/><line class="cls-11" x1="864" y1="669" x2="960" y2="669"/><line class="cls-11" x1="1009" y1="669" x2="1105" y2="669"/><line class="cls-11" x1="1154" y1="669" x2="1330" y2="669"/><line class="cls-10" x1="1347" y1="705" x2="405" y2="705"/><line class="cls-11" x1="417" y1="693" x2="513" y2="693"/><line class="cls-11" x1="569" y1="693" x2="665" y2="693"/><line class="cls-11" x1="717" y1="693" x2="813" y2="693"/><line class="cls-11" x1="864" y1="693" x2="960" y2="693"/><line class="cls-11" x1="1009" y1="693" x2="1105" y2="693"/><line class="cls-11" x1="1154" y1="693" x2="1330" y2="693"/><line class="cls-10" x1="1347" y1="729" x2="405" y2="729"/><line class="cls-11" x1="417" y1="717" x2="513" y2="717"/><line class="cls-11" x1="569" y1="717" x2="665" y2="717"/><line class="cls-11" x1="717" y1="717" x2="813" y2="717"/><line class="cls-11" x1="864" y1="717" x2="960" y2="717"/><line class="cls-11" x1="1009" y1="717" x2="1105" y2="717"/><line class="cls-11" x1="1154" y1="717" x2="1330" y2="717"/><line class="cls-10" x1="1347" y1="753" x2="405" y2="753"/><line class="cls-11" x1="417" y1="741" x2="513" y2="741"/><line class="cls-11" x1="569" y1="741" x2="665" y2="741"/><line class="cls-11" x1="717" y1="741" x2="813" y2="741"/><line class="cls-11" x1="864" y1="741" x2="960" y2="741"/><line class="cls-11" x1="1009" y1="741" x2="1105" y2="741"/><line class="cls-11" x1="1154" y1="741" x2="1330" y2="741"/><line class="cls-10" x1="1347" y1="777" x2="405" y2="777"/><line class="cls-11" x1="417" y1="765" x2="513" y2="765"/><line class="cls-11" x1="569" y1="765" x2="665" y2="765"/><line class="cls-11" x1="717" y1="765" x2="813" y2="765"/><line class="cls-11" x1="864" y1="765" x2="960" y2="765"/><line class="cls-11" x1="1009" y1="765" x2="1105" y2="765"/><line class="cls-11" x1="1154" y1="765" x2="1330" y2="765"/><line class="cls-12" x1="554" y1="274" x2="554" y2="220"/><line class="cls-12" x1="703.5" y1="274" x2="703.5" y2="220"/><line class="cls-12" x1="852" y1="274" x2="852" y2="220"/><line class="cls-12" x1="997.5" y1="274" x2="997.5" y2="220"/><line class="cls-12" x1="1141.5" y1="274" x2="1141.5" y2="220"/></g></g></svg>