<svg xmlns="http://www.w3.org/2000/svg" viewBox="0 0 1311 1026.23"><defs><style>.cls-1{fill:#8dc63f;}.cls-2{fill:#a1abb2;}.cls-3,.cls-5,.cls-6{fill:none;}.cls-3,.cls-8{stroke:#fff;}.cls-3,.cls-5{stroke-linecap:round;stroke-width:7px;}.cls-3,.cls-5,.cls-6,.cls-7,.cls-8{stroke-miterlimit:10;}.cls-4,.cls-8{fill:#84888d;}.cls-5,.cls-6{stroke:#acb0b5;}.cls-7{fill:#fff;stroke:#84888d;}</style></defs><title>Content first 2 do</title><g id="Layer_2" data-name="Layer 2"><g id="Layer_1-2" data-name="Layer 1"><rect class="cls-1" y="987" width="1311" height="15"/><path class="cls-1" d="M634.38,1026v-14.32h4.93a12,12,0,0,1,2.55.21,4.85,4.85,0,0,1,2.1,1,5.82,5.82,0,0,1,1.69,2.45,9.59,9.59,0,0,1,.56,3.4,10,10,0,0,1-.38,2.89,7,7,0,0,1-1,2.08,5.19,5.19,0,0,1-1.3,1.3,5.32,5.32,0,0,1-1.71.72,9.73,9.73,0,0,1-2.3.24Zm1.89-1.69h3.06a7.41,7.41,0,0,0,2.22-.26,3.18,3.18,0,0,0,1.29-.74,4.51,4.51,0,0,0,1-1.81,8.84,8.84,0,0,0,.38-2.76,6.65,6.65,0,0,0-.74-3.45,3.71,3.71,0,0,0-1.79-1.62,7.41,7.41,0,0,0-2.45-.29h-3Z"/><path class="cls-1" d="M647.95,1020.81a5.34,5.34,0,0,1,1.6-4.27,4.82,4.82,0,0,1,3.26-1.15,4.65,4.65,0,0,1,3.5,1.4,5.33,5.33,0,0,1,1.36,3.87,6.86,6.86,0,0,1-.6,3.15,4.25,4.25,0,0,1-1.75,1.78,5.09,5.09,0,0,1-2.5.63,4.67,4.67,0,0,1-3.52-1.4A5.58,5.58,0,0,1,647.95,1020.81Zm1.81,0a4.41,4.41,0,0,0,.87,3,2.89,2.89,0,0,0,4.37,0,4.52,4.52,0,0,0,.87-3,4.28,4.28,0,0,0-.87-2.92,2.9,2.9,0,0,0-4.36,0A4.39,4.39,0,0,0,649.75,1020.81Z"/><rect class="cls-2" x="1080" y="695" width="179" height="44" rx="12" ry="12"/><line class="cls-3" x1="1113.51" y1="717.5" x2="1225.5" y2="717.5"/><path class="cls-4" d="M1304,5.5a1,1,0,0,1,1,1V768a1,1,0,0,1-1,1H8.5a1,1,0,0,1-1-1V6.5a1,1,0,0,1,1-1H1304m0-1H8.5a2,2,0,0,0-2,2V768a2,2,0,0,0,2,2H1304a2,2,0,0,0,2-2V6.5a2,2,0,0,0-2-2Z"/><rect class="cls-4" x="5" width="1300" height="64"/><line class="cls-3" x1="27" y1="29" x2="158" y2="29"/><line class="cls-5" x1="57.5" y1="185.5" x2="188.5" y2="185.5"/><rect class="cls-6" x="57.5" y="217.5" width="332" height="42" rx="4" ry="4"/><rect class="cls-6" x="57.5" y="284.5" width="332" height="42" rx="4" ry="4"/><rect class="cls-6" x="57.5" y="351.5" width="332" height="42" rx="4" ry="4"/><rect class="cls-6" x="57.5" y="415.5" width="332" height="42" rx="4" ry="4"/><rect class="cls-6" x="57.5" y="479.5" width="332" height="42" rx="4" ry="4"/><rect class="cls-6" x="57.5" y="543.5" width="332" height="42" rx="4" ry="4"/><line class="cls-5" x1="490.5" y1="185.5" x2="621.5" y2="185.5"/><rect class="cls-6" x="490.5" y="217.5" width="332" height="42" rx="4" ry="4"/><rect class="cls-6" x="490.5" y="284.5" width="332" height="42" rx="4" ry="4"/><rect class="cls-6" x="490.5" y="351.5" width="332" height="42" rx="4" ry="4"/><rect class="cls-6" x="490.5" y="415.5" width="332" height="42" rx="4" ry="4"/><rect class="cls-6" x="490.5" y="479.5" width="332" height="42" rx="4" ry="4"/><rect class="cls-6" x="490.5" y="543.5" width="332" height="42" rx="4" ry="4"/><line class="cls-5" x1="924.5" y1="185.5" x2="1055.5" y2="185.5"/><rect class="cls-6" x="924.5" y="217.5" width="332" height="42" rx="4" ry="4"/><rect class="cls-6" x="924.5" y="284.5" width="332" height="42" rx="4" ry="4"/><rect class="cls-6" x="924.5" y="351.5" width="332" height="42" rx="4" ry="4"/><rect class="cls-6" x="924.5" y="415.5" width="332" height="42" rx="4" ry="4"/><rect class="cls-6" x="924.5" y="479.5" width="332" height="42" rx="4" ry="4"/><rect class="cls-6" x="924.5" y="543.5" width="332" height="42" rx="4" ry="4"/><rect class="cls-6" x="57.5" y="607.5" width="332" height="42" rx="4" ry="4"/><rect class="cls-6" x="490.5" y="607.5" width="332" height="42" rx="4" ry="4"/><rect class="cls-6" x="924.5" y="607.5" width="332" height="42" rx="4" ry="4"/><path class="cls-7" d="M5,129H35.5V86.66c0-2.33,2.25-4.23,5-4.23h154c2.75,0,5,1.91,5,4.23V129H1305"/><line class="cls-5" x1="52.5" y1="106.5" x2="183.5" y2="106.5"/><path class="cls-8" d="M213.5,129V86.66c0-2.33,2.25-4.23,5-4.23h154c2.75,0,5,1.91,5,4.23V129"/><line class="cls-3" x1="230.5" y1="106.5" x2="361.5" y2="106.5"/><path class="cls-8" d="M389.5,129V86.66c0-2.33,2.25-4.23,5-4.23h154c2.75,0,5,1.91,5,4.23V129"/><line class="cls-3" x1="406.5" y1="106.5" x2="537.5" y2="106.5"/><path class="cls-8" d="M565.5,129V86.66c0-2.33,2.25-4.23,5-4.23h154c2.75,0,5,1.91,5,4.23V129"/><line class="cls-3" x1="582.5" y1="106.5" x2="713.5" y2="106.5"/></g></g></svg>