<svg xmlns="http://www.w3.org/2000/svg" viewBox="0 0 1314 1038.23"><defs><style>.cls-1{fill:#a1abb2;}.cls-2,.cls-8{fill:none;}.cls-2,.cls-6,.cls-9{stroke:#fff;}.cls-2,.cls-6,.cls-8{stroke-linecap:round;stroke-width:7px;}.cls-2,.cls-6,.cls-7,.cls-8,.cls-9{stroke-miterlimit:10;}.cls-3{fill:#cf1034;}.cls-4,.cls-9{fill:#84888d;}.cls-5{fill:#acb0b5;}.cls-6,.cls-7{fill:#fff;}.cls-7{stroke:#84888d;}.cls-8{stroke:#acb0b5;}</style></defs><title>Content first 2 dont</title><g id="Layer_2" data-name="Layer 2"><g id="Layer_1-2" data-name="Layer 1"><rect class="cls-1" x="1092" y="748" width="179" height="44" rx="12" ry="12"/><line class="cls-2" x1="1125.51" y1="770.5" x2="1237.5" y2="770.5"/><rect class="cls-3" x="3" y="999" width="1311" height="15"/><path class="cls-3" d="M624,1038v-14.32H629a12,12,0,0,1,2.55.21,4.84,4.84,0,0,1,2.1,1,5.82,5.82,0,0,1,1.69,2.45,9.6,9.6,0,0,1,.56,3.4,10,10,0,0,1-.38,2.89,7,7,0,0,1-1,2.08,5.18,5.18,0,0,1-1.3,1.3,5.33,5.33,0,0,1-1.71.72,9.74,9.74,0,0,1-2.3.24Zm1.89-1.69H629a7.42,7.42,0,0,0,2.22-.26,3.17,3.17,0,0,0,1.28-.74,4.51,4.51,0,0,0,1-1.81,8.86,8.86,0,0,0,.38-2.76,6.66,6.66,0,0,0-.74-3.45,3.71,3.71,0,0,0-1.79-1.62,7.41,7.41,0,0,0-2.45-.29h-3Z"/><path class="cls-3" d="M637.61,1032.81a5.35,5.35,0,0,1,1.6-4.27,4.82,4.82,0,0,1,3.26-1.15,4.65,4.65,0,0,1,3.5,1.4,5.33,5.33,0,0,1,1.36,3.87,6.86,6.86,0,0,1-.6,3.15,4.25,4.25,0,0,1-1.75,1.78,5.09,5.09,0,0,1-2.5.63,4.66,4.66,0,0,1-3.52-1.4A5.58,5.58,0,0,1,637.61,1032.81Zm1.81,0a4.42,4.42,0,0,0,.87,3,2.89,2.89,0,0,0,4.37,0,4.52,4.52,0,0,0,.87-3,4.29,4.29,0,0,0-.87-2.92,2.9,2.9,0,0,0-4.36,0A4.4,4.4,0,0,0,639.41,1032.81Z"/><path class="cls-3" d="M649.38,1038v-10.37H651v1.47a3.73,3.73,0,0,1,3.3-1.71,4.33,4.33,0,0,1,1.72.34,2.71,2.71,0,0,1,1.18.88,3.39,3.39,0,0,1,.55,1.3,10.08,10.08,0,0,1,.1,1.71V1038h-1.76v-6.31a4.74,4.74,0,0,0-.21-1.61,1.69,1.69,0,0,0-.73-.85,2.31,2.31,0,0,0-1.23-.32,2.85,2.85,0,0,0-1.94.71,3.52,3.52,0,0,0-.82,2.71V1038Z"/><path class="cls-3" d="M660.4,1025.58v-2h1.88v1.61a4.31,4.31,0,0,1-.3,1.88,2.66,2.66,0,0,1-1.31,1.19l-.43-.69a1.53,1.53,0,0,0,.79-.68,2.85,2.85,0,0,0,.29-1.27Z"/><path class="cls-3" d="M668.79,1036.43,669,1038a6.5,6.5,0,0,1-1.33.16,3,3,0,0,1-1.48-.3,1.69,1.69,0,0,1-.74-.8,6.29,6.29,0,0,1-.21-2.08v-6H664v-1.37h1.29v-2.57L667,1024v3.62h1.77V1029H667v6.06a3.09,3.09,0,0,0,.09,1,.74.74,0,0,0,.3.34,1.17,1.17,0,0,0,.6.13A5.67,5.67,0,0,0,668.79,1036.43Z"/><path class="cls-4" d="M1298,5.5a1,1,0,0,1,1,1V812a1,1,0,0,1-1,1H2.5a1,1,0,0,1-1-1V6.5a1,1,0,0,1,1-1H1298m0-1H2.5a2,2,0,0,0-2,2V812a2,2,0,0,0,2,2H1298a2,2,0,0,0,2-2V6.5a2,2,0,0,0-2-2Z"/><path class="cls-4" d="M1266,128V716H31V128H1266m1-1H30V717H1267V127Z"/><rect class="cls-4" width="1300" height="64"/><line class="cls-2" x1="22" y1="29" x2="153" y2="29"/><rect class="cls-5" x="56.5" y="160.5" width="381.45" height="524"/><rect class="cls-5" x="460.3" y="161" width="381.45" height="524"/><rect class="cls-5" x="863.55" y="161" width="381.45" height="524"/><line class="cls-2" x1="77.5" y1="185.5" x2="208.5" y2="185.5"/><rect class="cls-6" x="77.5" y="217.5" width="332" height="42" rx="4" ry="4"/><rect class="cls-6" x="77.5" y="284.5" width="332" height="42" rx="4" ry="4"/><rect class="cls-6" x="77.5" y="351.5" width="332" height="42" rx="4" ry="4"/><rect class="cls-6" x="77.5" y="415.5" width="332" height="42" rx="4" ry="4"/><rect class="cls-6" x="77.5" y="479.5" width="332" height="42" rx="4" ry="4"/><rect class="cls-6" x="77.5" y="543.5" width="332" height="42" rx="4" ry="4"/><rect class="cls-6" x="77.5" y="609.5" width="332" height="42" rx="4" ry="4"/><line class="cls-2" x1="482.5" y1="185.5" x2="613.5" y2="185.5"/><rect class="cls-6" x="482.5" y="217.5" width="332" height="42" rx="4" ry="4"/><rect class="cls-6" x="482.5" y="284.5" width="332" height="42" rx="4" ry="4"/><rect class="cls-6" x="482.5" y="351.5" width="332" height="42" rx="4" ry="4"/><rect class="cls-6" x="482.5" y="415.5" width="332" height="42" rx="4" ry="4"/><rect class="cls-6" x="482.5" y="479.5" width="332" height="42" rx="4" ry="4"/><rect class="cls-6" x="482.5" y="543.5" width="332" height="42" rx="4" ry="4"/><rect class="cls-6" x="482.5" y="613.5" width="332" height="42" rx="4" ry="4"/><line class="cls-2" x1="886.5" y1="185.5" x2="1017.5" y2="185.5"/><rect class="cls-6" x="886.5" y="217.5" width="332" height="42" rx="4" ry="4"/><rect class="cls-6" x="886.5" y="284.5" width="332" height="42" rx="4" ry="4"/><rect class="cls-6" x="886.5" y="351.5" width="332" height="42" rx="4" ry="4"/><rect class="cls-6" x="886.5" y="415.5" width="332" height="42" rx="4" ry="4"/><rect class="cls-6" x="886.5" y="479.5" width="332" height="42" rx="4" ry="4"/><rect class="cls-6" x="886.5" y="543.5" width="332" height="42" rx="4" ry="4"/><rect class="cls-6" x="886.5" y="613.5" width="332" height="42" rx="4" ry="4"/><path class="cls-7" d="M30.5,129V86.66c0-2.33,2.25-4.23,5-4.23h154c2.75,0,5,1.91,5,4.23V129"/><line class="cls-8" x1="47.5" y1="106.5" x2="178.5" y2="106.5"/><path class="cls-9" d="M208.5,129V86.66c0-2.33,2.25-4.23,5-4.23h154c2.75,0,5,1.91,5,4.23V129"/><line class="cls-2" x1="225.5" y1="106.5" x2="356.5" y2="106.5"/><path class="cls-9" d="M384.5,129V86.66c0-2.33,2.25-4.23,5-4.23h154c2.75,0,5,1.91,5,4.23V129"/><line class="cls-2" x1="401.5" y1="106.5" x2="532.5" y2="106.5"/><path class="cls-9" d="M560.5,129V86.66c0-2.33,2.25-4.23,5-4.23h154c2.75,0,5,1.91,5,4.23V129"/><line class="cls-2" x1="577.5" y1="106.5" x2="708.5" y2="106.5"/></g></g></svg>