<svg xmlns="http://www.w3.org/2000/svg" xmlns:xlink="http://www.w3.org/1999/xlink" viewBox="0 0 1367 1134.23"><defs><style>.cls-1{fill:#f1f1f2;}.cls-2{fill:url(#linear-gradient);}.cls-14,.cls-3,.cls-4,.cls-5,.cls-6{fill:none;}.cls-3{stroke:#acb0b5;}.cls-12,.cls-14,.cls-3,.cls-4,.cls-5,.cls-6{stroke-linecap:round;}.cls-12,.cls-13,.cls-14,.cls-15,.cls-3,.cls-4,.cls-5,.cls-6{stroke-miterlimit:10;}.cls-12,.cls-3{stroke-width:7px;}.cls-4,.cls-5,.cls-6{stroke:#c1c5ca;}.cls-4{stroke-width:10px;}.cls-5{stroke-width:5px;}.cls-7{fill:#c1c5ca;}.cls-12,.cls-8{fill:#fff;}.cls-9{fill:#84888d;}.cls-10{fill:#8dc63f;}.cls-11{fill:#dbdcde;}.cls-12,.cls-14{stroke:#6d6e70;}.cls-13,.cls-15{stroke:#a1abb2;}.cls-14{stroke-width:4px;}.cls-15{stroke-width:2px;}</style><linearGradient id="linear-gradient" x1="622.99" y1="93.98" x2="620.16" y2="1461" gradientTransform="matrix(-0.36, 0, 0, 1, 353.01, 0)" gradientUnits="userSpaceOnUse"><stop offset="0" stop-color="#fff"/><stop offset="0.54" stop-color="#f1f3f7"/><stop offset="1" stop-color="#eaeef3"/></linearGradient></defs><title>Content first 1 do</title><g id="Layer_2" data-name="Layer 2"><g id="Layer_1-2" data-name="Layer 1"><rect class="cls-1" x="310" y="257" width="1004" height="24"/><rect class="cls-1" x="310" y="305" width="1004" height="24"/><rect class="cls-1" x="310" y="353" width="1004" height="24"/><rect class="cls-1" x="310" y="401" width="1004" height="24"/><rect class="cls-1" x="310" y="449" width="1004" height="24"/><rect class="cls-1" x="310" y="497" width="1004" height="24"/><rect class="cls-1" x="310" y="545" width="1004" height="24"/><rect class="cls-1" x="310" y="593" width="1004" height="24"/><rect class="cls-1" x="310" y="641" width="1004" height="24"/><rect class="cls-1" x="310" y="689" width="1004" height="24"/><rect class="cls-2" x="1" y="89" width="259" height="966"/><line class="cls-3" x1="1144.5" y1="136.5" x2="1215.5" y2="136.5"/><line class="cls-3" x1="1228.5" y1="136.5" x2="1240.5" y2="136.5"/><line class="cls-3" x1="1252.5" y1="136.5" x2="1264.5" y2="136.5"/><line class="cls-3" x1="1276.5" y1="136.5" x2="1288.5" y2="136.5"/><line class="cls-3" x1="308.5" y1="136.5" x2="484.5" y2="136.5"/><line class="cls-4" x1="39.5" y1="138.5" x2="215.5" y2="138.5"/><line class="cls-5" x1="39" y1="164.5" x2="194" y2="164.5"/><line class="cls-5" x1="39" y1="182.5" x2="194" y2="182.5"/><line class="cls-5" x1="39" y1="200.5" x2="194" y2="200.5"/><line class="cls-5" x1="39" y1="218.5" x2="194" y2="218.5"/><line class="cls-5" x1="39" y1="236.5" x2="194" y2="236.5"/><line class="cls-4" x1="39.5" y1="302.5" x2="215.5" y2="302.5"/><line class="cls-5" x1="39" y1="328.5" x2="194.5" y2="328.5"/><line class="cls-5" x1="39" y1="346.5" x2="194.5" y2="346.5"/><line class="cls-5" x1="39" y1="364.5" x2="194.5" y2="364.5"/><line class="cls-5" x1="39" y1="382.5" x2="194.5" y2="382.5"/><line class="cls-5" x1="39" y1="400.5" x2="194.5" y2="400.5"/><line class="cls-4" x1="39.5" y1="466.5" x2="215.5" y2="466.5"/><line class="cls-4" x1="40" y1="641" x2="216" y2="641"/><line class="cls-4" x1="40" y1="675" x2="216" y2="675"/><line class="cls-4" x1="40" y1="709" x2="216" y2="709"/><line class="cls-4" x1="40" y1="743" x2="216" y2="743"/><line class="cls-5" x1="39" y1="492.5" x2="194.5" y2="492.5"/><line class="cls-5" x1="39" y1="510.5" x2="194.5" y2="510.5"/><line class="cls-5" x1="39" y1="528.5" x2="194.5" y2="528.5"/><line class="cls-5" x1="39" y1="546.5" x2="194.5" y2="546.5"/><line class="cls-5" x1="39" y1="564.5" x2="194.5" y2="564.5"/><line class="cls-6" x1="0.5" y1="597.5" x2="259.5" y2="597.5"/><rect class="cls-7" x="1.5" y="0.5" width="1365" height="89"/><path class="cls-8" d="M1366,1V89H2V1H1366m1-1H1V90H1367V0Z"/><rect class="cls-9" x="1" y="1056" width="1366" height="24"/><rect class="cls-9" x="1" y="65" width="1366" height="24"/><rect class="cls-10" x="29" y="1095" width="1311" height="15"/><path class="cls-10" d="M663.38,1134v-14.32h4.93a12,12,0,0,1,2.55.21,4.85,4.85,0,0,1,2.1,1,5.82,5.82,0,0,1,1.69,2.45,9.59,9.59,0,0,1,.56,3.4,10,10,0,0,1-.38,2.89,7,7,0,0,1-1,2.08,5.19,5.19,0,0,1-1.3,1.3,5.32,5.32,0,0,1-1.71.72,9.73,9.73,0,0,1-2.3.24Zm1.89-1.69h3.06a7.41,7.41,0,0,0,2.22-.26,3.18,3.18,0,0,0,1.29-.74,4.51,4.51,0,0,0,1-1.81,8.84,8.84,0,0,0,.38-2.76,6.65,6.65,0,0,0-.74-3.45,3.71,3.71,0,0,0-1.79-1.62,7.41,7.41,0,0,0-2.45-.29h-3Z"/><path class="cls-10" d="M676.95,1128.81a5.34,5.34,0,0,1,1.6-4.27,4.82,4.82,0,0,1,3.26-1.15,4.65,4.65,0,0,1,3.5,1.4,5.33,5.33,0,0,1,1.36,3.87,6.86,6.86,0,0,1-.6,3.15,4.25,4.25,0,0,1-1.75,1.78,5.09,5.09,0,0,1-2.5.63,4.67,4.67,0,0,1-3.52-1.4A5.58,5.58,0,0,1,676.95,1128.81Zm1.81,0a4.41,4.41,0,0,0,.87,3,2.89,2.89,0,0,0,4.37,0,4.52,4.52,0,0,0,.87-3,4.28,4.28,0,0,0-.87-2.92,2.9,2.9,0,0,0-4.36,0A4.39,4.39,0,0,0,678.75,1128.81Z"/><path class="cls-11" d="M1312.93,182v47H310.07V182H1312.93m1-1H309.07v49H1313.93V181Z"/><line class="cls-12" x1="324.05" y1="205.5" x2="443.39" y2="205.5"/><line class="cls-12" x1="487.57" y1="205.5" x2="606.9" y2="205.5"/><line class="cls-12" x1="644.67" y1="205.5" x2="764.01" y2="205.5"/><line class="cls-12" x1="800.86" y1="205.5" x2="920.19" y2="205.5"/><line class="cls-12" x1="955.63" y1="205.5" x2="1074.97" y2="205.5"/><line class="cls-12" x1="1111.21" y1="205.5" x2="1230.55" y2="205.5"/><line class="cls-13" x1="627.68" y1="181" x2="627.68" y2="750"/><line class="cls-13" x1="786.46" y1="181" x2="786.46" y2="750"/><line class="cls-13" x1="940.97" y1="181" x2="940.97" y2="750"/><line class="cls-13" x1="1094.42" y1="181" x2="1094.42" y2="750"/><line class="cls-14" x1="322.92" y1="245" x2="425.22" y2="245"/><line class="cls-14" x1="484.89" y1="245" x2="587.19" y2="245"/><line class="cls-14" x1="642.6" y1="245" x2="744.9" y2="245"/><line class="cls-14" x1="799.25" y1="245" x2="901.54" y2="245"/><line class="cls-14" x1="953.76" y1="245" x2="1056.06" y2="245"/><line class="cls-14" x1="1108.27" y1="245" x2="1295.82" y2="245"/><line class="cls-14" x1="322.92" y1="269" x2="425.22" y2="269"/><line class="cls-14" x1="484.89" y1="269" x2="587.19" y2="269"/><line class="cls-14" x1="642.6" y1="269" x2="744.9" y2="269"/><line class="cls-14" x1="799.25" y1="269" x2="901.54" y2="269"/><line class="cls-14" x1="953.76" y1="269" x2="1056.06" y2="269"/><line class="cls-14" x1="1108.27" y1="269" x2="1295.82" y2="269"/><line class="cls-14" x1="322.92" y1="293" x2="425.22" y2="293"/><line class="cls-14" x1="484.89" y1="293" x2="587.19" y2="293"/><line class="cls-14" x1="642.6" y1="293" x2="744.9" y2="293"/><line class="cls-14" x1="799.25" y1="293" x2="901.54" y2="293"/><line class="cls-14" x1="953.76" y1="293" x2="1056.06" y2="293"/><line class="cls-14" x1="1108.27" y1="293" x2="1295.82" y2="293"/><line class="cls-14" x1="322.92" y1="317" x2="425.22" y2="317"/><line class="cls-14" x1="484.89" y1="317" x2="587.19" y2="317"/><line class="cls-14" x1="642.6" y1="317" x2="744.9" y2="317"/><line class="cls-14" x1="799.25" y1="317" x2="901.54" y2="317"/><line class="cls-14" x1="953.76" y1="317" x2="1056.06" y2="317"/><line class="cls-14" x1="1108.27" y1="317" x2="1295.82" y2="317"/><line class="cls-14" x1="322.92" y1="341" x2="425.22" y2="341"/><line class="cls-14" x1="484.89" y1="341" x2="587.19" y2="341"/><line class="cls-14" x1="642.6" y1="341" x2="744.9" y2="341"/><line class="cls-14" x1="799.25" y1="341" x2="901.54" y2="341"/><line class="cls-14" x1="953.76" y1="341" x2="1056.06" y2="341"/><line class="cls-14" x1="1108.27" y1="341" x2="1295.82" y2="341"/><line class="cls-14" x1="322.92" y1="365" x2="425.22" y2="365"/><line class="cls-14" x1="484.89" y1="365" x2="587.19" y2="365"/><line class="cls-14" x1="642.6" y1="365" x2="744.9" y2="365"/><line class="cls-14" x1="799.25" y1="365" x2="901.54" y2="365"/><line class="cls-14" x1="953.76" y1="365" x2="1056.06" y2="365"/><line class="cls-14" x1="1108.27" y1="365" x2="1295.82" y2="365"/><line class="cls-14" x1="322.92" y1="389" x2="425.22" y2="389"/><line class="cls-14" x1="484.89" y1="389" x2="587.19" y2="389"/><line class="cls-14" x1="642.6" y1="389" x2="744.9" y2="389"/><line class="cls-14" x1="799.25" y1="389" x2="901.54" y2="389"/><line class="cls-14" x1="953.76" y1="389" x2="1056.06" y2="389"/><line class="cls-14" x1="1108.27" y1="389" x2="1295.82" y2="389"/><line class="cls-14" x1="322.92" y1="413" x2="425.22" y2="413"/><line class="cls-14" x1="484.89" y1="413" x2="587.19" y2="413"/><line class="cls-14" x1="642.6" y1="413" x2="744.9" y2="413"/><line class="cls-14" x1="799.25" y1="413" x2="901.54" y2="413"/><line class="cls-14" x1="953.76" y1="413" x2="1056.06" y2="413"/><line class="cls-14" x1="1108.27" y1="413" x2="1295.82" y2="413"/><line class="cls-14" x1="322.92" y1="437" x2="425.22" y2="437"/><line class="cls-14" x1="484.89" y1="437" x2="587.19" y2="437"/><line class="cls-14" x1="642.6" y1="437" x2="744.9" y2="437"/><line class="cls-14" x1="799.25" y1="437" x2="901.54" y2="437"/><line class="cls-14" x1="953.76" y1="437" x2="1056.06" y2="437"/><line class="cls-14" x1="1108.27" y1="437" x2="1295.82" y2="437"/><line class="cls-14" x1="322.92" y1="461" x2="425.22" y2="461"/><line class="cls-14" x1="484.89" y1="461" x2="587.19" y2="461"/><line class="cls-14" x1="642.6" y1="461" x2="744.9" y2="461"/><line class="cls-14" x1="799.25" y1="461" x2="901.54" y2="461"/><line class="cls-14" x1="953.76" y1="461" x2="1056.06" y2="461"/><line class="cls-14" x1="1108.27" y1="461" x2="1295.82" y2="461"/><line class="cls-14" x1="322.92" y1="485" x2="425.22" y2="485"/><line class="cls-14" x1="484.89" y1="485" x2="587.19" y2="485"/><line class="cls-14" x1="642.6" y1="485" x2="744.9" y2="485"/><line class="cls-14" x1="799.25" y1="485" x2="901.54" y2="485"/><line class="cls-14" x1="953.76" y1="485" x2="1056.06" y2="485"/><line class="cls-14" x1="1108.27" y1="485" x2="1295.82" y2="485"/><line class="cls-14" x1="322.92" y1="509" x2="425.22" y2="509"/><line class="cls-14" x1="484.89" y1="509" x2="587.19" y2="509"/><line class="cls-14" x1="642.6" y1="509" x2="744.9" y2="509"/><line class="cls-14" x1="799.25" y1="509" x2="901.54" y2="509"/><line class="cls-14" x1="953.76" y1="509" x2="1056.06" y2="509"/><line class="cls-14" x1="1108.27" y1="509" x2="1295.82" y2="509"/><line class="cls-14" x1="322.92" y1="533" x2="425.22" y2="533"/><line class="cls-14" x1="484.89" y1="533" x2="587.19" y2="533"/><line class="cls-14" x1="642.6" y1="533" x2="744.9" y2="533"/><line class="cls-14" x1="799.25" y1="533" x2="901.54" y2="533"/><line class="cls-14" x1="953.76" y1="533" x2="1056.06" y2="533"/><line class="cls-14" x1="1108.27" y1="533" x2="1295.82" y2="533"/><line class="cls-14" x1="322.92" y1="557" x2="425.22" y2="557"/><line class="cls-14" x1="484.89" y1="557" x2="587.19" y2="557"/><line class="cls-14" x1="642.6" y1="557" x2="744.9" y2="557"/><line class="cls-14" x1="799.25" y1="557" x2="901.54" y2="557"/><line class="cls-14" x1="953.76" y1="557" x2="1056.06" y2="557"/><line class="cls-14" x1="1108.27" y1="557" x2="1295.82" y2="557"/><line class="cls-14" x1="322.92" y1="581" x2="425.22" y2="581"/><line class="cls-14" x1="484.89" y1="581" x2="587.19" y2="581"/><line class="cls-14" x1="642.6" y1="581" x2="744.9" y2="581"/><line class="cls-14" x1="799.25" y1="581" x2="901.54" y2="581"/><line class="cls-14" x1="953.76" y1="581" x2="1056.06" y2="581"/><line class="cls-14" x1="1108.27" y1="581" x2="1295.82" y2="581"/><line class="cls-14" x1="322.92" y1="605" x2="425.22" y2="605"/><line class="cls-14" x1="484.89" y1="605" x2="587.19" y2="605"/><line class="cls-14" x1="642.6" y1="605" x2="744.9" y2="605"/><line class="cls-14" x1="799.25" y1="605" x2="901.54" y2="605"/><line class="cls-14" x1="953.76" y1="605" x2="1056.06" y2="605"/><line class="cls-14" x1="1108.27" y1="605" x2="1295.82" y2="605"/><line class="cls-14" x1="322.92" y1="629" x2="425.22" y2="629"/><line class="cls-14" x1="484.89" y1="629" x2="587.19" y2="629"/><line class="cls-14" x1="642.6" y1="629" x2="744.9" y2="629"/><line class="cls-14" x1="799.25" y1="629" x2="901.54" y2="629"/><line class="cls-14" x1="953.76" y1="629" x2="1056.06" y2="629"/><line class="cls-14" x1="1108.27" y1="629" x2="1295.82" y2="629"/><line class="cls-14" x1="322.92" y1="653" x2="425.22" y2="653"/><line class="cls-14" x1="484.89" y1="653" x2="587.19" y2="653"/><line class="cls-14" x1="642.6" y1="653" x2="744.9" y2="653"/><line class="cls-14" x1="799.25" y1="653" x2="901.54" y2="653"/><line class="cls-14" x1="953.76" y1="653" x2="1056.06" y2="653"/><line class="cls-14" x1="1108.27" y1="653" x2="1295.82" y2="653"/><line class="cls-14" x1="322.92" y1="677" x2="425.22" y2="677"/><line class="cls-14" x1="484.89" y1="677" x2="587.19" y2="677"/><line class="cls-14" x1="642.6" y1="677" x2="744.9" y2="677"/><line class="cls-14" x1="799.25" y1="677" x2="901.54" y2="677"/><line class="cls-14" x1="953.76" y1="677" x2="1056.06" y2="677"/><line class="cls-14" x1="1108.27" y1="677" x2="1295.82" y2="677"/><line class="cls-14" x1="322.92" y1="701" x2="425.22" y2="701"/><line class="cls-14" x1="484.89" y1="701" x2="587.19" y2="701"/><line class="cls-14" x1="642.6" y1="701" x2="744.9" y2="701"/><line class="cls-14" x1="799.25" y1="701" x2="901.54" y2="701"/><line class="cls-14" x1="953.76" y1="701" x2="1056.06" y2="701"/><line class="cls-14" x1="1108.27" y1="701" x2="1295.82" y2="701"/><line class="cls-14" x1="322.92" y1="725" x2="425.22" y2="725"/><line class="cls-14" x1="484.89" y1="725" x2="587.19" y2="725"/><line class="cls-14" x1="642.6" y1="725" x2="744.9" y2="725"/><line class="cls-14" x1="799.25" y1="725" x2="901.54" y2="725"/><line class="cls-14" x1="953.76" y1="725" x2="1056.06" y2="725"/><line class="cls-14" x1="1108.27" y1="725" x2="1295.82" y2="725"/><line class="cls-13" x1="468.37" y1="180.5" x2="468.37" y2="749.5"/><line class="cls-13" x1="309.5" y1="181" x2="309.5" y2="750"/><line class="cls-15" x1="1313.5" y1="229.5" x2="310" y2="229.5"/><line class="cls-13" x1="1313.5" y1="749.5" x2="310" y2="749.5"/><line class="cls-13" x1="1313.5" y1="181" x2="1313.5" y2="750"/></g></g></svg>