<svg xmlns="http://www.w3.org/2000/svg" xmlns:xlink="http://www.w3.org/1999/xlink" viewBox="0 0 1366 1157.5"><defs><style>.cls-1,.cls-10,.cls-12,.cls-14,.cls-15,.cls-7,.cls-8,.cls-9{fill:none;}.cls-2{fill:url(#linear-gradient);}.cls-3{fill:#cf1034;}.cls-4{fill:#c1c5ca;}.cls-5{fill:#fff;}.cls-6{fill:#84888d;}.cls-7{stroke:#84888d;}.cls-10,.cls-12,.cls-14,.cls-15,.cls-7,.cls-8,.cls-9{stroke-linecap:round;stroke-miterlimit:10;}.cls-7,.cls-9{stroke-width:10px;}.cls-14,.cls-15,.cls-8{stroke:#acb0b5;}.cls-10,.cls-8{stroke-width:5px;}.cls-10,.cls-12,.cls-9{stroke:#c1c5ca;}.cls-11{fill:#eaeef3;}.cls-13{clip-path:url(#clip-path);}.cls-14{stroke-width:7px;}.cls-15{stroke-width:50px;}.cls-16{clip-path:url(#clip-path-2);}</style><linearGradient id="linear-gradient" x1="473.49" y1="93.76" x2="471.99" y2="818.56" gradientUnits="userSpaceOnUse"><stop offset="0" stop-color="#fff"/><stop offset="0.54" stop-color="#f1f3f7"/><stop offset="1" stop-color="#eaeef3"/></linearGradient><clipPath id="clip-path" transform="translate(-33)"><rect class="cls-1" x="963.5" y="932.5" width="454" height="123"/></clipPath><clipPath id="clip-path-2" transform="translate(-33)"><rect class="cls-1" y="994" width="973" height="61"/></clipPath></defs><title>Density dont</title><g id="Layer_2" data-name="Layer 2"><g id="Layer_1-2" data-name="Layer 1"><rect class="cls-2" y="89" width="945" height="966"/><rect class="cls-3" x="21" y="1092" width="1311" height="15"/><path class="cls-3" d="M675,1131v-14.32H680a12,12,0,0,1,2.55.21,4.84,4.84,0,0,1,2.1,1,5.82,5.82,0,0,1,1.69,2.45,9.6,9.6,0,0,1,.56,3.4,10,10,0,0,1-.38,2.89,7,7,0,0,1-1,2.08,5.18,5.18,0,0,1-1.3,1.3,5.33,5.33,0,0,1-1.71.72,9.74,9.74,0,0,1-2.3.24Zm1.89-1.69H680a7.42,7.42,0,0,0,2.22-.26,3.17,3.17,0,0,0,1.28-.74,4.51,4.51,0,0,0,1-1.81,8.86,8.86,0,0,0,.38-2.76,6.66,6.66,0,0,0-.74-3.45,3.71,3.71,0,0,0-1.79-1.62,7.41,7.41,0,0,0-2.45-.29h-3Z" transform="translate(-33)"/><path class="cls-3" d="M688.61,1125.81a5.35,5.35,0,0,1,1.6-4.27,4.82,4.82,0,0,1,3.26-1.15,4.65,4.65,0,0,1,3.5,1.4,5.33,5.33,0,0,1,1.36,3.87,6.86,6.86,0,0,1-.6,3.15,4.25,4.25,0,0,1-1.75,1.78,5.09,5.09,0,0,1-2.5.63,4.66,4.66,0,0,1-3.52-1.4A5.58,5.58,0,0,1,688.61,1125.81Zm1.81,0a4.42,4.42,0,0,0,.87,3,2.89,2.89,0,0,0,4.37,0,4.52,4.52,0,0,0,.87-3,4.29,4.29,0,0,0-.87-2.92,2.9,2.9,0,0,0-4.36,0A4.4,4.4,0,0,0,690.41,1125.81Z" transform="translate(-33)"/><path class="cls-3" d="M700.38,1131v-10.37H702v1.47a3.73,3.73,0,0,1,3.3-1.71,4.33,4.33,0,0,1,1.72.34,2.71,2.71,0,0,1,1.18.88,3.39,3.39,0,0,1,.55,1.3,10.08,10.08,0,0,1,.1,1.71V1131h-1.76v-6.31a4.74,4.74,0,0,0-.21-1.61,1.69,1.69,0,0,0-.73-.85,2.31,2.31,0,0,0-1.23-.32,2.85,2.85,0,0,0-1.94.71,3.52,3.52,0,0,0-.82,2.71V1131Z" transform="translate(-33)"/><path class="cls-3" d="M711.4,1118.58v-2h1.88v1.61a4.31,4.31,0,0,1-.3,1.88,2.66,2.66,0,0,1-1.31,1.19l-.43-.69a1.53,1.53,0,0,0,.79-.68,2.85,2.85,0,0,0,.29-1.27Z" transform="translate(-33)"/><path class="cls-3" d="M719.79,1129.43,720,1131a6.5,6.5,0,0,1-1.33.16,3,3,0,0,1-1.48-.3,1.69,1.69,0,0,1-.74-.8,6.29,6.29,0,0,1-.21-2.08v-6H715v-1.37h1.29v-2.57L718,1117v3.62h1.77V1122H718v6.06a3.09,3.09,0,0,0,.09,1,.74.74,0,0,0,.3.34,1.17,1.17,0,0,0,.6.13A5.67,5.67,0,0,0,719.79,1129.43Z" transform="translate(-33)"/><rect class="cls-4" x="0.5" y="0.5" width="1365" height="89"/><path class="cls-5" d="M1398,1V89H34V1H1398m1-1H33V90H1399V0Z" transform="translate(-33)"/><rect class="cls-6" y="1056" width="1366" height="24"/><rect class="cls-6" y="65" width="1366" height="24"/><line class="cls-7" x1="352.63" y1="166" x2="563.97" y2="166"/><line class="cls-8" x1="351.04" y1="201.5" x2="884.96" y2="201.5"/><line class="cls-8" x1="351.04" y1="187.5" x2="884.96" y2="187.5"/><rect class="cls-5" x="31" y="117" width="262" height="419"/><line class="cls-9" x1="55" y1="141" x2="111" y2="141"/><line class="cls-9" x1="138" y1="141" x2="269" y2="141"/><line class="cls-10" x1="57.5" y1="180.5" x2="111.5" y2="180.5"/><line class="cls-10" x1="138.5" y1="180.5" x2="270.5" y2="180.5"/><line class="cls-10" x1="57.5" y1="209.5" x2="111.5" y2="209.5"/><line class="cls-10" x1="138.5" y1="209.5" x2="270.5" y2="209.5"/><line class="cls-10" x1="57.5" y1="238.5" x2="111.5" y2="238.5"/><line class="cls-10" x1="138.5" y1="238.5" x2="270.5" y2="238.5"/><line class="cls-10" x1="57.5" y1="267.5" x2="111.5" y2="267.5"/><line class="cls-10" x1="138.5" y1="267.5" x2="270.5" y2="267.5"/><line class="cls-10" x1="57.5" y1="296.5" x2="111.5" y2="296.5"/><line class="cls-10" x1="138.5" y1="296.5" x2="270.5" y2="296.5"/><line class="cls-10" x1="57.5" y1="325.5" x2="111.5" y2="325.5"/><line class="cls-10" x1="138.5" y1="325.5" x2="270.5" y2="325.5"/><line class="cls-10" x1="57.5" y1="354.5" x2="111.5" y2="354.5"/><line class="cls-10" x1="138.5" y1="354.5" x2="270.5" y2="354.5"/><line class="cls-10" x1="57.5" y1="383.5" x2="111.5" y2="383.5"/><line class="cls-10" x1="138.5" y1="383.5" x2="270.5" y2="383.5"/><line class="cls-10" x1="57.5" y1="412.5" x2="111.5" y2="412.5"/><line class="cls-10" x1="138.5" y1="412.5" x2="270.5" y2="412.5"/><line class="cls-10" x1="57.5" y1="441.5" x2="111.5" y2="441.5"/><line class="cls-10" x1="138.5" y1="441.5" x2="270.5" y2="441.5"/><line class="cls-10" x1="57.5" y1="476.5" x2="111.5" y2="476.5"/><line class="cls-10" x1="138.5" y1="476.5" x2="270.5" y2="476.5"/><line class="cls-10" x1="57.5" y1="510.5" x2="111.5" y2="510.5"/><line class="cls-10" x1="138.5" y1="510.5" x2="270.5" y2="510.5"/><line class="cls-9" x1="1002" y1="162" x2="1167" y2="162"/><line class="cls-8" x1="1002" y1="188.5" x2="1172.42" y2="188.5"/><line class="cls-8" x1="1002" y1="209.5" x2="1172.42" y2="209.5"/><line class="cls-8" x1="1002" y1="228.5" x2="1300.5" y2="228.5"/><line class="cls-8" x1="1002.52" y1="251.5" x2="1300.5" y2="251.5"/><rect class="cls-11" x="1202" y="154" width="98.5" height="60"/><rect class="cls-12" x="965.5" y="120.5" width="378" height="176"/><line class="cls-9" x1="1002" y1="370" x2="1167" y2="370"/><line class="cls-8" x1="1002" y1="396.5" x2="1172.42" y2="396.5"/><line class="cls-8" x1="1002" y1="417.5" x2="1172.42" y2="417.5"/><line class="cls-8" x1="1002" y1="436.5" x2="1300.5" y2="436.5"/><line class="cls-8" x1="1002.52" y1="459.5" x2="1300.5" y2="459.5"/><rect class="cls-11" x="1202" y="362" width="98.5" height="60"/><rect class="cls-12" x="965.5" y="328.5" width="378" height="176"/><line class="cls-9" x1="1002" y1="578" x2="1167" y2="578"/><line class="cls-8" x1="1002" y1="604.5" x2="1172.42" y2="604.5"/><line class="cls-8" x1="1002" y1="625.5" x2="1172.42" y2="625.5"/><line class="cls-8" x1="1002" y1="644.5" x2="1300.5" y2="644.5"/><line class="cls-8" x1="1002.52" y1="667.5" x2="1300.5" y2="667.5"/><rect class="cls-11" x="1202" y="570" width="98.5" height="60"/><rect class="cls-12" x="965.5" y="536.5" width="378" height="176"/><line class="cls-9" x1="1002" y1="787" x2="1167" y2="787"/><line class="cls-8" x1="1002" y1="813.5" x2="1172.42" y2="813.5"/><line class="cls-8" x1="1002" y1="834.5" x2="1172.42" y2="834.5"/><line class="cls-8" x1="1002" y1="853.5" x2="1300.5" y2="853.5"/><line class="cls-8" x1="1002.52" y1="876.5" x2="1300.5" y2="876.5"/><rect class="cls-11" x="1202" y="779" width="98.5" height="60"/><rect class="cls-12" x="965.5" y="745.5" width="378" height="176"/><g class="cls-13"><line class="cls-9" x1="1002" y1="996" x2="1167" y2="996"/><line class="cls-8" x1="1002" y1="1022.5" x2="1172.42" y2="1022.5"/><line class="cls-8" x1="1002" y1="1043.5" x2="1172.42" y2="1043.5"/><line class="cls-8" x1="1002" y1="1062.5" x2="1300.5" y2="1062.5"/><line class="cls-8" x1="1002.52" y1="1085.5" x2="1300.5" y2="1085.5"/><rect class="cls-11" x="1202" y="988" width="98.5" height="60"/><rect class="cls-12" x="965.5" y="954.5" width="378" height="176"/></g><rect class="cls-12" x="321.48" y="120.5" width="593.04" height="126"/><line class="cls-7" x1="352.63" y1="312" x2="563.97" y2="312"/><line class="cls-8" x1="351.04" y1="347.5" x2="884.96" y2="347.5"/><line class="cls-8" x1="351.04" y1="333.5" x2="884.96" y2="333.5"/><rect class="cls-12" x="321.48" y="266.5" width="593.04" height="126"/><line class="cls-7" x1="352.63" y1="458" x2="563.97" y2="458"/><line class="cls-8" x1="351.04" y1="493.5" x2="884.96" y2="493.5"/><line class="cls-8" x1="351.04" y1="479.5" x2="884.96" y2="479.5"/><rect class="cls-12" x="321.48" y="412.5" width="593.04" height="126"/><rect class="cls-5" x="31" y="658.5" width="890" height="155" rx="2" ry="2"/><line class="cls-7" x1="57.18" y1="683" x2="892.88" y2="683"/><line class="cls-8" x1="56.85" y1="710.5" x2="864.77" y2="710.5"/><line class="cls-8" x1="56.85" y1="727.5" x2="864.77" y2="727.5"/><line class="cls-8" x1="56.85" y1="744.5" x2="864.77" y2="744.5"/><line class="cls-10" x1="57.66" y1="773.5" x2="217.04" y2="773.5"/><line class="cls-10" x1="57.66" y1="790.5" x2="217.04" y2="790.5"/><line class="cls-10" x1="270.66" y1="773.5" x2="430.04" y2="773.5"/><line class="cls-10" x1="270.66" y1="790.5" x2="430.04" y2="790.5"/><rect class="cls-5" x="31" y="832.5" width="890" height="155" rx="2" ry="2"/><line class="cls-7" x1="57.18" y1="857" x2="892.88" y2="857"/><line class="cls-8" x1="56.85" y1="884.5" x2="864.77" y2="884.5"/><line class="cls-8" x1="56.85" y1="901.5" x2="864.77" y2="901.5"/><line class="cls-8" x1="56.85" y1="918.5" x2="864.77" y2="918.5"/><line class="cls-10" x1="57.66" y1="947.5" x2="217.04" y2="947.5"/><line class="cls-10" x1="57.66" y1="964.5" x2="217.04" y2="964.5"/><line class="cls-10" x1="270.66" y1="947.5" x2="430.04" y2="947.5"/><line class="cls-10" x1="270.66" y1="964.5" x2="430.04" y2="964.5"/><line class="cls-14" x1="764.5" y1="628.5" x2="835.5" y2="628.5"/><line class="cls-14" x1="848.5" y1="628.5" x2="860.5" y2="628.5"/><line class="cls-14" x1="872.5" y1="628.5" x2="884.5" y2="628.5"/><line class="cls-14" x1="896.5" y1="628.5" x2="908.5" y2="628.5"/><line class="cls-15" x1="61.5" y1="606.5" x2="237.5" y2="606.5"/><g class="cls-16"><rect class="cls-5" x="31" y="1002.5" width="890" height="155" rx="2" ry="2"/><line class="cls-7" x1="57.18" y1="1027" x2="892.88" y2="1027"/><line class="cls-8" x1="56.85" y1="1054.5" x2="864.77" y2="1054.5"/><line class="cls-8" x1="56.85" y1="1071.5" x2="864.77" y2="1071.5"/><line class="cls-8" x1="56.85" y1="1088.5" x2="864.77" y2="1088.5"/><line class="cls-10" x1="57.66" y1="1117.5" x2="217.04" y2="1117.5"/><line class="cls-10" x1="57.66" y1="1134.5" x2="217.04" y2="1134.5"/><line class="cls-10" x1="270.66" y1="1117.5" x2="430.04" y2="1117.5"/><line class="cls-10" x1="270.66" y1="1134.5" x2="430.04" y2="1134.5"/></g></g></g></svg>