<svg xmlns="http://www.w3.org/2000/svg" viewBox="0 0 8.87 12"><title>Drag</title><g id="Layer_2" data-name="Layer 2"><g id="Layer_1-2" data-name="Layer 1"><path d="M8.71,4.06a.57.57,0,0,1,.12.18.52.52,0,0,1,0,.21.5.5,0,0,1,0,.21.71.71,0,0,1-.12.18A.71.71,0,0,1,8.53,5a.5.5,0,0,1-.21,0H.55A.53.53,0,0,1,.34,5a.57.57,0,0,1-.18-.12A.57.57,0,0,1,0,4.65a.56.56,0,0,1,0-.21.59.59,0,0,1,0-.21.47.47,0,0,1,.13-.18L4,.17A.51.51,0,0,1,4.22,0a.52.52,0,0,1,.21,0,.5.5,0,0,1,.21,0,.62.62,0,0,1,.18.13Z" style="fill:#009697"/><path d="M.16,7.94A.57.57,0,0,1,0,7.77a.52.52,0,0,1,0-.21.5.5,0,0,1,0-.21.71.71,0,0,1,.12-.18A.71.71,0,0,1,.35,7,.5.5,0,0,1,.55,7H8.32a.53.53,0,0,1,.21,0,.6.6,0,0,1,.3.3.56.56,0,0,1,0,.21.59.59,0,0,1,0,.21.47.47,0,0,1-.13.18L4.83,11.83a.51.51,0,0,1-.18.13.52.52,0,0,1-.21,0,.5.5,0,0,1-.21,0A.62.62,0,0,1,4,11.83Z" style="fill:#009697"/></g></g></svg>