<svg xmlns="http://www.w3.org/2000/svg" viewBox="0 0 311.79 222.5"><defs><style>.cls-1,.cls-8{fill:#fff;}.cls-2{fill:#c1c5ca;}.cls-3{fill:none;}.cls-3,.cls-8{stroke:#c1c5ca;stroke-miterlimit:10;}.cls-4{fill:#009697;}.cls-5{fill:#53575c;}.cls-6{fill:#cf1034;}.cls-7{fill:#84888d;}.cls-9{fill:#acb0b5;}</style></defs><title>Form Field example</title><g id="Layer_2" data-name="Layer 2"><g id="Layer_1-2" data-name="Layer 1"><rect class="cls-1" x="43.29" y="198.5" width="268" height="23" rx="1.5" ry="1.5"/><path class="cls-2" d="M310.67,199a1,1,0,0,1,1,1v20a1,1,0,0,1-1,1h-265a1,1,0,0,1-1-1V200a1,1,0,0,1,1-1h265m0-1h-265a2,2,0,0,0-2,2v20a2,2,0,0,0,2,2h265a2,2,0,0,0,2-2V200a2,2,0,0,0-2-2Z" transform="translate(-0.88)"/><line class="cls-3" x1="288.79" y1="222.5" x2="288.79" y2="198.5"/><path class="cls-4" d="M297.4,208.44a.57.57,0,0,1-.12-.18.52.52,0,0,1,0-.21.5.5,0,0,1,0-.21.56.56,0,0,1,.3-.3.5.5,0,0,1,.21,0h7.76a.53.53,0,0,1,.21,0,.6.6,0,0,1,.3.3.56.56,0,0,1,0,.21.59.59,0,0,1,0,.21.47.47,0,0,1-.13.18l-3.88,3.88a.51.51,0,0,1-.18.13.52.52,0,0,1-.21,0,.5.5,0,0,1-.21,0,.62.62,0,0,1-.18-.13Z" transform="translate(-0.88)"/><path class="cls-5" d="M.88,15V6.43H2V14H6.25v1Z" transform="translate(-0.88)"/><path class="cls-5" d="M11.53,14.25a3.93,3.93,0,0,1-1.13.7,3.26,3.26,0,0,1-1.16.21,2.26,2.26,0,0,1-1.58-.5,1.65,1.65,0,0,1-.55-1.28,1.7,1.7,0,0,1,.21-.83,1.72,1.72,0,0,1,.54-.61,2.56,2.56,0,0,1,.76-.35,7.54,7.54,0,0,1,.94-.16,9.64,9.64,0,0,0,1.88-.36q0-.22,0-.28a1.16,1.16,0,0,0-.3-.91,1.77,1.77,0,0,0-1.2-.36,1.86,1.86,0,0,0-1.1.26,1.59,1.59,0,0,0-.52.92l-1-.14a2.56,2.56,0,0,1,.46-1.07,2,2,0,0,1,.93-.63,4.16,4.16,0,0,1,1.41-.22,3.74,3.74,0,0,1,1.29.19,1.71,1.71,0,0,1,.73.47,1.66,1.66,0,0,1,.33.72,5.94,5.94,0,0,1,.05,1v1.41a14.93,14.93,0,0,0,.07,1.86,2.35,2.35,0,0,0,.27.75h-1.1A2.24,2.24,0,0,1,11.53,14.25Zm-.09-2.36a7.74,7.74,0,0,1-1.72.4,4,4,0,0,0-.92.21.92.92,0,0,0-.42.34.93.93,0,0,0,.17,1.2,1.37,1.37,0,0,0,.93.28,2.18,2.18,0,0,0,1.08-.27,1.64,1.64,0,0,0,.7-.73,2.55,2.55,0,0,0,.17-1.05Z" transform="translate(-0.88)"/><path class="cls-5" d="M15.11,15h-1V6.43h1.05V9.5a2.09,2.09,0,0,1,1.71-.84A2.61,2.61,0,0,1,18,8.89a2.22,2.22,0,0,1,.84.65,3.14,3.14,0,0,1,.52,1,4.17,4.17,0,0,1,.19,1.27,3.55,3.55,0,0,1-.79,2.47,2.47,2.47,0,0,1-1.9.87,2,2,0,0,1-1.73-.92Zm0-3.16a3.23,3.23,0,0,0,.3,1.62,1.51,1.51,0,0,0,2.54.21,2.73,2.73,0,0,0,.5-1.79,2.78,2.78,0,0,0-.48-1.8,1.47,1.47,0,0,0-1.17-.58,1.52,1.52,0,0,0-1.2.6A2.64,2.64,0,0,0,15.1,11.86Z" transform="translate(-0.88)"/><path class="cls-5" d="M25.07,13l1.09.13a2.66,2.66,0,0,1-1,1.48,2.87,2.87,0,0,1-1.78.53,2.85,2.85,0,0,1-2.17-.84,3.29,3.29,0,0,1-.8-2.36,3.44,3.44,0,0,1,.81-2.44,2.74,2.74,0,0,1,2.1-.87,2.66,2.66,0,0,1,2,.85,3.38,3.38,0,0,1,.79,2.39q0,.09,0,.28H21.55a2.39,2.39,0,0,0,.58,1.57,1.73,1.73,0,0,0,1.3.54,1.61,1.61,0,0,0,1-.3A2,2,0,0,0,25.07,13Zm-3.46-1.71h3.47a2.11,2.11,0,0,0-.4-1.18,1.62,1.62,0,0,0-1.31-.61,1.68,1.68,0,0,0-1.22.49A1.92,1.92,0,0,0,21.61,11.31Z" transform="translate(-0.88)"/><path class="cls-5" d="M27.46,15V6.43h1.05V15Z" transform="translate(-0.88)"/><path class="cls-6" d="M33.49,9.76a1.86,1.86,0,0,1,1.85-1.85,1.8,1.8,0,0,1,1.31.54,1.85,1.85,0,0,1,0,2.63,1.86,1.86,0,0,1-3.17-1.31Z" transform="translate(-0.88)"/><rect class="cls-1" x="44.29" y="0.5" width="264" height="23" rx="1.5" ry="1.5"/><path class="cls-7" d="M307.67,1a1,1,0,0,1,1,1V22a1,1,0,0,1-1,1h-261a1,1,0,0,1-1-1V2a1,1,0,0,1,1-1h261m0-1h-261a2,2,0,0,0-2,2V22a2,2,0,0,0,2,2h261a2,2,0,0,0,2-2V2a2,2,0,0,0-2-2Z" transform="translate(-0.88)"/><path class="cls-5" d="M1.88,53.88V45.29H3v7.58H7.25v1Z" transform="translate(-0.88)"/><path class="cls-5" d="M12.53,53.11a3.93,3.93,0,0,1-1.13.7,3.26,3.26,0,0,1-1.16.21,2.26,2.26,0,0,1-1.58-.5,1.65,1.65,0,0,1-.55-1.28,1.7,1.7,0,0,1,.21-.83,1.72,1.72,0,0,1,.54-.61,2.56,2.56,0,0,1,.76-.35,7.54,7.54,0,0,1,.94-.16,9.64,9.64,0,0,0,1.88-.36q0-.22,0-.28a1.16,1.16,0,0,0-.3-.91,1.77,1.77,0,0,0-1.2-.36,1.86,1.86,0,0,0-1.1.26,1.59,1.59,0,0,0-.52.92l-1-.14a2.56,2.56,0,0,1,.46-1.07,2,2,0,0,1,.93-.63,4.16,4.16,0,0,1,1.41-.22,3.74,3.74,0,0,1,1.29.19,1.71,1.71,0,0,1,.73.47,1.66,1.66,0,0,1,.33.72,5.94,5.94,0,0,1,.05,1v1.41a14.93,14.93,0,0,0,.07,1.86,2.35,2.35,0,0,0,.27.75h-1.1A2.24,2.24,0,0,1,12.53,53.11Zm-.09-2.36a7.74,7.74,0,0,1-1.72.4,4,4,0,0,0-.92.21.92.92,0,0,0-.42.34.93.93,0,0,0,.17,1.2,1.37,1.37,0,0,0,.93.28,2.18,2.18,0,0,0,1.08-.27,1.64,1.64,0,0,0,.7-.73,2.55,2.55,0,0,0,.17-1.05Z" transform="translate(-0.88)"/><path class="cls-5" d="M16.11,53.88h-1V45.29h1.05v3.06a2.09,2.09,0,0,1,1.71-.84,2.61,2.61,0,0,1,1.09.23,2.22,2.22,0,0,1,.84.65,3.14,3.14,0,0,1,.52,1,4.17,4.17,0,0,1,.19,1.27,3.55,3.55,0,0,1-.79,2.47,2.47,2.47,0,0,1-1.9.87,2,2,0,0,1-1.73-.92Zm0-3.16a3.23,3.23,0,0,0,.3,1.62,1.51,1.51,0,0,0,2.54.21,2.73,2.73,0,0,0,.5-1.79A2.78,2.78,0,0,0,19,49a1.47,1.47,0,0,0-1.17-.58,1.52,1.52,0,0,0-1.2.6A2.64,2.64,0,0,0,16.1,50.72Z" transform="translate(-0.88)"/><path class="cls-5" d="M26.07,51.87l1.09.13a2.66,2.66,0,0,1-1,1.48,2.87,2.87,0,0,1-1.78.53,2.85,2.85,0,0,1-2.17-.84,3.29,3.29,0,0,1-.8-2.36,3.44,3.44,0,0,1,.81-2.44,2.74,2.74,0,0,1,2.1-.87,2.66,2.66,0,0,1,2,.85,3.38,3.38,0,0,1,.79,2.39q0,.09,0,.28H22.55a2.39,2.39,0,0,0,.58,1.57,1.73,1.73,0,0,0,1.3.54,1.61,1.61,0,0,0,1-.3A2,2,0,0,0,26.07,51.87Zm-3.46-1.71h3.47a2.11,2.11,0,0,0-.4-1.18,1.62,1.62,0,0,0-1.31-.61,1.68,1.68,0,0,0-1.22.49A1.92,1.92,0,0,0,22.61,50.17Z" transform="translate(-0.88)"/><path class="cls-5" d="M28.46,53.88V45.29h1.05v8.59Z" transform="translate(-0.88)"/><path class="cls-5" d="M1.88,87.88V79.29H3v7.58H7.25v1Z" transform="translate(-0.88)"/><path class="cls-5" d="M12.53,87.11a3.93,3.93,0,0,1-1.13.7,3.26,3.26,0,0,1-1.16.21,2.26,2.26,0,0,1-1.58-.5,1.65,1.65,0,0,1-.55-1.28,1.7,1.7,0,0,1,.21-.83,1.72,1.72,0,0,1,.54-.61,2.56,2.56,0,0,1,.76-.35,7.54,7.54,0,0,1,.94-.16,9.64,9.64,0,0,0,1.88-.36q0-.22,0-.28a1.16,1.16,0,0,0-.3-.91,1.77,1.77,0,0,0-1.2-.36,1.86,1.86,0,0,0-1.1.26,1.59,1.59,0,0,0-.52.92l-1-.14a2.56,2.56,0,0,1,.46-1.07,2,2,0,0,1,.93-.63,4.16,4.16,0,0,1,1.41-.22,3.74,3.74,0,0,1,1.29.19,1.71,1.71,0,0,1,.73.47,1.66,1.66,0,0,1,.33.72,5.94,5.94,0,0,1,.05,1v1.41a14.93,14.93,0,0,0,.07,1.86,2.35,2.35,0,0,0,.27.75h-1.1A2.24,2.24,0,0,1,12.53,87.11Zm-.09-2.36a7.74,7.74,0,0,1-1.72.4,4,4,0,0,0-.92.21.92.92,0,0,0-.42.34.93.93,0,0,0,.17,1.2,1.37,1.37,0,0,0,.93.28,2.18,2.18,0,0,0,1.08-.27,1.64,1.64,0,0,0,.7-.73,2.55,2.55,0,0,0,.17-1.05Z" transform="translate(-0.88)"/><path class="cls-5" d="M16.11,87.88h-1V79.29h1.05v3.06a2.09,2.09,0,0,1,1.71-.84,2.61,2.61,0,0,1,1.09.23,2.22,2.22,0,0,1,.84.65,3.14,3.14,0,0,1,.52,1,4.17,4.17,0,0,1,.19,1.27,3.55,3.55,0,0,1-.79,2.47,2.47,2.47,0,0,1-1.9.87,2,2,0,0,1-1.73-.92Zm0-3.16a3.23,3.23,0,0,0,.3,1.62,1.51,1.51,0,0,0,2.54.21,2.73,2.73,0,0,0,.5-1.79A2.78,2.78,0,0,0,19,83a1.47,1.47,0,0,0-1.17-.58,1.52,1.52,0,0,0-1.2.6A2.64,2.64,0,0,0,16.1,84.72Z" transform="translate(-0.88)"/><path class="cls-5" d="M26.07,85.87l1.09.13a2.66,2.66,0,0,1-1,1.48,2.87,2.87,0,0,1-1.78.53,2.85,2.85,0,0,1-2.17-.84,3.29,3.29,0,0,1-.8-2.36,3.44,3.44,0,0,1,.81-2.44,2.74,2.74,0,0,1,2.1-.87,2.66,2.66,0,0,1,2,.85,3.38,3.38,0,0,1,.79,2.39q0,.09,0,.28H22.55a2.39,2.39,0,0,0,.58,1.57,1.73,1.73,0,0,0,1.3.54,1.61,1.61,0,0,0,1-.3A2,2,0,0,0,26.07,85.87Zm-3.46-1.71h3.47a2.11,2.11,0,0,0-.4-1.18,1.62,1.62,0,0,0-1.31-.61,1.68,1.68,0,0,0-1.22.49A1.92,1.92,0,0,0,22.61,84.17Z" transform="translate(-0.88)"/><path class="cls-5" d="M28.46,87.88V79.29h1.05v8.59Z" transform="translate(-0.88)"/><path class="cls-5" d="M1.88,212.88v-8.59H3v7.58H7.25v1Z" transform="translate(-0.88)"/><path class="cls-5" d="M12.53,212.11a3.93,3.93,0,0,1-1.13.7,3.26,3.26,0,0,1-1.16.21,2.26,2.26,0,0,1-1.58-.5,1.65,1.65,0,0,1-.55-1.28,1.7,1.7,0,0,1,.21-.83,1.72,1.72,0,0,1,.54-.61,2.56,2.56,0,0,1,.76-.35,7.54,7.54,0,0,1,.94-.16,9.64,9.64,0,0,0,1.88-.36q0-.22,0-.28a1.16,1.16,0,0,0-.3-.91,1.77,1.77,0,0,0-1.2-.36,1.86,1.86,0,0,0-1.1.26,1.59,1.59,0,0,0-.52.92l-1-.14a2.56,2.56,0,0,1,.46-1.07,2,2,0,0,1,.93-.63,4.16,4.16,0,0,1,1.41-.22,3.74,3.74,0,0,1,1.29.19,1.71,1.71,0,0,1,.73.47,1.66,1.66,0,0,1,.33.72,5.94,5.94,0,0,1,.05,1v1.41a14.93,14.93,0,0,0,.07,1.86,2.35,2.35,0,0,0,.27.75h-1.1A2.24,2.24,0,0,1,12.53,212.11Zm-.09-2.36a7.74,7.74,0,0,1-1.72.4,4,4,0,0,0-.92.21.92.92,0,0,0-.42.34.93.93,0,0,0,.17,1.2,1.37,1.37,0,0,0,.93.28,2.18,2.18,0,0,0,1.08-.27,1.64,1.64,0,0,0,.7-.73,2.55,2.55,0,0,0,.17-1.05Z" transform="translate(-0.88)"/><path class="cls-5" d="M16.11,212.88h-1v-8.59h1.05v3.06a2.09,2.09,0,0,1,1.71-.84,2.61,2.61,0,0,1,1.09.23,2.22,2.22,0,0,1,.84.65,3.14,3.14,0,0,1,.52,1,4.17,4.17,0,0,1,.19,1.27,3.55,3.55,0,0,1-.79,2.47,2.47,2.47,0,0,1-1.9.87,2,2,0,0,1-1.73-.92Zm0-3.16a3.23,3.23,0,0,0,.3,1.62,1.51,1.51,0,0,0,2.54.21,2.73,2.73,0,0,0,.5-1.79A2.78,2.78,0,0,0,19,208a1.47,1.47,0,0,0-1.17-.58,1.52,1.52,0,0,0-1.2.6A2.64,2.64,0,0,0,16.1,209.72Z" transform="translate(-0.88)"/><path class="cls-5" d="M26.07,210.87l1.09.13a2.66,2.66,0,0,1-1,1.48,2.87,2.87,0,0,1-1.78.53,2.85,2.85,0,0,1-2.17-.84,3.29,3.29,0,0,1-.8-2.36,3.44,3.44,0,0,1,.81-2.44,2.74,2.74,0,0,1,2.1-.87,2.66,2.66,0,0,1,2,.85,3.38,3.38,0,0,1,.79,2.39q0,.09,0,.28H22.55a2.39,2.39,0,0,0,.58,1.57,1.73,1.73,0,0,0,1.3.54,1.61,1.61,0,0,0,1-.3A2,2,0,0,0,26.07,210.87Zm-3.46-1.71h3.47a2.11,2.11,0,0,0-.4-1.18,1.62,1.62,0,0,0-1.31-.61,1.68,1.68,0,0,0-1.22.49A1.92,1.92,0,0,0,22.61,209.17Z" transform="translate(-0.88)"/><path class="cls-5" d="M28.46,212.88v-8.59h1.05v8.59Z" transform="translate(-0.88)"/><rect class="cls-8" x="43.79" y="38" width="264" height="24" rx="2" ry="2"/><path class="cls-5" d="M54.15,11v-.81a4.3,4.3,0,0,0,1.59-.37,1.83,1.83,0,0,0,.67-1.23h.83v8.36H56.12V11Z" transform="translate(-0.88)"/><path class="cls-5" d="M60.5,15A3.63,3.63,0,0,1,62,13.57l1.13-.65a5.25,5.25,0,0,0,1.06-.75,1.64,1.64,0,0,0,0-2.28,1.6,1.6,0,0,0-1.17-.43,1.53,1.53,0,0,0-1.5.82,3,3,0,0,0-.25,1.22H60.25a3.77,3.77,0,0,1,.4-1.79,2.54,2.54,0,0,1,2.42-1.22A2.49,2.49,0,0,1,65.85,11a2.36,2.36,0,0,1-.71,1.72,6.94,6.94,0,0,1-1.47,1l-.8.45a5.2,5.2,0,0,0-.9.6,2.2,2.2,0,0,0-.74,1.13h4.58v1H60A4.89,4.89,0,0,1,60.5,15Z" transform="translate(-0.88)"/><path class="cls-5" d="M67.31,16.32a3,3,0,0,1-.67-2h1.1a2.73,2.73,0,0,0,.3,1.18,1.6,1.6,0,0,0,1.48.66,1.94,1.94,0,0,0,1.34-.45,1.46,1.46,0,0,0,.5-1.15,1.34,1.34,0,0,0-.53-1.21A2.68,2.68,0,0,0,69.36,13h-.43v-.93l.28,0h.24a2.2,2.2,0,0,0,1-.19,1.19,1.19,0,0,0,.67-1.17,1.14,1.14,0,0,0-.45-1,1.66,1.66,0,0,0-1-.34,1.54,1.54,0,0,0-1.46.7,2.44,2.44,0,0,0-.25,1.1h-1a3.16,3.16,0,0,1,.38-1.59,2.36,2.36,0,0,1,2.27-1.17,3.07,3.07,0,0,1,2,.57,2,2,0,0,1,.7,1.66A1.85,1.85,0,0,1,71.76,12a1.75,1.75,0,0,1-.67.47,1.82,1.82,0,0,1,1,.7,2.12,2.12,0,0,1,.37,1.27,2.59,2.59,0,0,1-.79,2,3.12,3.12,0,0,1-2.24.76A2.64,2.64,0,0,1,67.31,16.32Z" transform="translate(-0.88)"/><path class="cls-5" d="M77,16.91V14.86H73.33v-1L77.17,8.5h.89v5.44H79.3v.92H78.06v2.05Zm0-3V10.13L74.3,13.94Z" transform="translate(-0.88)"/><path class="cls-5" d="M81.18,14.77A1.46,1.46,0,0,0,82,16a2,2,0,0,0,.87.18,1.63,1.63,0,0,0,1.39-.6,2.15,2.15,0,0,0,.45-1.32,1.73,1.73,0,0,0-.54-1.36,1.86,1.86,0,0,0-1.29-.48,1.94,1.94,0,0,0-.93.21,2,2,0,0,0-.67.59l-.91-.05L81,8.66h4.36v1H81.82L81.46,12a2.62,2.62,0,0,1,.56-.33,2.83,2.83,0,0,1,1.08-.19,2.77,2.77,0,0,1,2,.74,2.46,2.46,0,0,1,.8,1.89,3.24,3.24,0,0,1-.74,2.1,2.84,2.84,0,0,1-2.35.91A3,3,0,0,1,81,16.54a2.29,2.29,0,0,1-.88-1.77Z" transform="translate(-0.88)"/><path class="cls-5" d="M91.84,9.21a2.46,2.46,0,0,1,.55,1.5h-1a1.92,1.92,0,0,0-.3-.78,1.33,1.33,0,0,0-1.15-.53,1.6,1.6,0,0,0-1.41.82,4.71,4.71,0,0,0-.58,2.34,2.29,2.29,0,0,1,.91-.8,2.64,2.64,0,0,1,1.13-.23,2.74,2.74,0,0,1,1.84.67,2.5,2.5,0,0,1,.79,2,3,3,0,0,1-.74,2,2.62,2.62,0,0,1-2.12.88,2.72,2.72,0,0,1-2-.89,4.28,4.28,0,0,1-.86-3,8.1,8.1,0,0,1,.38-2.65,2.7,2.7,0,0,1,2.68-2.09A2.32,2.32,0,0,1,91.84,9.21ZM91,15.63a2.16,2.16,0,0,0,.41-1.32,2.26,2.26,0,0,0-.37-1.23,1.46,1.46,0,0,0-1.34-.58,1.75,1.75,0,0,0-1.19.45A1.72,1.72,0,0,0,88,14.31a2,2,0,0,0,.47,1.34,1.61,1.61,0,0,0,1.29.54A1.45,1.45,0,0,0,91,15.63Z" transform="translate(-0.88)"/><path class="cls-5" d="M99.32,8.66v.92a9.8,9.8,0,0,0-1.08,1.37A13.84,13.84,0,0,0,97.06,13a14.34,14.34,0,0,0-.77,2q-.17.58-.44,1.87H94.68a14.36,14.36,0,0,1,1.76-4.78,15.14,15.14,0,0,1,1.69-2.41H93.48V8.66Z" transform="translate(-0.88)"/><path class="cls-5" d="M100.86,12a1.66,1.66,0,0,1-.46-1.22,2.19,2.19,0,0,1,.68-1.61A2.62,2.62,0,0,1,103,8.5a2.67,2.67,0,0,1,1.89.64,2,2,0,0,1,.68,1.49,1.94,1.94,0,0,1-.4,1.27,2.39,2.39,0,0,1-.69.54,2.7,2.7,0,0,1,.82.55,2.12,2.12,0,0,1,.56,1.52,2.6,2.6,0,0,1-.74,1.88,2.79,2.79,0,0,1-2.1.77,3.25,3.25,0,0,1-2.07-.67,2.31,2.31,0,0,1-.85-1.93,2.14,2.14,0,0,1,1.44-2.12A2.1,2.1,0,0,1,100.86,12Zm3.4,3.79a1.44,1.44,0,0,0,.48-1.18,1.53,1.53,0,0,0-.5-1.24A1.91,1.91,0,0,0,103,13a1.77,1.77,0,0,0-1.23.43,1.52,1.52,0,0,0-.48,1.19,1.62,1.62,0,0,0,.44,1.13,1.74,1.74,0,0,0,1.35.48A1.86,1.86,0,0,0,104.26,15.79Zm-.2-4.15a1.27,1.27,0,0,0,.39-.93,1.23,1.23,0,0,0-.37-.86,1.5,1.5,0,0,0-1.14-.39,1.27,1.27,0,0,0-1.44,1.32,1.1,1.1,0,0,0,.44.93,1.66,1.66,0,0,0,1,.33A1.47,1.47,0,0,0,104.07,11.65Z" transform="translate(-0.88)"/><path class="cls-5" d="M108,14.88a1.33,1.33,0,0,0,.67,1.21,1.49,1.49,0,0,0,.73.18,1.63,1.63,0,0,0,1.29-.63,5.18,5.18,0,0,0,.76-2.56,2,2,0,0,1-.87.78,2.77,2.77,0,0,1-1.12.23,2.5,2.5,0,0,1-1.92-.75,2.73,2.73,0,0,1-.71-1.94,3.11,3.11,0,0,1,.7-2,2.48,2.48,0,0,1,2.06-.87,2.53,2.53,0,0,1,2.53,1.65,5.81,5.81,0,0,1,.39,2.27,7.48,7.48,0,0,1-.46,2.73,2.68,2.68,0,0,1-2.6,2,2.52,2.52,0,0,1-1.87-.64,2.2,2.2,0,0,1-.64-1.62Zm2.75-2.14a1.74,1.74,0,0,0,.52-1.44,1.84,1.84,0,0,0-.47-1.38,1.63,1.63,0,0,0-1.19-.45,1.55,1.55,0,0,0-1.23.52,2,2,0,0,0-.45,1.38,2,2,0,0,0,.4,1.3,1.56,1.56,0,0,0,1.27.48A1.8,1.8,0,0,0,110.73,12.74Z" transform="translate(-0.88)"/><rect class="cls-8" x="43.79" y="78" width="263" height="104" rx="2" ry="2"/><path class="cls-2" d="M296.17,174.83h2v2h-2Zm3-3h2v2h-2Zm0,3h2v2h-2Zm5-6v2h-2v-2Zm-2,3h2v2h-2Zm0,3h2v2h-2Z" transform="translate(-0.88)"/><path class="cls-9" d="M304.12,15.58l0,.06a.36.36,0,0,1,0,.18.28.28,0,0,1-.08.16l-1.44,1.44a.28.28,0,0,1-.16.08.36.36,0,0,1-.18,0l-.06,0,0,0-3-3-3,3,0,0-.06,0a.36.36,0,0,1-.18,0,.28.28,0,0,1-.16-.08L294.26,16a.28.28,0,0,1-.08-.16.36.36,0,0,1,0-.18l0-.06,0,0,3-3-3-3,0-.06,0-.06a.33.33,0,0,1,0-.17.29.29,0,0,1,.08-.16l1.44-1.43a.31.31,0,0,1,.16-.09.32.32,0,0,1,.18,0l.06,0,0,0,3,3,3-3,0,0,.06,0a.32.32,0,0,1,.18,0,.31.31,0,0,1,.16.09L304.08,9a.36.36,0,0,1,.08.16.3.3,0,0,1,0,.17l0,.06,0,.06-3,3,3,3Z" transform="translate(-0.88)"/><path class="cls-9" d="M53.69,47.67h1v.83a2.56,2.56,0,0,1,.69-.66,2.24,2.24,0,0,1,1.26-.35,2.37,2.37,0,0,1,1.82.82,3.34,3.34,0,0,1,.75,2.33,3.58,3.58,0,0,1-1.08,2.93,2.44,2.44,0,0,1-1.59.56,2.16,2.16,0,0,1-1.19-.31,2.75,2.75,0,0,1-.63-.6v3.21H53.69Zm4,4.92a2.94,2.94,0,0,0,.49-1.85,3.43,3.43,0,0,0-.22-1.29,1.6,1.6,0,0,0-3,.06A4.32,4.32,0,0,0,54.7,51a3.14,3.14,0,0,0,.22,1.24,1.6,1.6,0,0,0,2.74.35Z" transform="translate(-0.88)"/><path class="cls-9" d="M60.48,45.3h1.05v8.61H60.48Z" transform="translate(-0.88)"/><path class="cls-9" d="M66.48,50.11a.57.57,0,0,0,.49-.3A.93.93,0,0,0,67,49.4a.86.86,0,0,0-.38-.79,2,2,0,0,0-1.1-.24,1.39,1.39,0,0,0-1.17.45,1.48,1.48,0,0,0-.25.74h-1a1.82,1.82,0,0,1,.75-1.62,3.08,3.08,0,0,1,1.68-.46,3.41,3.41,0,0,1,1.8.42,1.43,1.43,0,0,1,.68,1.31v3.62a.46.46,0,0,0,.07.26.32.32,0,0,0,.28.1h.16l.19,0v.78l-.37.09L68,54a.87.87,0,0,1-.79-.39,1.49,1.49,0,0,1-.18-.58,2.68,2.68,0,0,1-.93.73,2.86,2.86,0,0,1-1.33.31,2,2,0,0,1-1.43-.53,1.76,1.76,0,0,1-.55-1.33,1.71,1.71,0,0,1,.54-1.35,2.58,2.58,0,0,1,1.43-.59ZM64.26,53a1.24,1.24,0,0,0,.79.26A2.41,2.41,0,0,0,66.13,53a1.45,1.45,0,0,0,.88-1.4v-.85a1.83,1.83,0,0,1-.5.21,4.22,4.22,0,0,1-.6.12l-.64.08a2.46,2.46,0,0,0-.86.24.93.93,0,0,0-.49.88A.86.86,0,0,0,64.26,53Z" transform="translate(-0.88)"/><path class="cls-9" d="M73.93,48a2.47,2.47,0,0,1,.8,1.78h-1a1.89,1.89,0,0,0-.43-1,1.35,1.35,0,0,0-1.07-.38,1.48,1.48,0,0,0-1.44,1A3.9,3.9,0,0,0,70.48,51a3,3,0,0,0,.4,1.59,1.55,1.55,0,0,0,2.29.24,2.19,2.19,0,0,0,.53-1.09h1a2.48,2.48,0,0,1-2.68,2.4,2.4,2.4,0,0,1-2-.9,3.44,3.44,0,0,1-.73-2.25,3.79,3.79,0,0,1,.8-2.57,2.59,2.59,0,0,1,2-.92A2.74,2.74,0,0,1,73.93,48Z" transform="translate(-0.88)"/><path class="cls-9" d="M79.66,47.81a2.38,2.38,0,0,1,.95.81A2.8,2.8,0,0,1,81,49.73a7.3,7.3,0,0,1,.09,1.38H76.56A2.71,2.71,0,0,0,77,52.65a1.49,1.49,0,0,0,1.3.58,1.67,1.67,0,0,0,1.31-.55,1.87,1.87,0,0,0,.39-.74h1a2.18,2.18,0,0,1-.27.77,2.77,2.77,0,0,1-.52.69,2.43,2.43,0,0,1-1.18.63,3.56,3.56,0,0,1-.85.09,2.62,2.62,0,0,1-2-.85,3.33,3.33,0,0,1-.81-2.39,3.62,3.62,0,0,1,.82-2.46,2.68,2.68,0,0,1,2.13-.94A2.83,2.83,0,0,1,79.66,47.81ZM80,50.27a2.75,2.75,0,0,0-.3-1.1,1.52,1.52,0,0,0-1.44-.76,1.58,1.58,0,0,0-1.21.52,2,2,0,0,0-.52,1.33Z" transform="translate(-0.88)"/><path class="cls-9" d="M82.46,45.27h1.05v3.21a3,3,0,0,1,.67-.67,2.27,2.27,0,0,1,1.27-.33,1.88,1.88,0,0,1,1.85,1,3.26,3.26,0,0,1,.26,1.45v4H86.49V50a2.21,2.21,0,0,0-.18-1,1.12,1.12,0,0,0-1.08-.52,1.8,1.8,0,0,0-1.19.45,2.17,2.17,0,0,0-.53,1.71v3.33H82.46Z" transform="translate(-0.88)"/><path class="cls-9" d="M93.68,48.26a3.17,3.17,0,0,1,.83,2.38,4.1,4.1,0,0,1-.73,2.51,2.64,2.64,0,0,1-2.27,1,2.56,2.56,0,0,1-2-.87,3.47,3.47,0,0,1-.76-2.35,3.76,3.76,0,0,1,.8-2.52,2.67,2.67,0,0,1,2.14-.94A2.81,2.81,0,0,1,93.68,48.26ZM93,52.43a4,4,0,0,0,.39-1.76,3.16,3.16,0,0,0-.28-1.43,1.56,1.56,0,0,0-1.52-.87,1.49,1.49,0,0,0-1.39.74,3.45,3.45,0,0,0-.43,1.78,3,3,0,0,0,.43,1.67,1.53,1.53,0,0,0,1.38.67A1.44,1.44,0,0,0,93,52.43Z" transform="translate(-0.88)"/><path class="cls-9" d="M95.84,45.3h1.05v8.61H95.84Z" transform="translate(-0.88)"/><path class="cls-9" d="M101.92,47.83a2.82,2.82,0,0,1,.64.62V45.27h1v8.64h-.95V53a2.28,2.28,0,0,1-.87.84,2.48,2.48,0,0,1-1.15.26,2.33,2.33,0,0,1-1.81-.88A3.46,3.46,0,0,1,98,50.91a4.06,4.06,0,0,1,.7-2.38,2.28,2.28,0,0,1,2-1A2.22,2.22,0,0,1,101.92,47.83Zm-2.35,4.71a1.49,1.49,0,0,0,1.36.68,1.44,1.44,0,0,0,1.2-.63,3,3,0,0,0,.47-1.81,2.68,2.68,0,0,0-.48-1.76,1.51,1.51,0,0,0-1.2-.57,1.57,1.57,0,0,0-1.29.61,2.8,2.8,0,0,0-.49,1.79A3.12,3.12,0,0,0,99.57,52.53Z" transform="translate(-0.88)"/><path class="cls-9" d="M109,47.81a2.38,2.38,0,0,1,.95.81,2.8,2.8,0,0,1,.42,1.11,7.3,7.3,0,0,1,.09,1.38h-4.56a2.71,2.71,0,0,0,.45,1.54,1.49,1.49,0,0,0,1.3.58,1.67,1.67,0,0,0,1.31-.55,1.87,1.87,0,0,0,.39-.74h1a2.18,2.18,0,0,1-.27.77,2.77,2.77,0,0,1-.52.69,2.43,2.43,0,0,1-1.18.63,3.56,3.56,0,0,1-.85.09,2.62,2.62,0,0,1-2-.85,3.33,3.33,0,0,1-.81-2.39,3.62,3.62,0,0,1,.82-2.46,2.68,2.68,0,0,1,2.13-.94A2.83,2.83,0,0,1,109,47.81Zm.38,2.46a2.75,2.75,0,0,0-.3-1.1,1.52,1.52,0,0,0-1.44-.76,1.58,1.58,0,0,0-1.21.52,2,2,0,0,0-.52,1.33Z" transform="translate(-0.88)"/><path class="cls-9" d="M111.85,47.64h1v1.08a2.39,2.39,0,0,1,.6-.77,1.56,1.56,0,0,1,1.11-.45h.1l.24,0v1.11l-.17,0h-.17a1.51,1.51,0,0,0-1.22.51,1.79,1.79,0,0,0-.43,1.18v3.61h-1.05Z" transform="translate(-0.88)"/><path class="cls-9" d="M54.68,211.13a2.42,2.42,0,0,0,.33,1.19,2.17,2.17,0,0,0,2,.86,3.37,3.37,0,0,0,1.15-.19,1.32,1.32,0,0,0,1-1.3,1.14,1.14,0,0,0-.43-1,4.21,4.21,0,0,0-1.35-.51l-1.13-.26a5,5,0,0,1-1.57-.57,1.82,1.82,0,0,1-.79-1.61,2.51,2.51,0,0,1,.78-1.9,3.08,3.08,0,0,1,2.21-.74,3.77,3.77,0,0,1,2.24.65,2.38,2.38,0,0,1,.92,2.09h-1.1a2.22,2.22,0,0,0-.36-1.06,2,2,0,0,0-1.74-.67,2,2,0,0,0-1.42.43,1.38,1.38,0,0,0-.43,1,1,1,0,0,0,.51.93,7.34,7.34,0,0,0,1.52.47l1.17.28a3.52,3.52,0,0,1,1.31.54,2.07,2.07,0,0,1,.79,1.75,2.2,2.2,0,0,1-1,2,4.46,4.46,0,0,1-2.36.62,3.47,3.47,0,0,1-2.45-.82,2.8,2.8,0,0,1-.87-2.21Z" transform="translate(-0.88)"/><path class="cls-9" d="M65.65,207.81a2.38,2.38,0,0,1,.95.81,2.8,2.8,0,0,1,.42,1.11,7.3,7.3,0,0,1,.09,1.38H62.55a2.71,2.71,0,0,0,.45,1.54,1.49,1.49,0,0,0,1.3.58,1.67,1.67,0,0,0,1.31-.55,1.87,1.87,0,0,0,.39-.74h1a2.18,2.18,0,0,1-.27.77,2.77,2.77,0,0,1-.52.69,2.43,2.43,0,0,1-1.18.63,3.56,3.56,0,0,1-.85.09,2.62,2.62,0,0,1-2-.85,3.33,3.33,0,0,1-.81-2.39,3.62,3.62,0,0,1,.82-2.46,2.68,2.68,0,0,1,2.13-.94A2.83,2.83,0,0,1,65.65,207.81Zm.38,2.46a2.75,2.75,0,0,0-.3-1.1,1.52,1.52,0,0,0-1.44-.76,1.58,1.58,0,0,0-1.21.52,2,2,0,0,0-.52,1.33Z" transform="translate(-0.88)"/><path class="cls-9" d="M68.48,205.3h1.05v8.61H68.48Z" transform="translate(-0.88)"/><path class="cls-9" d="M75,207.81a2.38,2.38,0,0,1,.95.81,2.8,2.8,0,0,1,.42,1.11,7.3,7.3,0,0,1,.09,1.38H71.89a2.71,2.71,0,0,0,.45,1.54,1.49,1.49,0,0,0,1.3.58,1.67,1.67,0,0,0,1.31-.55,1.87,1.87,0,0,0,.39-.74h1a2.18,2.18,0,0,1-.27.77,2.77,2.77,0,0,1-.52.69,2.43,2.43,0,0,1-1.18.63,3.56,3.56,0,0,1-.85.09,2.62,2.62,0,0,1-2-.85,3.33,3.33,0,0,1-.81-2.39,3.62,3.62,0,0,1,.82-2.46,2.68,2.68,0,0,1,2.13-.94A2.83,2.83,0,0,1,75,207.81Zm.38,2.46a2.75,2.75,0,0,0-.3-1.1,1.52,1.52,0,0,0-1.44-.76,1.58,1.58,0,0,0-1.21.52,2,2,0,0,0-.52,1.33Z" transform="translate(-0.88)"/><path class="cls-9" d="M81.94,208a2.47,2.47,0,0,1,.8,1.78h-1a1.89,1.89,0,0,0-.43-1,1.35,1.35,0,0,0-1.07-.38,1.48,1.48,0,0,0-1.44,1,3.9,3.9,0,0,0-.28,1.57,3,3,0,0,0,.4,1.59,1.55,1.55,0,0,0,2.29.24,2.19,2.19,0,0,0,.53-1.09h1a2.48,2.48,0,0,1-2.68,2.4,2.4,2.4,0,0,1-2-.9,3.44,3.44,0,0,1-.73-2.25,3.79,3.79,0,0,1,.8-2.57,2.59,2.59,0,0,1,2-.92A2.74,2.74,0,0,1,81.94,208Z" transform="translate(-0.88)"/><path class="cls-9" d="M84,205.88h1.07v1.75h1v.86h-1v4.1a.44.44,0,0,0,.22.44,1,1,0,0,0,.41.06h.16l.21,0v.84a2.35,2.35,0,0,1-.38.08l-.42,0a1.14,1.14,0,0,1-1-.38,1.68,1.68,0,0,1-.26-1V208.5h-.85v-.86H84Z" transform="translate(-0.88)"/></g></g></svg>