<svg xmlns="http://www.w3.org/2000/svg" viewBox="0 0 265.5 234.07"><defs><style>.cls-1{fill:#53575c;}.cls-2{fill:#cf1034;}.cls-3,.cls-5{fill:#fff;}.cls-4{fill:#84888d;}.cls-5{stroke:#c1c5ca;stroke-miterlimit:10;}.cls-6{fill:#c1c5ca;}.cls-7{fill:#acb0b5;}</style></defs><title>form Field stack</title><g id="Layer_2" data-name="Layer 2"><g id="Layer_1-2" data-name="Layer 1"><path class="cls-1" d="M.88,12.87V4.28H2v7.58H6.25v1Z" transform="translate(-0.17 -4.28)"/><path class="cls-1" d="M11.53,12.1a3.93,3.93,0,0,1-1.13.7A3.26,3.26,0,0,1,9.23,13a2.26,2.26,0,0,1-1.58-.5,1.65,1.65,0,0,1-.55-1.28,1.7,1.7,0,0,1,.21-.83,1.72,1.72,0,0,1,.54-.61,2.56,2.56,0,0,1,.76-.35,7.54,7.54,0,0,1,.94-.16,9.64,9.64,0,0,0,1.88-.36q0-.22,0-.28a1.16,1.16,0,0,0-.3-.91,1.77,1.77,0,0,0-1.2-.36,1.86,1.86,0,0,0-1.1.26,1.59,1.59,0,0,0-.52.92l-1-.14a2.56,2.56,0,0,1,.46-1.07,2,2,0,0,1,.93-.63,4.16,4.16,0,0,1,1.41-.22,3.74,3.74,0,0,1,1.29.19,1.71,1.71,0,0,1,.73.47,1.66,1.66,0,0,1,.33.72,5.94,5.94,0,0,1,.05,1v1.41a14.93,14.93,0,0,0,.07,1.86,2.35,2.35,0,0,0,.27.75h-1.1A2.24,2.24,0,0,1,11.53,12.1Zm-.09-2.36a7.74,7.74,0,0,1-1.72.4,4,4,0,0,0-.92.21.92.92,0,0,0-.42.34.93.93,0,0,0,.17,1.2,1.37,1.37,0,0,0,.93.28,2.18,2.18,0,0,0,1.08-.27,1.64,1.64,0,0,0,.7-.73,2.55,2.55,0,0,0,.17-1.05Z" transform="translate(-0.17 -4.28)"/><path class="cls-1" d="M15.11,12.87h-1V4.28h1.05V7.35a2.09,2.09,0,0,1,1.71-.84A2.61,2.61,0,0,1,18,6.74a2.22,2.22,0,0,1,.84.65,3.14,3.14,0,0,1,.52,1,4.17,4.17,0,0,1,.19,1.27,3.55,3.55,0,0,1-.79,2.47,2.47,2.47,0,0,1-1.9.87,2,2,0,0,1-1.73-.92Zm0-3.16a3.23,3.23,0,0,0,.3,1.62,1.51,1.51,0,0,0,2.54.21,2.73,2.73,0,0,0,.5-1.79A2.78,2.78,0,0,0,18,8a1.47,1.47,0,0,0-1.17-.58,1.52,1.52,0,0,0-1.2.6A2.64,2.64,0,0,0,15.1,9.71Z" transform="translate(-0.17 -4.28)"/><path class="cls-1" d="M25.07,10.87l1.09.13a2.66,2.66,0,0,1-1,1.48,2.87,2.87,0,0,1-1.78.53,2.85,2.85,0,0,1-2.17-.84,3.29,3.29,0,0,1-.8-2.36,3.44,3.44,0,0,1,.81-2.44,2.74,2.74,0,0,1,2.1-.87,2.66,2.66,0,0,1,2,.85,3.38,3.38,0,0,1,.79,2.39q0,.09,0,.28H21.55a2.39,2.39,0,0,0,.58,1.57,1.73,1.73,0,0,0,1.3.54,1.61,1.61,0,0,0,1-.3A2,2,0,0,0,25.07,10.87ZM21.61,9.16h3.47A2.11,2.11,0,0,0,24.69,8a1.62,1.62,0,0,0-1.31-.61,1.68,1.68,0,0,0-1.22.49A1.92,1.92,0,0,0,21.61,9.16Z" transform="translate(-0.17 -4.28)"/><path class="cls-1" d="M27.46,12.87V4.28h1.05v8.59Z" transform="translate(-0.17 -4.28)"/><path class="cls-2" d="M33.49,7.61a1.86,1.86,0,0,1,1.85-1.85,1.8,1.8,0,0,1,1.31.54,1.85,1.85,0,0,1,0,2.63,1.86,1.86,0,0,1-3.17-1.31Z" transform="translate(-0.17 -4.28)"/><rect class="cls-3" x="1" y="20.07" width="264" height="23" rx="1.5" ry="1.5"/><path class="cls-4" d="M263.67,24.85a1,1,0,0,1,1,1v20a1,1,0,0,1-1,1H2.67a1,1,0,0,1-1-1v-20a1,1,0,0,1,1-1h261m0-1H2.67a2,2,0,0,0-2,2v20a2,2,0,0,0,2,2h261a2,2,0,0,0,2-2v-20a2,2,0,0,0-2-2Z" transform="translate(-0.17 -4.28)"/><path class="cls-1" d="M.88,69.72V61.13H2v7.58H6.25v1Z" transform="translate(-0.17 -4.28)"/><path class="cls-1" d="M11.53,69a3.93,3.93,0,0,1-1.13.7,3.26,3.26,0,0,1-1.16.21,2.26,2.26,0,0,1-1.58-.5,1.65,1.65,0,0,1-.55-1.28,1.7,1.7,0,0,1,.21-.83,1.72,1.72,0,0,1,.54-.61,2.56,2.56,0,0,1,.76-.35,7.54,7.54,0,0,1,.94-.16,9.64,9.64,0,0,0,1.88-.36q0-.22,0-.28a1.16,1.16,0,0,0-.3-.91,1.77,1.77,0,0,0-1.2-.36,1.86,1.86,0,0,0-1.1.26,1.59,1.59,0,0,0-.52.92l-1-.14a2.56,2.56,0,0,1,.46-1.07,2,2,0,0,1,.93-.63,4.16,4.16,0,0,1,1.41-.22,3.74,3.74,0,0,1,1.29.19,1.71,1.71,0,0,1,.73.47,1.66,1.66,0,0,1,.33.72,5.94,5.94,0,0,1,.05,1v1.41A14.93,14.93,0,0,0,12.57,69a2.35,2.35,0,0,0,.27.75h-1.1A2.24,2.24,0,0,1,11.53,69Zm-.09-2.36a7.74,7.74,0,0,1-1.72.4,4,4,0,0,0-.92.21.92.92,0,0,0-.42.34.93.93,0,0,0,.17,1.2,1.37,1.37,0,0,0,.93.28,2.18,2.18,0,0,0,1.08-.27,1.64,1.64,0,0,0,.7-.73A2.55,2.55,0,0,0,11.44,67Z" transform="translate(-0.17 -4.28)"/><path class="cls-1" d="M15.11,69.72h-1V61.13h1.05V64.2a2.09,2.09,0,0,1,1.71-.84,2.61,2.61,0,0,1,1.09.23,2.22,2.22,0,0,1,.84.65,3.14,3.14,0,0,1,.52,1,4.17,4.17,0,0,1,.19,1.27A3.55,3.55,0,0,1,18.74,69a2.47,2.47,0,0,1-1.9.87,2,2,0,0,1-1.73-.92Zm0-3.16a3.23,3.23,0,0,0,.3,1.62,1.51,1.51,0,0,0,2.54.21,2.73,2.73,0,0,0,.5-1.79,2.78,2.78,0,0,0-.48-1.8,1.47,1.47,0,0,0-1.17-.58,1.52,1.52,0,0,0-1.2.6A2.64,2.64,0,0,0,15.1,66.57Z" transform="translate(-0.17 -4.28)"/><path class="cls-1" d="M25.07,67.72l1.09.13a2.66,2.66,0,0,1-1,1.48,2.87,2.87,0,0,1-1.78.53A2.85,2.85,0,0,1,21.26,69a3.29,3.29,0,0,1-.8-2.36,3.44,3.44,0,0,1,.81-2.44,2.74,2.74,0,0,1,2.1-.87,2.66,2.66,0,0,1,2,.85,3.38,3.38,0,0,1,.79,2.39q0,.09,0,.28H21.55a2.39,2.39,0,0,0,.58,1.57,1.73,1.73,0,0,0,1.3.54,1.61,1.61,0,0,0,1-.3A2,2,0,0,0,25.07,67.72ZM21.61,66h3.47a2.11,2.11,0,0,0-.4-1.18,1.62,1.62,0,0,0-1.31-.61,1.68,1.68,0,0,0-1.22.49A1.92,1.92,0,0,0,21.61,66Z" transform="translate(-0.17 -4.28)"/><path class="cls-1" d="M27.46,69.72V61.13h1.05v8.59Z" transform="translate(-0.17 -4.28)"/><path class="cls-1" d="M.88,126.72v-8.59H2v7.58H6.25v1Z" transform="translate(-0.17 -4.28)"/><path class="cls-1" d="M11.53,126a3.93,3.93,0,0,1-1.13.7,3.26,3.26,0,0,1-1.16.21,2.26,2.26,0,0,1-1.58-.5,1.65,1.65,0,0,1-.55-1.28,1.7,1.7,0,0,1,.21-.83,1.72,1.72,0,0,1,.54-.61,2.56,2.56,0,0,1,.76-.35,7.54,7.54,0,0,1,.94-.16,9.64,9.64,0,0,0,1.88-.36q0-.22,0-.28a1.16,1.16,0,0,0-.3-.91,1.77,1.77,0,0,0-1.2-.36,1.86,1.86,0,0,0-1.1.26,1.59,1.59,0,0,0-.52.92l-1-.14a2.56,2.56,0,0,1,.46-1.07,2,2,0,0,1,.93-.63,4.16,4.16,0,0,1,1.41-.22,3.74,3.74,0,0,1,1.29.19,1.71,1.71,0,0,1,.73.47,1.66,1.66,0,0,1,.33.72,5.94,5.94,0,0,1,.05,1v1.41a14.93,14.93,0,0,0,.07,1.86,2.35,2.35,0,0,0,.27.75h-1.1A2.24,2.24,0,0,1,11.53,126Zm-.09-2.36a7.74,7.74,0,0,1-1.72.4,4,4,0,0,0-.92.21.92.92,0,0,0-.42.34.93.93,0,0,0,.17,1.2,1.37,1.37,0,0,0,.93.28,2.18,2.18,0,0,0,1.08-.27,1.64,1.64,0,0,0,.7-.73,2.55,2.55,0,0,0,.17-1.05Z" transform="translate(-0.17 -4.28)"/><path class="cls-1" d="M15.11,126.72h-1v-8.59h1.05v3.06a2.09,2.09,0,0,1,1.71-.84,2.61,2.61,0,0,1,1.09.23,2.22,2.22,0,0,1,.84.65,3.14,3.14,0,0,1,.52,1,4.17,4.17,0,0,1,.19,1.27,3.55,3.55,0,0,1-.79,2.47,2.47,2.47,0,0,1-1.9.87,2,2,0,0,1-1.73-.92Zm0-3.16a3.23,3.23,0,0,0,.3,1.62,1.51,1.51,0,0,0,2.54.21,2.73,2.73,0,0,0,.5-1.79,2.78,2.78,0,0,0-.48-1.8,1.47,1.47,0,0,0-1.17-.58,1.52,1.52,0,0,0-1.2.6A2.64,2.64,0,0,0,15.1,123.57Z" transform="translate(-0.17 -4.28)"/><path class="cls-1" d="M25.07,124.72l1.09.13a2.66,2.66,0,0,1-1,1.48,2.87,2.87,0,0,1-1.78.53,2.85,2.85,0,0,1-2.17-.84,3.29,3.29,0,0,1-.8-2.36,3.44,3.44,0,0,1,.81-2.44,2.74,2.74,0,0,1,2.1-.87,2.66,2.66,0,0,1,2,.85,3.38,3.38,0,0,1,.79,2.39q0,.09,0,.28H21.55a2.39,2.39,0,0,0,.58,1.57,1.73,1.73,0,0,0,1.3.54,1.61,1.61,0,0,0,1-.3A2,2,0,0,0,25.07,124.72ZM21.61,123h3.47a2.11,2.11,0,0,0-.4-1.18,1.62,1.62,0,0,0-1.31-.61,1.68,1.68,0,0,0-1.22.49A1.92,1.92,0,0,0,21.61,123Z" transform="translate(-0.17 -4.28)"/><path class="cls-1" d="M27.46,126.72v-8.59h1.05v8.59Z" transform="translate(-0.17 -4.28)"/><rect class="cls-5" x="0.5" y="73.57" width="264" height="24" rx="2" ry="2"/><path class="cls-1" d="M10.15,34.82V34a4.3,4.3,0,0,0,1.59-.37,1.83,1.83,0,0,0,.67-1.23h.83v8.36H12.12V34.82Z" transform="translate(-0.17 -4.28)"/><path class="cls-1" d="M16.5,38.87A3.63,3.63,0,0,1,18,37.42l1.13-.65A5.25,5.25,0,0,0,20.2,36a1.64,1.64,0,0,0,0-2.28,1.6,1.6,0,0,0-1.17-.43,1.53,1.53,0,0,0-1.5.82,3,3,0,0,0-.25,1.22H16.25a3.77,3.77,0,0,1,.4-1.79,2.54,2.54,0,0,1,2.42-1.22,2.49,2.49,0,0,1,2.77,2.51,2.36,2.36,0,0,1-.71,1.72,6.94,6.94,0,0,1-1.47,1l-.8.45a5.2,5.2,0,0,0-.9.6,2.2,2.2,0,0,0-.74,1.13h4.58v1H16A4.89,4.89,0,0,1,16.5,38.87Z" transform="translate(-0.17 -4.28)"/><path class="cls-1" d="M23.31,40.17a3,3,0,0,1-.67-2h1.1a2.73,2.73,0,0,0,.3,1.18,1.6,1.6,0,0,0,1.48.66,1.94,1.94,0,0,0,1.34-.45,1.46,1.46,0,0,0,.5-1.15,1.34,1.34,0,0,0-.53-1.21,2.68,2.68,0,0,0-1.47-.35h-.43V36l.28,0h.24a2.2,2.2,0,0,0,1-.19,1.19,1.19,0,0,0,.67-1.17,1.14,1.14,0,0,0-.45-1,1.66,1.66,0,0,0-1-.34,1.54,1.54,0,0,0-1.46.7,2.44,2.44,0,0,0-.25,1.1h-1a3.16,3.16,0,0,1,.38-1.59,2.36,2.36,0,0,1,2.27-1.17,3.07,3.07,0,0,1,2,.57,2,2,0,0,1,.7,1.66,1.85,1.85,0,0,1-.42,1.25,1.75,1.75,0,0,1-.67.47,1.82,1.82,0,0,1,1,.7,2.12,2.12,0,0,1,.37,1.27,2.59,2.59,0,0,1-.79,2,3.12,3.12,0,0,1-2.24.76A2.64,2.64,0,0,1,23.31,40.17Z" transform="translate(-0.17 -4.28)"/><path class="cls-1" d="M33,40.76V38.71H29.33v-1l3.84-5.33h.89v5.44H35.3v.92H34.06v2.05Zm0-3V34L30.3,37.79Z" transform="translate(-0.17 -4.28)"/><path class="cls-1" d="M37.18,38.62A1.46,1.46,0,0,0,38,39.87a2,2,0,0,0,.87.18,1.63,1.63,0,0,0,1.39-.6,2.15,2.15,0,0,0,.45-1.32,1.73,1.73,0,0,0-.54-1.36,1.86,1.86,0,0,0-1.29-.48,1.94,1.94,0,0,0-.93.21,2,2,0,0,0-.67.59L36.39,37,37,32.51h4.36v1H37.82l-.36,2.33a2.62,2.62,0,0,1,.56-.33,2.83,2.83,0,0,1,1.08-.19,2.77,2.77,0,0,1,2,.74,2.46,2.46,0,0,1,.8,1.89,3.24,3.24,0,0,1-.74,2.1,2.84,2.84,0,0,1-2.35.91A3,3,0,0,1,37,40.39a2.29,2.29,0,0,1-.88-1.77Z" transform="translate(-0.17 -4.28)"/><path class="cls-1" d="M47.84,33.06a2.46,2.46,0,0,1,.55,1.5h-1a1.92,1.92,0,0,0-.3-.78,1.33,1.33,0,0,0-1.15-.53,1.6,1.6,0,0,0-1.41.82,4.71,4.71,0,0,0-.58,2.34,2.29,2.29,0,0,1,.91-.8,2.64,2.64,0,0,1,1.13-.23,2.74,2.74,0,0,1,1.84.67,2.5,2.5,0,0,1,.79,2,3,3,0,0,1-.74,2,2.62,2.62,0,0,1-2.12.88,2.72,2.72,0,0,1-2-.89,4.28,4.28,0,0,1-.86-3,8.1,8.1,0,0,1,.38-2.65,2.7,2.7,0,0,1,2.68-2.09A2.32,2.32,0,0,1,47.84,33.06ZM47,39.48a2.16,2.16,0,0,0,.41-1.32,2.26,2.26,0,0,0-.37-1.23,1.46,1.46,0,0,0-1.34-.58,1.75,1.75,0,0,0-1.19.45A1.72,1.72,0,0,0,44,38.16a2,2,0,0,0,.47,1.34A1.61,1.61,0,0,0,45.8,40,1.45,1.45,0,0,0,47,39.48Z" transform="translate(-0.17 -4.28)"/><path class="cls-1" d="M55.32,32.51v.92a9.8,9.8,0,0,0-1.08,1.37,13.84,13.84,0,0,0-1.19,2.1,14.34,14.34,0,0,0-.77,2q-.17.58-.44,1.87H50.68A14.36,14.36,0,0,1,52.44,36a15.14,15.14,0,0,1,1.69-2.41H49.48V32.51Z" transform="translate(-0.17 -4.28)"/><path class="cls-1" d="M56.86,35.85a1.66,1.66,0,0,1-.46-1.22A2.19,2.19,0,0,1,57.08,33,2.62,2.62,0,0,1,59,32.35a2.67,2.67,0,0,1,1.89.64,2,2,0,0,1,.68,1.49,1.94,1.94,0,0,1-.4,1.27,2.39,2.39,0,0,1-.69.54,2.7,2.7,0,0,1,.82.55,2.12,2.12,0,0,1,.56,1.52,2.6,2.6,0,0,1-.74,1.88A2.79,2.79,0,0,1,59,41,3.25,3.25,0,0,1,57,40.34a2.31,2.31,0,0,1-.85-1.93,2.14,2.14,0,0,1,1.44-2.12A2.1,2.1,0,0,1,56.86,35.85Zm3.4,3.79a1.44,1.44,0,0,0,.48-1.18,1.53,1.53,0,0,0-.5-1.24A1.91,1.91,0,0,0,59,36.81a1.77,1.77,0,0,0-1.23.43,1.52,1.52,0,0,0-.48,1.19,1.62,1.62,0,0,0,.44,1.13A1.74,1.74,0,0,0,59,40,1.86,1.86,0,0,0,60.26,39.64Zm-.2-4.15a1.27,1.27,0,0,0,.39-.93,1.23,1.23,0,0,0-.37-.86,1.5,1.5,0,0,0-1.14-.39,1.27,1.27,0,0,0-1.44,1.32,1.1,1.1,0,0,0,.44.93,1.66,1.66,0,0,0,1,.33A1.47,1.47,0,0,0,60.07,35.5Z" transform="translate(-0.17 -4.28)"/><path class="cls-1" d="M64,38.73a1.33,1.33,0,0,0,.67,1.21,1.49,1.49,0,0,0,.73.18,1.63,1.63,0,0,0,1.29-.63,5.18,5.18,0,0,0,.76-2.56,2,2,0,0,1-.87.78,2.77,2.77,0,0,1-1.12.23,2.5,2.5,0,0,1-1.92-.75,2.73,2.73,0,0,1-.71-1.94,3.11,3.11,0,0,1,.7-2,2.48,2.48,0,0,1,2.06-.87A2.53,2.53,0,0,1,68.1,34a5.81,5.81,0,0,1,.39,2.27A7.48,7.48,0,0,1,68,39a2.68,2.68,0,0,1-2.6,2,2.52,2.52,0,0,1-1.87-.64,2.2,2.2,0,0,1-.64-1.62Zm2.75-2.14a1.74,1.74,0,0,0,.52-1.44,1.84,1.84,0,0,0-.47-1.38,1.63,1.63,0,0,0-1.19-.45,1.55,1.55,0,0,0-1.23.52,2,2,0,0,0-.45,1.38,2,2,0,0,0,.4,1.3,1.56,1.56,0,0,0,1.27.48A1.8,1.8,0,0,0,66.73,36.59Z" transform="translate(-0.17 -4.28)"/><rect class="cls-5" x="0.5" y="129.57" width="263" height="104" rx="2" ry="2"/><path class="cls-6" d="M252.17,230.68h2v2h-2Zm3-3h2v2h-2Zm0,3h2v2h-2Zm5-6v2h-2v-2Zm-2,3h2v2h-2Zm0,3h2v2h-2Z" transform="translate(-0.17 -4.28)"/><path class="cls-7" d="M260.12,39.43l0,.06a.36.36,0,0,1,0,.18.28.28,0,0,1-.08.16l-1.44,1.44a.28.28,0,0,1-.16.08.36.36,0,0,1-.18,0l-.06,0,0,0-3-3-3,3,0,0-.06,0a.36.36,0,0,1-.18,0,.28.28,0,0,1-.16-.08l-1.44-1.44a.28.28,0,0,1-.08-.16.36.36,0,0,1,0-.18l0-.06,0,0,3-3-3-3,0-.06,0-.06a.33.33,0,0,1,0-.17.29.29,0,0,1,.08-.16l1.44-1.43a.31.31,0,0,1,.16-.09.32.32,0,0,1,.18,0l.06,0,0,0,3,3,3-3,0,0,.06,0a.32.32,0,0,1,.18,0,.31.31,0,0,1,.16.09l1.44,1.43a.36.36,0,0,1,.08.16.3.3,0,0,1,0,.17l0,.06,0,.06-3,3,3,3Z" transform="translate(-0.17 -4.28)"/><path class="cls-7" d="M9.69,87.51h1v.83a2.56,2.56,0,0,1,.69-.66,2.24,2.24,0,0,1,1.26-.35,2.37,2.37,0,0,1,1.82.82,3.34,3.34,0,0,1,.75,2.33,3.58,3.58,0,0,1-1.08,2.93,2.44,2.44,0,0,1-1.59.56,2.16,2.16,0,0,1-1.19-.31,2.75,2.75,0,0,1-.63-.6v3.21H9.69Zm4,4.92a2.94,2.94,0,0,0,.49-1.85,3.43,3.43,0,0,0-.22-1.29,1.5,1.5,0,0,0-1.5-1,1.5,1.5,0,0,0-1.5,1.1,4.32,4.32,0,0,0-.22,1.49,3.14,3.14,0,0,0,.22,1.24,1.6,1.6,0,0,0,2.74.35Z" transform="translate(-0.17 -4.28)"/><path class="cls-7" d="M16.48,85.15h1.05v8.61H16.48Z" transform="translate(-0.17 -4.28)"/><path class="cls-7" d="M22.48,90a.57.57,0,0,0,.49-.3.93.93,0,0,0,.07-.41.86.86,0,0,0-.38-.79,2,2,0,0,0-1.1-.24,1.39,1.39,0,0,0-1.17.45,1.48,1.48,0,0,0-.25.74h-1a1.82,1.82,0,0,1,.75-1.62,3.08,3.08,0,0,1,1.68-.46,3.41,3.41,0,0,1,1.8.42,1.43,1.43,0,0,1,.68,1.31v3.62a.46.46,0,0,0,.07.26.32.32,0,0,0,.28.1h.16l.19,0v.78l-.37.09-.35,0a.87.87,0,0,1-.79-.39,1.49,1.49,0,0,1-.18-.58,2.68,2.68,0,0,1-.93.73A2.86,2.86,0,0,1,20.8,94a2,2,0,0,1-1.43-.53,1.76,1.76,0,0,1-.55-1.33,1.71,1.71,0,0,1,.54-1.35,2.58,2.58,0,0,1,1.43-.59Zm-2.22,2.85a1.24,1.24,0,0,0,.79.26,2.41,2.41,0,0,0,1.08-.26,1.45,1.45,0,0,0,.88-1.4v-.85a1.83,1.83,0,0,1-.5.21,4.22,4.22,0,0,1-.6.12l-.64.08a2.46,2.46,0,0,0-.86.24.93.93,0,0,0-.49.88A.86.86,0,0,0,20.26,92.81Z" transform="translate(-0.17 -4.28)"/><path class="cls-7" d="M29.93,87.82a2.47,2.47,0,0,1,.8,1.78h-1a1.89,1.89,0,0,0-.43-1,1.35,1.35,0,0,0-1.07-.38,1.48,1.48,0,0,0-1.44,1,3.9,3.9,0,0,0-.28,1.57,3,3,0,0,0,.4,1.59,1.55,1.55,0,0,0,2.29.24,2.19,2.19,0,0,0,.53-1.09h1a2.48,2.48,0,0,1-2.68,2.4,2.4,2.4,0,0,1-2-.9,3.44,3.44,0,0,1-.73-2.25,3.79,3.79,0,0,1,.8-2.57,2.59,2.59,0,0,1,2-.92A2.74,2.74,0,0,1,29.93,87.82Z" transform="translate(-0.17 -4.28)"/><path class="cls-7" d="M35.66,87.66a2.38,2.38,0,0,1,.95.81A2.8,2.8,0,0,1,37,89.58,7.3,7.3,0,0,1,37.13,91H32.56A2.71,2.71,0,0,0,33,92.5a1.49,1.49,0,0,0,1.3.58,1.67,1.67,0,0,0,1.31-.55,1.87,1.87,0,0,0,.39-.74h1a2.18,2.18,0,0,1-.27.77,2.77,2.77,0,0,1-.52.69,2.43,2.43,0,0,1-1.18.63,3.56,3.56,0,0,1-.85.09,2.62,2.62,0,0,1-2-.85,3.33,3.33,0,0,1-.81-2.39,3.62,3.62,0,0,1,.82-2.46,2.68,2.68,0,0,1,2.13-.94A2.83,2.83,0,0,1,35.66,87.66ZM36,90.12a2.75,2.75,0,0,0-.3-1.1,1.52,1.52,0,0,0-1.44-.76,1.58,1.58,0,0,0-1.21.52,2,2,0,0,0-.52,1.33Z" transform="translate(-0.17 -4.28)"/><path class="cls-7" d="M38.46,85.12h1.05v3.21a3,3,0,0,1,.67-.67,2.27,2.27,0,0,1,1.27-.33,1.88,1.88,0,0,1,1.85,1,3.26,3.26,0,0,1,.26,1.45v4H42.49v-4a2.21,2.21,0,0,0-.18-1,1.12,1.12,0,0,0-1.08-.52,1.8,1.8,0,0,0-1.19.45,2.17,2.17,0,0,0-.53,1.71v3.33H38.46Z" transform="translate(-0.17 -4.28)"/><path class="cls-7" d="M49.68,88.11a3.17,3.17,0,0,1,.83,2.38A4.1,4.1,0,0,1,49.78,93a2.64,2.64,0,0,1-2.27,1,2.56,2.56,0,0,1-2-.87,3.47,3.47,0,0,1-.76-2.35,3.76,3.76,0,0,1,.8-2.52,2.67,2.67,0,0,1,2.14-.94A2.81,2.81,0,0,1,49.68,88.11ZM49,92.28a4,4,0,0,0,.39-1.76,3.16,3.16,0,0,0-.28-1.43,1.56,1.56,0,0,0-1.52-.87,1.49,1.49,0,0,0-1.39.74,3.45,3.45,0,0,0-.43,1.78,3,3,0,0,0,.43,1.67,1.53,1.53,0,0,0,1.38.67A1.44,1.44,0,0,0,49,92.28Z" transform="translate(-0.17 -4.28)"/><path class="cls-7" d="M51.84,85.15h1.05v8.61H51.84Z" transform="translate(-0.17 -4.28)"/><path class="cls-7" d="M57.92,87.68a2.82,2.82,0,0,1,.64.62V85.12h1v8.64h-.95v-.87a2.28,2.28,0,0,1-.87.84A2.48,2.48,0,0,1,56.6,94a2.33,2.33,0,0,1-1.81-.88A3.46,3.46,0,0,1,54,90.75a4.06,4.06,0,0,1,.7-2.38,2.28,2.28,0,0,1,2-1A2.22,2.22,0,0,1,57.92,87.68Zm-2.35,4.71a1.49,1.49,0,0,0,1.36.68,1.44,1.44,0,0,0,1.2-.63,3,3,0,0,0,.47-1.81,2.68,2.68,0,0,0-.48-1.76,1.51,1.51,0,0,0-1.2-.57,1.57,1.57,0,0,0-1.29.61,2.8,2.8,0,0,0-.49,1.79A3.12,3.12,0,0,0,55.57,92.38Z" transform="translate(-0.17 -4.28)"/><path class="cls-7" d="M65,87.66a2.38,2.38,0,0,1,.95.81,2.8,2.8,0,0,1,.42,1.11A7.3,7.3,0,0,1,66.49,91H61.92a2.71,2.71,0,0,0,.45,1.54,1.49,1.49,0,0,0,1.3.58A1.67,1.67,0,0,0,65,92.53a1.87,1.87,0,0,0,.39-.74h1a2.18,2.18,0,0,1-.27.77,2.77,2.77,0,0,1-.52.69,2.43,2.43,0,0,1-1.18.63,3.56,3.56,0,0,1-.85.09,2.62,2.62,0,0,1-2-.85,3.33,3.33,0,0,1-.81-2.39,3.62,3.62,0,0,1,.82-2.46,2.68,2.68,0,0,1,2.13-.94A2.83,2.83,0,0,1,65,87.66Zm.38,2.46a2.75,2.75,0,0,0-.3-1.1,1.52,1.52,0,0,0-1.44-.76,1.58,1.58,0,0,0-1.21.52,2,2,0,0,0-.52,1.33Z" transform="translate(-0.17 -4.28)"/><path class="cls-7" d="M67.85,87.49h1v1.08a2.39,2.39,0,0,1,.6-.77,1.56,1.56,0,0,1,1.11-.45h.1l.24,0v1.11l-.17,0h-.17a1.51,1.51,0,0,0-1.22.51,1.79,1.79,0,0,0-.43,1.18v3.61H67.85Z" transform="translate(-0.17 -4.28)"/></g></g></svg>