<svg xmlns="http://www.w3.org/2000/svg" viewBox="0 0 740.64 783"><defs><style>.cls-1,.cls-2,.cls-7{fill:none;}.cls-1,.cls-7{stroke:#c1c5ca;}.cls-1,.cls-2,.cls-3,.cls-6,.cls-7{stroke-linecap:round;stroke-miterlimit:10;}.cls-1,.cls-3{stroke-width:10px;}.cls-2{stroke:#acb0b5;stroke-width:5px;}.cls-2,.cls-4{opacity:0.5;}.cls-3{fill:#00b5f1;stroke:#cf1034;}.cls-4{fill:#eaeef3;}.cls-5{opacity:0.52;}.cls-6{fill:#c1c5ca;stroke:#000;stroke-width:16px;}.cls-7{stroke-width:40px;}</style></defs><title>hierarch tools</title><g id="Layer_2" data-name="Layer 2"><g id="Layer_1-2" data-name="Layer 1"><line class="cls-1" x1="141.5" y1="6.5" x2="306.5" y2="6.5"/><line class="cls-2" x1="141.86" y1="34.5" x2="438.52" y2="34.5"/><line class="cls-2" x1="141.86" y1="55.5" x2="438.52" y2="55.5"/><line class="cls-2" x1="140" y1="74.5" x2="438.5" y2="74.5"/><line class="cls-2" x1="140.52" y1="97.5" x2="438.5" y2="97.5"/><line class="cls-3" x1="141.5" y1="689.5" x2="306.5" y2="689.5"/><line class="cls-2" x1="141.86" y1="717.5" x2="438.52" y2="717.5"/><line class="cls-2" x1="141.86" y1="738.5" x2="438.52" y2="738.5"/><line class="cls-2" x1="140" y1="757.5" x2="438.5" y2="757.5"/><line class="cls-2" x1="140.52" y1="780.5" x2="438.5" y2="780.5"/><rect class="cls-4" width="118.5" height="105"/><g class="cls-5"><path d="M102.94,17.54a1.26,1.26,0,0,1,.92.4,1.34,1.34,0,0,1,.39,1V83.56a1.34,1.34,0,0,1-.39,1,1.26,1.26,0,0,1-.92.4H20.2a1.35,1.35,0,0,1-1.38-1.38V18.92a1.35,1.35,0,0,1,1.38-1.38ZM96.17,74.15V25.63H26.92V72.11l19.55-26.2a.42.42,0,0,1,.2-.2.58.58,0,0,1,.26-.07.41.41,0,0,1,.23.07l.16.13L63.84,66.18l12.9-11.32a.49.49,0,0,1,.43-.17.63.63,0,0,1,.36.17ZM71,43.28a6.65,6.65,0,1,1,9.41,0,6.6,6.6,0,0,1-9.41,0Z"/></g><line class="cls-6" x1="148.5" y1="242.5" x2="313.5" y2="242.5"/><line class="cls-2" x1="141.86" y1="270.5" x2="438.52" y2="270.5"/><line class="cls-2" x1="141.86" y1="291.5" x2="438.52" y2="291.5"/><line class="cls-2" x1="140" y1="310.5" x2="438.5" y2="310.5"/><line class="cls-2" x1="140.52" y1="333.5" x2="438.5" y2="333.5"/><line class="cls-7" x1="159" y1="461" x2="324" y2="461"/><line class="cls-2" x1="141.86" y1="498.5" x2="438.52" y2="498.5"/><line class="cls-2" x1="141.86" y1="519.5" x2="438.52" y2="519.5"/><line class="cls-2" x1="140" y1="538.5" x2="438.5" y2="538.5"/><line class="cls-2" x1="140.52" y1="561.5" x2="438.5" y2="561.5"/><path d="M588.44,40.63h2.35V59h-2.35Z"/><path d="M595.52,45.39h1.9l.2,2h.08a6,6,0,0,1,4.23-2.3,3.57,3.57,0,0,1,3.75,2.6c1.43-1.54,2.83-2.6,4.48-2.6,2.8,0,4.14,1.85,4.14,5.32V59H612V50.68c0-2.55-.81-3.64-2.52-3.64-1.06,0-2.16.7-3.42,2.1V59h-2.3V50.68c0-2.55-.81-3.64-2.55-3.64-1,0-2.16.7-3.42,2.1V59h-2.3Z"/><path d="M626.43,50.38c0-1.74-.59-3.42-2.8-3.42a7.32,7.32,0,0,0-4.06,1.46l-.92-1.6A10.1,10.1,0,0,1,624,45.06c3.33,0,4.73,2.21,4.73,5.6V59h-1.9l-.2-1.62h-.06a7.39,7.39,0,0,1-4.51,2,3.71,3.71,0,0,1-4-3.86C618.06,52.5,620.64,51,626.43,50.38Zm-3.72,7.11a5.58,5.58,0,0,0,3.72-1.82V51.89c-4.56.56-6.1,1.68-6.1,3.42A2.09,2.09,0,0,0,622.71,57.49Z"/><path d="M634,58.52v-.11a2.51,2.51,0,0,1-1.2-2.21,3.19,3.19,0,0,1,1.48-2.52v-.11a4.8,4.8,0,0,1,3.36-8.51,5.45,5.45,0,0,1,1.93.34h4.73v1.76h-2.8a4,4,0,0,1,1.12,2.8,4.67,4.67,0,0,1-5,4.73,4.76,4.76,0,0,1-2-.48,2.06,2.06,0,0,0-.87,1.62c0,.87.56,1.48,2.41,1.48h2.63c3.16,0,4.76,1,4.76,3.25,0,2.52-2.66,4.7-6.89,4.7-3.33,0-5.63-1.32-5.63-3.67A3.93,3.93,0,0,1,634,58.52Zm4,5.15c2.6,0,4.31-1.34,4.31-2.77,0-1.26-1-1.68-2.74-1.68h-2.35a6.63,6.63,0,0,1-1.76-.22,2.87,2.87,0,0,0-1.4,2.3C634,62.75,635.53,63.68,638,63.68Zm2.55-13.78a2.9,2.9,0,1,0-5.77,0,2.9,2.9,0,1,0,5.77,0Z"/><path d="M651.88,45.06c3.47,0,5.43,2.49,5.43,6.38a8.16,8.16,0,0,1-.08,1.26H648c.17,2.94,1.93,4.79,4.54,4.79A6.14,6.14,0,0,0,656,56.42l.81,1.51a8.1,8.1,0,0,1-4.48,1.4c-3.64,0-6.52-2.66-6.52-7.11S648.78,45.06,651.88,45.06Zm3.42,6.13c0-2.77-1.23-4.31-3.36-4.31-1.9,0-3.64,1.57-3.92,4.31Z"/><path d="M660.31,55.92a6.12,6.12,0,0,0,4,1.62c1.79,0,2.69-1,2.69-2.13,0-1.4-1.62-2-3.11-2.58-1.93-.7-4.06-1.62-4.06-3.92s1.74-3.86,4.68-3.86a6.79,6.79,0,0,1,4.23,1.54l-1.09,1.46a5.05,5.05,0,0,0-3.11-1.2c-1.71,0-2.49.92-2.49,2,0,1.26,1.48,1.76,3,2.35,2,.73,4.14,1.54,4.14,4.12,0,2.21-1.76,4.06-5,4.06a8.19,8.19,0,0,1-5.07-1.88Z"/><path d="M677.87,39.12h1.68L672.1,63.48h-1.71Z"/><path d="M682.35,40.63h2.35V59h-2.35Z"/><path d="M695,45.06a5.62,5.62,0,0,1,4,1.62l-1.15,1.48a4.11,4.11,0,0,0-2.74-1.2c-2.46,0-4.26,2.13-4.26,5.26s1.71,5.21,4.2,5.21a4.85,4.85,0,0,0,3.19-1.37l1,1.51a6.74,6.74,0,0,1-4.42,1.76c-3.61,0-6.38-2.6-6.38-7.11S691.47,45.06,695,45.06Z"/><path d="M706.9,45.06c3.33,0,6.3,2.6,6.3,7.17s-3,7.11-6.3,7.11-6.3-2.6-6.3-7.11S703.57,45.06,706.9,45.06Zm0,12.38c2.35,0,3.92-2.1,3.92-5.21S709.25,47,706.9,47,703,49.09,703,52.22,704.58,57.43,706.9,57.43Z"/><path d="M716.79,45.39h1.9l.2,2H719a6.41,6.41,0,0,1,4.56-2.3c2.86,0,4.14,1.85,4.14,5.32V59h-2.3V50.68c0-2.55-.78-3.64-2.58-3.64-1.4,0-2.35.73-3.72,2.1V59h-2.3Z"/><path d="M731.74,55.92a6.12,6.12,0,0,0,4,1.62c1.79,0,2.69-1,2.69-2.13,0-1.4-1.62-2-3.11-2.58-1.93-.7-4.06-1.62-4.06-3.92s1.74-3.86,4.68-3.86a6.79,6.79,0,0,1,4.23,1.54l-1.09,1.46a5.05,5.05,0,0,0-3.11-1.2c-1.71,0-2.49.92-2.49,2,0,1.26,1.48,1.76,3,2.35,2,.73,4.14,1.54,4.14,4.12,0,2.21-1.76,4.06-5,4.06a8.19,8.19,0,0,1-5.07-1.88Z"/><path d="M595.58,273.3a6.78,6.78,0,0,1,5,2.27L599.27,277a4.9,4.9,0,0,0-3.67-1.71c-3.5,0-5.82,2.86-5.82,7.42s2.21,7.53,5.71,7.53a5.36,5.36,0,0,0,4.2-2l1.32,1.43a7,7,0,0,1-5.57,2.66c-4.62,0-8.06-3.53-8.06-9.52S590.87,273.3,595.58,273.3Z"/><path d="M609.44,278.06c3.33,0,6.3,2.6,6.3,7.17s-3,7.11-6.3,7.11-6.3-2.6-6.3-7.11S606.1,278.06,609.44,278.06Zm0,12.38c2.35,0,3.92-2.1,3.92-5.21s-1.57-5.26-3.92-5.26-3.92,2.13-3.92,5.26S607.11,290.43,609.44,290.43Z"/><path d="M619.32,278.39h1.9l.2,2h.08a6.41,6.41,0,0,1,4.56-2.3c2.86,0,4.14,1.85,4.14,5.32V292h-2.3v-8.32c0-2.55-.78-3.64-2.58-3.64-1.4,0-2.35.73-3.72,2.1V292h-2.3Z"/><path d="M635,280.27h-2v-1.74l2.13-.14.28-3.81h1.93v3.81H641v1.88h-3.67v7.56c0,1.68.53,2.63,2.1,2.63a5,5,0,0,0,1.54-.36l.45,1.74a8.4,8.4,0,0,1-2.52.5c-2.91,0-3.89-1.85-3.89-4.54Z"/><path d="M644.1,278.39H646l.2,2.46h.08c.92-1.71,2.32-2.8,3.86-2.8a3.38,3.38,0,0,1,1.46.28l-.45,2a3.81,3.81,0,0,0-1.32-.22c-1.15,0-2.52.84-3.44,3.14V292h-2.3Z"/><path d="M660.82,283.38c0-1.74-.59-3.42-2.8-3.42a7.32,7.32,0,0,0-4.06,1.46l-.92-1.6a10.1,10.1,0,0,1,5.35-1.76c3.33,0,4.73,2.21,4.73,5.6V292h-1.9l-.2-1.62H661a7.39,7.39,0,0,1-4.51,2,3.71,3.71,0,0,1-4-3.86C652.44,285.5,655,284,660.82,283.38Zm-3.72,7.11a5.58,5.58,0,0,0,3.72-1.82v-3.78c-4.56.56-6.1,1.68-6.1,3.42A2.09,2.09,0,0,0,657.09,290.49Z"/><path d="M667.09,288.92a6.12,6.12,0,0,0,4,1.62c1.79,0,2.69-1,2.69-2.13,0-1.4-1.62-2-3.11-2.58-1.93-.7-4.06-1.62-4.06-3.92s1.74-3.86,4.68-3.86a6.79,6.79,0,0,1,4.23,1.54l-1.09,1.46a5.05,5.05,0,0,0-3.11-1.2c-1.71,0-2.49.92-2.49,2,0,1.26,1.48,1.76,3,2.35,2,.73,4.14,1.54,4.14,4.12,0,2.21-1.76,4.06-5,4.06a8.19,8.19,0,0,1-5.07-1.88Z"/><path d="M679.57,280.27h-2v-1.74l2.13-.14.28-3.81h1.93v3.81h3.67v1.88H681.9v7.56c0,1.68.53,2.63,2.1,2.63a5,5,0,0,0,1.54-.36l.45,1.74a8.4,8.4,0,0,1-2.52.5c-2.91,0-3.89-1.85-3.89-4.54Z"/><path d="M588.52,509a7.14,7.14,0,0,0,5.07,2.3c2.41,0,3.84-1.2,3.84-3s-1.34-2.46-3.08-3.25l-2.63-1.15c-1.71-.73-3.72-2-3.72-4.73s2.46-4.87,5.8-4.87a7.5,7.5,0,0,1,5.4,2.27L598,498.08a5.91,5.91,0,0,0-4.17-1.74c-2.07,0-3.44,1-3.44,2.69s1.62,2.44,3.05,3.05L596,503.2c2.13.92,3.78,2.18,3.78,4.9,0,2.91-2.41,5.24-6.27,5.24a8.84,8.84,0,0,1-6.41-2.72Z"/><path d="M608.65,499.06a5.62,5.62,0,0,1,4,1.62l-1.15,1.48a4.11,4.11,0,0,0-2.74-1.2c-2.46,0-4.26,2.13-4.26,5.26s1.71,5.21,4.2,5.21a4.85,4.85,0,0,0,3.19-1.37l1,1.51a6.74,6.74,0,0,1-4.42,1.76c-3.61,0-6.38-2.6-6.38-7.11S605.15,499.06,608.65,499.06Z"/><path d="M623.3,504.38c0-1.74-.59-3.42-2.8-3.42a7.32,7.32,0,0,0-4.06,1.46l-.92-1.6a10.1,10.1,0,0,1,5.35-1.76c3.33,0,4.73,2.21,4.73,5.6V513h-1.9l-.2-1.62h-.06a7.39,7.39,0,0,1-4.51,2,3.71,3.71,0,0,1-4-3.86C614.92,506.5,617.5,505,623.3,504.38Zm-3.72,7.11a5.58,5.58,0,0,0,3.72-1.82v-3.78c-4.56.56-6.1,1.68-6.1,3.42A2.09,2.09,0,0,0,619.57,511.49Z"/><path d="M629.93,493.06h2.3v17.36c0,.73.31,1,.64,1a1.94,1.94,0,0,0,.5-.06l.31,1.74a3.1,3.1,0,0,1-1.32.22c-1.74,0-2.44-1.09-2.44-3.08Z"/><path d="M642.17,499.06c3.47,0,5.43,2.49,5.43,6.38a8.16,8.16,0,0,1-.08,1.26h-9.18c.17,2.94,1.93,4.79,4.54,4.79a6.14,6.14,0,0,0,3.39-1.06l.81,1.51a8.1,8.1,0,0,1-4.48,1.4c-3.64,0-6.52-2.66-6.52-7.11S639.06,499.06,642.17,499.06Zm3.42,6.13c0-2.77-1.23-4.31-3.36-4.31-1.9,0-3.64,1.57-3.92,4.31Z"/><path d="M595.58,716.3a6.78,6.78,0,0,1,5,2.27L599.27,720a4.9,4.9,0,0,0-3.67-1.71c-3.5,0-5.82,2.86-5.82,7.42s2.21,7.53,5.71,7.53a5.36,5.36,0,0,0,4.2-2l1.32,1.43a7,7,0,0,1-5.57,2.66c-4.62,0-8.06-3.53-8.06-9.52S590.87,716.3,595.58,716.3Z"/><path d="M609.44,721.06c3.33,0,6.3,2.6,6.3,7.17s-3,7.11-6.3,7.11-6.3-2.6-6.3-7.11S606.1,721.06,609.44,721.06Zm0,12.38c2.35,0,3.92-2.1,3.92-5.21s-1.57-5.26-3.92-5.26-3.92,2.13-3.92,5.26S607.11,733.43,609.44,733.43Z"/><path d="M619.32,715.06h2.3v17.36c0,.73.31,1,.64,1a1.94,1.94,0,0,0,.5-.06l.31,1.74a3.1,3.1,0,0,1-1.32.22c-1.74,0-2.44-1.09-2.44-3.08Z"/><path d="M631.75,721.06c3.33,0,6.3,2.6,6.3,7.17s-3,7.11-6.3,7.11-6.3-2.6-6.3-7.11S628.42,721.06,631.75,721.06Zm0,12.38c2.35,0,3.92-2.1,3.92-5.21S634.1,723,631.75,723s-3.92,2.13-3.92,5.26S629.43,733.43,631.75,733.43Z"/><path d="M641.63,721.39h1.9l.2,2.46h.08c.92-1.71,2.32-2.8,3.86-2.8a3.38,3.38,0,0,1,1.46.28l-.45,2a3.81,3.81,0,0,0-1.32-.22c-1.15,0-2.52.84-3.44,3.14V735h-2.3Z"/></g></g></svg>