<svg xmlns="http://www.w3.org/2000/svg" viewBox="0 0 561.64 187.49"><defs><style>.cls-1{fill:#32363b;}.cls-2{fill:#585c61;}.cls-3{fill:#f7931e;}.cls-4{fill:#acb0b5;}.cls-5{fill:#fff;}.cls-6{fill:#009697;}.cls-7{fill:#8dc63f;}.cls-8{fill:#00b5f1;}.cls-9{fill:#f7941d;}.cls-10{fill:#cf1034;}</style></defs><title>label spec</title><g id="Layer_2" data-name="Layer 2"><g id="Layer_1-2" data-name="Layer 1"><path class="cls-1" d="M2.25,12.89A1.14,1.14,0,1,1,1.17,14,1.09,1.09,0,0,1,2.25,12.89Z" transform="translate(-1.04 -2.12)"/><path class="cls-1" d="M6,2.12H7.43V13.28c0,.47.2.65.41.65a1.24,1.24,0,0,0,.32,0L8.37,15a2,2,0,0,1-.85.14c-1.12,0-1.57-.7-1.57-2Z" transform="translate(-1.04 -2.12)"/><path class="cls-1" d="M15.5,9.39c0-1.12-.38-2.2-1.8-2.2a4.71,4.71,0,0,0-2.61.94l-.59-1A6.49,6.49,0,0,1,13.93,6c2.14,0,3,1.42,3,3.6v5.37H15.75l-.13-1h0a4.75,4.75,0,0,1-2.9,1.26,2.39,2.39,0,0,1-2.58-2.49C10.12,10.76,11.77,9.81,15.5,9.39ZM13.1,14A3.58,3.58,0,0,0,15.5,12.8V10.37c-2.93.36-3.92,1.08-3.92,2.2A1.34,1.34,0,0,0,13.1,14Z" transform="translate(-1.04 -2.12)"/><path class="cls-1" d="M19.76,2.12h1.48V5.61l0,1.58A4.32,4.32,0,0,1,23.94,6c2.27,0,3.48,1.75,3.48,4.45,0,3-1.78,4.74-3.78,4.74a4,4,0,0,1-2.5-1.08h-.05l-.13.87H19.76Zm3.62,11.79c1.44,0,2.5-1.31,2.5-3.47,0-1.93-.65-3.22-2.3-3.22A3.61,3.61,0,0,0,21.24,8.4V13A3.43,3.43,0,0,0,23.38,13.91Z" transform="translate(-1.04 -2.12)"/><path class="cls-1" d="M33,6c2.23,0,3.49,1.6,3.49,4.11a5.2,5.2,0,0,1-.05.81H30.56c.11,1.89,1.24,3.08,2.92,3.08a3.94,3.94,0,0,0,2.18-.68l.52,1a5.22,5.22,0,0,1-2.88.9c-2.34,0-4.2-1.71-4.2-4.57S31,6,33,6Zm2.2,3.94c0-1.78-.79-2.77-2.16-2.77s-2.34,1-2.52,2.77Z" transform="translate(-1.04 -2.12)"/><path class="cls-1" d="M38.68,2.12h1.48V13.28c0,.47.2.65.41.65a1.24,1.24,0,0,0,.32,0l.2,1.12a2,2,0,0,1-.85.14c-1.12,0-1.57-.7-1.57-2Z" transform="translate(-1.04 -2.12)"/><path class="cls-2" d="M2,83.12a1,1,0,0,1,0,2,1,1,0,0,1,0-2Z" transform="translate(-1.04 -2.12)"/><path class="cls-2" d="M5.3,73.54H6.61v9.92c0,.42.18.58.37.58a1.09,1.09,0,0,0,.29,0l.18,1a1.76,1.76,0,0,1-.75.13c-1,0-1.39-.62-1.39-1.76Z" transform="translate(-1.04 -2.12)"/><path class="cls-2" d="M13.78,80c0-1-.34-2-1.6-2a4.18,4.18,0,0,0-2.32.83L9.33,78a5.77,5.77,0,0,1,3.06-1c1.91,0,2.71,1.26,2.71,3.2v4.77H14L13.89,84h0a4.22,4.22,0,0,1-2.58,1.12A2.12,2.12,0,0,1,9,82.92C9,81.23,10.46,80.38,13.78,80Zm-2.13,4.07a3.18,3.18,0,0,0,2.13-1V80.87c-2.61.32-3.49,1-3.49,2A1.19,1.19,0,0,0,11.65,84.08Z" transform="translate(-1.04 -2.12)"/><path class="cls-2" d="M17.57,73.54h1.31v3.1l0,1.41A3.84,3.84,0,0,1,21.28,77c2,0,3.09,1.55,3.09,4,0,2.66-1.58,4.21-3.36,4.21a3.52,3.52,0,0,1-2.22-1h0l-.11.77H17.57ZM20.79,84C22.07,84,23,82.86,23,80.94c0-1.71-.58-2.87-2-2.87a3.21,3.21,0,0,0-2.08,1.06v4.08A3,3,0,0,0,20.79,84Z" transform="translate(-1.04 -2.12)"/><path class="cls-2" d="M29.36,77c2,0,3.11,1.42,3.11,3.65a4.63,4.63,0,0,1,0,.72H27.17a2.59,2.59,0,0,0,2.59,2.74,3.52,3.52,0,0,0,1.94-.61l.46.86a4.63,4.63,0,0,1-2.56.8,3.72,3.72,0,0,1-3.73-4.07C25.87,78.52,27.58,77,29.36,77Zm2,3.5c0-1.58-.7-2.46-1.92-2.46a2.43,2.43,0,0,0-2.24,2.46Z" transform="translate(-1.04 -2.12)"/><path class="cls-2" d="M34.38,73.54H35.7v9.92c0,.42.18.58.37.58a1.09,1.09,0,0,0,.29,0l.18,1a1.76,1.76,0,0,1-.75.13c-1,0-1.39-.62-1.39-1.76Z" transform="translate(-1.04 -2.12)"/><path class="cls-2" d="M37.81,80.43h3.68v1H37.81Z" transform="translate(-1.04 -2.12)"/><path class="cls-2" d="M43.44,73.54h1.31v3.1l0,1.41A3.84,3.84,0,0,1,47.15,77c2,0,3.09,1.55,3.09,4,0,2.66-1.58,4.21-3.36,4.21a3.52,3.52,0,0,1-2.22-1h0l-.11.77H43.44ZM46.66,84c1.28,0,2.22-1.17,2.22-3.09,0-1.71-.58-2.87-2-2.87a3.21,3.21,0,0,0-2.08,1.06v4.08A3,3,0,0,0,46.66,84Z" transform="translate(-1.04 -2.12)"/><path class="cls-2" d="M52.86,84.67V84.6a1.44,1.44,0,0,1-.69-1.27A1.82,1.82,0,0,1,53,81.9v-.06A2.75,2.75,0,0,1,54.94,77a3.1,3.1,0,0,1,1.1.19h2.71v1h-1.6a2.26,2.26,0,0,1,.64,1.6,2.67,2.67,0,0,1-2.85,2.71,2.71,2.71,0,0,1-1.17-.27,1.18,1.18,0,0,0-.5.93c0,.5.32.85,1.38.85h1.5c1.81,0,2.72.56,2.72,1.86s-1.52,2.69-3.94,2.69c-1.9,0-3.22-.75-3.22-2.1A2.24,2.24,0,0,1,52.86,84.67Zm2.27,2.94c1.49,0,2.46-.77,2.46-1.58s-.56-1-1.57-1H54.69a3.8,3.8,0,0,1-1-.13,1.64,1.64,0,0,0-.8,1.31C52.88,87.08,53.73,87.61,55.14,87.61Zm1.46-7.87a1.66,1.66,0,1,0-3.3,0,1.66,1.66,0,1,0,3.3,0Z" transform="translate(-1.04 -2.12)"/><path class="cls-2" d="M2,104.12a1,1,0,0,1,0,2,1,1,0,0,1,0-2Z" transform="translate(-1.04 -2.12)"/><path class="cls-2" d="M5.3,94.54H6.61v9.92c0,.42.18.58.37.58a1.09,1.09,0,0,0,.29,0l.18,1a1.76,1.76,0,0,1-.75.13c-1,0-1.39-.62-1.39-1.76Z" transform="translate(-1.04 -2.12)"/><path class="cls-2" d="M13.78,101c0-1-.34-2-1.6-2a4.18,4.18,0,0,0-2.32.83L9.33,99a5.77,5.77,0,0,1,3.06-1c1.91,0,2.71,1.26,2.71,3.2v4.77H14l-.11-.93h0a4.22,4.22,0,0,1-2.58,1.12A2.12,2.12,0,0,1,9,103.92C9,102.23,10.46,101.38,13.78,101Zm-2.13,4.07a3.18,3.18,0,0,0,2.13-1v-2.16c-2.61.32-3.49,1-3.49,2A1.19,1.19,0,0,0,11.65,105.08Z" transform="translate(-1.04 -2.12)"/><path class="cls-2" d="M17.57,94.54h1.31v3.1l0,1.41A3.84,3.84,0,0,1,21.28,98c2,0,3.09,1.55,3.09,4,0,2.66-1.58,4.21-3.36,4.21a3.52,3.52,0,0,1-2.22-1h0l-.11.77H17.57ZM20.79,105c1.28,0,2.22-1.17,2.22-3.09,0-1.71-.58-2.87-2-2.87a3.21,3.21,0,0,0-2.08,1.06v4.08A3,3,0,0,0,20.79,105Z" transform="translate(-1.04 -2.12)"/><path class="cls-2" d="M29.36,98c2,0,3.11,1.42,3.11,3.65a4.63,4.63,0,0,1,0,.72H27.17a2.59,2.59,0,0,0,2.59,2.74,3.52,3.52,0,0,0,1.94-.61l.46.86a4.63,4.63,0,0,1-2.56.8,3.72,3.72,0,0,1-3.73-4.07C25.87,99.52,27.58,98,29.36,98Zm2,3.5c0-1.58-.7-2.46-1.92-2.46a2.43,2.43,0,0,0-2.24,2.46Z" transform="translate(-1.04 -2.12)"/><path class="cls-2" d="M34.38,94.54H35.7v9.92c0,.42.18.58.37.58a1.09,1.09,0,0,0,.29,0l.18,1a1.76,1.76,0,0,1-.75.13c-1,0-1.39-.62-1.39-1.76Z" transform="translate(-1.04 -2.12)"/><path class="cls-2" d="M37.81,101.43h3.68v1H37.81Z" transform="translate(-1.04 -2.12)"/><path class="cls-2" d="M43.44,94.54h1.31v3.1l0,1.41A3.84,3.84,0,0,1,47.15,98c2,0,3.09,1.55,3.09,4,0,2.66-1.58,4.21-3.36,4.21a3.52,3.52,0,0,1-2.22-1h0l-.11.77H43.44ZM46.66,105c1.28,0,2.22-1.17,2.22-3.09,0-1.71-.58-2.87-2-2.87a3.21,3.21,0,0,0-2.08,1.06v4.08A3,3,0,0,0,46.66,105Z" transform="translate(-1.04 -2.12)"/><path class="cls-2" d="M55.34,98c1.9,0,3.6,1.49,3.6,4.1s-1.7,4.07-3.6,4.07-3.6-1.49-3.6-4.07S53.44,98,55.34,98Zm0,7.08c1.34,0,2.24-1.2,2.24-3s-.9-3-2.24-3-2.24,1.22-2.24,3S54,105,55.34,105Z" transform="translate(-1.04 -2.12)"/><path class="cls-2" d="M61,98.16h1.09l.11,1.41h0A2.66,2.66,0,0,1,64.45,98a1.93,1.93,0,0,1,.83.16L65,99.28a2.17,2.17,0,0,0-.75-.13c-.66,0-1.44.48-2,1.79v5H61Z" transform="translate(-1.04 -2.12)"/><path class="cls-2" d="M69.2,98a3.2,3.2,0,0,1,2.18.9l-.06-1.33v-3h1.33v11.4H71.55l-.11-.91h0a3.51,3.51,0,0,1-2.35,1.1c-2,0-3.22-1.47-3.22-4.07S67.42,98,69.2,98Zm.13,7.06a2.63,2.63,0,0,0,2-1.07V99.89a2.71,2.71,0,0,0-1.89-.82c-1.25,0-2.24,1.2-2.24,3S68,105,69.33,105Z" transform="translate(-1.04 -2.12)"/><path class="cls-2" d="M78.18,98c2,0,3.11,1.42,3.11,3.65a4.63,4.63,0,0,1,0,.72H76a2.59,2.59,0,0,0,2.59,2.74,3.52,3.52,0,0,0,1.94-.61l.46.86a4.63,4.63,0,0,1-2.56.8,3.72,3.72,0,0,1-3.73-4.07C74.69,99.52,76.4,98,78.18,98Zm2,3.5c0-1.58-.7-2.46-1.92-2.46A2.43,2.43,0,0,0,76,101.47Z" transform="translate(-1.04 -2.12)"/><path class="cls-2" d="M83.2,98.16h1.09l.11,1.41h0A2.66,2.66,0,0,1,86.66,98a1.93,1.93,0,0,1,.83.16l-.26,1.15a2.17,2.17,0,0,0-.75-.13c-.66,0-1.44.48-2,1.79v5H83.2Z" transform="translate(-1.04 -2.12)"/><path class="cls-2" d="M87.71,101.43h3.68v1H87.71Z" transform="translate(-1.04 -2.12)"/><path class="cls-2" d="M93.34,98.16h1.09l.11,1.41h0A2.66,2.66,0,0,1,96.8,98a1.93,1.93,0,0,1,.83.16l-.26,1.15a2.17,2.17,0,0,0-.75-.13c-.66,0-1.44.48-2,1.79v5H93.34Z" transform="translate(-1.04 -2.12)"/><path class="cls-2" d="M102.9,101c0-1-.34-2-1.6-2a4.18,4.18,0,0,0-2.32.83L98.45,99a5.77,5.77,0,0,1,3.06-1c1.91,0,2.71,1.26,2.71,3.2v4.77h-1.09L103,105h0a4.22,4.22,0,0,1-2.58,1.12,2.12,2.12,0,0,1-2.29-2.21C98.11,102.23,99.58,101.38,102.9,101Zm-2.13,4.07a3.18,3.18,0,0,0,2.13-1v-2.16c-2.61.32-3.49,1-3.49,2A1.19,1.19,0,0,0,100.77,105.08Z" transform="translate(-1.04 -2.12)"/><path class="cls-2" d="M109.5,98a3.2,3.2,0,0,1,2.18.9l-.06-1.33v-3h1.33v11.4h-1.09l-.11-.91h0a3.51,3.51,0,0,1-2.35,1.1c-2,0-3.22-1.47-3.22-4.07S107.73,98,109.5,98Zm.13,7.06a2.63,2.63,0,0,0,2-1.07V99.89a2.71,2.71,0,0,0-1.89-.82c-1.25,0-2.24,1.2-2.24,3S108.27,105,109.63,105Z" transform="translate(-1.04 -2.12)"/><path class="cls-2" d="M115.33,95.71a.92.92,0,0,1,1.83,0,.92.92,0,0,1-1.83,0Zm.24,2.45h1.31v7.78h-1.31Z" transform="translate(-1.04 -2.12)"/><path class="cls-2" d="M119.39,98.16h1.33v4.75c0,1.46.43,2.08,1.46,2.08.8,0,1.36-.4,2.1-1.31V98.16h1.31v7.78H124.5l-.11-1.22h0a3.29,3.29,0,0,1-2.56,1.41c-1.65,0-2.39-1.06-2.39-3Z" transform="translate(-1.04 -2.12)"/><path class="cls-2" d="M128,104.18a3.49,3.49,0,0,0,2.29.93c1,0,1.54-.54,1.54-1.22s-.93-1.15-1.78-1.47c-1.1-.4-2.32-.93-2.32-2.24s1-2.21,2.67-2.21a3.88,3.88,0,0,1,2.42.88l-.62.83a2.89,2.89,0,0,0-1.78-.69c-1,0-1.42.53-1.42,1.12s.85,1,1.73,1.34c1.12.42,2.37.88,2.37,2.35,0,1.26-1,2.32-2.85,2.32a4.68,4.68,0,0,1-2.9-1.07Z" transform="translate(-1.04 -2.12)"/><path class="cls-2" d="M295.49,74.6a5,5,0,0,1,5.25,5.3c0,2.8-1.75,4.26-3.2,4.26a1.48,1.48,0,0,1-1.65-1.22h0a2.75,2.75,0,0,1-2,1.09c-1.09,0-1.92-.8-1.92-2.26,0-1.71,1.2-3.71,3.07-3.71a1.38,1.38,0,0,1,1.28.77h0l.18-.64h.88l-.62,3.2c-.32,1.26,0,1.87.86,1.87s2.14-1.23,2.14-3.31a4.13,4.13,0,0,0-4.43-4.47,5.84,5.84,0,0,0-5.6,6.16,4.55,4.55,0,0,0,4.77,4.9,5.22,5.22,0,0,0,2.59-.72l.35.78a5.74,5.74,0,0,1-3,.82,5.34,5.34,0,0,1-5.63-5.73A6.73,6.73,0,0,1,295.49,74.6Zm-1.33,8.53a2.07,2.07,0,0,0,1.47-.95l.46-2.54a1.11,1.11,0,0,0-1-.67c-1.26,0-2,1.52-2,2.72C293,82.71,293.52,83.13,294.16,83.13Z" transform="translate(-1.04 -2.12)"/><path class="cls-2" d="M303.41,84.67V84.6a1.44,1.44,0,0,1-.69-1.27,1.82,1.82,0,0,1,.85-1.44v-.06A2.75,2.75,0,0,1,305.49,77a3.1,3.1,0,0,1,1.1.19h2.71v1h-1.6a2.26,2.26,0,0,1,.64,1.6,2.67,2.67,0,0,1-2.85,2.71,2.71,2.71,0,0,1-1.17-.27,1.18,1.18,0,0,0-.5.93c0,.5.32.85,1.38.85h1.5c1.81,0,2.72.56,2.72,1.86s-1.52,2.69-3.94,2.69c-1.9,0-3.22-.75-3.22-2.1A2.24,2.24,0,0,1,303.41,84.67Zm2.27,2.94c1.49,0,2.46-.77,2.46-1.58s-.56-1-1.57-1h-1.34a3.8,3.8,0,0,1-1-.13,1.64,1.64,0,0,0-.8,1.31C303.42,87.08,304.27,87.61,305.68,87.61Zm1.46-7.87a1.66,1.66,0,1,0-3.3,0,1.66,1.66,0,1,0,3.3,0Z" transform="translate(-1.04 -2.12)"/><path class="cls-2" d="M310.93,77.16H312l.11,1.41h0a2.66,2.66,0,0,1,2.21-1.6,1.93,1.93,0,0,1,.83.16L315,78.28a2.17,2.17,0,0,0-.75-.13c-.66,0-1.44.48-2,1.79v5h-1.31Z" transform="translate(-1.04 -2.12)"/><path class="cls-2" d="M320.48,80c0-1-.34-2-1.6-2a4.18,4.18,0,0,0-2.32.83L316,78a5.77,5.77,0,0,1,3.06-1c1.91,0,2.71,1.26,2.71,3.2v4.77h-1.09l-.11-.93h0A4.22,4.22,0,0,1,318,85.13a2.12,2.12,0,0,1-2.29-2.21C315.7,81.23,317.17,80.38,320.48,80Zm-2.13,4.07a3.18,3.18,0,0,0,2.13-1V80.87c-2.61.32-3.49,1-3.49,2A1.19,1.19,0,0,0,318.35,84.08Z" transform="translate(-1.04 -2.12)"/><path class="cls-2" d="M324.34,87.2c.88,0,1.44-.7,1.76-1.66l.18-.58-3.12-7.79h1.36l1.58,4.3c.24.67.51,1.47.75,2.19h.06c.22-.7.45-1.5.66-2.19l1.39-4.3h1.28l-2.93,8.42c-.54,1.54-1.34,2.71-2.91,2.71a2.57,2.57,0,0,1-.91-.16l.26-1A2.3,2.3,0,0,0,324.34,87.2Z" transform="translate(-1.04 -2.12)"/><path class="cls-3" d="M341.23,77c1.9,0,3.6,1.49,3.6,4.1s-1.7,4.07-3.6,4.07-3.6-1.49-3.6-4.07S339.33,77,341.23,77Zm0,7.08c1.34,0,2.24-1.2,2.24-3s-.9-3-2.24-3-2.24,1.22-2.24,3S339.9,84,341.23,84Z" transform="translate(-1.04 -2.12)"/><path class="cls-3" d="M346.88,77.16H348l.11,1.41h0a2.66,2.66,0,0,1,2.21-1.6,1.93,1.93,0,0,1,.83.16l-.26,1.15a2.17,2.17,0,0,0-.75-.13c-.66,0-1.44.48-2,1.79v5h-1.31Z" transform="translate(-1.04 -2.12)"/><path class="cls-3" d="M358.83,77a3.21,3.21,0,0,1,2.27.93l-.66.85a2.35,2.35,0,0,0-1.57-.69c-1.41,0-2.43,1.22-2.43,3s1,3,2.4,3a2.77,2.77,0,0,0,1.82-.79l.59.87a3.85,3.85,0,0,1-2.53,1c-2.06,0-3.65-1.49-3.65-4.07A3.77,3.77,0,0,1,358.83,77Z" transform="translate(-1.04 -2.12)"/><path class="cls-3" d="M365.65,77c1.9,0,3.6,1.49,3.6,4.1s-1.7,4.07-3.6,4.07-3.6-1.49-3.6-4.07S363.74,77,365.65,77Zm0,7.08c1.34,0,2.24-1.2,2.24-3s-.9-3-2.24-3-2.24,1.22-2.24,3S364.32,84,365.65,84Z" transform="translate(-1.04 -2.12)"/><path class="cls-3" d="M371.29,77.16h1.09l.11,1.12h0A3.67,3.67,0,0,1,375.15,77c1.63,0,2.37,1.06,2.37,3v4.93h-1.31V80.19c0-1.46-.45-2.08-1.47-2.08-.8,0-1.34.42-2.13,1.2v5.63h-1.31Z" transform="translate(-1.04 -2.12)"/><path class="cls-3" d="M380.27,78.23h-1.15v-1l1.22-.08L380.5,75h1.1v2.18h2.1v1.07h-2.1v4.32c0,1,.3,1.5,1.2,1.5a2.81,2.81,0,0,0,.88-.21l.26,1a4.82,4.82,0,0,1-1.44.29c-1.67,0-2.22-1.06-2.22-2.59Z" transform="translate(-1.04 -2.12)"/><path class="cls-3" d="M388.21,77c2,0,3.11,1.42,3.11,3.65a4.63,4.63,0,0,1,0,.72H386a2.59,2.59,0,0,0,2.59,2.74,3.52,3.52,0,0,0,1.94-.61l.46.86a4.63,4.63,0,0,1-2.56.8,3.72,3.72,0,0,1-3.73-4.07C384.72,78.52,386.43,77,388.21,77Zm2,3.5c0-1.58-.7-2.46-1.92-2.46A2.43,2.43,0,0,0,386,80.47Z" transform="translate(-1.04 -2.12)"/><path class="cls-3" d="M394.58,80.87l-2.35-3.71h1.42l1,1.71c.24.42.5.86.77,1.3h.06c.22-.43.46-.88.7-1.3l.94-1.71h1.38L396.19,81l2.53,3.92H397.3l-1.14-1.81c-.27-.46-.56-.95-.85-1.39h-.06c-.27.45-.53.91-.78,1.39l-1.06,1.81H392Z" transform="translate(-1.04 -2.12)"/><path class="cls-3" d="M400.48,78.23h-1.15v-1l1.22-.08L400.7,75h1.1v2.18h2.1v1.07h-2.1v4.32c0,1,.3,1.5,1.2,1.5a2.81,2.81,0,0,0,.88-.21l.26,1a4.82,4.82,0,0,1-1.44.29c-1.67,0-2.23-1.06-2.23-2.59Z" transform="translate(-1.04 -2.12)"/><path class="cls-3" d="M405.46,77.16h1.33v4.75c0,1.46.43,2.08,1.46,2.08.8,0,1.36-.4,2.1-1.31V77.16h1.31v7.78h-1.09l-.11-1.22h0a3.29,3.29,0,0,1-2.56,1.41c-1.65,0-2.38-1.06-2.38-3Z" transform="translate(-1.04 -2.12)"/><path class="cls-3" d="M418.67,80c0-1-.34-2-1.6-2a4.18,4.18,0,0,0-2.32.83l-.53-.91a5.77,5.77,0,0,1,3.06-1c1.91,0,2.71,1.26,2.71,3.2v4.77H418.9l-.11-.93h0a4.22,4.22,0,0,1-2.58,1.12,2.12,2.12,0,0,1-2.29-2.21C413.89,81.23,415.36,80.38,418.67,80Zm-2.13,4.07a3.18,3.18,0,0,0,2.13-1V80.87c-2.61.32-3.49,1-3.49,2A1.19,1.19,0,0,0,416.54,84.08Z" transform="translate(-1.04 -2.12)"/><path class="cls-3" d="M422.46,73.54h1.31v9.92c0,.42.18.58.37.58a1.09,1.09,0,0,0,.29,0l.18,1a1.76,1.76,0,0,1-.75.13c-1,0-1.39-.62-1.39-1.76Z" transform="translate(-1.04 -2.12)"/><path class="cls-3" d="M432.94,77a3.21,3.21,0,0,1,2.27.93l-.66.85a2.35,2.35,0,0,0-1.57-.69c-1.41,0-2.43,1.22-2.43,3s1,3,2.4,3a2.77,2.77,0,0,0,1.82-.79l.59.87a3.85,3.85,0,0,1-2.53,1c-2.06,0-3.65-1.49-3.65-4.07A3.77,3.77,0,0,1,432.94,77Z" transform="translate(-1.04 -2.12)"/><path class="cls-3" d="M439.76,77c1.9,0,3.6,1.49,3.6,4.1s-1.7,4.07-3.6,4.07-3.6-1.49-3.6-4.07S437.85,77,439.76,77Zm0,7.08c1.34,0,2.24-1.2,2.24-3s-.9-3-2.24-3-2.24,1.22-2.24,3S438.43,84,439.76,84Z" transform="translate(-1.04 -2.12)"/><path class="cls-3" d="M445.41,73.54h1.31v9.92c0,.42.18.58.37.58a1.09,1.09,0,0,0,.29,0l.18,1a1.76,1.76,0,0,1-.75.13c-1,0-1.39-.62-1.39-1.76Z" transform="translate(-1.04 -2.12)"/><path class="cls-3" d="M452.51,77c1.9,0,3.6,1.49,3.6,4.1s-1.7,4.07-3.6,4.07-3.6-1.49-3.6-4.07S450.61,77,452.51,77Zm0,7.08c1.34,0,2.24-1.2,2.24-3s-.9-3-2.24-3-2.24,1.22-2.24,3S451.18,84,452.51,84Z" transform="translate(-1.04 -2.12)"/><path class="cls-3" d="M458.16,77.16h1.09l.11,1.41h0a2.66,2.66,0,0,1,2.21-1.6,1.93,1.93,0,0,1,.83.16l-.26,1.15a2.17,2.17,0,0,0-.75-.13c-.66,0-1.44.48-2,1.79v5h-1.31Z" transform="translate(-1.04 -2.12)"/><path class="cls-3" d="M463.34,83.18a3.49,3.49,0,0,0,2.29.93c1,0,1.54-.54,1.54-1.22s-.93-1.15-1.78-1.47c-1.1-.4-2.32-.93-2.32-2.24s1-2.21,2.67-2.21a3.88,3.88,0,0,1,2.42.88l-.62.83a2.89,2.89,0,0,0-1.78-.69c-1,0-1.42.53-1.42,1.12s.85,1,1.73,1.34c1.12.42,2.37.88,2.37,2.35,0,1.26-1,2.32-2.85,2.32a4.68,4.68,0,0,1-2.9-1.07Z" transform="translate(-1.04 -2.12)"/><path class="cls-2" d="M295.49,95.6a5,5,0,0,1,5.25,5.3c0,2.8-1.75,4.26-3.2,4.26a1.48,1.48,0,0,1-1.65-1.22h0a2.75,2.75,0,0,1-2,1.09c-1.09,0-1.92-.8-1.92-2.26,0-1.71,1.2-3.71,3.07-3.71a1.38,1.38,0,0,1,1.28.77h0l.18-.64h.88l-.62,3.2c-.32,1.26,0,1.87.86,1.87s2.14-1.23,2.14-3.31a4.13,4.13,0,0,0-4.43-4.47,5.84,5.84,0,0,0-5.6,6.16,4.55,4.55,0,0,0,4.77,4.9,5.22,5.22,0,0,0,2.59-.72l.35.78a5.74,5.74,0,0,1-3,.82,5.34,5.34,0,0,1-5.63-5.73A6.73,6.73,0,0,1,295.49,95.6Zm-1.33,8.53a2.07,2.07,0,0,0,1.47-.95l.46-2.54a1.11,1.11,0,0,0-1-.67c-1.26,0-2,1.52-2,2.72C293,103.71,293.52,104.13,294.16,104.13Z" transform="translate(-1.04 -2.12)"/><path class="cls-2" d="M302.86,94.54h1.31v3.1l0,1.41A3.84,3.84,0,0,1,306.58,98c2,0,3.09,1.55,3.09,4,0,2.66-1.58,4.21-3.36,4.21a3.52,3.52,0,0,1-2.22-1h0l-.11.77h-1.06ZM306.08,105c1.28,0,2.22-1.17,2.22-3.09,0-1.71-.58-2.87-2-2.87a3.21,3.21,0,0,0-2.08,1.06v4.08A3,3,0,0,0,306.08,105Z" transform="translate(-1.04 -2.12)"/><path class="cls-2" d="M314.77,98c1.9,0,3.6,1.49,3.6,4.1s-1.7,4.07-3.6,4.07-3.6-1.49-3.6-4.07S312.86,98,314.77,98Zm0,7.08c1.34,0,2.24-1.2,2.24-3s-.9-3-2.24-3-2.24,1.22-2.24,3S313.44,105,314.77,105Z" transform="translate(-1.04 -2.12)"/><path class="cls-2" d="M320.42,98.16h1.09l.11,1.41h0a2.66,2.66,0,0,1,2.21-1.6,1.93,1.93,0,0,1,.83.16l-.26,1.15a2.17,2.17,0,0,0-.75-.13c-.66,0-1.44.48-2,1.79v5h-1.31Z" transform="translate(-1.04 -2.12)"/><path class="cls-2" d="M328.63,98a3.2,3.2,0,0,1,2.18.9l-.06-1.33v-3h1.33v11.4H331l-.11-.91h0a3.51,3.51,0,0,1-2.35,1.1c-2,0-3.22-1.47-3.22-4.07S326.85,98,328.63,98Zm.13,7.06a2.63,2.63,0,0,0,2-1.07V99.89a2.71,2.71,0,0,0-1.89-.82c-1.25,0-2.24,1.2-2.24,3S327.39,105,328.75,105Z" transform="translate(-1.04 -2.12)"/><path class="cls-2" d="M337.6,98c2,0,3.11,1.42,3.11,3.65a4.63,4.63,0,0,1,0,.72h-5.25a2.59,2.59,0,0,0,2.59,2.74,3.52,3.52,0,0,0,1.94-.61l.46.86a4.63,4.63,0,0,1-2.56.8,3.72,3.72,0,0,1-3.73-4.07C334.11,99.52,335.82,98,337.6,98Zm2,3.5c0-1.58-.7-2.46-1.92-2.46a2.43,2.43,0,0,0-2.24,2.46Z" transform="translate(-1.04 -2.12)"/><path class="cls-2" d="M342.62,98.16h1.09l.11,1.41h0a2.66,2.66,0,0,1,2.21-1.6,1.93,1.93,0,0,1,.83.16l-.26,1.15a2.17,2.17,0,0,0-.75-.13c-.66,0-1.44.48-2,1.79v5h-1.31Z" transform="translate(-1.04 -2.12)"/><path class="cls-2" d="M347.13,101.43h3.68v1h-3.68Z" transform="translate(-1.04 -2.12)"/><path class="cls-2" d="M352.77,98.16h1.09l.11,1.41h0a2.66,2.66,0,0,1,2.21-1.6,1.93,1.93,0,0,1,.83.16l-.26,1.15a2.17,2.17,0,0,0-.75-.13c-.66,0-1.44.48-2,1.79v5h-1.31Z" transform="translate(-1.04 -2.12)"/><path class="cls-2" d="M362.32,101c0-1-.34-2-1.6-2a4.18,4.18,0,0,0-2.32.83l-.53-.91a5.77,5.77,0,0,1,3.06-1c1.91,0,2.71,1.26,2.71,3.2v4.77h-1.09l-.11-.93h0a4.22,4.22,0,0,1-2.58,1.12,2.12,2.12,0,0,1-2.29-2.21C357.54,102.23,359,101.38,362.32,101Zm-2.13,4.07a3.18,3.18,0,0,0,2.13-1v-2.16c-2.61.32-3.49,1-3.49,2A1.19,1.19,0,0,0,360.19,105.08Z" transform="translate(-1.04 -2.12)"/><path class="cls-2" d="M368.93,98a3.2,3.2,0,0,1,2.18.9L371,97.54v-3h1.33v11.4h-1.09l-.11-.91h0a3.51,3.51,0,0,1-2.35,1.1c-2,0-3.22-1.47-3.22-4.07S367.15,98,368.93,98Zm.13,7.06a2.63,2.63,0,0,0,2-1.07V99.89a2.71,2.71,0,0,0-1.89-.82c-1.25,0-2.24,1.2-2.24,3S367.7,105,369.06,105Z" transform="translate(-1.04 -2.12)"/><path class="cls-2" d="M374.75,95.71a.92.92,0,0,1,1.83,0,.92.92,0,0,1-1.83,0Zm.24,2.45h1.31v7.78H375Z" transform="translate(-1.04 -2.12)"/><path class="cls-2" d="M378.81,98.16h1.33v4.75c0,1.46.43,2.08,1.46,2.08.8,0,1.36-.4,2.1-1.31V98.16H385v7.78h-1.09l-.11-1.22h0a3.29,3.29,0,0,1-2.56,1.41c-1.65,0-2.38-1.06-2.38-3Z" transform="translate(-1.04 -2.12)"/><path class="cls-2" d="M387.42,104.18a3.49,3.49,0,0,0,2.29.93c1,0,1.54-.54,1.54-1.22s-.93-1.15-1.78-1.47c-1.1-.4-2.32-.93-2.32-2.24s1-2.21,2.67-2.21a3.88,3.88,0,0,1,2.42.88l-.62.83a2.89,2.89,0,0,0-1.78-.69c-1,0-1.42.53-1.42,1.12s.85,1,1.73,1.34c1.12.42,2.37.88,2.37,2.35,0,1.26-1,2.32-2.85,2.32a4.68,4.68,0,0,1-2.9-1.07Z" transform="translate(-1.04 -2.12)"/><path class="cls-2" d="M393.84,101.43h3.68v1h-3.68Z" transform="translate(-1.04 -2.12)"/><path class="cls-2" d="M399.26,104.18a3.49,3.49,0,0,0,2.29.93c1,0,1.54-.54,1.54-1.22s-.93-1.15-1.78-1.47c-1.1-.4-2.32-.93-2.32-2.24S400,98,401.66,98a3.88,3.88,0,0,1,2.42.88l-.62.83a2.89,2.89,0,0,0-1.78-.69c-1,0-1.42.53-1.42,1.12s.85,1,1.73,1.34c1.12.42,2.37.88,2.37,2.35,0,1.26-1,2.32-2.85,2.32a4.68,4.68,0,0,1-2.9-1.07Z" transform="translate(-1.04 -2.12)"/><path class="cls-2" d="M406.17,98.16h1.09l.11,1.12h0A3.42,3.42,0,0,1,409.84,98,2,2,0,0,1,412,99.46,3.67,3.67,0,0,1,414.54,98c1.6,0,2.37,1.06,2.37,3v4.93H415.6v-4.75c0-1.46-.46-2.08-1.44-2.08a2.86,2.86,0,0,0-2,1.2v5.63H410.9v-4.75c0-1.46-.46-2.08-1.46-2.08a2.92,2.92,0,0,0-2,1.2v5.63h-1.31Z" transform="translate(-1.04 -2.12)"/><path class="cls-2" d="M423.84,101c0-1-.34-2-1.6-2a4.18,4.18,0,0,0-2.32.83l-.53-.91a5.77,5.77,0,0,1,3.06-1c1.91,0,2.71,1.26,2.71,3.2v4.77h-1.09L424,105h0a4.22,4.22,0,0,1-2.58,1.12,2.12,2.12,0,0,1-2.29-2.21C419.05,102.23,420.53,101.38,423.84,101Zm-2.13,4.07a3.18,3.18,0,0,0,2.13-1v-2.16c-2.61.32-3.49,1-3.49,2A1.19,1.19,0,0,0,421.71,105.08Z" transform="translate(-1.04 -2.12)"/><path class="cls-2" d="M427.63,94.54h1.31v9.92c0,.42.18.58.37.58a1.09,1.09,0,0,0,.29,0l.18,1a1.76,1.76,0,0,1-.75.13c-1,0-1.39-.62-1.39-1.76Z" transform="translate(-1.04 -2.12)"/><path class="cls-2" d="M431.71,94.54H433v9.92c0,.42.18.58.37.58a1.09,1.09,0,0,0,.29,0l.18,1a1.76,1.76,0,0,1-.75.13c-1,0-1.39-.62-1.39-1.76Z" transform="translate(-1.04 -2.12)"/><path class="cls-2" d="M2,124.12a1,1,0,0,1,0,2,1,1,0,0,1,0-2Z" transform="translate(-1.04 -2.12)"/><path class="cls-2" d="M5.3,114.54H6.61v9.92c0,.42.18.58.37.58a1.09,1.09,0,0,0,.29,0l.18,1a1.76,1.76,0,0,1-.75.13c-1,0-1.39-.62-1.39-1.76Z" transform="translate(-1.04 -2.12)"/><path class="cls-2" d="M13.78,121c0-1-.34-2-1.6-2a4.18,4.18,0,0,0-2.32.83L9.33,119a5.77,5.77,0,0,1,3.06-1c1.91,0,2.71,1.26,2.71,3.2v4.77H14l-.11-.93h0a4.22,4.22,0,0,1-2.58,1.12A2.12,2.12,0,0,1,9,123.92C9,122.23,10.46,121.38,13.78,121Zm-2.13,4.07a3.18,3.18,0,0,0,2.13-1v-2.16c-2.61.32-3.49,1-3.49,2A1.19,1.19,0,0,0,11.65,125.08Z" transform="translate(-1.04 -2.12)"/><path class="cls-2" d="M17.57,114.54h1.31v3.1l0,1.41A3.84,3.84,0,0,1,21.28,118c2,0,3.09,1.55,3.09,4,0,2.66-1.58,4.21-3.36,4.21a3.52,3.52,0,0,1-2.22-1h0l-.11.77H17.57ZM20.79,125c1.28,0,2.22-1.17,2.22-3.09,0-1.71-.58-2.87-2-2.87a3.21,3.21,0,0,0-2.08,1.06v4.08A3,3,0,0,0,20.79,125Z" transform="translate(-1.04 -2.12)"/><path class="cls-2" d="M29.36,118c2,0,3.11,1.42,3.11,3.65a4.63,4.63,0,0,1,0,.72H27.17a2.59,2.59,0,0,0,2.59,2.74,3.52,3.52,0,0,0,1.94-.61l.46.86a4.63,4.63,0,0,1-2.56.8,3.72,3.72,0,0,1-3.73-4.07C25.87,119.52,27.58,118,29.36,118Zm2,3.5c0-1.58-.7-2.46-1.92-2.46a2.43,2.43,0,0,0-2.24,2.46Z" transform="translate(-1.04 -2.12)"/><path class="cls-2" d="M34.38,114.54H35.7v9.92c0,.42.18.58.37.58a1.09,1.09,0,0,0,.29,0l.18,1a1.76,1.76,0,0,1-.75.13c-1,0-1.39-.62-1.39-1.76Z" transform="translate(-1.04 -2.12)"/><path class="cls-2" d="M37.81,121.43h3.68v1H37.81Z" transform="translate(-1.04 -2.12)"/><path class="cls-2" d="M44.75,126.6v2.63H43.44V118.16h1.09l.11.9h0A4,4,0,0,1,47.17,118c2,0,3.07,1.55,3.07,4,0,2.64-1.58,4.19-3.36,4.19a3.61,3.61,0,0,1-2.16-.9ZM46.66,125c1.28,0,2.22-1.17,2.22-3.09,0-1.71-.58-2.87-2-2.87a3.28,3.28,0,0,0-2.08,1.06v4.08A3.08,3.08,0,0,0,46.66,125Z" transform="translate(-1.04 -2.12)"/><path class="cls-2" d="M56.5,121c0-1-.34-2-1.6-2a4.18,4.18,0,0,0-2.32.83L52,119a5.77,5.77,0,0,1,3.06-1c1.91,0,2.71,1.26,2.71,3.2v4.77H56.72l-.11-.93h0A4.22,4.22,0,0,1,54,126.13a2.12,2.12,0,0,1-2.29-2.21C51.71,122.23,53.18,121.38,56.5,121Zm-2.13,4.07a3.18,3.18,0,0,0,2.13-1v-2.16c-2.61.32-3.49,1-3.49,2A1.19,1.19,0,0,0,54.37,125.08Z" transform="translate(-1.04 -2.12)"/><path class="cls-2" d="M63.1,118a3.2,3.2,0,0,1,2.18.9l-.06-1.33v-3h1.33v11.4H65.46l-.11-.91h0a3.51,3.51,0,0,1-2.35,1.1c-2,0-3.22-1.47-3.22-4.07S61.33,118,63.1,118Zm.13,7.06a2.63,2.63,0,0,0,2-1.07v-4.07a2.71,2.71,0,0,0-1.89-.82c-1.25,0-2.24,1.2-2.24,3S61.87,125,63.23,125Z" transform="translate(-1.04 -2.12)"/><path class="cls-2" d="M72,118a3.2,3.2,0,0,1,2.18.9l-.06-1.33v-3h1.33v11.4H74.34l-.11-.91h0a3.51,3.51,0,0,1-2.35,1.1c-2,0-3.22-1.47-3.22-4.07S70.21,118,72,118Zm.13,7.06a2.63,2.63,0,0,0,2-1.07v-4.07a2.71,2.71,0,0,0-1.89-.82c-1.25,0-2.24,1.2-2.24,3S70.75,125,72.11,125Z" transform="translate(-1.04 -2.12)"/><path class="cls-2" d="M77.81,115.71a.92.92,0,0,1,1.83,0,.92.92,0,0,1-1.83,0Zm.24,2.45h1.31v7.78H78Z" transform="translate(-1.04 -2.12)"/><path class="cls-2" d="M82,118.16h1.09l.11,1.12h0A3.67,3.67,0,0,1,85.84,118c1.63,0,2.37,1.06,2.37,3v4.93H86.9v-4.75c0-1.46-.45-2.08-1.47-2.08-.8,0-1.34.42-2.13,1.2v5.63H82Z" transform="translate(-1.04 -2.12)"/><path class="cls-2" d="M91.28,125.67v-.06a1.44,1.44,0,0,1-.69-1.27,1.82,1.82,0,0,1,.85-1.44v-.06A2.75,2.75,0,0,1,93.36,118a3.1,3.1,0,0,1,1.1.19h2.71v1h-1.6a2.26,2.26,0,0,1,.64,1.6,2.67,2.67,0,0,1-2.85,2.71,2.71,2.71,0,0,1-1.17-.27,1.18,1.18,0,0,0-.5.93c0,.5.32.85,1.38.85h1.5c1.81,0,2.72.56,2.72,1.86s-1.52,2.69-3.94,2.69c-1.9,0-3.22-.75-3.22-2.1A2.24,2.24,0,0,1,91.28,125.67Zm2.27,2.94c1.49,0,2.46-.77,2.46-1.58s-.56-1-1.57-1H93.1a3.8,3.8,0,0,1-1-.13,1.64,1.64,0,0,0-.8,1.31C91.29,128.08,92.14,128.61,93.55,128.61ZM95,120.74a1.66,1.66,0,1,0-3.3,0,1.66,1.66,0,1,0,3.3,0Z" transform="translate(-1.04 -2.12)"/><path class="cls-2" d="M98.14,121.43h3.68v1H98.14Z" transform="translate(-1.04 -2.12)"/><path class="cls-2" d="M103.77,114.54h1.31v3.1l0,1.6a3.72,3.72,0,0,1,2.59-1.28c1.63,0,2.37,1.06,2.37,3v4.93h-1.31v-4.75c0-1.46-.45-2.08-1.47-2.08-.8,0-1.34.42-2.13,1.2v5.63h-1.31Z" transform="translate(-1.04 -2.12)"/><path class="cls-2" d="M115.5,118c1.9,0,3.6,1.49,3.6,4.1s-1.7,4.07-3.6,4.07-3.6-1.49-3.6-4.07S113.6,118,115.5,118Zm0,7.08c1.34,0,2.24-1.2,2.24-3s-.9-3-2.24-3-2.24,1.22-2.24,3S114.17,125,115.5,125Z" transform="translate(-1.04 -2.12)"/><path class="cls-2" d="M121.15,118.16h1.09l.11,1.41h0a2.66,2.66,0,0,1,2.21-1.6,1.93,1.93,0,0,1,.83.16l-.26,1.15a2.17,2.17,0,0,0-.75-.13c-.66,0-1.44.48-2,1.79v5h-1.31Z" transform="translate(-1.04 -2.12)"/><path class="cls-2" d="M126.46,115.71a.92.92,0,0,1,1.83,0,.92.92,0,0,1-1.83,0Zm.24,2.45H128v7.78H126.7Z" transform="translate(-1.04 -2.12)"/><path class="cls-2" d="M129.82,125.24l4.1-6h-3.65v-1.07h5.31v.7l-4.1,6h4.23v1.07h-5.89Z" transform="translate(-1.04 -2.12)"/><path class="cls-2" d="M140.3,118c1.9,0,3.6,1.49,3.6,4.1s-1.7,4.07-3.6,4.07-3.6-1.49-3.6-4.07S138.4,118,140.3,118Zm0,7.08c1.34,0,2.24-1.2,2.24-3s-.9-3-2.24-3-2.24,1.22-2.24,3S139,125,140.3,125Z" transform="translate(-1.04 -2.12)"/><path class="cls-2" d="M145.95,118.16H147l.11,1.12h0a3.67,3.67,0,0,1,2.61-1.31c1.63,0,2.37,1.06,2.37,3v4.93h-1.31v-4.75c0-1.46-.45-2.08-1.47-2.08-.8,0-1.34.42-2.13,1.2v5.63h-1.31Z" transform="translate(-1.04 -2.12)"/><path class="cls-2" d="M154.93,119.23h-1.15v-1l1.22-.08.16-2.18h1.1v2.18h2.1v1.07h-2.1v4.32c0,1,.3,1.5,1.2,1.5a2.81,2.81,0,0,0,.88-.21l.26,1a4.82,4.82,0,0,1-1.44.29c-1.67,0-2.22-1.06-2.22-2.59Z" transform="translate(-1.04 -2.12)"/><path class="cls-2" d="M164.22,121c0-1-.34-2-1.6-2a4.18,4.18,0,0,0-2.32.83l-.53-.91a5.77,5.77,0,0,1,3.06-1c1.91,0,2.71,1.26,2.71,3.2v4.77h-1.09l-.11-.93h0a4.22,4.22,0,0,1-2.58,1.12,2.12,2.12,0,0,1-2.29-2.21C159.44,122.23,160.91,121.38,164.22,121Zm-2.13,4.07a3.18,3.18,0,0,0,2.13-1v-2.16c-2.61.32-3.49,1-3.49,2A1.19,1.19,0,0,0,162.1,125.08Z" transform="translate(-1.04 -2.12)"/><path class="cls-2" d="M168,114.54h1.31v9.92c0,.42.18.58.37.58a1.09,1.09,0,0,0,.29,0l.18,1a1.76,1.76,0,0,1-.75.13c-1,0-1.39-.62-1.39-1.76Z" transform="translate(-1.04 -2.12)"/><path class="cls-2" d="M295.49,115.6a5,5,0,0,1,5.25,5.3c0,2.8-1.75,4.26-3.2,4.26a1.48,1.48,0,0,1-1.65-1.22h0a2.75,2.75,0,0,1-2,1.09c-1.09,0-1.92-.8-1.92-2.26,0-1.71,1.2-3.71,3.07-3.71a1.38,1.38,0,0,1,1.28.77h0l.18-.64h.88l-.62,3.2c-.32,1.26,0,1.87.86,1.87s2.14-1.23,2.14-3.31a4.13,4.13,0,0,0-4.43-4.47,5.84,5.84,0,0,0-5.6,6.16,4.55,4.55,0,0,0,4.77,4.9,5.22,5.22,0,0,0,2.59-.72l.35.78a5.74,5.74,0,0,1-3,.82,5.34,5.34,0,0,1-5.63-5.73A6.73,6.73,0,0,1,295.49,115.6Zm-1.33,8.53a2.07,2.07,0,0,0,1.47-.95l.46-2.54a1.11,1.11,0,0,0-1-.67c-1.26,0-2,1.52-2,2.72C293,123.71,293.52,124.13,294.16,124.13Z" transform="translate(-1.04 -2.12)"/><path class="cls-2" d="M304.18,126.6v2.63h-1.31V118.16H304l.11.9h0a4,4,0,0,1,2.48-1.09c2,0,3.07,1.55,3.07,4,0,2.64-1.58,4.19-3.36,4.19a3.61,3.61,0,0,1-2.16-.9Zm1.91-1.57c1.28,0,2.22-1.17,2.22-3.09,0-1.71-.58-2.87-2-2.87a3.28,3.28,0,0,0-2.08,1.06v4.08A3.08,3.08,0,0,0,306.08,125Z" transform="translate(-1.04 -2.12)"/><path class="cls-2" d="M315.92,121c0-1-.34-2-1.6-2a4.18,4.18,0,0,0-2.32.83l-.53-.91a5.77,5.77,0,0,1,3.06-1c1.91,0,2.71,1.26,2.71,3.2v4.77h-1.09L316,125h0a4.22,4.22,0,0,1-2.58,1.12,2.12,2.12,0,0,1-2.29-2.21C311.14,122.23,312.61,121.38,315.92,121Zm-2.13,4.07a3.18,3.18,0,0,0,2.13-1v-2.16c-2.61.32-3.49,1-3.49,2A1.19,1.19,0,0,0,313.79,125.08Z" transform="translate(-1.04 -2.12)"/><path class="cls-2" d="M322.53,118a3.2,3.2,0,0,1,2.18.9l-.06-1.33v-3H326v11.4h-1.09l-.11-.91h0a3.51,3.51,0,0,1-2.35,1.1c-2,0-3.22-1.47-3.22-4.07S320.75,118,322.53,118Zm.13,7.06a2.63,2.63,0,0,0,2-1.07v-4.07a2.71,2.71,0,0,0-1.89-.82c-1.25,0-2.24,1.2-2.24,3S321.3,125,322.66,125Z" transform="translate(-1.04 -2.12)"/><path class="cls-2" d="M331.41,118a3.2,3.2,0,0,1,2.18.9l-.06-1.33v-3h1.33v11.4h-1.09l-.11-.91h0a3.51,3.51,0,0,1-2.35,1.1c-2,0-3.22-1.47-3.22-4.07S329.63,118,331.41,118Zm.13,7.06a2.63,2.63,0,0,0,2-1.07v-4.07a2.71,2.71,0,0,0-1.89-.82c-1.25,0-2.24,1.2-2.24,3S330.18,125,331.54,125Z" transform="translate(-1.04 -2.12)"/><path class="cls-2" d="M337.23,115.71a.92.92,0,0,1,1.83,0,.92.92,0,0,1-1.83,0Zm.24,2.45h1.31v7.78h-1.31Z" transform="translate(-1.04 -2.12)"/><path class="cls-2" d="M341.41,118.16h1.09l.11,1.12h0a3.67,3.67,0,0,1,2.61-1.31c1.63,0,2.37,1.06,2.37,3v4.93h-1.31v-4.75c0-1.46-.45-2.08-1.47-2.08-.8,0-1.34.42-2.13,1.2v5.63h-1.31Z" transform="translate(-1.04 -2.12)"/><path class="cls-2" d="M350.7,125.67v-.06a1.44,1.44,0,0,1-.69-1.27,1.82,1.82,0,0,1,.85-1.44v-.06a2.75,2.75,0,0,1,1.92-4.87,3.1,3.1,0,0,1,1.1.19h2.71v1H355a2.26,2.26,0,0,1,.64,1.6,2.67,2.67,0,0,1-2.85,2.71,2.71,2.71,0,0,1-1.17-.27,1.18,1.18,0,0,0-.5.93c0,.5.32.85,1.38.85H354c1.81,0,2.72.56,2.72,1.86s-1.52,2.69-3.94,2.69c-1.9,0-3.22-.75-3.22-2.1A2.24,2.24,0,0,1,350.7,125.67Zm2.27,2.94c1.49,0,2.46-.77,2.46-1.58s-.56-1-1.57-1h-1.34a3.8,3.8,0,0,1-1-.13,1.64,1.64,0,0,0-.8,1.31C350.72,128.08,351.57,128.61,353,128.61Zm1.46-7.88a1.66,1.66,0,1,0-3.3,0,1.66,1.66,0,1,0,3.3,0Z" transform="translate(-1.04 -2.12)"/><path class="cls-2" d="M357.57,121.43h3.68v1h-3.68Z" transform="translate(-1.04 -2.12)"/><path class="cls-2" d="M364.43,121.87l-2.35-3.71h1.42l1,1.71c.24.42.5.86.77,1.3h.06c.22-.43.46-.88.7-1.3l.94-1.71h1.38L366,122l2.53,3.92h-1.42L366,124.13c-.27-.46-.56-.95-.85-1.39h-.06c-.27.45-.53.91-.78,1.39l-1.06,1.81h-1.38Z" transform="translate(-1.04 -2.12)"/><path class="cls-2" d="M369.23,121.43h3.68v1h-3.68Z" transform="translate(-1.04 -2.12)"/><path class="cls-2" d="M374.66,124.18a3.49,3.49,0,0,0,2.29.93c1,0,1.54-.54,1.54-1.22s-.93-1.15-1.78-1.47c-1.1-.4-2.32-.93-2.32-2.24s1-2.21,2.67-2.21a3.88,3.88,0,0,1,2.42.88l-.62.83a2.89,2.89,0,0,0-1.78-.69c-1,0-1.42.53-1.42,1.12s.85,1,1.73,1.34c1.12.42,2.37.88,2.37,2.35,0,1.26-1,2.32-2.85,2.32a4.68,4.68,0,0,1-2.9-1.07Z" transform="translate(-1.04 -2.12)"/><path class="cls-2" d="M381.57,118.16h1.09l.11,1.12h0a3.42,3.42,0,0,1,2.42-1.31,2,2,0,0,1,2.15,1.49,3.67,3.67,0,0,1,2.56-1.49c1.6,0,2.37,1.06,2.37,3v4.93H391v-4.75c0-1.46-.46-2.08-1.44-2.08a2.86,2.86,0,0,0-2,1.2v5.63h-1.31v-4.75c0-1.46-.46-2.08-1.46-2.08a2.92,2.92,0,0,0-2,1.2v5.63h-1.31Z" transform="translate(-1.04 -2.12)"/><path class="cls-2" d="M394.17,121.43h3.68v1h-3.68Z" transform="translate(-1.04 -2.12)"/><path class="cls-2" d="M399.81,114.54h1.31v3.1l0,1.6a3.72,3.72,0,0,1,2.59-1.28c1.63,0,2.37,1.06,2.37,3v4.93h-1.31v-4.75c0-1.46-.45-2.08-1.47-2.08-.8,0-1.34.42-2.13,1.2v5.63h-1.31Z" transform="translate(-1.04 -2.12)"/><path class="cls-2" d="M411.54,118c1.9,0,3.6,1.49,3.6,4.1s-1.7,4.07-3.6,4.07-3.6-1.49-3.6-4.07S409.63,118,411.54,118Zm0,7.08c1.34,0,2.24-1.2,2.24-3s-.9-3-2.24-3-2.24,1.22-2.24,3S410.21,125,411.54,125Z" transform="translate(-1.04 -2.12)"/><path class="cls-2" d="M417.18,118.16h1.09l.11,1.41h0a2.66,2.66,0,0,1,2.21-1.6,1.93,1.93,0,0,1,.83.16l-.26,1.15a2.17,2.17,0,0,0-.75-.13c-.66,0-1.44.48-2,1.79v5h-1.31Z" transform="translate(-1.04 -2.12)"/><path class="cls-2" d="M422.49,115.71a.92.92,0,0,1,1.83,0,.92.92,0,0,1-1.83,0Zm.24,2.45H424v7.78h-1.31Z" transform="translate(-1.04 -2.12)"/><path class="cls-2" d="M425.85,125.24l4.1-6H426.3v-1.07h5.31v.7l-4.1,6h4.23v1.07h-5.89Z" transform="translate(-1.04 -2.12)"/><path class="cls-2" d="M436.34,118c1.9,0,3.6,1.49,3.6,4.1s-1.7,4.07-3.6,4.07-3.6-1.49-3.6-4.07S434.43,118,436.34,118Zm0,7.08c1.34,0,2.24-1.2,2.24-3s-.9-3-2.24-3-2.24,1.22-2.24,3S435,125,436.34,125Z" transform="translate(-1.04 -2.12)"/><path class="cls-2" d="M442,118.16h1.09l.11,1.12h0a3.67,3.67,0,0,1,2.61-1.31c1.63,0,2.37,1.06,2.37,3v4.93H446.9v-4.75c0-1.46-.45-2.08-1.47-2.08-.8,0-1.34.42-2.13,1.2v5.63H442Z" transform="translate(-1.04 -2.12)"/><path class="cls-2" d="M451,119.23h-1.15v-1l1.22-.08.16-2.18h1.1v2.18h2.1v1.07h-2.1v4.32c0,1,.3,1.5,1.2,1.5a2.81,2.81,0,0,0,.88-.21l.26,1a4.82,4.82,0,0,1-1.44.29c-1.67,0-2.22-1.06-2.22-2.59Z" transform="translate(-1.04 -2.12)"/><path class="cls-2" d="M460.26,121c0-1-.34-2-1.6-2a4.18,4.18,0,0,0-2.32.83l-.53-.91a5.77,5.77,0,0,1,3.06-1c1.91,0,2.71,1.26,2.71,3.2v4.77h-1.09l-.11-.93h0a4.22,4.22,0,0,1-2.58,1.12,2.12,2.12,0,0,1-2.29-2.21C455.47,122.23,456.94,121.38,460.26,121Zm-2.13,4.07a3.18,3.18,0,0,0,2.13-1v-2.16c-2.61.32-3.49,1-3.49,2A1.19,1.19,0,0,0,458.13,125.08Z" transform="translate(-1.04 -2.12)"/><path class="cls-2" d="M464,114.54h1.31v9.92c0,.42.18.58.37.58a1.09,1.09,0,0,0,.29,0l.18,1a1.76,1.76,0,0,1-.75.13c-1,0-1.39-.62-1.39-1.76Z" transform="translate(-1.04 -2.12)"/><path class="cls-2" d="M2,145.12a1,1,0,0,1,0,2,1,1,0,0,1,0-2Z" transform="translate(-1.04 -2.12)"/><path class="cls-2" d="M5.3,135.54H6.61v9.92c0,.42.18.58.37.58a1.09,1.09,0,0,0,.29,0l.18,1a1.76,1.76,0,0,1-.75.13c-1,0-1.39-.62-1.39-1.76Z" transform="translate(-1.04 -2.12)"/><path class="cls-2" d="M13.78,142c0-1-.34-2-1.6-2a4.18,4.18,0,0,0-2.32.83L9.33,140a5.77,5.77,0,0,1,3.06-1c1.91,0,2.71,1.26,2.71,3.2v4.77H14l-.11-.93h0a4.22,4.22,0,0,1-2.58,1.12A2.12,2.12,0,0,1,9,144.92C9,143.23,10.46,142.38,13.78,142Zm-2.13,4.07a3.18,3.18,0,0,0,2.13-1v-2.16c-2.61.32-3.49,1-3.49,2A1.19,1.19,0,0,0,11.65,146.08Z" transform="translate(-1.04 -2.12)"/><path class="cls-2" d="M17.57,135.54h1.31v3.1l0,1.41A3.84,3.84,0,0,1,21.28,139c2,0,3.09,1.55,3.09,4,0,2.66-1.58,4.21-3.36,4.21a3.52,3.52,0,0,1-2.22-1h0l-.11.77H17.57ZM20.79,146c1.28,0,2.22-1.17,2.22-3.09,0-1.71-.58-2.87-2-2.87a3.21,3.21,0,0,0-2.08,1.06v4.08A3,3,0,0,0,20.79,146Z" transform="translate(-1.04 -2.12)"/><path class="cls-2" d="M29.36,139c2,0,3.11,1.42,3.11,3.65a4.63,4.63,0,0,1,0,.72H27.17a2.59,2.59,0,0,0,2.59,2.74,3.52,3.52,0,0,0,1.94-.61l.46.86a4.63,4.63,0,0,1-2.56.8,3.72,3.72,0,0,1-3.73-4.07C25.87,140.52,27.58,139,29.36,139Zm2,3.5c0-1.58-.7-2.46-1.92-2.46a2.43,2.43,0,0,0-2.24,2.46Z" transform="translate(-1.04 -2.12)"/><path class="cls-2" d="M34.38,135.54H35.7v9.92c0,.42.18.58.37.58a1.09,1.09,0,0,0,.29,0l.18,1a1.76,1.76,0,0,1-.75.13c-1,0-1.39-.62-1.39-1.76Z" transform="translate(-1.04 -2.12)"/><path class="cls-2" d="M37.81,142.43h3.68v1H37.81Z" transform="translate(-1.04 -2.12)"/><path class="cls-2" d="M43.66,140.23H42.51v-1l1.22-.08.16-2.18H45v2.18h2.1v1.07H45v4.32c0,1,.3,1.5,1.2,1.5a2.81,2.81,0,0,0,.88-.21l.26,1a4.82,4.82,0,0,1-1.44.29c-1.67,0-2.22-1.06-2.22-2.59Z" transform="translate(-1.04 -2.12)"/><path class="cls-2" d="M51.6,139c2,0,3.11,1.42,3.11,3.65a4.63,4.63,0,0,1,0,.72H49.41A2.59,2.59,0,0,0,52,146.08a3.52,3.52,0,0,0,1.94-.61l.46.86a4.63,4.63,0,0,1-2.56.8,3.72,3.72,0,0,1-3.73-4.07C48.11,140.52,49.82,139,51.6,139Zm2,3.5c0-1.58-.7-2.46-1.92-2.46a2.43,2.43,0,0,0-2.24,2.46Z" transform="translate(-1.04 -2.12)"/><path class="cls-2" d="M58,142.87l-2.35-3.71H57l1,1.71c.24.42.5.86.77,1.3h.06c.22-.43.46-.88.7-1.3l.94-1.71h1.38L59.58,143l2.53,3.92H60.69l-1.14-1.81c-.27-.46-.56-.95-.85-1.39h-.06c-.27.45-.53.91-.78,1.39l-1.06,1.81H55.42Z" transform="translate(-1.04 -2.12)"/><path class="cls-2" d="M63.87,140.23H62.72v-1l1.22-.08L64.1,137h1.1v2.18h2.1v1.07H65.2v4.32c0,1,.3,1.5,1.2,1.5a2.81,2.81,0,0,0,.88-.21l.26,1a4.82,4.82,0,0,1-1.44.29c-1.67,0-2.23-1.06-2.23-2.59Z" transform="translate(-1.04 -2.12)"/><path class="cls-2" d="M68,142.43h3.68v1H68Z" transform="translate(-1.04 -2.12)"/><path class="cls-2" d="M76.78,139a3.21,3.21,0,0,1,2.27.93l-.66.85a2.35,2.35,0,0,0-1.57-.69c-1.41,0-2.43,1.22-2.43,3s1,3,2.4,3a2.77,2.77,0,0,0,1.82-.79l.59.87a3.85,3.85,0,0,1-2.53,1c-2.06,0-3.65-1.49-3.65-4.07A3.77,3.77,0,0,1,76.78,139Z" transform="translate(-1.04 -2.12)"/><path class="cls-2" d="M83.6,139c1.9,0,3.6,1.49,3.6,4.1s-1.7,4.07-3.6,4.07-3.6-1.49-3.6-4.07S81.7,139,83.6,139Zm0,7.08c1.34,0,2.24-1.2,2.24-3s-.9-3-2.24-3-2.24,1.22-2.24,3S82.27,146,83.6,146Z" transform="translate(-1.04 -2.12)"/><path class="cls-2" d="M89.25,135.54h1.31v9.92c0,.42.18.58.37.58a1.09,1.09,0,0,0,.29,0l.18,1a1.76,1.76,0,0,1-.75.13c-1,0-1.39-.62-1.39-1.76Z" transform="translate(-1.04 -2.12)"/><path class="cls-2" d="M96.35,139c1.9,0,3.6,1.49,3.6,4.1s-1.7,4.07-3.6,4.07-3.6-1.49-3.6-4.07S94.45,139,96.35,139Zm0,7.08c1.34,0,2.24-1.2,2.24-3s-.9-3-2.24-3-2.24,1.22-2.24,3S95,146,96.35,146Z" transform="translate(-1.04 -2.12)"/><path class="cls-2" d="M102,139.16h1.09l.11,1.41h0a2.66,2.66,0,0,1,2.21-1.6,1.93,1.93,0,0,1,.83.16l-.26,1.15a2.17,2.17,0,0,0-.75-.13c-.66,0-1.44.48-2,1.79v5H102Z" transform="translate(-1.04 -2.12)"/><path class="cls-2" d="M289.84,143.67h-1.28v-.91H290l.29-2.37h-1.36v-.93h1.47l.37-2.93h.85l-.37,2.93h2.13l.38-2.93h.85l-.38,2.93h1.3v.93h-1.39l-.29,2.37h1.36v.91h-1.47l-.4,3.27h-.85l.38-3.27h-2.11l-.4,3.27h-.86Zm3.09-.91.29-2.37h-2.11l-.29,2.37Z" transform="translate(-1.04 -2.12)"/><path class="cls-2" d="M305.33,136.62a2.29,2.29,0,0,0-.88-.19c-.74,0-1.1.51-1.1,1.5v1.23H305v1.07h-1.65v6.71H302v-6.71H298.8v6.71h-1.31v-6.71h-1.06v-1l1.06-.08v-1c0-1.62.8-2.62,2.42-2.62a3.59,3.59,0,0,1,1.42.29l-.27,1a2.51,2.51,0,0,0-1-.21c-.77,0-1.22.56-1.22,1.58v1H302v-1.23c0-1.58.72-2.58,2.27-2.58a3.54,3.54,0,0,1,1.3.26Z" transform="translate(-1.04 -2.12)"/><path class="cls-2" d="M310,136.62a2.17,2.17,0,0,0-.88-.19c-.74,0-1.09.51-1.09,1.5v1.23h1.65v1.07H308v6.71h-1.31v-6.71h-1.06v-1l1.06-.08v-1.23c0-1.58.72-2.58,2.27-2.58a3.54,3.54,0,0,1,1.3.26Z" transform="translate(-1.04 -2.12)"/><path class="cls-2" d="M295.49,156.6a5,5,0,0,1,5.25,5.3c0,2.8-1.75,4.26-3.2,4.26a1.48,1.48,0,0,1-1.65-1.22h0a2.75,2.75,0,0,1-2,1.09c-1.09,0-1.92-.8-1.92-2.26,0-1.71,1.2-3.71,3.07-3.71a1.38,1.38,0,0,1,1.28.77h0l.18-.64h.88l-.62,3.2c-.32,1.26,0,1.87.86,1.87s2.14-1.23,2.14-3.31a4.13,4.13,0,0,0-4.43-4.47,5.84,5.84,0,0,0-5.6,6.16,4.55,4.55,0,0,0,4.77,4.9,5.22,5.22,0,0,0,2.59-.72l.35.78a5.74,5.74,0,0,1-3,.82,5.34,5.34,0,0,1-5.63-5.73A6.73,6.73,0,0,1,295.49,156.6Zm-1.33,8.53a2.07,2.07,0,0,0,1.47-.95l.46-2.54a1.11,1.11,0,0,0-1-.67c-1.26,0-2,1.52-2,2.72C293,164.71,293.52,165.13,294.16,165.13Z" transform="translate(-1.04 -2.12)"/><path class="cls-2" d="M304.18,167.6v2.63h-1.31V159.16H304l.11.9h0a4,4,0,0,1,2.48-1.09c2,0,3.07,1.55,3.07,4,0,2.64-1.58,4.19-3.36,4.19a3.61,3.61,0,0,1-2.16-.9Zm1.91-1.57c1.28,0,2.22-1.17,2.22-3.09,0-1.71-.58-2.87-2-2.87a3.28,3.28,0,0,0-2.08,1.06v4.08A3.08,3.08,0,0,0,306.08,166Z" transform="translate(-1.04 -2.12)"/><path class="cls-2" d="M315.92,162c0-1-.34-2-1.6-2a4.18,4.18,0,0,0-2.32.83l-.53-.91a5.77,5.77,0,0,1,3.06-1c1.91,0,2.71,1.26,2.71,3.2v4.77h-1.09L316,166h0a4.22,4.22,0,0,1-2.58,1.12,2.12,2.12,0,0,1-2.29-2.21C311.14,163.23,312.61,162.38,315.92,162Zm-2.13,4.07a3.18,3.18,0,0,0,2.13-1v-2.16c-2.61.32-3.49,1-3.49,2A1.19,1.19,0,0,0,313.79,166.08Z" transform="translate(-1.04 -2.12)"/><path class="cls-2" d="M322.53,159a3.2,3.2,0,0,1,2.18.9l-.06-1.33v-3H326v11.4h-1.09l-.11-.91h0a3.51,3.51,0,0,1-2.35,1.1c-2,0-3.22-1.47-3.22-4.07S320.75,159,322.53,159Zm.13,7.06a2.63,2.63,0,0,0,2-1.07v-4.07a2.71,2.71,0,0,0-1.89-.82c-1.25,0-2.24,1.2-2.24,3S321.3,166,322.66,166Z" transform="translate(-1.04 -2.12)"/><path class="cls-2" d="M331.41,159a3.2,3.2,0,0,1,2.18.9l-.06-1.33v-3h1.33v11.4h-1.09l-.11-.91h0a3.51,3.51,0,0,1-2.35,1.1c-2,0-3.22-1.47-3.22-4.07S329.63,159,331.41,159Zm.13,7.06a2.63,2.63,0,0,0,2-1.07v-4.07a2.71,2.71,0,0,0-1.89-.82c-1.25,0-2.24,1.2-2.24,3S330.18,166,331.54,166Z" transform="translate(-1.04 -2.12)"/><path class="cls-2" d="M337.23,156.71a.92.92,0,0,1,1.83,0,.92.92,0,0,1-1.83,0Zm.24,2.45h1.31v7.78h-1.31Z" transform="translate(-1.04 -2.12)"/><path class="cls-2" d="M341.41,159.16h1.09l.11,1.12h0a3.67,3.67,0,0,1,2.61-1.31c1.63,0,2.37,1.06,2.37,3v4.93h-1.31v-4.75c0-1.46-.45-2.08-1.47-2.08-.8,0-1.34.42-2.13,1.2v5.63h-1.31Z" transform="translate(-1.04 -2.12)"/><path class="cls-2" d="M350.7,166.67v-.06a1.44,1.44,0,0,1-.69-1.27,1.82,1.82,0,0,1,.85-1.44v-.06a2.75,2.75,0,0,1,1.92-4.87,3.1,3.1,0,0,1,1.1.19h2.71v1H355a2.26,2.26,0,0,1,.64,1.6,2.67,2.67,0,0,1-2.85,2.71,2.71,2.71,0,0,1-1.17-.27,1.18,1.18,0,0,0-.5.93c0,.5.32.85,1.38.85H354c1.81,0,2.72.56,2.72,1.86s-1.52,2.69-3.94,2.69c-1.9,0-3.22-.75-3.22-2.1A2.24,2.24,0,0,1,350.7,166.67Zm2.27,2.94c1.49,0,2.46-.77,2.46-1.58s-.56-1-1.57-1h-1.34a3.8,3.8,0,0,1-1-.13,1.64,1.64,0,0,0-.8,1.31C350.72,169.08,351.57,169.61,353,169.61Zm1.46-7.87a1.66,1.66,0,1,0-3.3,0,1.66,1.66,0,1,0,3.3,0Z" transform="translate(-1.04 -2.12)"/><path class="cls-2" d="M357.57,162.43h3.68v1h-3.68Z" transform="translate(-1.04 -2.12)"/><path class="cls-2" d="M363,165.18a3.49,3.49,0,0,0,2.29.93c1,0,1.54-.54,1.54-1.22s-.93-1.15-1.78-1.47c-1.1-.4-2.32-.93-2.32-2.24s1-2.21,2.67-2.21a3.88,3.88,0,0,1,2.42.88l-.62.83a2.89,2.89,0,0,0-1.78-.69c-1,0-1.42.53-1.42,1.12s.85,1,1.73,1.34c1.12.42,2.37.88,2.37,2.35,0,1.26-1,2.32-2.85,2.32a4.68,4.68,0,0,1-2.9-1.07Z" transform="translate(-1.04 -2.12)"/><path class="cls-2" d="M369.9,159.16H371l.11,1.12h0a3.42,3.42,0,0,1,2.42-1.31,2,2,0,0,1,2.15,1.49,3.67,3.67,0,0,1,2.56-1.49c1.6,0,2.37,1.06,2.37,3v4.93h-1.31v-4.75c0-1.46-.46-2.08-1.44-2.08a2.86,2.86,0,0,0-2,1.2v5.63h-1.31v-4.75c0-1.46-.46-2.08-1.46-2.08a2.92,2.92,0,0,0-2,1.2v5.63H369.9Z" transform="translate(-1.04 -2.12)"/><path class="cls-2" d="M382.51,162.43h3.68v1h-3.68Z" transform="translate(-1.04 -2.12)"/><path class="cls-2" d="M388.14,155.54h1.31v3.1l0,1.6A3.72,3.72,0,0,1,392,159c1.63,0,2.37,1.06,2.37,3v4.93h-1.31v-4.75c0-1.46-.45-2.08-1.47-2.08-.8,0-1.34.42-2.13,1.2v5.63h-1.31Z" transform="translate(-1.04 -2.12)"/><path class="cls-2" d="M399.87,159c1.9,0,3.6,1.49,3.6,4.1s-1.7,4.07-3.6,4.07-3.6-1.49-3.6-4.07S398,159,399.87,159Zm0,7.08c1.34,0,2.24-1.2,2.24-3s-.9-3-2.24-3-2.24,1.22-2.24,3S398.54,166,399.87,166Z" transform="translate(-1.04 -2.12)"/><path class="cls-2" d="M405.52,159.16h1.09l.11,1.41h0A2.66,2.66,0,0,1,409,159a1.93,1.93,0,0,1,.83.16l-.26,1.15a2.17,2.17,0,0,0-.75-.13c-.66,0-1.44.48-2,1.79v5h-1.31Z" transform="translate(-1.04 -2.12)"/><path class="cls-2" d="M410.83,156.71a.92.92,0,0,1,1.83,0,.92.92,0,0,1-1.83,0Zm.24,2.45h1.31v7.78h-1.31Z" transform="translate(-1.04 -2.12)"/><path class="cls-2" d="M414.19,166.24l4.1-6h-3.65v-1.07H420v.7l-4.1,6h4.23v1.07h-5.89Z" transform="translate(-1.04 -2.12)"/><path class="cls-2" d="M424.67,159c1.9,0,3.6,1.49,3.6,4.1s-1.7,4.07-3.6,4.07-3.6-1.49-3.6-4.07S422.77,159,424.67,159Zm0,7.08c1.34,0,2.24-1.2,2.24-3s-.9-3-2.24-3-2.24,1.22-2.24,3S423.34,166,424.67,166Z" transform="translate(-1.04 -2.12)"/><path class="cls-2" d="M430.32,159.16h1.09l.11,1.12h0a3.67,3.67,0,0,1,2.61-1.31c1.63,0,2.37,1.06,2.37,3v4.93h-1.31v-4.75c0-1.46-.45-2.08-1.47-2.08-.8,0-1.34.42-2.13,1.2v5.63h-1.31Z" transform="translate(-1.04 -2.12)"/><path class="cls-2" d="M439.29,160.23h-1.15v-1l1.22-.08.16-2.18h1.1v2.18h2.1v1.07h-2.1v4.32c0,1,.3,1.5,1.2,1.5a2.81,2.81,0,0,0,.88-.21l.26,1a4.82,4.82,0,0,1-1.44.29c-1.67,0-2.22-1.06-2.22-2.59Z" transform="translate(-1.04 -2.12)"/><path class="cls-2" d="M448.59,162c0-1-.34-2-1.6-2a4.18,4.18,0,0,0-2.32.83l-.53-.91a5.77,5.77,0,0,1,3.06-1c1.91,0,2.71,1.26,2.71,3.2v4.77h-1.09l-.11-.93h0a4.22,4.22,0,0,1-2.58,1.12,2.12,2.12,0,0,1-2.29-2.21C443.81,163.23,445.28,162.38,448.59,162Zm-2.13,4.07a3.18,3.18,0,0,0,2.13-1v-2.16c-2.61.32-3.49,1-3.49,2A1.19,1.19,0,0,0,446.46,166.08Z" transform="translate(-1.04 -2.12)"/><path class="cls-2" d="M452.38,155.54h1.31v9.92c0,.42.18.58.37.58a1.09,1.09,0,0,0,.29,0l.18,1a1.76,1.76,0,0,1-.75.13c-1,0-1.39-.62-1.39-1.76Z" transform="translate(-1.04 -2.12)"/><path class="cls-2" d="M2,36.12a1,1,0,0,1,0,2,1,1,0,0,1,0-2Z" transform="translate(-1.04 -2.12)"/><path class="cls-2" d="M5.3,26.54H6.61v9.92c0,.42.18.58.37.58a1.09,1.09,0,0,0,.29,0l.18,1a1.76,1.76,0,0,1-.75.13c-1,0-1.39-.62-1.39-1.76Z" transform="translate(-1.04 -2.12)"/><path class="cls-2" d="M13.78,33c0-1-.34-2-1.6-2a4.18,4.18,0,0,0-2.32.83L9.33,31a5.77,5.77,0,0,1,3.06-1c1.91,0,2.71,1.26,2.71,3.2v4.77H14L13.89,37h0a4.22,4.22,0,0,1-2.58,1.12A2.12,2.12,0,0,1,9,35.92C9,34.23,10.46,33.38,13.78,33Zm-2.13,4.07a3.18,3.18,0,0,0,2.13-1V33.87c-2.61.32-3.49,1-3.49,2A1.19,1.19,0,0,0,11.65,37.08Z" transform="translate(-1.04 -2.12)"/><path class="cls-2" d="M17.57,26.54h1.31v3.1l0,1.41A3.84,3.84,0,0,1,21.28,30c2,0,3.09,1.55,3.09,4,0,2.66-1.58,4.21-3.36,4.21a3.52,3.52,0,0,1-2.22-1h0l-.11.77H17.57ZM20.79,37C22.07,37,23,35.86,23,33.94c0-1.71-.58-2.87-2-2.87a3.21,3.21,0,0,0-2.08,1.06v4.08A3,3,0,0,0,20.79,37Z" transform="translate(-1.04 -2.12)"/><path class="cls-2" d="M29.36,30c2,0,3.11,1.42,3.11,3.65a4.63,4.63,0,0,1,0,.72H27.17a2.59,2.59,0,0,0,2.59,2.74,3.52,3.52,0,0,0,1.94-.61l.46.86a4.63,4.63,0,0,1-2.56.8,3.72,3.72,0,0,1-3.73-4.07C25.87,31.52,27.58,30,29.36,30Zm2,3.5c0-1.58-.7-2.46-1.92-2.46a2.43,2.43,0,0,0-2.24,2.46Z" transform="translate(-1.04 -2.12)"/><path class="cls-2" d="M34.38,26.54H35.7v9.92c0,.42.18.58.37.58a1.09,1.09,0,0,0,.29,0l.18,1a1.76,1.76,0,0,1-.75.13c-1,0-1.39-.62-1.39-1.76Z" transform="translate(-1.04 -2.12)"/><path class="cls-2" d="M37.81,33.43h3.68v1H37.81Z" transform="translate(-1.04 -2.12)"/><path class="cls-2" d="M43.44,26.54h1.31v3.1l0,1.6A3.72,3.72,0,0,1,47.3,30c1.63,0,2.37,1.06,2.37,3v4.93H48.35V33.19c0-1.46-.45-2.08-1.47-2.08-.8,0-1.34.42-2.13,1.2v5.63H43.44Z" transform="translate(-1.04 -2.12)"/><path class="cls-2" d="M55.06,30c2,0,3.11,1.42,3.11,3.65a4.63,4.63,0,0,1,0,.72H52.86a2.59,2.59,0,0,0,2.59,2.74,3.52,3.52,0,0,0,1.94-.61l.46.86a4.63,4.63,0,0,1-2.56.8,3.72,3.72,0,0,1-3.73-4.07C51.57,31.52,53.28,30,55.06,30Zm2,3.5c0-1.58-.7-2.46-1.92-2.46a2.43,2.43,0,0,0-2.24,2.46Z" transform="translate(-1.04 -2.12)"/><path class="cls-2" d="M59.84,27.71a.92.92,0,0,1,1.83,0,.92.92,0,0,1-1.83,0Zm.24,2.45h1.31v7.78H60.08Z" transform="translate(-1.04 -2.12)"/><path class="cls-2" d="M64.56,37.67V37.6a1.44,1.44,0,0,1-.69-1.27,1.82,1.82,0,0,1,.85-1.44v-.06A2.75,2.75,0,0,1,66.64,30a3.1,3.1,0,0,1,1.1.19h2.71v1h-1.6a2.26,2.26,0,0,1,.64,1.6,2.67,2.67,0,0,1-2.85,2.71,2.71,2.71,0,0,1-1.17-.27,1.18,1.18,0,0,0-.5.93c0,.5.32.85,1.38.85h1.5c1.81,0,2.72.56,2.72,1.86s-1.52,2.69-3.94,2.69c-1.9,0-3.22-.75-3.22-2.1A2.24,2.24,0,0,1,64.56,37.67Zm2.27,2.94c1.49,0,2.46-.77,2.46-1.58s-.56-1-1.57-1H66.38a3.8,3.8,0,0,1-1-.13,1.64,1.64,0,0,0-.8,1.31C64.58,40.08,65.42,40.61,66.83,40.61Zm1.46-7.87a1.66,1.66,0,1,0-3.3,0,1.66,1.66,0,1,0,3.3,0Z" transform="translate(-1.04 -2.12)"/><path class="cls-2" d="M72.08,26.54h1.31v3.1l0,1.6A3.72,3.72,0,0,1,75.94,30c1.63,0,2.37,1.06,2.37,3v4.93H77V33.19c0-1.46-.45-2.08-1.47-2.08-.8,0-1.34.42-2.13,1.2v5.63H72.08Z" transform="translate(-1.04 -2.12)"/><path class="cls-2" d="M81,31.23H79.85v-1l1.22-.08L81.23,28h1.1v2.18h2.1v1.07h-2.1v4.32c0,1,.3,1.5,1.2,1.5a2.81,2.81,0,0,0,.88-.21l.26,1a4.82,4.82,0,0,1-1.44.29c-1.67,0-2.22-1.06-2.22-2.59Z" transform="translate(-1.04 -2.12)"/><path class="cls-2" d="M85.12,33.43H88.8v1H85.12Z" transform="translate(-1.04 -2.12)"/><path class="cls-2" d="M90.75,26.54h1.31v3.1l0,1.41A3.84,3.84,0,0,1,94.46,30c2,0,3.09,1.55,3.09,4,0,2.66-1.58,4.21-3.36,4.21a3.52,3.52,0,0,1-2.22-1h0l-.11.77H90.75ZM94,37c1.28,0,2.22-1.17,2.22-3.09,0-1.71-.58-2.87-2-2.87a3.21,3.21,0,0,0-2.08,1.06v4.08A3,3,0,0,0,94,37Z" transform="translate(-1.04 -2.12)"/><path class="cls-2" d="M103.81,33c0-1-.34-2-1.6-2a4.18,4.18,0,0,0-2.32.83L99.36,31a5.77,5.77,0,0,1,3.06-1c1.91,0,2.71,1.26,2.71,3.2v4.77H104l-.11-.93h0a4.22,4.22,0,0,1-2.58,1.12A2.12,2.12,0,0,1,99,35.92C99,34.23,100.5,33.38,103.81,33Zm-2.13,4.07a3.18,3.18,0,0,0,2.13-1V33.87c-2.61.32-3.49,1-3.49,2A1.19,1.19,0,0,0,101.68,37.08Z" transform="translate(-1.04 -2.12)"/><path class="cls-2" d="M107.39,36.18a3.49,3.49,0,0,0,2.29.93c1,0,1.54-.54,1.54-1.22s-.93-1.15-1.78-1.47c-1.1-.4-2.32-.93-2.32-2.24s1-2.21,2.67-2.21a3.88,3.88,0,0,1,2.42.88l-.62.83a2.89,2.89,0,0,0-1.78-.69c-1,0-1.42.53-1.42,1.12s.85,1,1.73,1.34c1.12.42,2.37.88,2.37,2.35,0,1.26-1,2.32-2.85,2.32a4.68,4.68,0,0,1-2.9-1.07Z" transform="translate(-1.04 -2.12)"/><path class="cls-2" d="M117.22,30c2,0,3.11,1.42,3.11,3.65a4.63,4.63,0,0,1,0,.72H115a2.59,2.59,0,0,0,2.59,2.74,3.52,3.52,0,0,0,1.94-.61l.46.86a4.63,4.63,0,0,1-2.56.8,3.72,3.72,0,0,1-3.73-4.07C113.73,31.52,115.44,30,117.22,30Zm2,3.5c0-1.58-.7-2.46-1.92-2.46A2.43,2.43,0,0,0,115,33.47Z" transform="translate(-1.04 -2.12)"/><path class="cls-2" d="M2,60.12a1,1,0,0,1,0,2,1,1,0,0,1,0-2Z" transform="translate(-1.04 -2.12)"/><path class="cls-2" d="M5.3,50.54H6.61v9.92c0,.42.18.58.37.58a1.09,1.09,0,0,0,.29,0l.18,1a1.76,1.76,0,0,1-.75.13c-1,0-1.39-.62-1.39-1.76Z" transform="translate(-1.04 -2.12)"/><path class="cls-2" d="M13.78,57c0-1-.34-2-1.6-2a4.18,4.18,0,0,0-2.32.83L9.33,55a5.77,5.77,0,0,1,3.06-1c1.91,0,2.71,1.26,2.71,3.2v4.77H14L13.89,61h0a4.22,4.22,0,0,1-2.58,1.12A2.12,2.12,0,0,1,9,59.92C9,58.23,10.46,57.38,13.78,57Zm-2.13,4.07a3.18,3.18,0,0,0,2.13-1V57.87c-2.61.32-3.49,1-3.49,2A1.19,1.19,0,0,0,11.65,61.08Z" transform="translate(-1.04 -2.12)"/><path class="cls-2" d="M17.57,50.54h1.31v3.1l0,1.41A3.84,3.84,0,0,1,21.28,54c2,0,3.09,1.55,3.09,4,0,2.66-1.58,4.21-3.36,4.21a3.52,3.52,0,0,1-2.22-1h0l-.11.77H17.57ZM20.79,61C22.07,61,23,59.86,23,57.94c0-1.71-.58-2.87-2-2.87a3.21,3.21,0,0,0-2.08,1.06v4.08A3,3,0,0,0,20.79,61Z" transform="translate(-1.04 -2.12)"/><path class="cls-2" d="M29.36,54c2,0,3.11,1.42,3.11,3.65a4.63,4.63,0,0,1,0,.72H27.17a2.59,2.59,0,0,0,2.59,2.74,3.52,3.52,0,0,0,1.94-.61l.46.86a4.63,4.63,0,0,1-2.56.8,3.72,3.72,0,0,1-3.73-4.07C25.87,55.52,27.58,54,29.36,54Zm2,3.5c0-1.58-.7-2.46-1.92-2.46a2.43,2.43,0,0,0-2.24,2.46Z" transform="translate(-1.04 -2.12)"/><path class="cls-2" d="M34.38,50.54H35.7v9.92c0,.42.18.58.37.58a1.09,1.09,0,0,0,.29,0l.18,1a1.76,1.76,0,0,1-.75.13c-1,0-1.39-.62-1.39-1.76Z" transform="translate(-1.04 -2.12)"/><path class="cls-2" d="M37.81,57.43h3.68v1H37.81Z" transform="translate(-1.04 -2.12)"/><path class="cls-2" d="M43.44,50.54h1.31v3.1l0,1.6A3.72,3.72,0,0,1,47.3,54c1.63,0,2.37,1.06,2.37,3v4.93H48.35V57.19c0-1.46-.45-2.08-1.47-2.08-.8,0-1.34.42-2.13,1.2v5.63H43.44Z" transform="translate(-1.04 -2.12)"/><path class="cls-2" d="M55.06,54c2,0,3.11,1.42,3.11,3.65a4.63,4.63,0,0,1,0,.72H52.86a2.59,2.59,0,0,0,2.59,2.74,3.52,3.52,0,0,0,1.94-.61l.46.86a4.63,4.63,0,0,1-2.56.8,3.72,3.72,0,0,1-3.73-4.07C51.57,55.52,53.28,54,55.06,54Zm2,3.5c0-1.58-.7-2.46-1.92-2.46a2.43,2.43,0,0,0-2.24,2.46Z" transform="translate(-1.04 -2.12)"/><path class="cls-2" d="M59.84,51.71a.92.92,0,0,1,1.83,0,.92.92,0,0,1-1.83,0Zm.24,2.45h1.31v7.78H60.08Z" transform="translate(-1.04 -2.12)"/><path class="cls-2" d="M64.56,61.67V61.6a1.44,1.44,0,0,1-.69-1.27,1.82,1.82,0,0,1,.85-1.44v-.06A2.75,2.75,0,0,1,66.64,54a3.1,3.1,0,0,1,1.1.19h2.71v1h-1.6a2.26,2.26,0,0,1,.64,1.6,2.67,2.67,0,0,1-2.85,2.71,2.71,2.71,0,0,1-1.17-.27,1.18,1.18,0,0,0-.5.93c0,.5.32.85,1.38.85h1.5c1.81,0,2.72.56,2.72,1.86s-1.52,2.69-3.94,2.69c-1.9,0-3.22-.75-3.22-2.1A2.24,2.24,0,0,1,64.56,61.67Zm2.27,2.94c1.49,0,2.46-.77,2.46-1.58s-.56-1-1.57-1H66.38a3.8,3.8,0,0,1-1-.13,1.64,1.64,0,0,0-.8,1.31C64.58,64.08,65.42,64.61,66.83,64.61Zm1.46-7.87a1.66,1.66,0,1,0-3.3,0,1.66,1.66,0,1,0,3.3,0Z" transform="translate(-1.04 -2.12)"/><path class="cls-2" d="M72.08,50.54h1.31v3.1l0,1.6A3.72,3.72,0,0,1,75.94,54c1.63,0,2.37,1.06,2.37,3v4.93H77V57.19c0-1.46-.45-2.08-1.47-2.08-.8,0-1.34.42-2.13,1.2v5.63H72.08Z" transform="translate(-1.04 -2.12)"/><path class="cls-2" d="M81,55.23H79.85v-1l1.22-.08L81.23,52h1.1v2.18h2.1v1.07h-2.1v4.32c0,1,.3,1.5,1.2,1.5a2.81,2.81,0,0,0,.88-.21l.26,1a4.82,4.82,0,0,1-1.44.29c-1.67,0-2.22-1.06-2.22-2.59Z" transform="translate(-1.04 -2.12)"/><path class="cls-2" d="M85.12,57.43H88.8v1H85.12Z" transform="translate(-1.04 -2.12)"/><path class="cls-2" d="M90.75,50.54h1.31v9.92c0,.42.18.58.37.58a1.09,1.09,0,0,0,.29,0l.18,1a1.76,1.76,0,0,1-.75.13c-1,0-1.39-.62-1.39-1.76Z" transform="translate(-1.04 -2.12)"/><path class="cls-2" d="M99.23,57c0-1-.34-2-1.6-2a4.18,4.18,0,0,0-2.32.83L94.78,55a5.77,5.77,0,0,1,3.06-1c1.91,0,2.71,1.26,2.71,3.2v4.77H99.46L99.34,61h0a4.22,4.22,0,0,1-2.58,1.12,2.12,2.12,0,0,1-2.29-2.21C94.45,58.23,95.92,57.38,99.23,57ZM97.1,61.08a3.18,3.18,0,0,0,2.13-1V57.87c-2.61.32-3.49,1-3.49,2A1.19,1.19,0,0,0,97.1,61.08Z" transform="translate(-1.04 -2.12)"/><path class="cls-2" d="M103,54.16h1.09l.11,1.41h0a2.66,2.66,0,0,1,2.21-1.6,1.93,1.93,0,0,1,.83.16l-.26,1.15a2.17,2.17,0,0,0-.75-.13c-.66,0-1.44.48-2,1.79v5H103Z" transform="translate(-1.04 -2.12)"/><path class="cls-2" d="M109,61.67V61.6a1.44,1.44,0,0,1-.69-1.27,1.82,1.82,0,0,1,.85-1.44v-.06A2.75,2.75,0,0,1,111,54a3.1,3.1,0,0,1,1.1.19h2.71v1h-1.6a2.26,2.26,0,0,1,.64,1.6A2.67,2.67,0,0,1,111,59.48a2.71,2.71,0,0,1-1.17-.27,1.18,1.18,0,0,0-.5.93c0,.5.32.85,1.38.85h1.5c1.81,0,2.72.56,2.72,1.86s-1.52,2.69-3.94,2.69c-1.9,0-3.22-.75-3.22-2.1A2.24,2.24,0,0,1,109,61.67Zm2.27,2.94c1.49,0,2.46-.77,2.46-1.58s-.56-1-1.57-1h-1.34a3.8,3.8,0,0,1-1-.13,1.64,1.64,0,0,0-.8,1.31C109,64.08,109.82,64.61,111.23,64.61Zm1.46-7.87a1.66,1.66,0,1,0-3.3,0,1.66,1.66,0,1,0,3.3,0Z" transform="translate(-1.04 -2.12)"/><path class="cls-2" d="M119.17,54c2,0,3.11,1.42,3.11,3.65a4.63,4.63,0,0,1,0,.72H117a2.59,2.59,0,0,0,2.59,2.74,3.52,3.52,0,0,0,1.94-.61l.46.86a4.63,4.63,0,0,1-2.56.8,3.72,3.72,0,0,1-3.73-4.07C115.68,55.52,117.39,54,119.17,54Zm2,3.5c0-1.58-.7-2.46-1.92-2.46A2.43,2.43,0,0,0,117,57.47Z" transform="translate(-1.04 -2.12)"/><path class="cls-2" d="M2,165.12a1,1,0,0,1,0,2,1,1,0,0,1,0-2Z" transform="translate(-1.04 -2.12)"/><path class="cls-2" d="M5.3,155.54H6.61v9.92c0,.42.18.58.37.58a1.09,1.09,0,0,0,.29,0l.18,1a1.76,1.76,0,0,1-.75.13c-1,0-1.39-.62-1.39-1.76Z" transform="translate(-1.04 -2.12)"/><path class="cls-2" d="M13.78,162c0-1-.34-2-1.6-2a4.18,4.18,0,0,0-2.32.83L9.33,160a5.77,5.77,0,0,1,3.06-1c1.91,0,2.71,1.26,2.71,3.2v4.77H14l-.11-.93h0a4.22,4.22,0,0,1-2.58,1.12A2.12,2.12,0,0,1,9,164.92C9,163.23,10.46,162.38,13.78,162Zm-2.13,4.07a3.18,3.18,0,0,0,2.13-1v-2.16c-2.61.32-3.49,1-3.49,2A1.19,1.19,0,0,0,11.65,166.08Z" transform="translate(-1.04 -2.12)"/><path class="cls-2" d="M17.57,155.54h1.31v3.1l0,1.41A3.84,3.84,0,0,1,21.28,159c2,0,3.09,1.55,3.09,4,0,2.66-1.58,4.21-3.36,4.21a3.52,3.52,0,0,1-2.22-1h0l-.11.77H17.57ZM20.79,166c1.28,0,2.22-1.17,2.22-3.09,0-1.71-.58-2.87-2-2.87a3.21,3.21,0,0,0-2.08,1.06v4.08A3,3,0,0,0,20.79,166Z" transform="translate(-1.04 -2.12)"/><path class="cls-2" d="M29.36,159c2,0,3.11,1.42,3.11,3.65a4.63,4.63,0,0,1,0,.72H27.17a2.59,2.59,0,0,0,2.59,2.74,3.52,3.52,0,0,0,1.94-.61l.46.86a4.63,4.63,0,0,1-2.56.8,3.72,3.72,0,0,1-3.73-4.07C25.87,160.52,27.58,159,29.36,159Zm2,3.5c0-1.58-.7-2.46-1.92-2.46a2.43,2.43,0,0,0-2.24,2.46Z" transform="translate(-1.04 -2.12)"/><path class="cls-2" d="M34.38,155.54H35.7v9.92c0,.42.18.58.37.58a1.09,1.09,0,0,0,.29,0l.18,1a1.76,1.76,0,0,1-.75.13c-1,0-1.39-.62-1.39-1.76Z" transform="translate(-1.04 -2.12)"/><path class="cls-2" d="M37.81,162.43h3.68v1H37.81Z" transform="translate(-1.04 -2.12)"/><path class="cls-2" d="M43.44,155.54h1.31v3.1l0,1.6A3.72,3.72,0,0,1,47.3,159c1.63,0,2.37,1.06,2.37,3v4.93H48.35v-4.75c0-1.46-.45-2.08-1.47-2.08-.8,0-1.34.42-2.13,1.2v5.63H43.44Z" transform="translate(-1.04 -2.12)"/><path class="cls-2" d="M55.06,159c2,0,3.11,1.42,3.11,3.65a4.63,4.63,0,0,1,0,.72H52.86a2.59,2.59,0,0,0,2.59,2.74,3.52,3.52,0,0,0,1.94-.61l.46.86a4.63,4.63,0,0,1-2.56.8,3.72,3.72,0,0,1-3.73-4.07C51.57,160.52,53.28,159,55.06,159Zm2,3.5c0-1.58-.7-2.46-1.92-2.46a2.43,2.43,0,0,0-2.24,2.46Z" transform="translate(-1.04 -2.12)"/><path class="cls-2" d="M59.84,156.71a.92.92,0,0,1,1.83,0,.92.92,0,0,1-1.83,0Zm.24,2.45h1.31v7.78H60.08Z" transform="translate(-1.04 -2.12)"/><path class="cls-2" d="M64.56,166.67v-.06a1.44,1.44,0,0,1-.69-1.27,1.82,1.82,0,0,1,.85-1.44v-.06A2.75,2.75,0,0,1,66.64,159a3.1,3.1,0,0,1,1.1.19h2.71v1h-1.6a2.26,2.26,0,0,1,.64,1.6,2.67,2.67,0,0,1-2.85,2.71,2.71,2.71,0,0,1-1.17-.27,1.18,1.18,0,0,0-.5.93c0,.5.32.85,1.38.85h1.5c1.81,0,2.72.56,2.72,1.86s-1.52,2.69-3.94,2.69c-1.9,0-3.22-.75-3.22-2.1A2.24,2.24,0,0,1,64.56,166.67Zm2.27,2.94c1.49,0,2.46-.77,2.46-1.58s-.56-1-1.57-1H66.38a3.8,3.8,0,0,1-1-.13,1.64,1.64,0,0,0-.8,1.31C64.58,169.08,65.42,169.61,66.83,169.61Zm1.46-7.87a1.66,1.66,0,1,0-3.3,0,1.66,1.66,0,1,0,3.3,0Z" transform="translate(-1.04 -2.12)"/><path class="cls-2" d="M72.08,155.54h1.31v3.1l0,1.6A3.72,3.72,0,0,1,75.94,159c1.63,0,2.37,1.06,2.37,3v4.93H77v-4.75c0-1.46-.45-2.08-1.47-2.08-.8,0-1.34.42-2.13,1.2v5.63H72.08Z" transform="translate(-1.04 -2.12)"/><path class="cls-2" d="M81,160.23H79.85v-1l1.22-.08.16-2.18h1.1v2.18h2.1v1.07h-2.1v4.32c0,1,.3,1.5,1.2,1.5a2.81,2.81,0,0,0,.88-.21l.26,1a4.82,4.82,0,0,1-1.44.29c-1.67,0-2.22-1.06-2.22-2.59Z" transform="translate(-1.04 -2.12)"/><path class="cls-2" d="M85.12,162.43H88.8v1H85.12Z" transform="translate(-1.04 -2.12)"/><path class="cls-2" d="M90.75,155.54h1.31v9.92c0,.42.18.58.37.58a1.09,1.09,0,0,0,.29,0l.18,1a1.76,1.76,0,0,1-.75.13c-1,0-1.39-.62-1.39-1.76Z" transform="translate(-1.04 -2.12)"/><path class="cls-2" d="M99.23,162c0-1-.34-2-1.6-2a4.18,4.18,0,0,0-2.32.83l-.53-.91a5.77,5.77,0,0,1,3.06-1c1.91,0,2.71,1.26,2.71,3.2v4.77H99.46l-.11-.93h0a4.22,4.22,0,0,1-2.58,1.12,2.12,2.12,0,0,1-2.29-2.21C94.45,163.23,95.92,162.38,99.23,162Zm-2.13,4.07a3.18,3.18,0,0,0,2.13-1v-2.16c-2.61.32-3.49,1-3.49,2A1.19,1.19,0,0,0,97.1,166.08Z" transform="translate(-1.04 -2.12)"/><path class="cls-2" d="M103,159.16h1.09l.11,1.41h0a2.66,2.66,0,0,1,2.21-1.6,1.93,1.93,0,0,1,.83.16l-.26,1.15a2.17,2.17,0,0,0-.75-.13c-.66,0-1.44.48-2,1.79v5H103Z" transform="translate(-1.04 -2.12)"/><path class="cls-2" d="M109,166.67v-.06a1.44,1.44,0,0,1-.69-1.27,1.82,1.82,0,0,1,.85-1.44v-.06A2.75,2.75,0,0,1,111,159a3.1,3.1,0,0,1,1.1.19h2.71v1h-1.6a2.26,2.26,0,0,1,.64,1.6,2.67,2.67,0,0,1-2.85,2.71,2.71,2.71,0,0,1-1.17-.27,1.18,1.18,0,0,0-.5.93c0,.5.32.85,1.38.85h1.5c1.81,0,2.72.56,2.72,1.86s-1.52,2.69-3.94,2.69c-1.9,0-3.22-.75-3.22-2.1A2.24,2.24,0,0,1,109,166.67Zm2.27,2.94c1.49,0,2.46-.77,2.46-1.58s-.56-1-1.57-1h-1.34a3.8,3.8,0,0,1-1-.13,1.64,1.64,0,0,0-.8,1.31C109,169.08,109.82,169.61,111.23,169.61Zm1.46-7.87a1.66,1.66,0,1,0-3.3,0,1.66,1.66,0,1,0,3.3,0Z" transform="translate(-1.04 -2.12)"/><path class="cls-2" d="M119.17,159c2,0,3.11,1.42,3.11,3.65a4.63,4.63,0,0,1,0,.72H117a2.59,2.59,0,0,0,2.59,2.74,3.52,3.52,0,0,0,1.94-.61l.46.86a4.63,4.63,0,0,1-2.56.8,3.72,3.72,0,0,1-3.73-4.07C115.68,160.52,117.39,159,119.17,159Zm2,3.5c0-1.58-.7-2.46-1.92-2.46a2.43,2.43,0,0,0-2.24,2.46Z" transform="translate(-1.04 -2.12)"/><path class="cls-2" d="M123.63,162.43h3.68v1h-3.68Z" transform="translate(-1.04 -2.12)"/><path class="cls-2" d="M130.57,167.6v2.63h-1.31V159.16h1.09l.11.9h0A4,4,0,0,1,133,159c2,0,3.07,1.55,3.07,4,0,2.64-1.58,4.19-3.36,4.19a3.61,3.61,0,0,1-2.16-.9Zm1.91-1.57c1.28,0,2.22-1.17,2.22-3.09,0-1.71-.58-2.87-2-2.87a3.28,3.28,0,0,0-2.08,1.06v4.08A3.08,3.08,0,0,0,132.48,166Z" transform="translate(-1.04 -2.12)"/><path class="cls-2" d="M142.32,162c0-1-.34-2-1.6-2a4.18,4.18,0,0,0-2.32.83l-.53-.91a5.77,5.77,0,0,1,3.06-1c1.91,0,2.71,1.26,2.71,3.2v4.77h-1.09l-.11-.93h0a4.22,4.22,0,0,1-2.58,1.12,2.12,2.12,0,0,1-2.29-2.21C137.53,163.23,139,162.38,142.32,162Zm-2.13,4.07a3.18,3.18,0,0,0,2.13-1v-2.16c-2.61.32-3.49,1-3.49,2A1.19,1.19,0,0,0,140.19,166.08Z" transform="translate(-1.04 -2.12)"/><path class="cls-2" d="M148.93,159a3.2,3.2,0,0,1,2.18.9l-.06-1.33v-3h1.33v11.4h-1.09l-.11-.91h0a3.51,3.51,0,0,1-2.35,1.1c-2,0-3.22-1.47-3.22-4.07S147.15,159,148.93,159Zm.13,7.06a2.63,2.63,0,0,0,2-1.07v-4.07a2.71,2.71,0,0,0-1.89-.82c-1.25,0-2.24,1.2-2.24,3S147.69,166,149.05,166Z" transform="translate(-1.04 -2.12)"/><path class="cls-2" d="M157.81,159a3.2,3.2,0,0,1,2.18.9l-.06-1.33v-3h1.33v11.4h-1.09L160,166h0a3.51,3.51,0,0,1-2.35,1.1c-2,0-3.22-1.47-3.22-4.07S156,159,157.81,159Zm.13,7.06a2.63,2.63,0,0,0,2-1.07v-4.07a2.71,2.71,0,0,0-1.89-.82c-1.25,0-2.24,1.2-2.24,3S156.58,166,157.94,166Z" transform="translate(-1.04 -2.12)"/><path class="cls-2" d="M163.63,156.71a.92.92,0,0,1,1.83,0,.92.92,0,0,1-1.83,0Zm.24,2.45h1.31v7.78h-1.31Z" transform="translate(-1.04 -2.12)"/><path class="cls-2" d="M167.81,159.16h1.09l.11,1.12h0a3.66,3.66,0,0,1,2.61-1.31c1.63,0,2.37,1.06,2.37,3v4.93h-1.31v-4.75c0-1.46-.45-2.08-1.47-2.08-.8,0-1.34.42-2.13,1.2v5.63h-1.31Z" transform="translate(-1.04 -2.12)"/><path class="cls-2" d="M177.1,166.67v-.06a1.44,1.44,0,0,1-.69-1.27,1.82,1.82,0,0,1,.85-1.44v-.06a2.75,2.75,0,0,1,1.92-4.87,3.1,3.1,0,0,1,1.1.19H183v1h-1.6a2.26,2.26,0,0,1,.64,1.6,2.67,2.67,0,0,1-2.85,2.71,2.71,2.71,0,0,1-1.17-.27,1.18,1.18,0,0,0-.5.93c0,.5.32.85,1.38.85h1.5c1.81,0,2.72.56,2.72,1.86s-1.52,2.69-3.94,2.69c-1.9,0-3.22-.75-3.22-2.1A2.24,2.24,0,0,1,177.1,166.67Zm2.27,2.94c1.49,0,2.46-.77,2.46-1.58s-.56-1-1.57-1h-1.34a3.8,3.8,0,0,1-1-.13,1.64,1.64,0,0,0-.8,1.31C177.12,169.08,178,169.61,179.38,169.61Zm1.46-7.87a1.66,1.66,0,1,0-3.3,0,1.66,1.66,0,1,0,3.3,0Z" transform="translate(-1.04 -2.12)"/><path class="cls-2" d="M184,162.43h3.68v1H184Z" transform="translate(-1.04 -2.12)"/><path class="cls-2" d="M189.6,155.54h1.31v3.1l0,1.6a3.72,3.72,0,0,1,2.59-1.28c1.63,0,2.37,1.06,2.37,3v4.93h-1.31v-4.75c0-1.46-.45-2.08-1.47-2.08-.8,0-1.34.42-2.13,1.2v5.63H189.6Z" transform="translate(-1.04 -2.12)"/><path class="cls-2" d="M201.33,159c1.9,0,3.6,1.49,3.6,4.1s-1.7,4.07-3.6,4.07-3.6-1.49-3.6-4.07S199.42,159,201.33,159Zm0,7.08c1.34,0,2.24-1.2,2.24-3s-.9-3-2.24-3-2.24,1.22-2.24,3S200,166,201.33,166Z" transform="translate(-1.04 -2.12)"/><path class="cls-2" d="M207,159.16h1.09l.11,1.41h0a2.66,2.66,0,0,1,2.21-1.6,1.93,1.93,0,0,1,.83.16l-.26,1.15a2.17,2.17,0,0,0-.75-.13c-.66,0-1.44.48-2,1.79v5H207Z" transform="translate(-1.04 -2.12)"/><path class="cls-2" d="M212.28,156.71a.92.92,0,0,1,1.83,0,.92.92,0,0,1-1.83,0Zm.24,2.45h1.31v7.78h-1.31Z" transform="translate(-1.04 -2.12)"/><path class="cls-2" d="M215.64,166.24l4.1-6h-3.65v-1.07h5.31v.7l-4.1,6h4.23v1.07h-5.89Z" transform="translate(-1.04 -2.12)"/><path class="cls-2" d="M226.13,159c1.9,0,3.6,1.49,3.6,4.1s-1.7,4.07-3.6,4.07-3.6-1.49-3.6-4.07S224.22,159,226.13,159Zm0,7.08c1.34,0,2.24-1.2,2.24-3s-.9-3-2.24-3-2.24,1.22-2.24,3S224.8,166,226.13,166Z" transform="translate(-1.04 -2.12)"/><path class="cls-2" d="M231.77,159.16h1.09l.11,1.12h0a3.66,3.66,0,0,1,2.61-1.31c1.63,0,2.37,1.06,2.37,3v4.93h-1.31v-4.75c0-1.46-.45-2.08-1.47-2.08-.8,0-1.34.42-2.13,1.2v5.63h-1.31Z" transform="translate(-1.04 -2.12)"/><path class="cls-2" d="M240.75,160.23H239.6v-1l1.22-.08L241,157h1.1v2.18h2.1v1.07h-2.1v4.32c0,1,.3,1.5,1.2,1.5a2.81,2.81,0,0,0,.88-.21l.26,1a4.82,4.82,0,0,1-1.44.29c-1.67,0-2.23-1.06-2.23-2.59Z" transform="translate(-1.04 -2.12)"/><path class="cls-2" d="M250,162c0-1-.34-2-1.6-2a4.18,4.18,0,0,0-2.32.83l-.53-.91a5.77,5.77,0,0,1,3.06-1c1.91,0,2.71,1.26,2.71,3.2v4.77h-1.09l-.11-.93h0a4.22,4.22,0,0,1-2.58,1.12,2.12,2.12,0,0,1-2.29-2.21C245.26,163.23,246.73,162.38,250,162Zm-2.13,4.07a3.18,3.18,0,0,0,2.13-1v-2.16c-2.61.32-3.49,1-3.49,2A1.19,1.19,0,0,0,247.92,166.08Z" transform="translate(-1.04 -2.12)"/><path class="cls-2" d="M253.84,155.54h1.31v9.92c0,.42.18.58.37.58a1.09,1.09,0,0,0,.29,0l.18,1a1.76,1.76,0,0,1-.75.13c-1,0-1.39-.62-1.39-1.76Z" transform="translate(-1.04 -2.12)"/><path class="cls-2" d="M290.94,36.52h2.34V29h-1.86v-.85a6.08,6.08,0,0,0,2.16-.75h1v9.12h2.11v1.09h-5.76Z" transform="translate(-1.04 -2.12)"/><path class="cls-2" d="M304,29.11a2.22,2.22,0,0,0-1.68-.8c-1.42,0-2.62,1.1-2.69,4.34A3.26,3.26,0,0,1,302,31.36c1.76,0,2.91,1.06,2.91,3.15a3.09,3.09,0,0,1-3,3.28c-2,0-3.52-1.63-3.52-4.91,0-4.1,1.86-5.68,3.89-5.68a3.22,3.22,0,0,1,2.47,1.09Zm-.32,5.41c0-1.33-.62-2.16-1.89-2.16a2.77,2.77,0,0,0-2.13,1.34c.16,2,.94,3.06,2.24,3.06C302.93,36.76,303.7,35.86,303.7,34.52Z" transform="translate(-1.04 -2.12)"/><path class="cls-2" d="M308.21,38.26v2.63h-1.31V29.83H308l.11.9h0a4,4,0,0,1,2.48-1.09c2,0,3.07,1.55,3.07,4,0,2.64-1.58,4.19-3.36,4.19a3.61,3.61,0,0,1-2.16-.9Zm1.9-1.57c1.28,0,2.23-1.17,2.23-3.09,0-1.71-.58-2.87-2-2.87a3.28,3.28,0,0,0-2.08,1.06v4.08A3.08,3.08,0,0,0,310.11,36.69Z" transform="translate(-1.04 -2.12)"/><path class="cls-2" d="M317,33.54l-2.35-3.71H316l1,1.71c.24.42.5.86.77,1.3h.06c.22-.43.46-.88.7-1.3l.94-1.71h1.38l-2.35,3.86,2.53,3.92h-1.42l-1.14-1.81c-.27-.46-.56-.94-.85-1.39h-.06c-.27.45-.53.91-.78,1.39l-1.06,1.81h-1.38Z" transform="translate(-1.04 -2.12)"/><path class="cls-2" d="M290.32,60.82c3.07-3.06,4.8-4.9,4.8-6.55a1.81,1.81,0,0,0-1.94-2A3,3,0,0,0,291,53.51l-.75-.75a4,4,0,0,1,3.09-1.55,2.84,2.84,0,0,1,3.06,3c0,1.92-1.74,3.83-4.16,6.35.56,0,1.18-.1,1.71-.1h3v1.14h-6.59Z" transform="translate(-1.04 -2.12)"/><path class="cls-2" d="M305.14,58.79h-1.39v2.82H302.5V58.79H297.9v-.86l4.37-6.53h1.47v6.34h1.39Zm-2.64-1.06v-3c0-.54,0-1.42.08-2h-.06c-.26.5-.54.94-.83,1.44l-2.39,3.49Z" transform="translate(-1.04 -2.12)"/><path class="cls-2" d="M308.21,62.26v2.63h-1.31V53.83H308l.11.9h0a4,4,0,0,1,2.48-1.09c2,0,3.07,1.55,3.07,4,0,2.64-1.58,4.19-3.36,4.19a3.61,3.61,0,0,1-2.16-.9Zm1.9-1.57c1.28,0,2.23-1.17,2.23-3.09,0-1.71-.58-2.87-2-2.87a3.28,3.28,0,0,0-2.08,1.06v4.08A3.08,3.08,0,0,0,310.11,60.69Z" transform="translate(-1.04 -2.12)"/><path class="cls-2" d="M317,57.54l-2.35-3.71H316l1,1.71c.24.42.5.86.77,1.3h.06c.22-.43.46-.88.7-1.3l.94-1.71h1.38l-2.35,3.86,2.53,3.92h-1.42l-1.14-1.81c-.27-.46-.56-.94-.85-1.39h-.06c-.27.45-.53.91-.78,1.39l-1.06,1.81h-1.38Z" transform="translate(-1.04 -2.12)"/><rect class="cls-4" x="475.64" y="18.49" width="78" height="16" rx="1" ry="1"/><path class="cls-5" d="M481.56,31.61V23h1.14v7.58h4.23v1Z" transform="translate(-1.04 -2.12)"/><path class="cls-5" d="M487.75,28.5a3.21,3.21,0,0,1,1-2.56,2.9,2.9,0,0,1,2-.69,2.79,2.79,0,0,1,2.1.84,3.2,3.2,0,0,1,.81,2.32,4.12,4.12,0,0,1-.36,1.89,2.55,2.55,0,0,1-1,1.07,3.05,3.05,0,0,1-1.5.38,2.8,2.8,0,0,1-2.11-.84A3.35,3.35,0,0,1,487.75,28.5Zm1.08,0a2.65,2.65,0,0,0,.52,1.79,1.74,1.74,0,0,0,2.62,0,2.71,2.71,0,0,0,.52-1.82,2.57,2.57,0,0,0-.52-1.75,1.74,1.74,0,0,0-2.62,0A2.64,2.64,0,0,0,488.83,28.5Z" transform="translate(-1.04 -2.12)"/><path class="cls-5" d="M494.8,31.61V25.38h.95v.94a2.57,2.57,0,0,1,.67-.87,1.17,1.17,0,0,1,.68-.21,2.06,2.06,0,0,1,1.08.34l-.36,1a1.51,1.51,0,0,0-.77-.23,1,1,0,0,0-.62.21,1.13,1.13,0,0,0-.39.58,4.11,4.11,0,0,0-.18,1.23v3.26Z" transform="translate(-1.04 -2.12)"/><path class="cls-5" d="M503.07,29.6l1.09.13a2.66,2.66,0,0,1-1,1.48,3.24,3.24,0,0,1-3.95-.31,3.29,3.29,0,0,1-.8-2.36,3.44,3.44,0,0,1,.81-2.44,2.74,2.74,0,0,1,2.1-.87,2.66,2.66,0,0,1,2,.85,3.38,3.38,0,0,1,.79,2.39q0,.09,0,.28h-4.64a2.39,2.39,0,0,0,.58,1.57,1.73,1.73,0,0,0,1.3.54,1.61,1.61,0,0,0,1-.3A2,2,0,0,0,503.07,29.6Zm-3.46-1.71h3.47a2.11,2.11,0,0,0-.4-1.18,1.62,1.62,0,0,0-1.31-.61,1.68,1.68,0,0,0-1.22.49A1.92,1.92,0,0,0,499.61,27.9Z" transform="translate(-1.04 -2.12)"/><path class="cls-5" d="M505.49,31.61V25.38h.94v.87a2.22,2.22,0,0,1,.78-.74,2.19,2.19,0,0,1,1.11-.28,2,2,0,0,1,1.13.29,1.54,1.54,0,0,1,.62.8A2.23,2.23,0,0,1,512,25.24a1.89,1.89,0,0,1,1.42.51,2.19,2.19,0,0,1,.5,1.58v4.27h-1V27.69a2.89,2.89,0,0,0-.1-.91.88.88,0,0,0-.37-.45,1.16,1.16,0,0,0-.63-.17,1.47,1.47,0,0,0-1.09.44,1.92,1.92,0,0,0-.43,1.4v3.62h-1.05v-4a1.78,1.78,0,0,0-.26-1.05,1,1,0,0,0-.84-.35,1.53,1.53,0,0,0-.82.23,1.33,1.33,0,0,0-.55.69,3.86,3.86,0,0,0-.17,1.3v3.23Z" transform="translate(-1.04 -2.12)"/><path class="cls-5" d="M518.82,24.23V23h1.05v1.21Zm0,7.38V25.38h1.05v6.22Z" transform="translate(-1.04 -2.12)"/><path class="cls-5" d="M521.48,34V25.38h1v.81a2.37,2.37,0,0,1,.77-.71,2.11,2.11,0,0,1,1-.24,2.46,2.46,0,0,1,1.41.41,2.52,2.52,0,0,1,.92,1.16,4.23,4.23,0,0,1,.31,1.64,4.16,4.16,0,0,1-.34,1.72,2.58,2.58,0,0,1-1,1.17,2.56,2.56,0,0,1-1.37.41,2,2,0,0,1-.95-.22,2.15,2.15,0,0,1-.69-.56v3Zm1-5.46a2.71,2.71,0,0,0,.49,1.78,1.49,1.49,0,0,0,1.18.57,1.52,1.52,0,0,0,1.2-.59,2.82,2.82,0,0,0,.5-1.84,2.75,2.75,0,0,0-.49-1.78,1.47,1.47,0,0,0-1.17-.59,1.52,1.52,0,0,0-1.19.63A2.82,2.82,0,0,0,522.44,28.53Z" transform="translate(-1.04 -2.12)"/><path class="cls-5" d="M527.73,29.75l1-.16a1.46,1.46,0,0,0,.49,1,1.71,1.71,0,0,0,1.12.33,1.65,1.65,0,0,0,1.08-.3.88.88,0,0,0,.35-.69.64.64,0,0,0-.31-.56,4.57,4.57,0,0,0-1.08-.36,9.84,9.84,0,0,1-1.61-.51,1.54,1.54,0,0,1-.91-1.43,1.6,1.6,0,0,1,.19-.77,1.71,1.71,0,0,1,.52-.59,2.17,2.17,0,0,1,.67-.31,3.19,3.19,0,0,1,.91-.13,3.6,3.6,0,0,1,1.29.21,1.75,1.75,0,0,1,.82.57,2.23,2.23,0,0,1,.36,1l-1,.14a1.13,1.13,0,0,0-.41-.75,1.49,1.49,0,0,0-1-.27,1.72,1.72,0,0,0-1,.24.7.7,0,0,0-.31.56.58.58,0,0,0,.13.37.93.93,0,0,0,.4.28l.93.27a13,13,0,0,1,1.56.49,1.58,1.58,0,0,1,.69.55,1.55,1.55,0,0,1,.25.9,1.77,1.77,0,0,1-.31,1,2,2,0,0,1-.89.72,3.23,3.23,0,0,1-1.31.25,2.92,2.92,0,0,1-1.85-.5A2.34,2.34,0,0,1,527.73,29.75Z" transform="translate(-1.04 -2.12)"/><path class="cls-5" d="M538.23,31.61v-.91a2.28,2.28,0,0,1-2,1.05,2.52,2.52,0,0,1-1-.21,1.69,1.69,0,0,1-.71-.53,2,2,0,0,1-.33-.78,5.36,5.36,0,0,1-.06-1V25.38h1.05v3.45a6.15,6.15,0,0,0,.06,1.11,1.1,1.1,0,0,0,.42.65,1.31,1.31,0,0,0,.8.24,1.74,1.74,0,0,0,.89-.24,1.35,1.35,0,0,0,.59-.66,3.32,3.32,0,0,0,.17-1.22V25.38h1.05v6.22Z" transform="translate(-1.04 -2.12)"/><path class="cls-5" d="M540.83,31.61V25.38h.94v.87a2.22,2.22,0,0,1,.78-.74,2.19,2.19,0,0,1,1.11-.28,2,2,0,0,1,1.13.29,1.54,1.54,0,0,1,.62.8,2.23,2.23,0,0,1,1.92-1.09,1.89,1.89,0,0,1,1.42.51,2.19,2.19,0,0,1,.5,1.58v4.27h-1V27.69a2.89,2.89,0,0,0-.1-.91.88.88,0,0,0-.37-.45,1.16,1.16,0,0,0-.63-.17,1.47,1.47,0,0,0-1.09.44,1.92,1.92,0,0,0-.43,1.4v3.62h-1.05v-4a1.78,1.78,0,0,0-.26-1.05,1,1,0,0,0-.84-.35,1.53,1.53,0,0,0-.82.23,1.33,1.33,0,0,0-.55.69,3.86,3.86,0,0,0-.17,1.3v3.23Z" transform="translate(-1.04 -2.12)"/><rect class="cls-6" x="475.64" y="39.49" width="86" height="24" rx="1" ry="1"/><path class="cls-5" d="M485.56,57.61V49h1.14v7.58h4.23v1Z" transform="translate(-1.04 -2.12)"/><path class="cls-5" d="M491.75,54.5a3.21,3.21,0,0,1,1-2.56,2.9,2.9,0,0,1,2-.69,2.79,2.79,0,0,1,2.1.84,3.2,3.2,0,0,1,.81,2.32,4.12,4.12,0,0,1-.36,1.89,2.55,2.55,0,0,1-1,1.07,3.05,3.05,0,0,1-1.5.38,2.8,2.8,0,0,1-2.11-.84A3.35,3.35,0,0,1,491.75,54.5Zm1.08,0a2.65,2.65,0,0,0,.52,1.79,1.74,1.74,0,0,0,2.62,0,2.71,2.71,0,0,0,.52-1.82,2.57,2.57,0,0,0-.52-1.75,1.74,1.74,0,0,0-2.62,0A2.64,2.64,0,0,0,492.83,54.5Z" transform="translate(-1.04 -2.12)"/><path class="cls-5" d="M498.8,57.61V51.38h.95v.94a2.57,2.57,0,0,1,.67-.87,1.17,1.17,0,0,1,.68-.21,2.06,2.06,0,0,1,1.08.34l-.36,1a1.51,1.51,0,0,0-.77-.23,1,1,0,0,0-.62.21,1.13,1.13,0,0,0-.39.58,4.11,4.11,0,0,0-.18,1.23v3.26Z" transform="translate(-1.04 -2.12)"/><path class="cls-5" d="M507.07,55.6l1.09.13a2.66,2.66,0,0,1-1,1.48,3.24,3.24,0,0,1-3.95-.31,3.29,3.29,0,0,1-.8-2.36,3.44,3.44,0,0,1,.81-2.44,2.74,2.74,0,0,1,2.1-.87,2.66,2.66,0,0,1,2,.85,3.38,3.38,0,0,1,.79,2.39q0,.09,0,.28h-4.64a2.39,2.39,0,0,0,.58,1.57,1.73,1.73,0,0,0,1.3.54,1.61,1.61,0,0,0,1-.3A2,2,0,0,0,507.07,55.6Zm-3.46-1.71h3.47a2.11,2.11,0,0,0-.4-1.18,1.62,1.62,0,0,0-1.31-.61,1.68,1.68,0,0,0-1.22.49A1.92,1.92,0,0,0,503.61,53.9Z" transform="translate(-1.04 -2.12)"/><path class="cls-5" d="M509.49,57.61V51.38h.94v.87a2.22,2.22,0,0,1,.78-.74,2.19,2.19,0,0,1,1.11-.28,2,2,0,0,1,1.13.29,1.54,1.54,0,0,1,.62.8A2.23,2.23,0,0,1,516,51.24a1.89,1.89,0,0,1,1.42.51,2.19,2.19,0,0,1,.5,1.58v4.27h-1V53.69a2.89,2.89,0,0,0-.1-.91.88.88,0,0,0-.37-.45,1.16,1.16,0,0,0-.63-.17,1.47,1.47,0,0,0-1.09.44,1.92,1.92,0,0,0-.43,1.4v3.62h-1.05v-4a1.78,1.78,0,0,0-.26-1.05,1,1,0,0,0-.84-.35,1.53,1.53,0,0,0-.82.23,1.33,1.33,0,0,0-.55.69,3.86,3.86,0,0,0-.17,1.3v3.23Z" transform="translate(-1.04 -2.12)"/><path class="cls-5" d="M522.82,50.23V49h1.05v1.21Zm0,7.38V51.38h1.05v6.22Z" transform="translate(-1.04 -2.12)"/><path class="cls-5" d="M525.48,60V51.38h1v.81a2.37,2.37,0,0,1,.77-.71,2.11,2.11,0,0,1,1-.24,2.46,2.46,0,0,1,1.41.41,2.52,2.52,0,0,1,.92,1.16,4.23,4.23,0,0,1,.31,1.64,4.16,4.16,0,0,1-.34,1.72,2.58,2.58,0,0,1-1,1.17,2.56,2.56,0,0,1-1.37.41,2,2,0,0,1-.95-.22,2.15,2.15,0,0,1-.69-.56v3Zm1-5.46a2.71,2.71,0,0,0,.49,1.78,1.49,1.49,0,0,0,1.18.57,1.52,1.52,0,0,0,1.2-.59,2.82,2.82,0,0,0,.5-1.84,2.75,2.75,0,0,0-.49-1.78,1.47,1.47,0,0,0-1.17-.59,1.52,1.52,0,0,0-1.19.63A2.82,2.82,0,0,0,526.44,54.53Z" transform="translate(-1.04 -2.12)"/><path class="cls-5" d="M531.73,55.75l1-.16a1.46,1.46,0,0,0,.49,1,1.71,1.71,0,0,0,1.12.33,1.65,1.65,0,0,0,1.08-.3.88.88,0,0,0,.35-.69.64.64,0,0,0-.31-.56,4.57,4.57,0,0,0-1.08-.36,9.84,9.84,0,0,1-1.61-.51,1.54,1.54,0,0,1-.91-1.43,1.6,1.6,0,0,1,.19-.77,1.71,1.71,0,0,1,.52-.59,2.17,2.17,0,0,1,.67-.31,3.19,3.19,0,0,1,.91-.13,3.6,3.6,0,0,1,1.29.21,1.75,1.75,0,0,1,.82.57,2.23,2.23,0,0,1,.36,1l-1,.14a1.13,1.13,0,0,0-.41-.75,1.49,1.49,0,0,0-1-.27,1.72,1.72,0,0,0-1,.24.7.7,0,0,0-.31.56.58.58,0,0,0,.13.37.93.93,0,0,0,.4.28l.93.27a13,13,0,0,1,1.56.49,1.58,1.58,0,0,1,.69.55,1.55,1.55,0,0,1,.25.9,1.77,1.77,0,0,1-.31,1,2,2,0,0,1-.89.72,3.23,3.23,0,0,1-1.31.25,2.92,2.92,0,0,1-1.85-.5A2.34,2.34,0,0,1,531.73,55.75Z" transform="translate(-1.04 -2.12)"/><path class="cls-5" d="M542.23,57.61v-.91a2.28,2.28,0,0,1-2,1.05,2.52,2.52,0,0,1-1-.21,1.69,1.69,0,0,1-.71-.53,2,2,0,0,1-.33-.78,5.36,5.36,0,0,1-.06-1V51.38h1.05v3.45a6.15,6.15,0,0,0,.06,1.11,1.1,1.1,0,0,0,.42.65,1.31,1.31,0,0,0,.8.24,1.74,1.74,0,0,0,.89-.24,1.35,1.35,0,0,0,.59-.66,3.32,3.32,0,0,0,.17-1.22V51.38h1.05v6.22Z" transform="translate(-1.04 -2.12)"/><path class="cls-5" d="M544.83,57.61V51.38h.94v.87a2.22,2.22,0,0,1,.78-.74,2.19,2.19,0,0,1,1.11-.28,2,2,0,0,1,1.13.29,1.54,1.54,0,0,1,.62.8,2.23,2.23,0,0,1,1.92-1.09,1.89,1.89,0,0,1,1.42.51,2.19,2.19,0,0,1,.5,1.58v4.27h-1V53.69a2.89,2.89,0,0,0-.1-.91.88.88,0,0,0-.37-.45,1.16,1.16,0,0,0-.63-.17,1.47,1.47,0,0,0-1.09.44,1.92,1.92,0,0,0-.43,1.4v3.62h-1.05v-4a1.78,1.78,0,0,0-.26-1.05,1,1,0,0,0-.84-.35,1.53,1.53,0,0,0-.82.23,1.33,1.33,0,0,0-.55.69,3.86,3.86,0,0,0-.17,1.3v3.23Z" transform="translate(-1.04 -2.12)"/><rect class="cls-7" x="475.64" y="70.49" width="86" height="24" rx="1" ry="1"/><path class="cls-5" d="M485.56,88.61V80h1.14v7.58h4.23v1Z" transform="translate(-1.04 -2.12)"/><path class="cls-5" d="M491.75,85.5a3.21,3.21,0,0,1,1-2.56,2.9,2.9,0,0,1,2-.69,2.79,2.79,0,0,1,2.1.84,3.2,3.2,0,0,1,.81,2.32,4.12,4.12,0,0,1-.36,1.89,2.55,2.55,0,0,1-1,1.07,3.05,3.05,0,0,1-1.5.38,2.8,2.8,0,0,1-2.11-.84A3.35,3.35,0,0,1,491.75,85.5Zm1.08,0a2.65,2.65,0,0,0,.52,1.79,1.74,1.74,0,0,0,2.62,0,2.71,2.71,0,0,0,.52-1.82,2.57,2.57,0,0,0-.52-1.75,1.74,1.74,0,0,0-2.62,0A2.64,2.64,0,0,0,492.83,85.5Z" transform="translate(-1.04 -2.12)"/><path class="cls-5" d="M498.8,88.61V82.38h.95v.94a2.57,2.57,0,0,1,.67-.87,1.17,1.17,0,0,1,.68-.21,2.06,2.06,0,0,1,1.08.34l-.36,1a1.51,1.51,0,0,0-.77-.23,1,1,0,0,0-.62.21,1.13,1.13,0,0,0-.39.58,4.11,4.11,0,0,0-.18,1.23v3.26Z" transform="translate(-1.04 -2.12)"/><path class="cls-5" d="M507.07,86.6l1.09.13a2.66,2.66,0,0,1-1,1.48,3.24,3.24,0,0,1-3.95-.31,3.29,3.29,0,0,1-.8-2.36,3.44,3.44,0,0,1,.81-2.44,2.74,2.74,0,0,1,2.1-.87,2.66,2.66,0,0,1,2,.85,3.38,3.38,0,0,1,.79,2.39q0,.09,0,.28h-4.64a2.39,2.39,0,0,0,.58,1.57,1.73,1.73,0,0,0,1.3.54,1.61,1.61,0,0,0,1-.3A2,2,0,0,0,507.07,86.6Zm-3.46-1.71h3.47a2.11,2.11,0,0,0-.4-1.18,1.62,1.62,0,0,0-1.31-.61,1.68,1.68,0,0,0-1.22.49A1.92,1.92,0,0,0,503.61,84.9Z" transform="translate(-1.04 -2.12)"/><path class="cls-5" d="M509.49,88.61V82.38h.94v.87a2.22,2.22,0,0,1,.78-.74,2.19,2.19,0,0,1,1.11-.28,2,2,0,0,1,1.13.29,1.54,1.54,0,0,1,.62.8A2.23,2.23,0,0,1,516,82.24a1.89,1.89,0,0,1,1.42.51,2.19,2.19,0,0,1,.5,1.58v4.27h-1V84.69a2.89,2.89,0,0,0-.1-.91.88.88,0,0,0-.37-.45,1.16,1.16,0,0,0-.63-.17,1.47,1.47,0,0,0-1.09.44,1.92,1.92,0,0,0-.43,1.4v3.62h-1.05v-4a1.78,1.78,0,0,0-.26-1.05,1,1,0,0,0-.84-.35,1.53,1.53,0,0,0-.82.23,1.33,1.33,0,0,0-.55.69,3.86,3.86,0,0,0-.17,1.3v3.23Z" transform="translate(-1.04 -2.12)"/><path class="cls-5" d="M522.82,81.23V80h1.05v1.21Zm0,7.38V82.38h1.05v6.22Z" transform="translate(-1.04 -2.12)"/><path class="cls-5" d="M525.48,91V82.38h1v.81a2.37,2.37,0,0,1,.77-.71,2.11,2.11,0,0,1,1-.24,2.46,2.46,0,0,1,1.41.41,2.52,2.52,0,0,1,.92,1.16,4.23,4.23,0,0,1,.31,1.64,4.16,4.16,0,0,1-.34,1.72,2.58,2.58,0,0,1-1,1.17,2.56,2.56,0,0,1-1.37.41,2,2,0,0,1-.95-.22,2.15,2.15,0,0,1-.69-.56v3Zm1-5.46a2.71,2.71,0,0,0,.49,1.78,1.49,1.49,0,0,0,1.18.57,1.52,1.52,0,0,0,1.2-.59,2.82,2.82,0,0,0,.5-1.84,2.75,2.75,0,0,0-.49-1.78,1.47,1.47,0,0,0-1.17-.59,1.52,1.52,0,0,0-1.19.63A2.82,2.82,0,0,0,526.44,85.53Z" transform="translate(-1.04 -2.12)"/><path class="cls-5" d="M531.73,86.75l1-.16a1.46,1.46,0,0,0,.49,1,1.71,1.71,0,0,0,1.12.33,1.65,1.65,0,0,0,1.08-.3.88.88,0,0,0,.35-.69.64.64,0,0,0-.31-.56,4.57,4.57,0,0,0-1.08-.36,9.84,9.84,0,0,1-1.61-.51,1.54,1.54,0,0,1-.91-1.43,1.6,1.6,0,0,1,.19-.77,1.71,1.71,0,0,1,.52-.59,2.17,2.17,0,0,1,.67-.31,3.19,3.19,0,0,1,.91-.13,3.6,3.6,0,0,1,1.29.21,1.75,1.75,0,0,1,.82.57,2.23,2.23,0,0,1,.36,1l-1,.14a1.13,1.13,0,0,0-.41-.75,1.49,1.49,0,0,0-1-.27,1.72,1.72,0,0,0-1,.24.7.7,0,0,0-.31.56.58.58,0,0,0,.13.37.93.93,0,0,0,.4.28l.93.27a13,13,0,0,1,1.56.49,1.58,1.58,0,0,1,.69.55,1.55,1.55,0,0,1,.25.9,1.77,1.77,0,0,1-.31,1,2,2,0,0,1-.89.72,3.23,3.23,0,0,1-1.31.25,2.92,2.92,0,0,1-1.85-.5A2.34,2.34,0,0,1,531.73,86.75Z" transform="translate(-1.04 -2.12)"/><path class="cls-5" d="M542.23,88.61v-.91a2.28,2.28,0,0,1-2,1.05,2.52,2.52,0,0,1-1-.21,1.69,1.69,0,0,1-.71-.53,2,2,0,0,1-.33-.78,5.36,5.36,0,0,1-.06-1V82.38h1.05v3.45a6.15,6.15,0,0,0,.06,1.11,1.1,1.1,0,0,0,.42.65,1.31,1.31,0,0,0,.8.24,1.74,1.74,0,0,0,.89-.24,1.35,1.35,0,0,0,.59-.66,3.32,3.32,0,0,0,.17-1.22V82.38h1.05v6.22Z" transform="translate(-1.04 -2.12)"/><path class="cls-5" d="M544.83,88.61V82.38h.94v.87a2.22,2.22,0,0,1,.78-.74,2.19,2.19,0,0,1,1.11-.28,2,2,0,0,1,1.13.29,1.54,1.54,0,0,1,.62.8,2.23,2.23,0,0,1,1.92-1.09,1.89,1.89,0,0,1,1.42.51,2.19,2.19,0,0,1,.5,1.58v4.27h-1V84.69a2.89,2.89,0,0,0-.1-.91.88.88,0,0,0-.37-.45,1.16,1.16,0,0,0-.63-.17,1.47,1.47,0,0,0-1.09.44,1.92,1.92,0,0,0-.43,1.4v3.62h-1.05v-4a1.78,1.78,0,0,0-.26-1.05,1,1,0,0,0-.84-.35,1.53,1.53,0,0,0-.82.23,1.33,1.33,0,0,0-.55.69,3.86,3.86,0,0,0-.17,1.3v3.23Z" transform="translate(-1.04 -2.12)"/><rect class="cls-8" x="475.64" y="101.49" width="86" height="24" rx="1" ry="1"/><path class="cls-5" d="M485.56,119.61V111h1.14v7.58h4.23v1Z" transform="translate(-1.04 -2.12)"/><path class="cls-5" d="M491.75,116.5a3.21,3.21,0,0,1,1-2.56,2.9,2.9,0,0,1,2-.69,2.79,2.79,0,0,1,2.1.84,3.2,3.2,0,0,1,.81,2.32,4.12,4.12,0,0,1-.36,1.89,2.55,2.55,0,0,1-1,1.07,3.05,3.05,0,0,1-1.5.38,2.8,2.8,0,0,1-2.11-.84A3.35,3.35,0,0,1,491.75,116.5Zm1.08,0a2.65,2.65,0,0,0,.52,1.79,1.74,1.74,0,0,0,2.62,0,2.71,2.71,0,0,0,.52-1.82,2.57,2.57,0,0,0-.52-1.75,1.74,1.74,0,0,0-2.62,0A2.64,2.64,0,0,0,492.83,116.5Z" transform="translate(-1.04 -2.12)"/><path class="cls-5" d="M498.8,119.61v-6.22h.95v.94a2.57,2.57,0,0,1,.67-.87,1.17,1.17,0,0,1,.68-.21,2.06,2.06,0,0,1,1.08.34l-.36,1a1.51,1.51,0,0,0-.77-.23,1,1,0,0,0-.62.21,1.13,1.13,0,0,0-.39.58,4.11,4.11,0,0,0-.18,1.23v3.26Z" transform="translate(-1.04 -2.12)"/><path class="cls-5" d="M507.07,117.6l1.09.13a2.66,2.66,0,0,1-1,1.48,3.24,3.24,0,0,1-3.95-.31,3.29,3.29,0,0,1-.8-2.36,3.44,3.44,0,0,1,.81-2.44,2.74,2.74,0,0,1,2.1-.87,2.66,2.66,0,0,1,2,.85,3.38,3.38,0,0,1,.79,2.39q0,.09,0,.28h-4.64a2.39,2.39,0,0,0,.58,1.57,1.73,1.73,0,0,0,1.3.54,1.61,1.61,0,0,0,1-.3A2,2,0,0,0,507.07,117.6Zm-3.46-1.71h3.47a2.11,2.11,0,0,0-.4-1.18,1.62,1.62,0,0,0-1.31-.61,1.68,1.68,0,0,0-1.22.49A1.92,1.92,0,0,0,503.61,115.9Z" transform="translate(-1.04 -2.12)"/><path class="cls-5" d="M509.49,119.61v-6.22h.94v.87a2.22,2.22,0,0,1,.78-.74,2.19,2.19,0,0,1,1.11-.28,2,2,0,0,1,1.13.29,1.54,1.54,0,0,1,.62.8,2.23,2.23,0,0,1,1.92-1.09,1.89,1.89,0,0,1,1.42.51,2.19,2.19,0,0,1,.5,1.58v4.27h-1v-3.92a2.89,2.89,0,0,0-.1-.91.88.88,0,0,0-.37-.45,1.16,1.16,0,0,0-.63-.17,1.47,1.47,0,0,0-1.09.44,1.92,1.92,0,0,0-.43,1.4v3.62h-1.05v-4a1.78,1.78,0,0,0-.26-1.05,1,1,0,0,0-.84-.35,1.53,1.53,0,0,0-.82.23,1.33,1.33,0,0,0-.55.69,3.86,3.86,0,0,0-.17,1.3v3.23Z" transform="translate(-1.04 -2.12)"/><path class="cls-5" d="M522.82,112.23V111h1.05v1.21Zm0,7.38v-6.22h1.05v6.22Z" transform="translate(-1.04 -2.12)"/><path class="cls-5" d="M525.48,122v-8.61h1v.81a2.37,2.37,0,0,1,.77-.71,2.11,2.11,0,0,1,1-.24,2.46,2.46,0,0,1,1.41.41,2.52,2.52,0,0,1,.92,1.16,4.23,4.23,0,0,1,.31,1.64,4.16,4.16,0,0,1-.34,1.72,2.58,2.58,0,0,1-1,1.17,2.56,2.56,0,0,1-1.37.41,2,2,0,0,1-.95-.22,2.15,2.15,0,0,1-.69-.56v3Zm1-5.46a2.71,2.71,0,0,0,.49,1.78,1.49,1.49,0,0,0,1.18.57,1.52,1.52,0,0,0,1.2-.59,2.82,2.82,0,0,0,.5-1.84,2.75,2.75,0,0,0-.49-1.78,1.47,1.47,0,0,0-1.17-.59,1.52,1.52,0,0,0-1.19.63A2.82,2.82,0,0,0,526.44,116.53Z" transform="translate(-1.04 -2.12)"/><path class="cls-5" d="M531.73,117.75l1-.16a1.46,1.46,0,0,0,.49,1,1.71,1.71,0,0,0,1.12.33,1.65,1.65,0,0,0,1.08-.3.88.88,0,0,0,.35-.69.64.64,0,0,0-.31-.56,4.57,4.57,0,0,0-1.08-.36,9.84,9.84,0,0,1-1.61-.51,1.54,1.54,0,0,1-.91-1.43,1.6,1.6,0,0,1,.19-.77,1.71,1.71,0,0,1,.52-.59,2.17,2.17,0,0,1,.67-.31,3.19,3.19,0,0,1,.91-.13,3.6,3.6,0,0,1,1.29.21,1.75,1.75,0,0,1,.82.57,2.23,2.23,0,0,1,.36,1l-1,.14a1.13,1.13,0,0,0-.41-.75,1.49,1.49,0,0,0-1-.27,1.72,1.72,0,0,0-1,.24.7.7,0,0,0-.31.56.58.58,0,0,0,.13.37.93.93,0,0,0,.4.28l.93.27a13,13,0,0,1,1.56.49,1.58,1.58,0,0,1,.69.55,1.55,1.55,0,0,1,.25.9,1.77,1.77,0,0,1-.31,1,2,2,0,0,1-.89.72,3.23,3.23,0,0,1-1.31.25,2.92,2.92,0,0,1-1.85-.5A2.34,2.34,0,0,1,531.73,117.75Z" transform="translate(-1.04 -2.12)"/><path class="cls-5" d="M542.23,119.61v-.91a2.28,2.28,0,0,1-2,1.05,2.52,2.52,0,0,1-1-.21,1.69,1.69,0,0,1-.71-.53,2,2,0,0,1-.33-.78,5.36,5.36,0,0,1-.06-1v-3.86h1.05v3.45a6.15,6.15,0,0,0,.06,1.11,1.1,1.1,0,0,0,.42.65,1.31,1.31,0,0,0,.8.24,1.74,1.74,0,0,0,.89-.24,1.35,1.35,0,0,0,.59-.66,3.32,3.32,0,0,0,.17-1.22v-3.33h1.05v6.22Z" transform="translate(-1.04 -2.12)"/><path class="cls-5" d="M544.83,119.61v-6.22h.94v.87a2.22,2.22,0,0,1,.78-.74,2.19,2.19,0,0,1,1.11-.28,2,2,0,0,1,1.13.29,1.54,1.54,0,0,1,.62.8,2.23,2.23,0,0,1,1.92-1.09,1.89,1.89,0,0,1,1.42.51,2.19,2.19,0,0,1,.5,1.58v4.27h-1v-3.92a2.89,2.89,0,0,0-.1-.91.88.88,0,0,0-.37-.45,1.16,1.16,0,0,0-.63-.17,1.47,1.47,0,0,0-1.09.44,1.92,1.92,0,0,0-.43,1.4v3.62h-1.05v-4a1.78,1.78,0,0,0-.26-1.05,1,1,0,0,0-.84-.35,1.53,1.53,0,0,0-.82.23,1.33,1.33,0,0,0-.55.69,3.86,3.86,0,0,0-.17,1.3v3.23Z" transform="translate(-1.04 -2.12)"/><rect class="cls-9" x="475.64" y="132.49" width="86" height="24" rx="1" ry="1"/><path class="cls-5" d="M485.56,150.61V142h1.14v7.58h4.23v1Z" transform="translate(-1.04 -2.12)"/><path class="cls-5" d="M491.75,147.5a3.21,3.21,0,0,1,1-2.56,2.9,2.9,0,0,1,2-.69,2.79,2.79,0,0,1,2.1.84,3.2,3.2,0,0,1,.81,2.32,4.12,4.12,0,0,1-.36,1.89,2.55,2.55,0,0,1-1,1.07,3.05,3.05,0,0,1-1.5.38,2.8,2.8,0,0,1-2.11-.84A3.35,3.35,0,0,1,491.75,147.5Zm1.08,0a2.65,2.65,0,0,0,.52,1.79,1.74,1.74,0,0,0,2.62,0,2.71,2.71,0,0,0,.52-1.82,2.57,2.57,0,0,0-.52-1.75,1.74,1.74,0,0,0-2.62,0A2.64,2.64,0,0,0,492.83,147.5Z" transform="translate(-1.04 -2.12)"/><path class="cls-5" d="M498.8,150.61v-6.22h.95v.94a2.57,2.57,0,0,1,.67-.87,1.17,1.17,0,0,1,.68-.21,2.06,2.06,0,0,1,1.08.34l-.36,1a1.51,1.51,0,0,0-.77-.23,1,1,0,0,0-.62.21,1.13,1.13,0,0,0-.39.58,4.11,4.11,0,0,0-.18,1.23v3.26Z" transform="translate(-1.04 -2.12)"/><path class="cls-5" d="M507.07,148.6l1.09.13a2.66,2.66,0,0,1-1,1.48,3.24,3.24,0,0,1-3.95-.31,3.29,3.29,0,0,1-.8-2.36,3.44,3.44,0,0,1,.81-2.44,2.74,2.74,0,0,1,2.1-.87,2.66,2.66,0,0,1,2,.85,3.38,3.38,0,0,1,.79,2.39q0,.09,0,.28h-4.64a2.39,2.39,0,0,0,.58,1.57,1.73,1.73,0,0,0,1.3.54,1.61,1.61,0,0,0,1-.3A2,2,0,0,0,507.07,148.6Zm-3.46-1.71h3.47a2.11,2.11,0,0,0-.4-1.18,1.62,1.62,0,0,0-1.31-.61,1.68,1.68,0,0,0-1.22.49A1.92,1.92,0,0,0,503.61,146.9Z" transform="translate(-1.04 -2.12)"/><path class="cls-5" d="M509.49,150.61v-6.22h.94v.87a2.22,2.22,0,0,1,.78-.74,2.19,2.19,0,0,1,1.11-.28,2,2,0,0,1,1.13.29,1.54,1.54,0,0,1,.62.8,2.23,2.23,0,0,1,1.92-1.09,1.89,1.89,0,0,1,1.42.51,2.19,2.19,0,0,1,.5,1.58v4.27h-1v-3.92a2.89,2.89,0,0,0-.1-.91.88.88,0,0,0-.37-.45,1.16,1.16,0,0,0-.63-.17,1.47,1.47,0,0,0-1.09.44,1.92,1.92,0,0,0-.43,1.4v3.62h-1.05v-4a1.78,1.78,0,0,0-.26-1.05,1,1,0,0,0-.84-.35,1.53,1.53,0,0,0-.82.23,1.33,1.33,0,0,0-.55.69,3.86,3.86,0,0,0-.17,1.3v3.23Z" transform="translate(-1.04 -2.12)"/><path class="cls-5" d="M522.82,143.23V142h1.05v1.21Zm0,7.38v-6.22h1.05v6.22Z" transform="translate(-1.04 -2.12)"/><path class="cls-5" d="M525.48,153v-8.61h1v.81a2.37,2.37,0,0,1,.77-.71,2.11,2.11,0,0,1,1-.24,2.46,2.46,0,0,1,1.41.41,2.52,2.52,0,0,1,.92,1.16,4.23,4.23,0,0,1,.31,1.64,4.16,4.16,0,0,1-.34,1.72,2.58,2.58,0,0,1-1,1.17,2.56,2.56,0,0,1-1.37.41,2,2,0,0,1-.95-.22,2.15,2.15,0,0,1-.69-.56v3Zm1-5.46a2.71,2.71,0,0,0,.49,1.78,1.49,1.49,0,0,0,1.18.57,1.52,1.52,0,0,0,1.2-.59,2.82,2.82,0,0,0,.5-1.84,2.75,2.75,0,0,0-.49-1.78,1.47,1.47,0,0,0-1.17-.59,1.52,1.52,0,0,0-1.19.63A2.82,2.82,0,0,0,526.44,147.53Z" transform="translate(-1.04 -2.12)"/><path class="cls-5" d="M531.73,148.75l1-.16a1.46,1.46,0,0,0,.49,1,1.71,1.71,0,0,0,1.12.33,1.65,1.65,0,0,0,1.08-.3.88.88,0,0,0,.35-.69.64.64,0,0,0-.31-.56,4.57,4.57,0,0,0-1.08-.36,9.84,9.84,0,0,1-1.61-.51,1.54,1.54,0,0,1-.91-1.43,1.6,1.6,0,0,1,.19-.77,1.71,1.71,0,0,1,.52-.59,2.17,2.17,0,0,1,.67-.31,3.19,3.19,0,0,1,.91-.13,3.6,3.6,0,0,1,1.29.21,1.75,1.75,0,0,1,.82.57,2.23,2.23,0,0,1,.36,1l-1,.14a1.13,1.13,0,0,0-.41-.75,1.49,1.49,0,0,0-1-.27,1.72,1.72,0,0,0-1,.24.7.7,0,0,0-.31.56.58.58,0,0,0,.13.37.93.93,0,0,0,.4.28l.93.27a13,13,0,0,1,1.56.49,1.58,1.58,0,0,1,.69.55,1.55,1.55,0,0,1,.25.9,1.77,1.77,0,0,1-.31,1,2,2,0,0,1-.89.72,3.23,3.23,0,0,1-1.31.25,2.92,2.92,0,0,1-1.85-.5A2.34,2.34,0,0,1,531.73,148.75Z" transform="translate(-1.04 -2.12)"/><path class="cls-5" d="M542.23,150.61v-.91a2.28,2.28,0,0,1-2,1.05,2.52,2.52,0,0,1-1-.21,1.69,1.69,0,0,1-.71-.53,2,2,0,0,1-.33-.78,5.36,5.36,0,0,1-.06-1v-3.86h1.05v3.45a6.15,6.15,0,0,0,.06,1.11,1.1,1.1,0,0,0,.42.65,1.31,1.31,0,0,0,.8.24,1.74,1.74,0,0,0,.89-.24,1.35,1.35,0,0,0,.59-.66,3.32,3.32,0,0,0,.17-1.22v-3.33h1.05v6.22Z" transform="translate(-1.04 -2.12)"/><path class="cls-5" d="M544.83,150.61v-6.22h.94v.87a2.22,2.22,0,0,1,.78-.74,2.19,2.19,0,0,1,1.11-.28,2,2,0,0,1,1.13.29,1.54,1.54,0,0,1,.62.8,2.23,2.23,0,0,1,1.92-1.09,1.89,1.89,0,0,1,1.42.51,2.19,2.19,0,0,1,.5,1.58v4.27h-1v-3.92a2.89,2.89,0,0,0-.1-.91.88.88,0,0,0-.37-.45,1.16,1.16,0,0,0-.63-.17,1.47,1.47,0,0,0-1.09.44,1.92,1.92,0,0,0-.43,1.4v3.62h-1.05v-4a1.78,1.78,0,0,0-.26-1.05,1,1,0,0,0-.84-.35,1.53,1.53,0,0,0-.82.23,1.33,1.33,0,0,0-.55.69,3.86,3.86,0,0,0-.17,1.3v3.23Z" transform="translate(-1.04 -2.12)"/><rect class="cls-10" x="475.64" y="163.49" width="86" height="24" rx="1" ry="1"/><path class="cls-5" d="M485.56,181.61V173h1.14v7.58h4.23v1Z" transform="translate(-1.04 -2.12)"/><path class="cls-5" d="M491.75,178.5a3.21,3.21,0,0,1,1-2.56,2.9,2.9,0,0,1,2-.69,2.79,2.79,0,0,1,2.1.84,3.2,3.2,0,0,1,.81,2.32,4.12,4.12,0,0,1-.36,1.89,2.55,2.55,0,0,1-1,1.07,3.05,3.05,0,0,1-1.5.38,2.8,2.8,0,0,1-2.11-.84A3.35,3.35,0,0,1,491.75,178.5Zm1.08,0a2.65,2.65,0,0,0,.52,1.79,1.74,1.74,0,0,0,2.62,0,2.71,2.71,0,0,0,.52-1.82,2.57,2.57,0,0,0-.52-1.75,1.74,1.74,0,0,0-2.62,0A2.64,2.64,0,0,0,492.83,178.5Z" transform="translate(-1.04 -2.12)"/><path class="cls-5" d="M498.8,181.61v-6.22h.95v.94a2.57,2.57,0,0,1,.67-.87,1.17,1.17,0,0,1,.68-.21,2.06,2.06,0,0,1,1.08.34l-.36,1a1.51,1.51,0,0,0-.77-.23,1,1,0,0,0-.62.21,1.13,1.13,0,0,0-.39.58,4.11,4.11,0,0,0-.18,1.23v3.26Z" transform="translate(-1.04 -2.12)"/><path class="cls-5" d="M507.07,179.6l1.09.13a2.66,2.66,0,0,1-1,1.48,3.24,3.24,0,0,1-3.95-.31,3.29,3.29,0,0,1-.8-2.36,3.44,3.44,0,0,1,.81-2.44,2.74,2.74,0,0,1,2.1-.87,2.66,2.66,0,0,1,2,.85,3.38,3.38,0,0,1,.79,2.39q0,.09,0,.28h-4.64a2.39,2.39,0,0,0,.58,1.57,1.73,1.73,0,0,0,1.3.54,1.61,1.61,0,0,0,1-.3A2,2,0,0,0,507.07,179.6Zm-3.46-1.71h3.47a2.11,2.11,0,0,0-.4-1.18,1.62,1.62,0,0,0-1.31-.61,1.68,1.68,0,0,0-1.22.49A1.92,1.92,0,0,0,503.61,177.9Z" transform="translate(-1.04 -2.12)"/><path class="cls-5" d="M509.49,181.61v-6.22h.94v.87a2.22,2.22,0,0,1,.78-.74,2.19,2.19,0,0,1,1.11-.28,2,2,0,0,1,1.13.29,1.54,1.54,0,0,1,.62.8,2.23,2.23,0,0,1,1.92-1.09,1.89,1.89,0,0,1,1.42.51,2.19,2.19,0,0,1,.5,1.58v4.27h-1v-3.92a2.89,2.89,0,0,0-.1-.91.88.88,0,0,0-.37-.45,1.16,1.16,0,0,0-.63-.17,1.47,1.47,0,0,0-1.09.44,1.92,1.92,0,0,0-.43,1.4v3.62h-1.05v-4a1.78,1.78,0,0,0-.26-1.05,1,1,0,0,0-.84-.35,1.53,1.53,0,0,0-.82.23,1.33,1.33,0,0,0-.55.69,3.86,3.86,0,0,0-.17,1.3v3.23Z" transform="translate(-1.04 -2.12)"/><path class="cls-5" d="M522.82,174.23V173h1.05v1.21Zm0,7.38v-6.22h1.05v6.22Z" transform="translate(-1.04 -2.12)"/><path class="cls-5" d="M525.48,184v-8.61h1v.81a2.37,2.37,0,0,1,.77-.71,2.11,2.11,0,0,1,1-.24,2.46,2.46,0,0,1,1.41.41,2.52,2.52,0,0,1,.92,1.16,4.23,4.23,0,0,1,.31,1.64,4.16,4.16,0,0,1-.34,1.72,2.58,2.58,0,0,1-1,1.17,2.56,2.56,0,0,1-1.37.41,2,2,0,0,1-.95-.22,2.15,2.15,0,0,1-.69-.56v3Zm1-5.46a2.71,2.71,0,0,0,.49,1.78,1.49,1.49,0,0,0,1.18.57,1.52,1.52,0,0,0,1.2-.59,2.82,2.82,0,0,0,.5-1.84,2.75,2.75,0,0,0-.49-1.78,1.47,1.47,0,0,0-1.17-.59,1.52,1.52,0,0,0-1.19.63A2.82,2.82,0,0,0,526.44,178.53Z" transform="translate(-1.04 -2.12)"/><path class="cls-5" d="M531.73,179.75l1-.16a1.46,1.46,0,0,0,.49,1,1.71,1.71,0,0,0,1.12.33,1.65,1.65,0,0,0,1.08-.3.88.88,0,0,0,.35-.69.64.64,0,0,0-.31-.56,4.57,4.57,0,0,0-1.08-.36,9.84,9.84,0,0,1-1.61-.51,1.54,1.54,0,0,1-.91-1.43,1.6,1.6,0,0,1,.19-.77,1.71,1.71,0,0,1,.52-.59,2.17,2.17,0,0,1,.67-.31,3.19,3.19,0,0,1,.91-.13,3.6,3.6,0,0,1,1.29.21,1.75,1.75,0,0,1,.82.57,2.23,2.23,0,0,1,.36,1l-1,.14a1.13,1.13,0,0,0-.41-.75,1.49,1.49,0,0,0-1-.27,1.72,1.72,0,0,0-1,.24.7.7,0,0,0-.31.56.58.58,0,0,0,.13.37.93.93,0,0,0,.4.28l.93.27a13,13,0,0,1,1.56.49,1.58,1.58,0,0,1,.69.55,1.55,1.55,0,0,1,.25.9,1.77,1.77,0,0,1-.31,1,2,2,0,0,1-.89.72,3.23,3.23,0,0,1-1.31.25,2.92,2.92,0,0,1-1.85-.5A2.34,2.34,0,0,1,531.73,179.75Z" transform="translate(-1.04 -2.12)"/><path class="cls-5" d="M542.23,181.61v-.91a2.28,2.28,0,0,1-2,1.05,2.52,2.52,0,0,1-1-.21,1.69,1.69,0,0,1-.71-.53,2,2,0,0,1-.33-.78,5.36,5.36,0,0,1-.06-1v-3.86h1.05v3.45a6.15,6.15,0,0,0,.06,1.11,1.1,1.1,0,0,0,.42.65,1.31,1.31,0,0,0,.8.24,1.74,1.74,0,0,0,.89-.24,1.35,1.35,0,0,0,.59-.66,3.32,3.32,0,0,0,.17-1.22v-3.33h1.05v6.22Z" transform="translate(-1.04 -2.12)"/><path class="cls-5" d="M544.83,181.61v-6.22h.94v.87a2.22,2.22,0,0,1,.78-.74,2.19,2.19,0,0,1,1.11-.28,2,2,0,0,1,1.13.29,1.54,1.54,0,0,1,.62.8,2.23,2.23,0,0,1,1.92-1.09,1.89,1.89,0,0,1,1.42.51,2.19,2.19,0,0,1,.5,1.58v4.27h-1v-3.92a2.89,2.89,0,0,0-.1-.91.88.88,0,0,0-.37-.45,1.16,1.16,0,0,0-.63-.17,1.47,1.47,0,0,0-1.09.44,1.92,1.92,0,0,0-.43,1.4v3.62h-1.05v-4a1.78,1.78,0,0,0-.26-1.05,1,1,0,0,0-.84-.35,1.53,1.53,0,0,0-.82.23,1.33,1.33,0,0,0-.55.69,3.86,3.86,0,0,0-.17,1.3v3.23Z" transform="translate(-1.04 -2.12)"/></g></g></svg>