<svg xmlns="http://www.w3.org/2000/svg" viewBox="0 0 238.06 144.26"><title>list group</title><g id="Layer_2" data-name="Layer 2"><g id="Layer_1-2" data-name="Layer 1"><rect y="19.67" width="238.06" height="24" style="fill:#e6e7e8"/><rect y="71.67" width="238.06" height="24" style="fill:#009697"/><path d="M15.37,7.54l1.07-.09a2.37,2.37,0,0,0,.35,1.06,1.94,1.94,0,0,0,.86.67A3.27,3.27,0,0,0,19,9.42a3.16,3.16,0,0,0,1.15-.19,1.59,1.59,0,0,0,.74-.53A1.23,1.23,0,0,0,21.11,8a1.12,1.12,0,0,0-.23-.71,1.74,1.74,0,0,0-.77-.51,15.12,15.12,0,0,0-1.53-.42,7.81,7.81,0,0,1-1.66-.54A2.33,2.33,0,0,1,16,5a2,2,0,0,1-.3-1.07,2.18,2.18,0,0,1,.37-1.22,2.29,2.29,0,0,1,1.08-.86,4.09,4.09,0,0,1,1.58-.29,4.31,4.31,0,0,1,1.68.31,2.43,2.43,0,0,1,1.12.91,2.6,2.6,0,0,1,.42,1.35l-1.09.08A1.76,1.76,0,0,0,20.26,3a2.31,2.31,0,0,0-1.5-.42,2.4,2.4,0,0,0-1.5.38,1.13,1.13,0,0,0-.47.91,1,1,0,0,0,.33.76,4.53,4.53,0,0,0,1.71.61,11.34,11.34,0,0,1,1.9.55,2.6,2.6,0,0,1,1.11.88,2.13,2.13,0,0,1,.36,1.22,2.34,2.34,0,0,1-.39,1.29,2.58,2.58,0,0,1-1.13.94,3.93,3.93,0,0,1-1.66.34,4.94,4.94,0,0,1-2-.34,2.74,2.74,0,0,1-1.24-1A2.9,2.9,0,0,1,15.37,7.54Z" transform="translate(0 -1.56)" style="fill:#414141"/><path d="M27.7,10.3V9.38a2.28,2.28,0,0,1-2,1.05,2.52,2.52,0,0,1-1-.21A1.69,1.69,0,0,1,24,9.7a2,2,0,0,1-.33-.78,5.36,5.36,0,0,1-.06-1V4.08h1.05V7.53a6.15,6.15,0,0,0,.06,1.11,1.1,1.1,0,0,0,.42.65,1.31,1.31,0,0,0,.8.24,1.74,1.74,0,0,0,.89-.24,1.35,1.35,0,0,0,.59-.66,3.32,3.32,0,0,0,.17-1.22V4.08h1.05V10.3Z" transform="translate(0 -1.56)" style="fill:#414141"/><path d="M31.27,10.3h-1V1.71h1.05V4.77a2.09,2.09,0,0,1,1.71-.84,2.61,2.61,0,0,1,1.09.23,2.22,2.22,0,0,1,.84.65,3.14,3.14,0,0,1,.52,1,4.17,4.17,0,0,1,.19,1.27,3.55,3.55,0,0,1-.79,2.47,2.47,2.47,0,0,1-1.9.87,2,2,0,0,1-1.73-.92Zm0-3.16a3.23,3.23,0,0,0,.3,1.62A1.51,1.51,0,0,0,34.11,9a2.73,2.73,0,0,0,.5-1.79,2.78,2.78,0,0,0-.48-1.8A1.47,1.47,0,0,0,33,4.8a1.52,1.52,0,0,0-1.2.6A2.64,2.64,0,0,0,31.26,7.14Z" transform="translate(0 -1.56)" style="fill:#414141"/><path d="M40.63,10.3V1.71h1.14V10.3Z" transform="translate(0 -1.56)" style="fill:#414141"/><path d="M45.94,9.35l.15.93a3.91,3.91,0,0,1-.8.09,1.8,1.8,0,0,1-.89-.18A1,1,0,0,1,44,9.72a3.78,3.78,0,0,1-.13-1.25V4.9h-.77V4.08h.77V2.53l1-.63V4.08h1.06V4.9H44.88V8.53a1.84,1.84,0,0,0,.06.58.44.44,0,0,0,.18.21.7.7,0,0,0,.36.08A3.43,3.43,0,0,0,45.94,9.35Z" transform="translate(0 -1.56)" style="fill:#414141"/><path d="M51.23,8.29l1.09.13a2.66,2.66,0,0,1-1,1.48,3.24,3.24,0,0,1-3.95-.31,3.29,3.29,0,0,1-.8-2.36,3.44,3.44,0,0,1,.81-2.44,2.74,2.74,0,0,1,2.1-.87,2.66,2.66,0,0,1,2,.85,3.38,3.38,0,0,1,.79,2.39q0,.09,0,.28H47.71A2.39,2.39,0,0,0,48.29,9a1.73,1.73,0,0,0,1.3.54,1.61,1.61,0,0,0,1-.3A2,2,0,0,0,51.23,8.29ZM47.77,6.59h3.47a2.11,2.11,0,0,0-.4-1.18,1.62,1.62,0,0,0-1.31-.61,1.68,1.68,0,0,0-1.22.49A1.92,1.92,0,0,0,47.77,6.59Z" transform="translate(0 -1.56)" style="fill:#414141"/><path d="M53.65,10.3V4.08h.94v.87a2.22,2.22,0,0,1,.78-.74,2.19,2.19,0,0,1,1.11-.28,2,2,0,0,1,1.13.29,1.54,1.54,0,0,1,.62.8,2.23,2.23,0,0,1,1.92-1.09,1.89,1.89,0,0,1,1.42.51A2.19,2.19,0,0,1,62.08,6V10.3H61V6.38a2.89,2.89,0,0,0-.1-.91A.88.88,0,0,0,60.56,5a1.16,1.16,0,0,0-.63-.17,1.47,1.47,0,0,0-1.09.44,1.92,1.92,0,0,0-.43,1.4V10.3H57.34v-4a1.78,1.78,0,0,0-.26-1.05,1,1,0,0,0-.84-.35,1.53,1.53,0,0,0-.82.23,1.33,1.33,0,0,0-.55.69,3.86,3.86,0,0,0-.17,1.3V10.3Z" transform="translate(0 -1.56)" style="fill:#414141"/><path d="M18.17,38.3V34.66l-3.31-5h1.38l1.69,2.59q.47.73.87,1.45.39-.67.94-1.52l1.66-2.53h1.32l-3.43,5V38.3Z" transform="translate(0 -1.56)" style="fill:#32363b"/><path d="M26.78,36.29l1.09.13a2.66,2.66,0,0,1-1,1.48,2.87,2.87,0,0,1-1.78.53A2.85,2.85,0,0,1,23,37.6a3.29,3.29,0,0,1-.8-2.36A3.44,3.44,0,0,1,23,32.8a2.74,2.74,0,0,1,2.1-.87,2.66,2.66,0,0,1,2,.85,3.38,3.38,0,0,1,.79,2.39q0,.09,0,.28H23.26A2.39,2.39,0,0,0,23.84,37a1.73,1.73,0,0,0,1.3.54,1.61,1.61,0,0,0,1-.3A2,2,0,0,0,26.78,36.29Zm-3.46-1.71h3.47a2.11,2.11,0,0,0-.4-1.18,1.62,1.62,0,0,0-1.31-.61,1.68,1.68,0,0,0-1.22.49A1.92,1.92,0,0,0,23.32,34.59Z" transform="translate(0 -1.56)" style="fill:#32363b"/><path d="M31.5,37.35l.15.93a3.91,3.91,0,0,1-.8.09A1.8,1.8,0,0,1,30,38.2a1,1,0,0,1-.45-.48,3.78,3.78,0,0,1-.13-1.25V32.9h-.77v-.82h.77V30.53l1-.63v2.17H31.5v.82H30.44v3.64a1.84,1.84,0,0,0,.06.58.44.44,0,0,0,.18.21.7.7,0,0,0,.36.08A3.43,3.43,0,0,0,31.5,37.35Z" transform="translate(0 -1.56)" style="fill:#32363b"/><path d="M34.39,38.3l3.3-8.59h1.22l3.52,8.59H41.14l-1-2.6H36.54l-.94,2.6Zm2.48-3.53h2.91l-.9-2.38q-.41-1.08-.61-1.78a11,11,0,0,1-.46,1.64Z" transform="translate(0 -1.56)" style="fill:#32363b"/><path d="M43.21,38.3V32.08h.95V33a2.24,2.24,0,0,1,2-1,2.6,2.6,0,0,1,1,.2,1.63,1.63,0,0,1,.71.53,2,2,0,0,1,.33.78,6,6,0,0,1,.06,1V38.3H47.21V34.51a2.84,2.84,0,0,0-.12-1,1,1,0,0,0-.44-.51,1.39,1.39,0,0,0-.74-.19,1.71,1.71,0,0,0-1.16.43,2.11,2.11,0,0,0-.49,1.62v3.4Z" transform="translate(0 -1.56)" style="fill:#32363b"/><path d="M49.49,35.19a3.21,3.21,0,0,1,1-2.56,2.9,2.9,0,0,1,2-.69,2.79,2.79,0,0,1,2.1.84,3.2,3.2,0,0,1,.81,2.32A4.12,4.12,0,0,1,55,37a2.55,2.55,0,0,1-1,1.07,3.05,3.05,0,0,1-1.5.38,2.8,2.8,0,0,1-2.11-.84A3.35,3.35,0,0,1,49.49,35.19Zm1.08,0A2.65,2.65,0,0,0,51.09,37a1.74,1.74,0,0,0,2.62,0,2.71,2.71,0,0,0,.52-1.82,2.57,2.57,0,0,0-.52-1.75,1.74,1.74,0,0,0-2.62,0A2.64,2.64,0,0,0,50.57,35.19Z" transform="translate(0 -1.56)" style="fill:#32363b"/><path d="M58.86,37.35l.15.93a3.91,3.91,0,0,1-.8.09,1.8,1.8,0,0,1-.89-.18,1,1,0,0,1-.45-.48,3.78,3.78,0,0,1-.13-1.25V32.9H56v-.82h.77V30.53l1-.63v2.17h1.06v.82H57.8v3.64a1.84,1.84,0,0,0,.06.58.44.44,0,0,0,.18.21.7.7,0,0,0,.36.08A3.43,3.43,0,0,0,58.86,37.35Z" transform="translate(0 -1.56)" style="fill:#32363b"/><path d="M59.89,38.3V29.71h1.05v3.08a2.36,2.36,0,0,1,1.86-.86,2.51,2.51,0,0,1,1.2.27,1.6,1.6,0,0,1,.73.75A3.47,3.47,0,0,1,65,34.35V38.3H63.9V34.35a1.63,1.63,0,0,0-.34-1.15,1.27,1.27,0,0,0-1-.36,1.71,1.71,0,0,0-.88.24,1.37,1.37,0,0,0-.59.66,3,3,0,0,0-.18,1.15v3.4Z" transform="translate(0 -1.56)" style="fill:#32363b"/><path d="M70.82,36.29l1.09.13a2.66,2.66,0,0,1-1,1.48A3.24,3.24,0,0,1,67,37.6a3.29,3.29,0,0,1-.8-2.36A3.44,3.44,0,0,1,67,32.8a2.74,2.74,0,0,1,2.1-.87,2.66,2.66,0,0,1,2,.85,3.38,3.38,0,0,1,.79,2.39q0,.09,0,.28H67.3A2.39,2.39,0,0,0,67.88,37a1.73,1.73,0,0,0,1.3.54,1.61,1.61,0,0,0,1-.3A2,2,0,0,0,70.82,36.29Zm-3.46-1.71h3.47a2.11,2.11,0,0,0-.4-1.18,1.62,1.62,0,0,0-1.31-.61,1.68,1.68,0,0,0-1.22.49A1.92,1.92,0,0,0,67.36,34.59Z" transform="translate(0 -1.56)" style="fill:#32363b"/><path d="M73.22,38.3V32.08h.95V33a2.57,2.57,0,0,1,.67-.87,1.17,1.17,0,0,1,.68-.21,2.06,2.06,0,0,1,1.08.34l-.36,1a1.51,1.51,0,0,0-.77-.23,1,1,0,0,0-.62.21,1.13,1.13,0,0,0-.39.58A4.11,4.11,0,0,0,74.28,35V38.3Z" transform="translate(0 -1.56)" style="fill:#32363b"/><path d="M80.31,35.54l1.07-.09a2.37,2.37,0,0,0,.35,1.06,1.94,1.94,0,0,0,.86.67,3.27,3.27,0,0,0,1.32.25,3.16,3.16,0,0,0,1.15-.19,1.59,1.59,0,0,0,.74-.53,1.23,1.23,0,0,0,.24-.74,1.12,1.12,0,0,0-.23-.71,1.74,1.74,0,0,0-.77-.51,15.12,15.12,0,0,0-1.53-.42,7.81,7.81,0,0,1-1.66-.54,2.33,2.33,0,0,1-.92-.8,2,2,0,0,1-.3-1.07A2.18,2.18,0,0,1,81,30.71a2.29,2.29,0,0,1,1.08-.86,4.09,4.09,0,0,1,1.58-.29,4.31,4.31,0,0,1,1.68.31,2.43,2.43,0,0,1,1.12.91,2.6,2.6,0,0,1,.42,1.35l-1.09.08A1.76,1.76,0,0,0,85.21,31a2.31,2.31,0,0,0-1.5-.42,2.4,2.4,0,0,0-1.5.38,1.13,1.13,0,0,0-.47.91,1,1,0,0,0,.33.76,4.53,4.53,0,0,0,1.71.61,11.34,11.34,0,0,1,1.9.55,2.6,2.6,0,0,1,1.11.88,2.13,2.13,0,0,1,.36,1.22,2.34,2.34,0,0,1-.39,1.29,2.58,2.58,0,0,1-1.13.94,3.93,3.93,0,0,1-1.66.34,4.94,4.94,0,0,1-2-.34,2.74,2.74,0,0,1-1.24-1A2.9,2.9,0,0,1,80.31,35.54Z" transform="translate(0 -1.56)" style="fill:#32363b"/><path d="M92.65,38.3v-.91a2.28,2.28,0,0,1-2,1.05,2.52,2.52,0,0,1-1-.21,1.69,1.69,0,0,1-.71-.53,2,2,0,0,1-.33-.78,5.36,5.36,0,0,1-.06-1V32.08H89.6v3.45a6.15,6.15,0,0,0,.06,1.11,1.1,1.1,0,0,0,.42.65,1.31,1.31,0,0,0,.8.24,1.74,1.74,0,0,0,.89-.24,1.35,1.35,0,0,0,.59-.66,3.32,3.32,0,0,0,.17-1.22V32.08h1.05V38.3Z" transform="translate(0 -1.56)" style="fill:#32363b"/><path d="M96.22,38.3h-1V29.71h1.05v3.06A2.09,2.09,0,0,1,98,31.93a2.61,2.61,0,0,1,1.09.23,2.22,2.22,0,0,1,.84.65,3.14,3.14,0,0,1,.52,1,4.17,4.17,0,0,1,.19,1.27,3.55,3.55,0,0,1-.79,2.47,2.47,2.47,0,0,1-1.9.87,2,2,0,0,1-1.73-.92Zm0-3.16a3.23,3.23,0,0,0,.3,1.62,1.51,1.51,0,0,0,2.54.21,2.73,2.73,0,0,0,.5-1.79,2.78,2.78,0,0,0-.48-1.8,1.47,1.47,0,0,0-1.17-.58,1.52,1.52,0,0,0-1.2.6A2.64,2.64,0,0,0,96.2,35.14Z" transform="translate(0 -1.56)" style="fill:#32363b"/><path d="M105.58,38.3V29.71h1.14V38.3Z" transform="translate(0 -1.56)" style="fill:#32363b"/><path d="M110.89,37.35l.15.93a3.91,3.91,0,0,1-.8.09,1.8,1.8,0,0,1-.89-.18,1,1,0,0,1-.45-.48,3.78,3.78,0,0,1-.13-1.25V32.9H108v-.82h.77V30.53l1-.63v2.17h1.06v.82h-1.06v3.64a1.84,1.84,0,0,0,.06.58.44.44,0,0,0,.18.21.7.7,0,0,0,.36.08A3.43,3.43,0,0,0,110.89,37.35Z" transform="translate(0 -1.56)" style="fill:#32363b"/><path d="M116.18,36.29l1.09.13a2.66,2.66,0,0,1-1,1.48,3.24,3.24,0,0,1-3.95-.31,3.29,3.29,0,0,1-.8-2.36,3.44,3.44,0,0,1,.81-2.44,2.74,2.74,0,0,1,2.1-.87,2.66,2.66,0,0,1,2,.85,3.38,3.38,0,0,1,.79,2.39q0,.09,0,.28h-4.64a2.39,2.39,0,0,0,.58,1.57,1.73,1.73,0,0,0,1.3.54,1.61,1.61,0,0,0,1-.3A2,2,0,0,0,116.18,36.29Zm-3.46-1.71h3.47a2.11,2.11,0,0,0-.4-1.18,1.62,1.62,0,0,0-1.31-.61,1.68,1.68,0,0,0-1.22.49A1.92,1.92,0,0,0,112.72,34.59Z" transform="translate(0 -1.56)" style="fill:#32363b"/><path d="M118.59,38.3V32.08h.94v.87a2.22,2.22,0,0,1,.78-.74,2.19,2.19,0,0,1,1.11-.28,2,2,0,0,1,1.13.29,1.54,1.54,0,0,1,.62.8,2.23,2.23,0,0,1,1.92-1.09,1.89,1.89,0,0,1,1.42.51A2.19,2.19,0,0,1,127,34V38.3h-1V34.38a2.89,2.89,0,0,0-.1-.91.88.88,0,0,0-.37-.45,1.16,1.16,0,0,0-.63-.17,1.47,1.47,0,0,0-1.09.44,1.92,1.92,0,0,0-.43,1.4V38.3h-1.05v-4A1.78,1.78,0,0,0,122,33.2a1,1,0,0,0-.84-.35,1.53,1.53,0,0,0-.82.23,1.33,1.33,0,0,0-.55.69,3.86,3.86,0,0,0-.17,1.3V38.3Z" transform="translate(0 -1.56)" style="fill:#32363b"/><path d="M14.81,64.3l3.3-8.59h1.22l3.52,8.59H21.56l-1-2.6H17L16,64.3Zm2.48-3.53H20.2l-.9-2.38q-.41-1.08-.61-1.78a11,11,0,0,1-.46,1.64Z" transform="translate(0 -1.56)" style="fill:#414141"/><path d="M23.62,64.3V58.08h.95V59a2.24,2.24,0,0,1,2-1,2.6,2.6,0,0,1,1,.2,1.63,1.63,0,0,1,.71.53,2,2,0,0,1,.33.78,6,6,0,0,1,.06,1V64.3H27.63V60.51a2.84,2.84,0,0,0-.12-1,1,1,0,0,0-.44-.51,1.39,1.39,0,0,0-.74-.19,1.71,1.71,0,0,0-1.16.43,2.11,2.11,0,0,0-.49,1.62v3.4Z" transform="translate(0 -1.56)" style="fill:#414141"/><path d="M29.91,61.19a3.21,3.21,0,0,1,1-2.56,2.9,2.9,0,0,1,2-.69,2.79,2.79,0,0,1,2.1.84,3.2,3.2,0,0,1,.81,2.32A4.12,4.12,0,0,1,35.38,63a2.55,2.55,0,0,1-1,1.07,3.05,3.05,0,0,1-1.5.38,2.8,2.8,0,0,1-2.11-.84A3.35,3.35,0,0,1,29.91,61.19Zm1.08,0A2.65,2.65,0,0,0,31.51,63a1.74,1.74,0,0,0,2.62,0,2.71,2.71,0,0,0,.52-1.82,2.57,2.57,0,0,0-.52-1.75,1.74,1.74,0,0,0-2.62,0A2.64,2.64,0,0,0,31,61.19Z" transform="translate(0 -1.56)" style="fill:#414141"/><path d="M39.27,63.35l.15.93a3.91,3.91,0,0,1-.8.09,1.8,1.8,0,0,1-.89-.18,1,1,0,0,1-.45-.48,3.78,3.78,0,0,1-.13-1.25V58.9h-.77v-.82h.77V56.53l1-.63v2.17h1.06v.82H38.21v3.64a1.84,1.84,0,0,0,.06.58.44.44,0,0,0,.18.21.7.7,0,0,0,.36.08A3.43,3.43,0,0,0,39.27,63.35Z" transform="translate(0 -1.56)" style="fill:#414141"/><path d="M40.31,64.3V55.71h1.05v3.08a2.36,2.36,0,0,1,1.86-.86,2.51,2.51,0,0,1,1.2.27,1.6,1.6,0,0,1,.73.75,3.47,3.47,0,0,1,.22,1.39V64.3H44.32V60.35A1.63,1.63,0,0,0,44,59.2a1.27,1.27,0,0,0-1-.36,1.71,1.71,0,0,0-.88.24,1.37,1.37,0,0,0-.59.66,3,3,0,0,0-.18,1.15v3.4Z" transform="translate(0 -1.56)" style="fill:#414141"/><path d="M51.24,62.29l1.09.13a2.66,2.66,0,0,1-1,1.48,3.24,3.24,0,0,1-3.95-.31,3.29,3.29,0,0,1-.8-2.36,3.44,3.44,0,0,1,.81-2.44,2.74,2.74,0,0,1,2.1-.87,2.66,2.66,0,0,1,2,.85,3.38,3.38,0,0,1,.79,2.39q0,.09,0,.28H47.72A2.39,2.39,0,0,0,48.3,63a1.73,1.73,0,0,0,1.3.54,1.61,1.61,0,0,0,1-.3A2,2,0,0,0,51.24,62.29Zm-3.46-1.71h3.47a2.11,2.11,0,0,0-.4-1.18,1.62,1.62,0,0,0-1.31-.61,1.68,1.68,0,0,0-1.22.49A1.92,1.92,0,0,0,47.78,60.59Z" transform="translate(0 -1.56)" style="fill:#414141"/><path d="M53.64,64.3V58.08h.95V59a2.57,2.57,0,0,1,.67-.87,1.17,1.17,0,0,1,.68-.21,2.06,2.06,0,0,1,1.08.34l-.36,1a1.51,1.51,0,0,0-.77-.23,1,1,0,0,0-.62.21,1.13,1.13,0,0,0-.39.58A4.11,4.11,0,0,0,54.7,61V64.3Z" transform="translate(0 -1.56)" style="fill:#414141"/><path d="M60.73,61.54l1.07-.09a2.37,2.37,0,0,0,.35,1.06,1.94,1.94,0,0,0,.86.67,3.27,3.27,0,0,0,1.32.25,3.16,3.16,0,0,0,1.15-.19,1.59,1.59,0,0,0,.74-.53,1.23,1.23,0,0,0,.24-.74,1.12,1.12,0,0,0-.23-.71,1.74,1.74,0,0,0-.77-.51,15.12,15.12,0,0,0-1.53-.42,7.81,7.81,0,0,1-1.66-.54,2.33,2.33,0,0,1-.92-.8,2,2,0,0,1-.3-1.07,2.18,2.18,0,0,1,.37-1.22,2.29,2.29,0,0,1,1.08-.86,4.09,4.09,0,0,1,1.58-.29,4.31,4.31,0,0,1,1.68.31,2.43,2.43,0,0,1,1.12.91,2.6,2.6,0,0,1,.42,1.35l-1.09.08A1.76,1.76,0,0,0,65.63,57a2.31,2.31,0,0,0-1.5-.42,2.4,2.4,0,0,0-1.5.38,1.13,1.13,0,0,0-.47.91,1,1,0,0,0,.33.76,4.53,4.53,0,0,0,1.71.61,11.34,11.34,0,0,1,1.9.55,2.6,2.6,0,0,1,1.11.88,2.13,2.13,0,0,1,.36,1.22,2.34,2.34,0,0,1-.39,1.29,2.58,2.58,0,0,1-1.13.94,3.93,3.93,0,0,1-1.66.34,4.94,4.94,0,0,1-2-.34,2.74,2.74,0,0,1-1.24-1A2.9,2.9,0,0,1,60.73,61.54Z" transform="translate(0 -1.56)" style="fill:#414141"/><path d="M73.07,64.3v-.91a2.28,2.28,0,0,1-2,1.05,2.52,2.52,0,0,1-1-.21,1.69,1.69,0,0,1-.71-.53,2,2,0,0,1-.33-.78,5.36,5.36,0,0,1-.06-1V58.08H70v3.45a6.15,6.15,0,0,0,.06,1.11,1.1,1.1,0,0,0,.42.65,1.31,1.31,0,0,0,.8.24,1.74,1.74,0,0,0,.89-.24,1.35,1.35,0,0,0,.59-.66A3.32,3.32,0,0,0,73,61.41V58.08H74V64.3Z" transform="translate(0 -1.56)" style="fill:#414141"/><path d="M76.63,64.3h-1V55.71h1.05v3.06a2.09,2.09,0,0,1,1.71-.84,2.61,2.61,0,0,1,1.09.23,2.22,2.22,0,0,1,.84.65,3.14,3.14,0,0,1,.52,1,4.17,4.17,0,0,1,.19,1.27,3.55,3.55,0,0,1-.79,2.47,2.47,2.47,0,0,1-1.9.87,2,2,0,0,1-1.73-.92Zm0-3.16a3.23,3.23,0,0,0,.3,1.62,1.51,1.51,0,0,0,2.54.21,2.73,2.73,0,0,0,.5-1.79,2.78,2.78,0,0,0-.48-1.8,1.47,1.47,0,0,0-1.17-.58,1.52,1.52,0,0,0-1.2.6A2.64,2.64,0,0,0,76.62,61.14Z" transform="translate(0 -1.56)" style="fill:#414141"/><path d="M86,64.3V55.71h1.14V64.3Z" transform="translate(0 -1.56)" style="fill:#414141"/><path d="M91.31,63.35l.15.93a3.91,3.91,0,0,1-.8.09,1.8,1.8,0,0,1-.89-.18,1,1,0,0,1-.45-.48,3.78,3.78,0,0,1-.13-1.25V58.9h-.77v-.82h.77V56.53l1-.63v2.17h1.06v.82H90.25v3.64a1.84,1.84,0,0,0,.06.58.44.44,0,0,0,.18.21.7.7,0,0,0,.36.08A3.43,3.43,0,0,0,91.31,63.35Z" transform="translate(0 -1.56)" style="fill:#414141"/><path d="M96.6,62.29l1.09.13a2.66,2.66,0,0,1-1,1.48,3.24,3.24,0,0,1-3.95-.31,3.29,3.29,0,0,1-.8-2.36,3.44,3.44,0,0,1,.81-2.44,2.74,2.74,0,0,1,2.1-.87,2.66,2.66,0,0,1,2,.85,3.38,3.38,0,0,1,.79,2.39q0,.09,0,.28H93.08A2.39,2.39,0,0,0,93.66,63a1.73,1.73,0,0,0,1.3.54,1.61,1.61,0,0,0,1-.3A2,2,0,0,0,96.6,62.29Zm-3.46-1.71h3.47a2.11,2.11,0,0,0-.4-1.18,1.62,1.62,0,0,0-1.31-.61,1.68,1.68,0,0,0-1.22.49A1.92,1.92,0,0,0,93.13,60.59Z" transform="translate(0 -1.56)" style="fill:#414141"/><path d="M99,64.3V58.08H100v.87a2.22,2.22,0,0,1,.78-.74,2.19,2.19,0,0,1,1.11-.28,2,2,0,0,1,1.13.29,1.54,1.54,0,0,1,.62.8,2.23,2.23,0,0,1,1.92-1.09,1.89,1.89,0,0,1,1.42.51,2.19,2.19,0,0,1,.5,1.58V64.3h-1V60.38a2.89,2.89,0,0,0-.1-.91.88.88,0,0,0-.37-.45,1.16,1.16,0,0,0-.63-.17,1.47,1.47,0,0,0-1.09.44,1.92,1.92,0,0,0-.43,1.4V64.3h-1.05v-4a1.78,1.78,0,0,0-.26-1.05,1,1,0,0,0-.84-.35,1.53,1.53,0,0,0-.82.23,1.33,1.33,0,0,0-.55.69,3.86,3.86,0,0,0-.17,1.3V64.3Z" transform="translate(0 -1.56)" style="fill:#414141"/><path d="M14.81,90.3l3.3-8.59h1.22l3.52,8.59H21.56l-1-2.6H17L16,90.3Zm2.48-3.53H20.2l-.9-2.38q-.41-1.08-.61-1.78a11,11,0,0,1-.46,1.64Z" transform="translate(0 -1.56)" style="fill:#fff"/><path d="M26,87.54l1.07-.09a2.37,2.37,0,0,0,.35,1.06,1.94,1.94,0,0,0,.86.67,3.27,3.27,0,0,0,1.32.25,3.16,3.16,0,0,0,1.15-.19,1.59,1.59,0,0,0,.74-.53,1.23,1.23,0,0,0,.24-.74,1.12,1.12,0,0,0-.23-.71,1.74,1.74,0,0,0-.77-.51,15.12,15.12,0,0,0-1.53-.42,7.81,7.81,0,0,1-1.66-.54,2.33,2.33,0,0,1-.92-.8,2,2,0,0,1-.3-1.07,2.18,2.18,0,0,1,.37-1.22,2.29,2.29,0,0,1,1.08-.86,4.09,4.09,0,0,1,1.58-.29,4.31,4.31,0,0,1,1.68.31,2.43,2.43,0,0,1,1.12.91,2.6,2.6,0,0,1,.42,1.35l-1.09.08A1.76,1.76,0,0,0,30.94,83a2.31,2.31,0,0,0-1.5-.42,2.4,2.4,0,0,0-1.5.38,1.13,1.13,0,0,0-.47.91,1,1,0,0,0,.33.76,4.53,4.53,0,0,0,1.71.61,11.34,11.34,0,0,1,1.9.55,2.6,2.6,0,0,1,1.11.88,2.13,2.13,0,0,1,.36,1.22,2.34,2.34,0,0,1-.39,1.29,2.58,2.58,0,0,1-1.13.94,3.93,3.93,0,0,1-1.66.34,4.94,4.94,0,0,1-2-.34,2.74,2.74,0,0,1-1.24-1A2.9,2.9,0,0,1,26,87.54Z" transform="translate(0 -1.56)" style="fill:#fff"/><path d="M38.38,90.3v-.91a2.28,2.28,0,0,1-2,1.05,2.52,2.52,0,0,1-1-.21,1.69,1.69,0,0,1-.71-.53,2,2,0,0,1-.33-.78,5.36,5.36,0,0,1-.06-1V84.08h1.05v3.45a6.15,6.15,0,0,0,.06,1.11,1.1,1.1,0,0,0,.42.65,1.31,1.31,0,0,0,.8.24,1.74,1.74,0,0,0,.89-.24,1.35,1.35,0,0,0,.59-.66,3.32,3.32,0,0,0,.17-1.22V84.08h1.05V90.3Z" transform="translate(0 -1.56)" style="fill:#fff"/><path d="M41.95,90.3H41V81.71H42v3.06a2.09,2.09,0,0,1,1.71-.84,2.61,2.61,0,0,1,1.09.23,2.22,2.22,0,0,1,.84.65,3.14,3.14,0,0,1,.52,1,4.17,4.17,0,0,1,.19,1.27,3.55,3.55,0,0,1-.79,2.47,2.47,2.47,0,0,1-1.9.87,2,2,0,0,1-1.73-.92Zm0-3.16a3.23,3.23,0,0,0,.3,1.62,1.51,1.51,0,0,0,2.54.21,2.73,2.73,0,0,0,.5-1.79,2.78,2.78,0,0,0-.48-1.8,1.47,1.47,0,0,0-1.17-.58,1.52,1.52,0,0,0-1.2.6A2.64,2.64,0,0,0,41.93,87.14Z" transform="translate(0 -1.56)" style="fill:#fff"/><path d="M51.31,90.3V81.71h1.14V90.3Z" transform="translate(0 -1.56)" style="fill:#fff"/><path d="M56.62,89.35l.15.93a3.91,3.91,0,0,1-.8.09,1.8,1.8,0,0,1-.89-.18,1,1,0,0,1-.45-.48,3.78,3.78,0,0,1-.13-1.25V84.9h-.77v-.82h.77V82.53l1-.63v2.17h1.06v.82H55.56v3.64a1.84,1.84,0,0,0,.06.58.44.44,0,0,0,.18.21.7.7,0,0,0,.36.08A3.43,3.43,0,0,0,56.62,89.35Z" transform="translate(0 -1.56)" style="fill:#fff"/><path d="M61.91,88.29l1.09.13a2.66,2.66,0,0,1-1,1.48,3.24,3.24,0,0,1-3.95-.31,3.29,3.29,0,0,1-.8-2.36,3.44,3.44,0,0,1,.81-2.44,2.74,2.74,0,0,1,2.1-.87,2.66,2.66,0,0,1,2,.85A3.38,3.38,0,0,1,63,87.17q0,.09,0,.28H58.39A2.39,2.39,0,0,0,59,89a1.73,1.73,0,0,0,1.3.54,1.61,1.61,0,0,0,1-.3A2,2,0,0,0,61.91,88.29Zm-3.46-1.71h3.47a2.11,2.11,0,0,0-.4-1.18,1.62,1.62,0,0,0-1.31-.61,1.68,1.68,0,0,0-1.22.49A1.92,1.92,0,0,0,58.45,86.59Z" transform="translate(0 -1.56)" style="fill:#fff"/><path d="M64.32,90.3V84.08h.94v.87a2.22,2.22,0,0,1,.78-.74,2.19,2.19,0,0,1,1.11-.28,2,2,0,0,1,1.13.29,1.54,1.54,0,0,1,.62.8,2.23,2.23,0,0,1,1.92-1.09,1.89,1.89,0,0,1,1.42.51,2.19,2.19,0,0,1,.5,1.58V90.3h-1V86.38a2.89,2.89,0,0,0-.1-.91.88.88,0,0,0-.37-.45,1.16,1.16,0,0,0-.63-.17,1.47,1.47,0,0,0-1.09.44,1.92,1.92,0,0,0-.43,1.4V90.3H68v-4a1.78,1.78,0,0,0-.26-1.05,1,1,0,0,0-.84-.35,1.53,1.53,0,0,0-.82.23,1.33,1.33,0,0,0-.55.69,3.86,3.86,0,0,0-.17,1.3V90.3Z" transform="translate(0 -1.56)" style="fill:#fff"/><path d="M77.61,92.69l-.12-1a2.35,2.35,0,0,0,.6.09,1.16,1.16,0,0,0,.56-.12,1,1,0,0,0,.35-.33,5.17,5.17,0,0,0,.32-.79l.09-.26-2.36-6.23h1.14l1.29,3.6q.25.69.45,1.44a14.19,14.19,0,0,1,.43-1.42l1.33-3.63h1.05L80.39,90.4a12.42,12.42,0,0,1-.59,1.41,2.08,2.08,0,0,1-.64.76,1.52,1.52,0,0,1-.87.24A2.11,2.11,0,0,1,77.61,92.69Z" transform="translate(0 -1.56)" style="fill:#fff"/><path d="M83.26,87.19a3.21,3.21,0,0,1,1-2.56,2.9,2.9,0,0,1,2-.69,2.79,2.79,0,0,1,2.1.84,3.2,3.2,0,0,1,.81,2.32A4.12,4.12,0,0,1,88.73,89a2.55,2.55,0,0,1-1,1.07,3.05,3.05,0,0,1-1.5.38,2.8,2.8,0,0,1-2.11-.84A3.35,3.35,0,0,1,83.26,87.19Zm1.08,0A2.65,2.65,0,0,0,84.87,89a1.74,1.74,0,0,0,2.62,0A2.71,2.71,0,0,0,88,87.15a2.57,2.57,0,0,0-.52-1.75,1.74,1.74,0,0,0-2.62,0A2.64,2.64,0,0,0,84.34,87.19Z" transform="translate(0 -1.56)" style="fill:#fff"/><path d="M94.41,90.3v-.91a2.28,2.28,0,0,1-2,1.05,2.52,2.52,0,0,1-1-.21,1.69,1.69,0,0,1-.71-.53,2,2,0,0,1-.33-.78,5.36,5.36,0,0,1-.06-1V84.08h1.05v3.45a6.15,6.15,0,0,0,.06,1.11,1.1,1.1,0,0,0,.42.65,1.31,1.31,0,0,0,.8.24,1.74,1.74,0,0,0,.89-.24,1.35,1.35,0,0,0,.59-.66,3.32,3.32,0,0,0,.17-1.22V84.08h1.05V90.3Z" transform="translate(0 -1.56)" style="fill:#fff"/><path d="M104.37,90.3v-.79a1.94,1.94,0,0,1-1.74.93,2.44,2.44,0,0,1-1.37-.41,2.7,2.7,0,0,1-1-1.15,4,4,0,0,1-.34-1.69,4.42,4.42,0,0,1,.31-1.69,2.45,2.45,0,0,1,.93-1.16,2.49,2.49,0,0,1,1.39-.4,2.08,2.08,0,0,1,1.72.86V81.71h1V90.3ZM101,87.19a2.7,2.7,0,0,0,.5,1.79,1.52,1.52,0,0,0,1.19.59,1.49,1.49,0,0,0,1.17-.57,2.61,2.61,0,0,0,.48-1.73,2.93,2.93,0,0,0-.49-1.87,1.51,1.51,0,0,0-1.21-.6,1.46,1.46,0,0,0-1.17.57A2.83,2.83,0,0,0,101,87.19Z" transform="translate(0 -1.56)" style="fill:#fff"/><path d="M107,82.92V81.71h1.05v1.21Zm0,7.38V84.08h1.05V90.3Z" transform="translate(0 -1.56)" style="fill:#fff"/><path d="M113.71,90.3v-.79a1.94,1.94,0,0,1-1.74.93A2.44,2.44,0,0,1,110.6,90a2.7,2.7,0,0,1-1-1.15,4,4,0,0,1-.34-1.69,4.42,4.42,0,0,1,.31-1.69,2.45,2.45,0,0,1,.93-1.16,2.49,2.49,0,0,1,1.39-.4,2.08,2.08,0,0,1,1.72.86V81.71h1V90.3Zm-3.33-3.11a2.7,2.7,0,0,0,.5,1.79,1.52,1.52,0,0,0,1.19.59,1.49,1.49,0,0,0,1.17-.57,2.61,2.61,0,0,0,.48-1.73,2.93,2.93,0,0,0-.49-1.87,1.51,1.51,0,0,0-1.21-.6,1.46,1.46,0,0,0-1.17.57A2.83,2.83,0,0,0,110.38,87.19Z" transform="translate(0 -1.56)" style="fill:#fff"/><path d="M116.35,90.3V84.08h.95V85a2.24,2.24,0,0,1,2-1,2.6,2.6,0,0,1,1,.2,1.63,1.63,0,0,1,.71.53,2,2,0,0,1,.33.78,6,6,0,0,1,.06,1V90.3h-1.05V86.51a2.84,2.84,0,0,0-.12-1,1,1,0,0,0-.44-.51,1.39,1.39,0,0,0-.74-.19,1.71,1.71,0,0,0-1.16.43,2.11,2.11,0,0,0-.49,1.62v3.4Z" transform="translate(0 -1.56)" style="fill:#fff"/><path d="M123,82.84V81.62h1.13v1a2.58,2.58,0,0,1-.18,1.13,1.6,1.6,0,0,1-.79.71l-.26-.42a.92.92,0,0,0,.47-.41,1.71,1.71,0,0,0,.17-.76Z" transform="translate(0 -1.56)" style="fill:#fff"/><path d="M128,89.35l.15.93a3.91,3.91,0,0,1-.8.09,1.8,1.8,0,0,1-.89-.18,1,1,0,0,1-.45-.48,3.78,3.78,0,0,1-.13-1.25V84.9h-.77v-.82h.77V82.53l1-.63v2.17H128v.82h-1.06v3.64a1.84,1.84,0,0,0,.06.58.44.44,0,0,0,.18.21.7.7,0,0,0,.36.08A3.43,3.43,0,0,0,128,89.35Z" transform="translate(0 -1.56)" style="fill:#fff"/><path d="M132.16,90.81l1,.15a1,1,0,0,0,.36.69,1.76,1.76,0,0,0,1.07.29,1.88,1.88,0,0,0,1.13-.29,1.44,1.44,0,0,0,.54-.82,6.74,6.74,0,0,0,.08-1.35,2.17,2.17,0,0,1-1.72.81,2.35,2.35,0,0,1-2-.93,3.57,3.57,0,0,1-.7-2.22,4.13,4.13,0,0,1,.32-1.64,2.58,2.58,0,0,1,.93-1.16,2.52,2.52,0,0,1,1.44-.41,2.23,2.23,0,0,1,1.82.89v-.75h1v5.38a5.1,5.1,0,0,1-.3,2.06,2.16,2.16,0,0,1-.94,1,3.25,3.25,0,0,1-1.58.35,3,3,0,0,1-1.8-.5A1.69,1.69,0,0,1,132.16,90.81Zm.87-3.74a2.7,2.7,0,0,0,.49,1.79,1.6,1.6,0,0,0,2.44,0,2.61,2.61,0,0,0,.49-1.75,2.55,2.55,0,0,0-.51-1.72,1.57,1.57,0,0,0-1.22-.58,1.52,1.52,0,0,0-1.2.57A2.54,2.54,0,0,0,133,87.08Z" transform="translate(0 -1.56)" style="fill:#fff"/><path d="M143.29,88.29l1.09.13a2.66,2.66,0,0,1-1,1.48,3.24,3.24,0,0,1-3.95-.31,3.29,3.29,0,0,1-.8-2.36,3.44,3.44,0,0,1,.81-2.44,2.74,2.74,0,0,1,2.1-.87,2.66,2.66,0,0,1,2,.85,3.38,3.38,0,0,1,.79,2.39q0,.09,0,.28h-4.64a2.39,2.39,0,0,0,.58,1.57,1.73,1.73,0,0,0,1.3.54,1.61,1.61,0,0,0,1-.3A2,2,0,0,0,143.29,88.29Zm-3.46-1.71h3.47a2.11,2.11,0,0,0-.4-1.18,1.62,1.62,0,0,0-1.31-.61,1.68,1.68,0,0,0-1.22.49A1.92,1.92,0,0,0,139.83,86.59Z" transform="translate(0 -1.56)" style="fill:#fff"/><path d="M148,89.35l.15.93a3.91,3.91,0,0,1-.8.09,1.8,1.8,0,0,1-.89-.18,1,1,0,0,1-.45-.48,3.78,3.78,0,0,1-.13-1.25V84.9h-.77v-.82h.77V82.53l1-.63v2.17H148v.82h-1.06v3.64a1.84,1.84,0,0,0,.06.58.44.44,0,0,0,.18.21.7.7,0,0,0,.36.08A3.43,3.43,0,0,0,148,89.35Z" transform="translate(0 -1.56)" style="fill:#fff"/><path d="M14.81,117.3l3.3-8.59h1.22l3.52,8.59H21.56l-1-2.6H17L16,117.3Zm2.48-3.53H20.2l-.9-2.38q-.41-1.08-.61-1.78a11,11,0,0,1-.46,1.64Z" transform="translate(0 -1.56)" style="fill:#414141"/><path d="M23.62,117.3v-6.22h.95V112a2.24,2.24,0,0,1,2-1,2.6,2.6,0,0,1,1,.2,1.63,1.63,0,0,1,.71.53,2,2,0,0,1,.33.78,6,6,0,0,1,.06,1v3.83H27.63v-3.79a2.84,2.84,0,0,0-.12-1,1,1,0,0,0-.44-.51,1.39,1.39,0,0,0-.74-.19,1.71,1.71,0,0,0-1.16.43,2.11,2.11,0,0,0-.49,1.62v3.4Z" transform="translate(0 -1.56)" style="fill:#414141"/><path d="M29.91,114.19a3.21,3.21,0,0,1,1-2.56,2.9,2.9,0,0,1,2-.69,2.79,2.79,0,0,1,2.1.84,3.2,3.2,0,0,1,.81,2.32,4.12,4.12,0,0,1-.36,1.89,2.55,2.55,0,0,1-1,1.07,3.05,3.05,0,0,1-1.5.38,2.8,2.8,0,0,1-2.11-.84A3.35,3.35,0,0,1,29.91,114.19Zm1.08,0a2.65,2.65,0,0,0,.52,1.79,1.74,1.74,0,0,0,2.62,0,2.71,2.71,0,0,0,.52-1.82,2.57,2.57,0,0,0-.52-1.75,1.74,1.74,0,0,0-2.62,0A2.64,2.64,0,0,0,31,114.19Z" transform="translate(0 -1.56)" style="fill:#414141"/><path d="M39.27,116.35l.15.93a3.91,3.91,0,0,1-.8.09,1.8,1.8,0,0,1-.89-.18,1,1,0,0,1-.45-.48,3.78,3.78,0,0,1-.13-1.25V111.9h-.77v-.82h.77v-1.54l1-.63v2.17h1.06v.82H38.21v3.64a1.84,1.84,0,0,0,.06.58.44.44,0,0,0,.18.21.7.7,0,0,0,.36.08A3.43,3.43,0,0,0,39.27,116.35Z" transform="translate(0 -1.56)" style="fill:#414141"/><path d="M40.31,117.3v-8.59h1.05v3.08a2.36,2.36,0,0,1,1.86-.86,2.51,2.51,0,0,1,1.2.27,1.6,1.6,0,0,1,.73.75,3.47,3.47,0,0,1,.22,1.39v3.94H44.32v-3.94A1.63,1.63,0,0,0,44,112.2a1.27,1.27,0,0,0-1-.36,1.71,1.71,0,0,0-.88.24,1.37,1.37,0,0,0-.59.66,3,3,0,0,0-.18,1.15v3.4Z" transform="translate(0 -1.56)" style="fill:#414141"/><path d="M51.24,115.29l1.09.13a2.66,2.66,0,0,1-1,1.48,3.24,3.24,0,0,1-3.95-.31,3.29,3.29,0,0,1-.8-2.36,3.44,3.44,0,0,1,.81-2.44,2.74,2.74,0,0,1,2.1-.87,2.66,2.66,0,0,1,2,.85,3.38,3.38,0,0,1,.79,2.39q0,.09,0,.28H47.72A2.39,2.39,0,0,0,48.3,116a1.73,1.73,0,0,0,1.3.54,1.61,1.61,0,0,0,1-.3A2,2,0,0,0,51.24,115.29Zm-3.46-1.71h3.47a2.11,2.11,0,0,0-.4-1.18,1.62,1.62,0,0,0-1.31-.61,1.68,1.68,0,0,0-1.22.49A1.92,1.92,0,0,0,47.78,113.59Z" transform="translate(0 -1.56)" style="fill:#414141"/><path d="M53.64,117.3v-6.22h.95V112a2.57,2.57,0,0,1,.67-.87,1.17,1.17,0,0,1,.68-.21,2.06,2.06,0,0,1,1.08.34l-.36,1a1.51,1.51,0,0,0-.77-.23,1,1,0,0,0-.62.21,1.13,1.13,0,0,0-.39.58A4.11,4.11,0,0,0,54.7,114v3.26Z" transform="translate(0 -1.56)" style="fill:#414141"/><path d="M60.73,114.54l1.07-.09a2.37,2.37,0,0,0,.35,1.06,1.94,1.94,0,0,0,.86.67,3.27,3.27,0,0,0,1.32.25,3.16,3.16,0,0,0,1.15-.19,1.59,1.59,0,0,0,.74-.53,1.23,1.23,0,0,0,.24-.74,1.12,1.12,0,0,0-.23-.71,1.74,1.74,0,0,0-.77-.51,15.12,15.12,0,0,0-1.53-.42,7.81,7.81,0,0,1-1.66-.54,2.33,2.33,0,0,1-.92-.8,2,2,0,0,1-.3-1.07,2.18,2.18,0,0,1,.37-1.22,2.29,2.29,0,0,1,1.08-.86,4.09,4.09,0,0,1,1.58-.29,4.31,4.31,0,0,1,1.68.31,2.43,2.43,0,0,1,1.12.91,2.6,2.6,0,0,1,.42,1.35l-1.09.08a1.76,1.76,0,0,0-.59-1.23,2.31,2.31,0,0,0-1.5-.42,2.4,2.4,0,0,0-1.5.38,1.13,1.13,0,0,0-.47.91,1,1,0,0,0,.33.76,4.53,4.53,0,0,0,1.71.61,11.34,11.34,0,0,1,1.9.55,2.6,2.6,0,0,1,1.11.88,2.13,2.13,0,0,1,.36,1.22,2.34,2.34,0,0,1-.39,1.29,2.58,2.58,0,0,1-1.13.94,3.93,3.93,0,0,1-1.66.34,4.94,4.94,0,0,1-2-.34,2.74,2.74,0,0,1-1.24-1A2.9,2.9,0,0,1,60.73,114.54Z" transform="translate(0 -1.56)" style="fill:#414141"/><path d="M73.07,117.3v-.91a2.28,2.28,0,0,1-2,1.05,2.52,2.52,0,0,1-1-.21,1.69,1.69,0,0,1-.71-.53,2,2,0,0,1-.33-.78,5.36,5.36,0,0,1-.06-1v-3.86H70v3.45a6.15,6.15,0,0,0,.06,1.11,1.1,1.1,0,0,0,.42.65,1.31,1.31,0,0,0,.8.24,1.74,1.74,0,0,0,.89-.24,1.35,1.35,0,0,0,.59-.66,3.32,3.32,0,0,0,.17-1.22v-3.33H74v6.22Z" transform="translate(0 -1.56)" style="fill:#414141"/><path d="M76.63,117.3h-1v-8.59h1.05v3.06a2.09,2.09,0,0,1,1.71-.84,2.61,2.61,0,0,1,1.09.23,2.22,2.22,0,0,1,.84.65,3.14,3.14,0,0,1,.52,1,4.17,4.17,0,0,1,.19,1.27,3.55,3.55,0,0,1-.79,2.47,2.47,2.47,0,0,1-1.9.87,2,2,0,0,1-1.73-.92Zm0-3.16a3.23,3.23,0,0,0,.3,1.62,1.51,1.51,0,0,0,2.54.21,2.73,2.73,0,0,0,.5-1.79,2.78,2.78,0,0,0-.48-1.8,1.47,1.47,0,0,0-1.17-.58,1.52,1.52,0,0,0-1.2.6A2.64,2.64,0,0,0,76.62,114.14Z" transform="translate(0 -1.56)" style="fill:#414141"/><path d="M86,117.3v-8.59h1.14v8.59Z" transform="translate(0 -1.56)" style="fill:#414141"/><path d="M91.31,116.35l.15.93a3.91,3.91,0,0,1-.8.09,1.8,1.8,0,0,1-.89-.18,1,1,0,0,1-.45-.48,3.78,3.78,0,0,1-.13-1.25V111.9h-.77v-.82h.77v-1.54l1-.63v2.17h1.06v.82H90.25v3.64a1.84,1.84,0,0,0,.06.58.44.44,0,0,0,.18.21.7.7,0,0,0,.36.08A3.43,3.43,0,0,0,91.31,116.35Z" transform="translate(0 -1.56)" style="fill:#414141"/><path d="M96.6,115.29l1.09.13a2.66,2.66,0,0,1-1,1.48,3.24,3.24,0,0,1-3.95-.31,3.29,3.29,0,0,1-.8-2.36,3.44,3.44,0,0,1,.81-2.44,2.74,2.74,0,0,1,2.1-.87,2.66,2.66,0,0,1,2,.85,3.38,3.38,0,0,1,.79,2.39q0,.09,0,.28H93.08a2.39,2.39,0,0,0,.58,1.57,1.73,1.73,0,0,0,1.3.54,1.61,1.61,0,0,0,1-.3A2,2,0,0,0,96.6,115.29Zm-3.46-1.71h3.47a2.11,2.11,0,0,0-.4-1.18,1.62,1.62,0,0,0-1.31-.61,1.68,1.68,0,0,0-1.22.49A1.92,1.92,0,0,0,93.13,113.59Z" transform="translate(0 -1.56)" style="fill:#414141"/><path d="M99,117.3v-6.22H100v.87a2.22,2.22,0,0,1,.78-.74,2.19,2.19,0,0,1,1.11-.28,2,2,0,0,1,1.13.29,1.54,1.54,0,0,1,.62.8,2.23,2.23,0,0,1,1.92-1.09,1.89,1.89,0,0,1,1.42.51,2.19,2.19,0,0,1,.5,1.58v4.27h-1v-3.92a2.89,2.89,0,0,0-.1-.91.88.88,0,0,0-.37-.45,1.16,1.16,0,0,0-.63-.17,1.47,1.47,0,0,0-1.09.44,1.92,1.92,0,0,0-.43,1.4v3.62h-1.05v-4a1.78,1.78,0,0,0-.26-1.05,1,1,0,0,0-.84-.35,1.53,1.53,0,0,0-.82.23,1.33,1.33,0,0,0-.55.69,3.86,3.86,0,0,0-.17,1.3v3.23Z" transform="translate(0 -1.56)" style="fill:#414141"/><path d="M14.81,143.3l3.3-8.59h1.22l3.52,8.59H21.56l-1-2.6H17L16,143.3Zm2.48-3.53H20.2l-.9-2.38q-.41-1.08-.61-1.78a11,11,0,0,1-.46,1.64Z" transform="translate(0 -1.56)" style="fill:#c1c5ca"/><path d="M26,140.54l1.07-.09a2.37,2.37,0,0,0,.35,1.06,1.94,1.94,0,0,0,.86.67,3.27,3.27,0,0,0,1.32.25,3.16,3.16,0,0,0,1.15-.19,1.59,1.59,0,0,0,.74-.53,1.23,1.23,0,0,0,.24-.74,1.12,1.12,0,0,0-.23-.71,1.74,1.74,0,0,0-.77-.51,15.12,15.12,0,0,0-1.53-.42,7.81,7.81,0,0,1-1.66-.54,2.33,2.33,0,0,1-.92-.8,2,2,0,0,1-.3-1.07,2.18,2.18,0,0,1,.37-1.22,2.29,2.29,0,0,1,1.08-.86,4.09,4.09,0,0,1,1.58-.29,4.31,4.31,0,0,1,1.68.31,2.43,2.43,0,0,1,1.12.91,2.6,2.6,0,0,1,.42,1.35l-1.09.08a1.76,1.76,0,0,0-.59-1.23,2.31,2.31,0,0,0-1.5-.42,2.4,2.4,0,0,0-1.5.38,1.13,1.13,0,0,0-.47.91,1,1,0,0,0,.33.76,4.53,4.53,0,0,0,1.71.61,11.34,11.34,0,0,1,1.9.55,2.6,2.6,0,0,1,1.11.88,2.13,2.13,0,0,1,.36,1.22,2.34,2.34,0,0,1-.39,1.29,2.58,2.58,0,0,1-1.13.94,3.93,3.93,0,0,1-1.66.34,4.94,4.94,0,0,1-2-.34,2.74,2.74,0,0,1-1.24-1A2.9,2.9,0,0,1,26,140.54Z" transform="translate(0 -1.56)" style="fill:#c1c5ca"/><path d="M38.38,143.3v-.91a2.28,2.28,0,0,1-2,1.05,2.52,2.52,0,0,1-1-.21,1.69,1.69,0,0,1-.71-.53,2,2,0,0,1-.33-.78,5.36,5.36,0,0,1-.06-1v-3.86h1.05v3.45a6.15,6.15,0,0,0,.06,1.11,1.1,1.1,0,0,0,.42.65,1.31,1.31,0,0,0,.8.24,1.74,1.74,0,0,0,.89-.24,1.35,1.35,0,0,0,.59-.66,3.32,3.32,0,0,0,.17-1.22v-3.33h1.05v6.22Z" transform="translate(0 -1.56)" style="fill:#c1c5ca"/><path d="M41.95,143.3H41v-8.59H42v3.06a2.09,2.09,0,0,1,1.71-.84,2.61,2.61,0,0,1,1.09.23,2.22,2.22,0,0,1,.84.65,3.14,3.14,0,0,1,.52,1,4.17,4.17,0,0,1,.19,1.27,3.55,3.55,0,0,1-.79,2.47,2.47,2.47,0,0,1-1.9.87,2,2,0,0,1-1.73-.92Zm0-3.16a3.23,3.23,0,0,0,.3,1.62,1.51,1.51,0,0,0,2.54.21,2.73,2.73,0,0,0,.5-1.79,2.78,2.78,0,0,0-.48-1.8,1.47,1.47,0,0,0-1.17-.58,1.52,1.52,0,0,0-1.2.6A2.64,2.64,0,0,0,41.93,140.14Z" transform="translate(0 -1.56)" style="fill:#c1c5ca"/><path d="M51.31,143.3v-8.59h1.14v8.59Z" transform="translate(0 -1.56)" style="fill:#c1c5ca"/><path d="M56.62,142.35l.15.93a3.91,3.91,0,0,1-.8.09,1.8,1.8,0,0,1-.89-.18,1,1,0,0,1-.45-.48,3.78,3.78,0,0,1-.13-1.25V137.9h-.77v-.82h.77v-1.54l1-.63v2.17h1.06v.82H55.56v3.64a1.84,1.84,0,0,0,.06.58.44.44,0,0,0,.18.21.7.7,0,0,0,.36.08A3.43,3.43,0,0,0,56.62,142.35Z" transform="translate(0 -1.56)" style="fill:#c1c5ca"/><path d="M61.91,141.29l1.09.13a2.66,2.66,0,0,1-1,1.48,3.24,3.24,0,0,1-3.95-.31,3.29,3.29,0,0,1-.8-2.36,3.44,3.44,0,0,1,.81-2.44,2.74,2.74,0,0,1,2.1-.87,2.66,2.66,0,0,1,2,.85,3.38,3.38,0,0,1,.79,2.39q0,.09,0,.28H58.39A2.39,2.39,0,0,0,59,142a1.73,1.73,0,0,0,1.3.54,1.61,1.61,0,0,0,1-.3A2,2,0,0,0,61.91,141.29Zm-3.46-1.71h3.47a2.11,2.11,0,0,0-.4-1.18,1.62,1.62,0,0,0-1.31-.61,1.68,1.68,0,0,0-1.22.49A1.92,1.92,0,0,0,58.45,139.59Z" transform="translate(0 -1.56)" style="fill:#c1c5ca"/><path d="M64.32,143.3v-6.22h.94v.87a2.22,2.22,0,0,1,.78-.74,2.19,2.19,0,0,1,1.11-.28,2,2,0,0,1,1.13.29,1.54,1.54,0,0,1,.62.8,2.23,2.23,0,0,1,1.92-1.09,1.89,1.89,0,0,1,1.42.51,2.19,2.19,0,0,1,.5,1.58v4.27h-1v-3.92a2.89,2.89,0,0,0-.1-.91.88.88,0,0,0-.37-.45,1.16,1.16,0,0,0-.63-.17,1.47,1.47,0,0,0-1.09.44,1.92,1.92,0,0,0-.43,1.4v3.62H68v-4a1.78,1.78,0,0,0-.26-1.05,1,1,0,0,0-.84-.35,1.53,1.53,0,0,0-.82.23,1.33,1.33,0,0,0-.55.69,3.86,3.86,0,0,0-.17,1.3v3.23Z" transform="translate(0 -1.56)" style="fill:#c1c5ca"/><path d="M77.61,145.69l-.12-1a2.35,2.35,0,0,0,.6.09,1.16,1.16,0,0,0,.56-.12,1,1,0,0,0,.35-.33,5.17,5.17,0,0,0,.32-.79l.09-.26-2.36-6.23h1.14l1.29,3.6q.25.69.45,1.44a14.19,14.19,0,0,1,.43-1.42l1.33-3.63h1.05l-2.37,6.33a12.42,12.42,0,0,1-.59,1.41,2.08,2.08,0,0,1-.64.76,1.52,1.52,0,0,1-.87.24A2.11,2.11,0,0,1,77.61,145.69Z" transform="translate(0 -1.56)" style="fill:#c1c5ca"/><path d="M83.26,140.19a3.21,3.21,0,0,1,1-2.56,2.9,2.9,0,0,1,2-.69,2.79,2.79,0,0,1,2.1.84,3.2,3.2,0,0,1,.81,2.32,4.12,4.12,0,0,1-.36,1.89,2.55,2.55,0,0,1-1,1.07,3.05,3.05,0,0,1-1.5.38,2.8,2.8,0,0,1-2.11-.84A3.35,3.35,0,0,1,83.26,140.19Zm1.08,0a2.65,2.65,0,0,0,.52,1.79,1.74,1.74,0,0,0,2.62,0,2.71,2.71,0,0,0,.52-1.82,2.57,2.57,0,0,0-.52-1.75,1.74,1.74,0,0,0-2.62,0A2.64,2.64,0,0,0,84.34,140.19Z" transform="translate(0 -1.56)" style="fill:#c1c5ca"/><path d="M94.41,143.3v-.91a2.28,2.28,0,0,1-2,1.05,2.52,2.52,0,0,1-1-.21,1.69,1.69,0,0,1-.71-.53,2,2,0,0,1-.33-.78,5.36,5.36,0,0,1-.06-1v-3.86h1.05v3.45a6.15,6.15,0,0,0,.06,1.11,1.1,1.1,0,0,0,.42.65,1.31,1.31,0,0,0,.8.24,1.74,1.74,0,0,0,.89-.24,1.35,1.35,0,0,0,.59-.66,3.32,3.32,0,0,0,.17-1.22v-3.33h1.05v6.22Z" transform="translate(0 -1.56)" style="fill:#c1c5ca"/><path d="M104.37,143.3v-.79a1.94,1.94,0,0,1-1.74.93,2.44,2.44,0,0,1-1.37-.41,2.7,2.7,0,0,1-1-1.15,4,4,0,0,1-.34-1.69,4.42,4.42,0,0,1,.31-1.69,2.45,2.45,0,0,1,.93-1.16,2.49,2.49,0,0,1,1.39-.4,2.08,2.08,0,0,1,1.72.86v-3.08h1v8.59ZM101,140.19a2.7,2.7,0,0,0,.5,1.79,1.52,1.52,0,0,0,1.19.59,1.49,1.49,0,0,0,1.17-.57,2.61,2.61,0,0,0,.48-1.73,2.93,2.93,0,0,0-.49-1.87,1.51,1.51,0,0,0-1.21-.6,1.46,1.46,0,0,0-1.17.57A2.83,2.83,0,0,0,101,140.19Z" transform="translate(0 -1.56)" style="fill:#c1c5ca"/><path d="M107,135.92v-1.21h1.05v1.21Zm0,7.38v-6.22h1.05v6.22Z" transform="translate(0 -1.56)" style="fill:#c1c5ca"/><path d="M113.71,143.3v-.79a1.94,1.94,0,0,1-1.74.93,2.44,2.44,0,0,1-1.37-.41,2.7,2.7,0,0,1-1-1.15,4,4,0,0,1-.34-1.69,4.42,4.42,0,0,1,.31-1.69,2.45,2.45,0,0,1,.93-1.16,2.49,2.49,0,0,1,1.39-.4,2.08,2.08,0,0,1,1.72.86v-3.08h1v8.59Zm-3.33-3.11a2.7,2.7,0,0,0,.5,1.79,1.52,1.52,0,0,0,1.19.59,1.49,1.49,0,0,0,1.17-.57,2.61,2.61,0,0,0,.48-1.73,2.93,2.93,0,0,0-.49-1.87,1.51,1.51,0,0,0-1.21-.6,1.46,1.46,0,0,0-1.17.57A2.83,2.83,0,0,0,110.38,140.19Z" transform="translate(0 -1.56)" style="fill:#c1c5ca"/><path d="M116.35,143.3v-6.22h.95V138a2.24,2.24,0,0,1,2-1,2.6,2.6,0,0,1,1,.2,1.63,1.63,0,0,1,.71.53,2,2,0,0,1,.33.78,6,6,0,0,1,.06,1v3.83h-1.05v-3.79a2.84,2.84,0,0,0-.12-1,1,1,0,0,0-.44-.51,1.39,1.39,0,0,0-.74-.19,1.71,1.71,0,0,0-1.16.43,2.11,2.11,0,0,0-.49,1.62v3.4Z" transform="translate(0 -1.56)" style="fill:#c1c5ca"/><path d="M123,135.84v-1.22h1.13v1a2.58,2.58,0,0,1-.18,1.13,1.6,1.6,0,0,1-.79.71l-.26-.42a.92.92,0,0,0,.47-.41,1.71,1.71,0,0,0,.17-.76Z" transform="translate(0 -1.56)" style="fill:#c1c5ca"/><path d="M128,142.35l.15.93a3.91,3.91,0,0,1-.8.09,1.8,1.8,0,0,1-.89-.18,1,1,0,0,1-.45-.48,3.78,3.78,0,0,1-.13-1.25V137.9h-.77v-.82h.77v-1.54l1-.63v2.17H128v.82h-1.06v3.64a1.84,1.84,0,0,0,.06.58.44.44,0,0,0,.18.21.7.7,0,0,0,.36.08A3.43,3.43,0,0,0,128,142.35Z" transform="translate(0 -1.56)" style="fill:#c1c5ca"/><path d="M132.16,143.81l1,.15a1,1,0,0,0,.36.69,1.76,1.76,0,0,0,1.07.29,1.88,1.88,0,0,0,1.13-.29,1.44,1.44,0,0,0,.54-.82,6.74,6.74,0,0,0,.08-1.35,2.17,2.17,0,0,1-1.72.81,2.35,2.35,0,0,1-2-.93,3.57,3.57,0,0,1-.7-2.22,4.13,4.13,0,0,1,.32-1.64,2.58,2.58,0,0,1,.93-1.16,2.52,2.52,0,0,1,1.44-.41,2.23,2.23,0,0,1,1.82.89v-.75h1v5.38a5.1,5.1,0,0,1-.3,2.06,2.16,2.16,0,0,1-.94,1,3.25,3.25,0,0,1-1.58.35,3,3,0,0,1-1.8-.5A1.69,1.69,0,0,1,132.16,143.81Zm.87-3.74a2.7,2.7,0,0,0,.49,1.79,1.6,1.6,0,0,0,2.44,0,2.61,2.61,0,0,0,.49-1.75,2.55,2.55,0,0,0-.51-1.72,1.57,1.57,0,0,0-1.22-.58,1.52,1.52,0,0,0-1.2.57A2.54,2.54,0,0,0,133,140.08Z" transform="translate(0 -1.56)" style="fill:#c1c5ca"/><path d="M143.29,141.29l1.09.13a2.66,2.66,0,0,1-1,1.48,3.24,3.24,0,0,1-3.95-.31,3.29,3.29,0,0,1-.8-2.36,3.44,3.44,0,0,1,.81-2.44,2.74,2.74,0,0,1,2.1-.87,2.66,2.66,0,0,1,2,.85,3.38,3.38,0,0,1,.79,2.39q0,.09,0,.28h-4.64a2.39,2.39,0,0,0,.58,1.57,1.73,1.73,0,0,0,1.3.54,1.61,1.61,0,0,0,1-.3A2,2,0,0,0,143.29,141.29Zm-3.46-1.71h3.47a2.11,2.11,0,0,0-.4-1.18,1.62,1.62,0,0,0-1.31-.61,1.68,1.68,0,0,0-1.22.49A1.92,1.92,0,0,0,139.83,139.59Z" transform="translate(0 -1.56)" style="fill:#c1c5ca"/><path d="M148,142.35l.15.93a3.91,3.91,0,0,1-.8.09,1.8,1.8,0,0,1-.89-.18,1,1,0,0,1-.45-.48,3.78,3.78,0,0,1-.13-1.25V137.9h-.77v-.82h.77v-1.54l1-.63v2.17H148v.82h-1.06v3.64a1.84,1.84,0,0,0,.06.58.44.44,0,0,0,.18.21.7.7,0,0,0,.36.08A3.43,3.43,0,0,0,148,142.35Z" transform="translate(0 -1.56)" style="fill:#c1c5ca"/></g></g></svg>