<svg xmlns="http://www.w3.org/2000/svg" viewBox="0 0 363.5 24"><defs><style>.cls-1,.cls-9{fill:#fff;}.cls-2{fill:#c1c5ca;}.cls-3{fill:#009697;}.cls-3,.cls-5{stroke:#c1c5ca;stroke-miterlimit:10;}.cls-4{fill:#e6e7e8;}.cls-5{fill:none;}.cls-6{opacity:0.9;}.cls-7{fill:#414141;}.cls-10,.cls-7,.cls-9{opacity:0.9;}.cls-8{fill:#acb0b5;}</style></defs><title>Pagination example</title><g id="Layer_2" data-name="Layer 2"><g id="Layer_1-2" data-name="Layer 1"><rect class="cls-1" x="0.5" y="0.5" width="362.5" height="23" rx="1.5" ry="1.5"/><path class="cls-2" d="M361.5,1a1,1,0,0,1,1,1V22a1,1,0,0,1-1,1H2a1,1,0,0,1-1-1V2A1,1,0,0,1,2,1H361.5m0-1H2A2,2,0,0,0,0,2V22a2,2,0,0,0,2,2H361.5a2,2,0,0,0,2-2V2a2,2,0,0,0-2-2Z"/><rect class="cls-3" x="76.6" y="0.83" width="25.5" height="22.67"/><rect class="cls-4" x="154.6" y="0.83" width="25.5" height="22.67"/><line class="cls-5" x1="24.1" y1="0.49" x2="24.1" y2="23.49"/><g class="cls-6"><path class="cls-7" d="M64.23,16H63.18V9.28a5.44,5.44,0,0,1-1,.73,7.09,7.09,0,0,1-1.11.54v-1a6.37,6.37,0,0,0,1.55-1,4,4,0,0,0,.94-1.15h.68Z"/></g><path class="cls-8" d="M14.25,11.47l3.59-3.59a1.11,1.11,0,0,0,0-1.57l-.39-.39a1.11,1.11,0,0,0-1.57,0l-4.7,4.7a1.11,1.11,0,0,0-.32.85,1.1,1.1,0,0,0,.32.84l4.7,4.7a1.11,1.11,0,0,0,1.57,0l.39-.39a1.11,1.11,0,0,0,0-1.57Z"/><path class="cls-8" d="M8.74,16.75c0,.42-.24.75-.54.75H6.57c-.3,0-.54-.34-.54-.75V6.25c0-.42.24-.75.54-.75H8.2c.3,0,.54.34.54.75Z"/><line class="cls-5" x1="50.1" y1="0.49" x2="50.1" y2="23.49"/><line class="cls-5" x1="76.1" y1="0.49" x2="76.1" y2="23.49"/><line class="cls-5" x1="102.1" y1="0.49" x2="102.1" y2="23.49"/><g class="cls-6"><path class="cls-9" d="M91.8,15v1H86.12a1.87,1.87,0,0,1,.12-.73,3.88,3.88,0,0,1,.7-1.14,10.86,10.86,0,0,1,1.38-1.3A11.7,11.7,0,0,0,90.21,11a2.18,2.18,0,0,0,.49-1.27,1.41,1.41,0,0,0-.45-1.06,1.62,1.62,0,0,0-1.17-.43,1.65,1.65,0,0,0-1.22.46A1.73,1.73,0,0,0,87.41,10l-1.08-.11A2.67,2.67,0,0,1,87.16,8a2.86,2.86,0,0,1,2-.64,2.72,2.72,0,0,1,2,.69,2.25,2.25,0,0,1,.72,1.7,2.58,2.58,0,0,1-.21,1,3.93,3.93,0,0,1-.7,1,17.1,17.1,0,0,1-1.63,1.51q-.95.8-1.22,1.08a3.46,3.46,0,0,0-.45.57Z"/></g><line class="cls-5" x1="128.1" y1="0.49" x2="128.1" y2="23.49"/><g class="cls-6"><path class="cls-7" d="M112.26,13.73l1.05-.14a2.33,2.33,0,0,0,.62,1.29,1.52,1.52,0,0,0,1.06.39,1.71,1.71,0,0,0,1.26-.52,1.74,1.74,0,0,0,.51-1.28,1.62,1.62,0,0,0-.47-1.2,1.64,1.64,0,0,0-1.21-.47,3,3,0,0,0-.74.12l.12-.93h.17a2.17,2.17,0,0,0,1.21-.35,1.2,1.2,0,0,0,.54-1.08,1.28,1.28,0,0,0-.39-1,1.39,1.39,0,0,0-1-.38,1.44,1.44,0,0,0-1,.39,1.94,1.94,0,0,0-.53,1.16l-1.05-.19A2.71,2.71,0,0,1,113.25,8,2.54,2.54,0,0,1,115,7.38a2.81,2.81,0,0,1,1.29.3,2.18,2.18,0,0,1,.91.82,2.11,2.11,0,0,1,.31,1.11,1.81,1.81,0,0,1-.3,1,2,2,0,0,1-.88.73,2,2,0,0,1,1.18.73,2.22,2.22,0,0,1,.42,1.38,2.54,2.54,0,0,1-.82,1.91,2.88,2.88,0,0,1-2.07.78,2.7,2.7,0,0,1-1.88-.67A2.61,2.61,0,0,1,112.26,13.73Z"/></g><g class="cls-6"><path class="cls-7" d="M141.64,16V13.94h-3.73V13l3.92-5.57h.86V13h1.16v1h-1.16V16Zm0-3V9.1L138.95,13Z"/></g><line class="cls-5" x1="154.1" y1="0.49" x2="154.1" y2="23.49"/><g class="cls-10"><path class="cls-7" d="M164.26,13.75l1.11-.09a2,2,0,0,0,.57,1.22,1.55,1.55,0,0,0,1.08.41,1.68,1.68,0,0,0,1.29-.57,2.16,2.16,0,0,0,.53-1.52,2,2,0,0,0-.51-1.42,1.77,1.77,0,0,0-1.33-.52,1.84,1.84,0,0,0-.92.23,1.78,1.78,0,0,0-.64.6l-1-.13.83-4.41h4.27v1h-3.43l-.46,2.31a2.8,2.8,0,0,1,1.62-.54,2.57,2.57,0,0,1,1.9.78,2.72,2.72,0,0,1,.77,2,3.13,3.13,0,0,1-.68,2,2.72,2.72,0,0,1-2.26,1,2.78,2.78,0,0,1-1.91-.66A2.56,2.56,0,0,1,164.26,13.75Z"/></g><line class="cls-5" x1="180.1" y1="0.49" x2="180.1" y2="23.49"/><line class="cls-5" x1="206.1" y1="0.49" x2="206.1" y2="23.49"/><g class="cls-6"><path class="cls-7" d="M195.73,9.51l-1,.08a2,2,0,0,0-.4-.9,1.4,1.4,0,0,0-1.05-.45,1.45,1.45,0,0,0-.88.28,2.4,2.4,0,0,0-.79,1.06,5.54,5.54,0,0,0-.3,2,2.44,2.44,0,0,1,.93-.86,2.51,2.51,0,0,1,1.15-.28,2.39,2.39,0,0,1,1.8.78,2.78,2.78,0,0,1,.74,2,3.31,3.31,0,0,1-.35,1.5,2.54,2.54,0,0,1-1,1.06,2.62,2.62,0,0,1-1.38.37,2.7,2.7,0,0,1-2.15-1,4.9,4.9,0,0,1-.83-3.2,5.73,5.73,0,0,1,.92-3.62,2.64,2.64,0,0,1,2.16-1,2.3,2.3,0,0,1,2.44,2.14Zm-4.31,3.7a2.45,2.45,0,0,0,.23,1,1.73,1.73,0,0,0,.65.76,1.62,1.62,0,0,0,.87.26,1.49,1.49,0,0,0,1.15-.54,2.12,2.12,0,0,0,.48-1.46,2,2,0,0,0-.47-1.4,1.56,1.56,0,0,0-1.2-.51,1.63,1.63,0,0,0-1.21.51A1.85,1.85,0,0,0,191.42,13.22Z"/></g><line class="cls-5" x1="232.1" y1="0.49" x2="232.1" y2="23.49"/><g class="cls-6"><path class="cls-7" d="M216.33,8.54v-1h5.56v.82a11.72,11.72,0,0,0-1.62,2.32,14.14,14.14,0,0,0-1.25,3,11.06,11.06,0,0,0-.4,2.36h-1.08a10.53,10.53,0,0,1,.4-2.45A12.86,12.86,0,0,1,219,10.78a11.88,11.88,0,0,1,1.51-2.25Z"/></g><line class="cls-5" x1="258.1" y1="0.49" x2="258.1" y2="23.49"/><g class="cls-6"><path class="cls-7" d="M243.88,11.34a2,2,0,0,1-1-.69,1.79,1.79,0,0,1-.32-1.07A2.09,2.09,0,0,1,243.27,8a2.83,2.83,0,0,1,3.6,0,2.11,2.11,0,0,1,.69,1.59,1.75,1.75,0,0,1-.31,1,2,2,0,0,1-1,.68,2.31,2.31,0,0,1,1.21.83,2.28,2.28,0,0,1,.41,1.37,2.47,2.47,0,0,1-.78,1.85,3.18,3.18,0,0,1-4.1,0,2.51,2.51,0,0,1-.78-1.88,2.27,2.27,0,0,1,.43-1.4A2.13,2.13,0,0,1,243.88,11.34Zm-.55,2.18a1.91,1.91,0,0,0,.21.87,1.51,1.51,0,0,0,.63.65,1.86,1.86,0,0,0,.91.23,1.7,1.7,0,0,0,1.25-.49,1.66,1.66,0,0,0,.49-1.24,1.69,1.69,0,0,0-.51-1.26,1.74,1.74,0,0,0-1.27-.5,1.68,1.68,0,0,0-1.72,1.72Zm.34-4a1.34,1.34,0,0,0,.39,1,1.39,1.39,0,0,0,1,.39,1.37,1.37,0,0,0,1-.38,1.27,1.27,0,0,0,.39-.94,1.31,1.31,0,0,0-.4-1,1.48,1.48,0,0,0-2,0A1.24,1.24,0,0,0,243.67,9.55Z"/></g><line class="cls-5" x1="284.1" y1="0.49" x2="284.1" y2="23.49"/><g class="cls-6"><path class="cls-7" d="M268.42,14l1-.09a1.76,1.76,0,0,0,.49,1,1.35,1.35,0,0,0,.93.32,1.61,1.61,0,0,0,.85-.22,1.81,1.81,0,0,0,.6-.59,3.5,3.5,0,0,0,.39-1,5.29,5.29,0,0,0,.16-1.29s0-.12,0-.21a2.42,2.42,0,0,1-.86.82,2.35,2.35,0,0,1-1.19.31,2.4,2.4,0,0,1-1.8-.77,2.83,2.83,0,0,1-.74-2,2.9,2.9,0,0,1,.77-2.1,2.57,2.57,0,0,1,1.93-.8,2.76,2.76,0,0,1,1.53.45,2.82,2.82,0,0,1,1.05,1.29,6.33,6.33,0,0,1,.36,2.42,7.83,7.83,0,0,1-.36,2.62,3.07,3.07,0,0,1-1.06,1.48,2.76,2.76,0,0,1-1.66.51A2.27,2.27,0,0,1,268.42,14Zm4.32-3.79a2.06,2.06,0,0,0-.48-1.44,1.52,1.52,0,0,0-1.16-.53,1.61,1.61,0,0,0-1.22.57,2.13,2.13,0,0,0-.52,1.49,1.84,1.84,0,0,0,.5,1.33,1.63,1.63,0,0,0,1.22.51,1.56,1.56,0,0,0,1.21-.51A2,2,0,0,0,272.73,10.22Z"/></g><line class="cls-5" x1="310.1" y1="0.49" x2="310.1" y2="23.49"/><g class="cls-6"><path class="cls-7" d="M294.89,16h-1.05V9.28a5.46,5.46,0,0,1-1,.73,7.08,7.08,0,0,1-1.11.54v-1a6.37,6.37,0,0,0,1.55-1,4,4,0,0,0,.94-1.15h.68Z"/><path class="cls-7" d="M297.6,11.76a7.86,7.86,0,0,1,.31-2.45,3.05,3.05,0,0,1,.93-1.43,2.38,2.38,0,0,1,1.56-.5,2.54,2.54,0,0,1,1.21.28,2.32,2.32,0,0,1,.86.8A4.31,4.31,0,0,1,303,9.73a8.48,8.48,0,0,1,.19,2,7.89,7.89,0,0,1-.31,2.44,3.05,3.05,0,0,1-.93,1.44,2.61,2.61,0,0,1-3.51-.38A5.66,5.66,0,0,1,297.6,11.76Zm1.08,0a5.39,5.39,0,0,0,.49,2.82,1.41,1.41,0,0,0,2.44,0,5.39,5.39,0,0,0,.5-2.81,5.38,5.38,0,0,0-.5-2.82,1.47,1.47,0,0,0-1.23-.7,1.35,1.35,0,0,0-1.16.62A5.45,5.45,0,0,0,298.68,11.76Z"/></g><line class="cls-5" x1="336.1" y1="0.49" x2="336.1" y2="23.49"/><path class="cls-8" d="M346.95,12.53l-3.59,3.59a1.11,1.11,0,0,0,0,1.57l.39.39a1.11,1.11,0,0,0,1.57,0l4.7-4.7a1.11,1.11,0,0,0,.32-.85,1.1,1.1,0,0,0-.32-.84L345.32,7a1.11,1.11,0,0,0-1.57,0l-.39.39a1.11,1.11,0,0,0,0,1.57Z"/><path class="cls-8" d="M352.46,7.25c0-.42.24-.75.54-.75h1.62c.3,0,.54.34.54.75V17.75c0,.42-.24.75-.54.75H353c-.3,0-.54-.34-.54-.75Z"/><path class="cls-8" d="M326.77,11.33a1.09,1.09,0,0,1,.21.32,1,1,0,0,1,.07.38,1,1,0,0,1-.07.38,1.07,1.07,0,0,1-.21.33l-5,5a.88.88,0,0,1-.31.22,1,1,0,0,1-.38.07.89.89,0,0,1-.37-.08,1,1,0,0,1-.31-.22l-.59-.57a1.07,1.07,0,0,1-.21-.33,1,1,0,0,1,0-.75.94.94,0,0,1,.21-.32L323.55,12,319.83,8.3a1.07,1.07,0,0,1-.21-.33,1,1,0,0,1,0-.75.94.94,0,0,1,.21-.32l.59-.59a.82.82,0,0,1,.3-.21A1,1,0,0,1,321.1,6a1,1,0,0,1,.38.07,1,1,0,0,1,.31.21Z"/><path class="cls-8" d="M33.83,12.74a1.09,1.09,0,0,1-.21-.32,1,1,0,0,1-.07-.38,1,1,0,0,1,.07-.37,1.07,1.07,0,0,1,.21-.33l5-5a.88.88,0,0,1,.31-.22A1,1,0,0,1,39.51,6a.89.89,0,0,1,.37.08,1,1,0,0,1,.31.22l.59.57a1.07,1.07,0,0,1,.21.33A1,1,0,0,1,41,8a.94.94,0,0,1-.21.32L37.06,12l3.71,3.74a1.07,1.07,0,0,1,.21.33,1,1,0,0,1,0,.75.94.94,0,0,1-.21.32l-.59.59a.82.82,0,0,1-.3.21,1,1,0,0,1-.37.07,1,1,0,0,1-.38-.07,1,1,0,0,1-.31-.21Z"/></g></g></svg>