<svg xmlns="http://www.w3.org/2000/svg" xmlns:xlink="http://www.w3.org/1999/xlink" viewBox="0 0 1367 767"><defs><radialGradient id="radial-gradient" cx="4354.59" cy="-490.05" r="58.91" gradientTransform="translate(-2113.67 269.56) scale(0.49)" gradientUnits="userSpaceOnUse"><stop offset="0" stop-color="#008e89"/><stop offset="1" stop-color="#06b14c"/></radialGradient><radialGradient id="radial-gradient-2" cx="4354.59" cy="-490.05" r="58.91" xlink:href="#radial-gradient"/><radialGradient id="radial-gradient-3" cx="4354.59" cy="-490.05" r="58.91" xlink:href="#radial-gradient"/><radialGradient id="radial-gradient-4" cx="4354.59" cy="-490.05" r="58.91" xlink:href="#radial-gradient"/><radialGradient id="radial-gradient-5" cx="4354.58" cy="-490.05" r="58.91" xlink:href="#radial-gradient"/><radialGradient id="radial-gradient-6" cx="4354.58" cy="-490.05" r="58.91" xlink:href="#radial-gradient"/><radialGradient id="radial-gradient-7" cx="4354.59" cy="-490.05" r="58.91" xlink:href="#radial-gradient"/><radialGradient id="radial-gradient-9" cx="4354.58" cy="-490.05" r="58.91" xlink:href="#radial-gradient"/><radialGradient id="radial-gradient-10" cx="4354.59" cy="-490.05" r="58.91" xlink:href="#radial-gradient"/><radialGradient id="radial-gradient-11" cx="4354.58" cy="-490.05" r="58.91" xlink:href="#radial-gradient"/><radialGradient id="radial-gradient-14" cx="4354.58" cy="-490.05" r="58.91" xlink:href="#radial-gradient"/><clipPath id="clip-path"><rect x="706" y="24" width="287" height="24" rx="2" ry="2" style="fill:#fff;stroke:#c1c5ca;stroke-miterlimit:10"/></clipPath><clipPath id="clip-path-2"><path d="M960.5,24.5h31a2,2,0,0,1,2,2v20a2,2,0,0,1-2,2h-31Z" style="fill:none"/></clipPath><radialGradient id="_.brand-gradient" cx="963.33" cy="29" r="32.55" gradientTransform="translate(1959 70) rotate(-180)" gradientUnits="userSpaceOnUse"><stop offset="0" stop-color="#00b140"/><stop offset="0.4" stop-color="#00b140"/><stop offset="1" stop-color="#008e89"/></radialGradient></defs><title>primary-nav</title><g id="Layer_2" data-name="Layer 2"><g id="Layer_1-2" data-name="Layer 1"><rect x="0.36" y="0.89" width="1365.14" height="89" style="fill:#fff"/><rect x="0.36" y="66.89" width="1365" height="24" style="fill:#84888d"/><path d="M90.78,83.62V75h3a7.18,7.18,0,0,1,1.53.12,2.91,2.91,0,0,1,1.26.62,3.49,3.49,0,0,1,1,1.47,5.76,5.76,0,0,1,.34,2A6,6,0,0,1,97.66,81a4.21,4.21,0,0,1-.59,1.25,3.11,3.11,0,0,1-.78.78,3.19,3.19,0,0,1-1,.43,5.85,5.85,0,0,1-1.38.15Zm1.14-1h1.83a4.45,4.45,0,0,0,1.33-.16,1.91,1.91,0,0,0,.77-.45,2.71,2.71,0,0,0,.63-1.09,5.31,5.31,0,0,0,.23-1.66,4,4,0,0,0-.44-2.07,2.23,2.23,0,0,0-1.08-1A4.44,4.44,0,0,0,93.72,76h-1.8Z" style="fill:#fff"/><path d="M99.47,83.62V75h6.21v1h-5.07v2.63h4.75v1h-4.75V82.6h5.27v1Z" style="fill:#fff"/><path d="M107.51,83.62V75h5.79v1h-4.66V78.7h4v1h-4v3.9Z" style="fill:#fff"/><path d="M113.18,83.62l3.3-8.59h1.22l3.52,8.59h-1.29l-1-2.6h-3.59l-.94,2.6Zm2.48-3.53h2.91l-.9-2.38q-.41-1.08-.61-1.78a11,11,0,0,1-.46,1.64Z" style="fill:#fff"/><path d="M127.76,75h1.14v5a5.87,5.87,0,0,1-.29,2.06,2.51,2.51,0,0,1-1.06,1.24,3.75,3.75,0,0,1-2,.48,4.12,4.12,0,0,1-2-.42,2.37,2.37,0,0,1-1.1-1.2,5.74,5.74,0,0,1-.33-2.15V75h1.14v5a4.83,4.83,0,0,0,.21,1.65,1.58,1.58,0,0,0,.71.82,2.48,2.48,0,0,0,1.24.29,2.37,2.37,0,0,0,1.79-.57,3.27,3.27,0,0,0,.53-2.19Z" style="fill:#fff"/><path d="M130.74,83.62V75h1.14V82.6h4.23v1Z" style="fill:#fff"/><path d="M138.76,83.62V76h-2.83V75h6.81v1H139.9v7.58Z" style="fill:#fff"/><path d="M1282.25,84V75.4H1284l2,6.08q.28.85.41,1.27.15-.47.46-1.38l2.06-6h1.53V84h-1.1V76.8l-2.5,7.19h-1l-2.48-7.31V84Z" style="fill:#fff"/><path d="M1292.3,84V75.4h6.21v1h-5.07V79h4.75v1h-4.75V83h5.27v1Z" style="fill:#fff"/><path d="M1300.27,84V75.4h1.17l4.51,6.74V75.4H1307V84h-1.17l-4.51-6.75V84Z" style="fill:#fff"/><path d="M1314.59,75.4h1.14v5a5.87,5.87,0,0,1-.29,2.06,2.51,2.51,0,0,1-1.06,1.24,3.75,3.75,0,0,1-2,.48,4.12,4.12,0,0,1-2-.42,2.37,2.37,0,0,1-1.1-1.2,5.74,5.74,0,0,1-.33-2.15v-5h1.14v5a4.83,4.83,0,0,0,.21,1.65,1.58,1.58,0,0,0,.71.82,2.48,2.48,0,0,0,1.24.29,2.37,2.37,0,0,0,1.79-.57,3.27,3.27,0,0,0,.53-2.19Z" style="fill:#fff"/><path d="M1321.14,84V75.4h1.14V84Z" style="fill:#fff"/><path d="M1326.47,84V76.42h-2.83v-1h6.81v1h-2.84V84Z" style="fill:#fff"/><path d="M1331.64,84V75.4h6.21v1h-5.07V79h4.75v1h-4.75V83H1338v1Z" style="fill:#fff"/><path d="M1339.58,84V75.4h1.71l2,6.08q.28.85.41,1.27.15-.47.46-1.38l2.06-6h1.53V84h-1.1V76.8l-2.5,7.19h-1l-2.48-7.31V84Z" style="fill:#fff"/><path d="M1272.45,38.56V30h3.24A7.82,7.82,0,0,1,1277,30a2.59,2.59,0,0,1,1.06.4,2.11,2.11,0,0,1,.69.83,2.8,2.8,0,0,1-.44,3,3.34,3.34,0,0,1-2.52.76h-2.2v3.49Zm1.14-4.51h2.22a2.36,2.36,0,0,0,1.56-.41,1.46,1.46,0,0,0,.46-1.15,1.55,1.55,0,0,0-.27-.92,1.27,1.27,0,0,0-.72-.51,4.86,4.86,0,0,0-1.06-.08h-2.2Z" style="fill:#4c4b4c"/><path d="M1284.38,37.79a3.93,3.93,0,0,1-1.13.7,3.26,3.26,0,0,1-1.16.21,2.26,2.26,0,0,1-1.58-.5,1.65,1.65,0,0,1-.55-1.28,1.7,1.7,0,0,1,.21-.83,1.72,1.72,0,0,1,.54-.61,2.56,2.56,0,0,1,.76-.35,7.54,7.54,0,0,1,.94-.16,9.64,9.64,0,0,0,1.88-.36q0-.22,0-.28a1.16,1.16,0,0,0-.3-.91,1.77,1.77,0,0,0-1.2-.36,1.86,1.86,0,0,0-1.1.26,1.59,1.59,0,0,0-.52.92l-1-.14a2.56,2.56,0,0,1,.46-1.07,2,2,0,0,1,.93-.63,4.16,4.16,0,0,1,1.41-.22,3.74,3.74,0,0,1,1.29.19,1.71,1.71,0,0,1,.73.47,1.66,1.66,0,0,1,.33.72,5.94,5.94,0,0,1,.05,1v1.41a14.93,14.93,0,0,0,.07,1.86,2.35,2.35,0,0,0,.27.75h-1.1A2.24,2.24,0,0,1,1284.38,37.79Zm-.09-2.36a7.74,7.74,0,0,1-1.72.4,4,4,0,0,0-.92.21.92.92,0,0,0-.42.34.93.93,0,0,0,.17,1.2,1.37,1.37,0,0,0,.93.28,2.18,2.18,0,0,0,1.08-.27,1.64,1.64,0,0,0,.7-.73,2.55,2.55,0,0,0,.17-1.05Z" style="fill:#4c4b4c"/><path d="M1291.06,37.79a3.93,3.93,0,0,1-1.13.7,3.26,3.26,0,0,1-1.16.21,2.26,2.26,0,0,1-1.58-.5,1.65,1.65,0,0,1-.55-1.28,1.7,1.7,0,0,1,.21-.83,1.72,1.72,0,0,1,.54-.61,2.56,2.56,0,0,1,.76-.35,7.54,7.54,0,0,1,.94-.16,9.64,9.64,0,0,0,1.88-.36q0-.22,0-.28a1.16,1.16,0,0,0-.3-.91,1.77,1.77,0,0,0-1.2-.36,1.86,1.86,0,0,0-1.1.26,1.59,1.59,0,0,0-.52.92l-1-.14a2.56,2.56,0,0,1,.46-1.07,2,2,0,0,1,.93-.63,4.16,4.16,0,0,1,1.41-.22,3.74,3.74,0,0,1,1.29.19,1.71,1.71,0,0,1,.73.47,1.66,1.66,0,0,1,.33.72,5.94,5.94,0,0,1,.05,1v1.41a14.93,14.93,0,0,0,.07,1.86,2.35,2.35,0,0,0,.27.75h-1.1A2.24,2.24,0,0,1,1291.06,37.79Zm-.09-2.36a7.74,7.74,0,0,1-1.72.4,4,4,0,0,0-.92.21.92.92,0,0,0-.42.34.93.93,0,0,0,.17,1.2,1.37,1.37,0,0,0,.93.28,2.18,2.18,0,0,0,1.08-.27,1.64,1.64,0,0,0,.7-.73,2.55,2.55,0,0,0,.17-1.05Z" style="fill:#4c4b4c"/><path d="M1293.66,38.56V32.33h.95v.94a2.57,2.57,0,0,1,.67-.87,1.17,1.17,0,0,1,.68-.21,2.06,2.06,0,0,1,1.08.34l-.36,1a1.51,1.51,0,0,0-.77-.23,1,1,0,0,0-.62.21,1.13,1.13,0,0,0-.39.58,4.11,4.11,0,0,0-.18,1.23v3.26Z" style="fill:#4c4b4c"/><path d="M1301.73,37.79a3.93,3.93,0,0,1-1.13.7,3.26,3.26,0,0,1-1.16.21,2.26,2.26,0,0,1-1.58-.5,1.65,1.65,0,0,1-.55-1.28,1.7,1.7,0,0,1,.21-.83,1.72,1.72,0,0,1,.54-.61,2.56,2.56,0,0,1,.76-.35,7.54,7.54,0,0,1,.94-.16,9.64,9.64,0,0,0,1.88-.36q0-.22,0-.28a1.16,1.16,0,0,0-.3-.91,1.77,1.77,0,0,0-1.2-.36,1.86,1.86,0,0,0-1.1.26,1.59,1.59,0,0,0-.52.92l-1-.14A2.56,2.56,0,0,1,1298,33a2,2,0,0,1,.93-.63,4.16,4.16,0,0,1,1.41-.22,3.74,3.74,0,0,1,1.29.19,1.71,1.71,0,0,1,.73.47,1.66,1.66,0,0,1,.33.72,5.94,5.94,0,0,1,.05,1v1.41a14.93,14.93,0,0,0,.07,1.86,2.35,2.35,0,0,0,.27.75h-1.1A2.24,2.24,0,0,1,1301.73,37.79Zm-.09-2.36a7.74,7.74,0,0,1-1.72.4,4,4,0,0,0-.92.21.92.92,0,0,0-.42.34.93.93,0,0,0,.17,1.2,1.37,1.37,0,0,0,.93.28,2.18,2.18,0,0,0,1.08-.27,1.64,1.64,0,0,0,.7-.73,2.55,2.55,0,0,0,.17-1.05Z" style="fill:#4c4b4c"/><path d="M1306.64,37.61l.15.93a3.91,3.91,0,0,1-.8.09,1.8,1.8,0,0,1-.89-.18,1,1,0,0,1-.45-.48,3.78,3.78,0,0,1-.13-1.25V33.15h-.77v-.82h.77V30.79l1-.63v2.17h1.06v.82h-1.06v3.64a1.84,1.84,0,0,0,.06.58.44.44,0,0,0,.18.21.7.7,0,0,0,.36.08A3.43,3.43,0,0,0,1306.64,37.61Z" style="fill:#4c4b4c"/><path d="M1307.67,38.56V30h1.05V33a2.36,2.36,0,0,1,1.86-.86,2.51,2.51,0,0,1,1.2.27,1.6,1.6,0,0,1,.73.75,3.47,3.47,0,0,1,.22,1.39v3.94h-1.05V34.61a1.63,1.63,0,0,0-.34-1.15,1.27,1.27,0,0,0-1-.36,1.71,1.71,0,0,0-.88.24,1.37,1.37,0,0,0-.59.66,3,3,0,0,0-.18,1.15v3.4Z" style="fill:#4c4b4c"/><path d="M1318.41,37.79a3.93,3.93,0,0,1-1.13.7,3.26,3.26,0,0,1-1.16.21,2.26,2.26,0,0,1-1.58-.5,1.65,1.65,0,0,1-.55-1.28,1.7,1.7,0,0,1,.21-.83,1.72,1.72,0,0,1,.54-.61,2.56,2.56,0,0,1,.76-.35,7.54,7.54,0,0,1,.94-.16,9.64,9.64,0,0,0,1.88-.36q0-.22,0-.28a1.16,1.16,0,0,0-.3-.91,1.77,1.77,0,0,0-1.2-.36,1.86,1.86,0,0,0-1.1.26,1.59,1.59,0,0,0-.52.92l-1-.14a2.56,2.56,0,0,1,.46-1.07,2,2,0,0,1,.93-.63,4.16,4.16,0,0,1,1.41-.22,3.74,3.74,0,0,1,1.29.19,1.71,1.71,0,0,1,.73.47,1.66,1.66,0,0,1,.33.72,5.94,5.94,0,0,1,.05,1v1.41a14.93,14.93,0,0,0,.07,1.86,2.35,2.35,0,0,0,.27.75h-1.1A2.24,2.24,0,0,1,1318.41,37.79Zm-.09-2.36a7.74,7.74,0,0,1-1.72.4,4,4,0,0,0-.92.21.92.92,0,0,0-.42.34.93.93,0,0,0,.17,1.2,1.37,1.37,0,0,0,.93.28,2.18,2.18,0,0,0,1.08-.27,1.64,1.64,0,0,0,.7-.73,2.55,2.55,0,0,0,.17-1.05Z" style="fill:#4c4b4c"/><path d="M1321,38.56V32.33h.94v.87a2.22,2.22,0,0,1,.78-.74,2.19,2.19,0,0,1,1.11-.28,2,2,0,0,1,1.13.29,1.54,1.54,0,0,1,.62.8,2.23,2.23,0,0,1,1.92-1.09,1.89,1.89,0,0,1,1.42.51,2.19,2.19,0,0,1,.5,1.58v4.27h-1V34.64a2.89,2.89,0,0,0-.1-.91.88.88,0,0,0-.37-.45,1.16,1.16,0,0,0-.63-.17,1.47,1.47,0,0,0-1.09.44,1.92,1.92,0,0,0-.43,1.4v3.62h-1.05v-4a1.78,1.78,0,0,0-.26-1.05,1,1,0,0,0-.84-.35,1.53,1.53,0,0,0-.82.23,1.33,1.33,0,0,0-.55.69,3.86,3.86,0,0,0-.17,1.3v3.23Z" style="fill:#4c4b4c"/><path d="M1335.28,36.55l1.09.13a2.66,2.66,0,0,1-1,1.48,3.24,3.24,0,0,1-3.95-.31,3.29,3.29,0,0,1-.8-2.36,3.44,3.44,0,0,1,.81-2.44,2.74,2.74,0,0,1,2.1-.87,2.66,2.66,0,0,1,2,.85,3.38,3.38,0,0,1,.79,2.39q0,.09,0,.28h-4.64a2.39,2.39,0,0,0,.58,1.57,1.73,1.73,0,0,0,1.3.54,1.61,1.61,0,0,0,1-.3A2,2,0,0,0,1335.28,36.55Zm-3.46-1.71h3.47a2.11,2.11,0,0,0-.4-1.18,1.62,1.62,0,0,0-1.31-.61,1.68,1.68,0,0,0-1.22.49A1.92,1.92,0,0,0,1331.81,34.85Z" style="fill:#4c4b4c"/><path d="M1337.27,36.7l1-.16a1.46,1.46,0,0,0,.49,1,1.71,1.71,0,0,0,1.12.33,1.65,1.65,0,0,0,1.08-.3.88.88,0,0,0,.35-.69.64.64,0,0,0-.31-.56,4.57,4.57,0,0,0-1.08-.36,9.84,9.84,0,0,1-1.61-.51,1.54,1.54,0,0,1-.91-1.43,1.6,1.6,0,0,1,.19-.77,1.71,1.71,0,0,1,.52-.59,2.17,2.17,0,0,1,.67-.31,3.19,3.19,0,0,1,.91-.13,3.6,3.6,0,0,1,1.29.21,1.75,1.75,0,0,1,.82.57,2.23,2.23,0,0,1,.36,1l-1,.14a1.13,1.13,0,0,0-.41-.75,1.49,1.49,0,0,0-1-.27,1.72,1.72,0,0,0-1,.24.7.7,0,0,0-.31.56.58.58,0,0,0,.13.37.93.93,0,0,0,.4.28l.93.27a13,13,0,0,1,1.56.49,1.58,1.58,0,0,1,.69.55,1.55,1.55,0,0,1,.25.9,1.77,1.77,0,0,1-.31,1,2,2,0,0,1-.89.72,3.23,3.23,0,0,1-1.31.25,2.92,2.92,0,0,1-1.85-.5A2.34,2.34,0,0,1,1337.27,36.7Z" style="fill:#4c4b4c"/><path d="M1343.69,38.56V30h1.05V33a2.36,2.36,0,0,1,1.86-.86,2.51,2.51,0,0,1,1.2.27,1.6,1.6,0,0,1,.73.75,3.47,3.47,0,0,1,.22,1.39v3.94h-1.05V34.61a1.63,1.63,0,0,0-.34-1.15,1.27,1.27,0,0,0-1-.36,1.71,1.71,0,0,0-.88.24,1.37,1.37,0,0,0-.59.66,3,3,0,0,0-.18,1.15v3.4Z" style="fill:#4c4b4c"/><path d="M1256.52,42l-.44-1.31a6.25,6.25,0,0,0-5.23-4.18,13.25,13.25,0,0,0-1.42-.22c0-.06,0,0,0-.09a7.24,7.24,0,0,0,2.3-5.32c0-7-8-7-8,0a7.23,7.23,0,0,0,2.3,5.32,1.28,1.28,0,0,0,0,.14,13.88,13.88,0,0,0-1.42.2,6.24,6.24,0,0,0-5.22,4.17l-.44,1.3a1.5,1.5,0,0,0,.17,1.24,1.36,1.36,0,0,0,1,.63h15.28a1.37,1.37,0,0,0,1-.64A1.51,1.51,0,0,0,1256.52,42Z" style="fill:#4c4b4c"/><path d="M1190.31,36l-1-.35a7.28,7.28,0,0,0-.08-2.12l.92-.43a1.15,1.15,0,0,0,.56-1.53l-.54-1.17a1.15,1.15,0,0,0-1.53-.57l-.93.43a7.43,7.43,0,0,0-1.55-1.44l.35-1a1.15,1.15,0,0,0-.68-1.48l-1.21-.45a1.18,1.18,0,0,0-1.48.68l-.35,1a7.35,7.35,0,0,0-2.12.08l-.43-.92a1.15,1.15,0,0,0-1.53-.57l-1.17.54a1.16,1.16,0,0,0-.57,1.53l.43.93a7.24,7.24,0,0,0-1.44,1.56l-1-.36a1.18,1.18,0,0,0-1.48.68l-.45,1.21a1.15,1.15,0,0,0,.68,1.48l1,.35a7.28,7.28,0,0,0,.08,2.12l-.92.43a1.15,1.15,0,0,0-.56,1.53l.54,1.17a1.16,1.16,0,0,0,1.53.56l.93-.43a7.34,7.34,0,0,0,1.56,1.44l-.35,1a1.16,1.16,0,0,0,.68,1.48l1.21.45a1.15,1.15,0,0,0,1.48-.68l.36-1a7.29,7.29,0,0,0,2.12-.08l.43.92a1.15,1.15,0,0,0,1.53.56l1.17-.54a1.16,1.16,0,0,0,.57-1.53l-.43-.93a7.32,7.32,0,0,0,1.44-1.56l1,.35a1.15,1.15,0,0,0,1.48-.68l.45-1.21A1.16,1.16,0,0,0,1190.31,36ZM1184,39a4.5,4.5,0,0,1-1.9.42,4.56,4.56,0,0,1-1.91-8.7,4.5,4.5,0,0,1,1.9-.42A4.56,4.56,0,0,1,1184,39Z" style="fill:#4c4b4c"/><path d="M1048.86,25.89a9,9,0,1,0,9.12,8.88,9,9,0,0,0-9.12-8.88m-.5,14h.43c-.77,0-1.3-.35-1.28-1.1a1.19,1.19,0,0,1,1.31-1.16l0,.06c.79,0,1.32.37,1.3,1.15s-.57,1.05-1.32,1.05m3.22-5.91a6,6,0,0,1-1.07,1l-.55.38c-.3.23-.7.45-.77.67s-.3.22-.3.56v.33h-1.66v-.3a2.49,2.49,0,0,1,.34-1.57,9.75,9.75,0,0,1,1.56-1.29,1.68,1.68,0,0,0,.37-.39,1.35,1.35,0,0,0,.32-.79,1.53,1.53,0,0,0-.29-.9,1.2,1.2,0,0,0-1-.39,1.37,1.37,0,0,0-1.17.48,2.15,2.15,0,0,0-.44,1v.1h-1.91v-.1a3.29,3.29,0,0,1,1.4-2.84,3.69,3.69,0,0,1,2-.54,4.39,4.39,0,0,1,2.63.75,2.78,2.78,0,0,1,.54,3.81" style="fill:#53575c"/><path d="M1121.62,25.89H1109a2.81,2.81,0,0,0-2.66,3v8.9a3,3,0,0,0,2.66,3.13h7.34v3l4.13-3h1.13a3,3,0,0,0,2.74-3.13v-8.9a2.86,2.86,0,0,0-2.72-3Z" style="fill:#4c4b4c"/><rect x="0.36" y="66.89" width="74" height="24" style="fill:#53575c;opacity:0.9"/><path d="M15.76,84l3.3-8.59h1.22L23.8,84H22.5l-1-2.6H17.91L17,84Zm2.48-3.53h2.91l-.9-2.38q-.41-1.08-.61-1.78a11,11,0,0,1-.46,1.64Z" style="fill:#fff"/><path d="M30.83,81l1.14.29a3.83,3.83,0,0,1-1.29,2.14,3.54,3.54,0,0,1-2.27.74,4.08,4.08,0,0,1-2.26-.57,3.53,3.53,0,0,1-1.32-1.64,5.84,5.84,0,0,1-.45-2.3,5.06,5.06,0,0,1,.51-2.34,3.51,3.51,0,0,1,1.46-1.52,4.26,4.26,0,0,1,2.08-.52,3.52,3.52,0,0,1,2.17.66,3.41,3.41,0,0,1,1.22,1.85L30.71,78a2.65,2.65,0,0,0-.87-1.37,2.31,2.31,0,0,0-1.43-.43,2.78,2.78,0,0,0-1.66.47A2.51,2.51,0,0,0,25.82,78a5.13,5.13,0,0,0-.27,1.65,5.24,5.24,0,0,0,.32,1.91,2.38,2.38,0,0,0,1,1.22,2.79,2.79,0,0,0,1.46.4,2.44,2.44,0,0,0,1.62-.55A2.82,2.82,0,0,0,30.83,81Z" style="fill:#fff"/><path d="M35.56,84V76.42H32.73v-1h6.81v1H36.69V84Z" style="fill:#fff"/><path d="M40.9,84V75.4H42V84Z" style="fill:#fff"/><path d="M46.49,84,43.16,75.4h1.23l2.23,6.24q.27.75.45,1.41.2-.7.46-1.41l2.32-6.24H51L47.66,84Z" style="fill:#fff"/><path d="M52.06,84V75.4h6.21v1H53.2V79H58v1H53.2V83h5.27v1Z" style="fill:#fff"/><path d="M61.8,26.6h4.42a10.06,10.06,0,0,1,2.18.22,4.57,4.57,0,0,1,1.68.71,3.33,3.33,0,0,1,1.08,1.31,5.33,5.33,0,0,1,0,4,3.69,3.69,0,0,1-1.09,1.39,4.81,4.81,0,0,1-1.68.82,8,8,0,0,1-2.17.27h-2.6V41H61.8ZM66,33.81a4.52,4.52,0,0,0,2.8-.72,2.68,2.68,0,0,0,.91-2.25,2.4,2.4,0,0,0-.92-2.17,5.17,5.17,0,0,0-2.79-.6H63.63v5.74Z" style="fill:#53575c"/><path d="M74.29,30.34h1.5l.15,1.94H76a4.94,4.94,0,0,1,1.33-1.61A2.75,2.75,0,0,1,79,30.07a2.85,2.85,0,0,1,1.14.22l-.35,1.58a4.18,4.18,0,0,0-.48-.13,2.9,2.9,0,0,0-.55,0,2.4,2.4,0,0,0-1.42.55,4.38,4.38,0,0,0-1.29,1.91V41h-1.8Z" style="fill:#53575c"/><path d="M80.92,35.7a6.54,6.54,0,0,1,.41-2.39,5.43,5.43,0,0,1,1.09-1.77A4.56,4.56,0,0,1,84,30.45a4.92,4.92,0,0,1,3.76,0,4.57,4.57,0,0,1,1.57,1.1,5.44,5.44,0,0,1,1.09,1.77,6.54,6.54,0,0,1,.41,2.39,6.47,6.47,0,0,1-.41,2.37,5.3,5.3,0,0,1-1.09,1.76,4.63,4.63,0,0,1-1.57,1.09,4.92,4.92,0,0,1-3.76,0,4.62,4.62,0,0,1-1.57-1.09,5.29,5.29,0,0,1-1.09-1.76A6.47,6.47,0,0,1,80.92,35.7Zm1.87,0A5.92,5.92,0,0,0,83,37.38a4,4,0,0,0,.63,1.29,2.88,2.88,0,0,0,1,.84,2.8,2.8,0,0,0,2.51,0,2.88,2.88,0,0,0,1-.84,4,4,0,0,0,.63-1.29,5.93,5.93,0,0,0,.22-1.67A6,6,0,0,0,88.73,34a4.08,4.08,0,0,0-.63-1.31,2.84,2.84,0,0,0-1-.85,2.8,2.8,0,0,0-2.51,0,2.84,2.84,0,0,0-1,.85A4.08,4.08,0,0,0,83,34,6,6,0,0,0,82.79,35.7Z" style="fill:#53575c"/><path d="M92.86,35.7a6.76,6.76,0,0,1,.38-2.34,5.56,5.56,0,0,1,1-1.77,4.53,4.53,0,0,1,1.47-1.12,4.06,4.06,0,0,1,1.76-.4,3.65,3.65,0,0,1,1.61.33,7.24,7.24,0,0,1,1.39.9l-.09-1.83V25.36h1.83V41h-1.5l-.15-1.25h-.07a6.76,6.76,0,0,1-1.46,1.07,3.64,3.64,0,0,1-1.77.45,4,4,0,0,1-3.22-1.45A6.34,6.34,0,0,1,92.86,35.7Zm1.87,0a5.11,5.11,0,0,0,.77,3,2.52,2.52,0,0,0,2.18,1.08,2.88,2.88,0,0,0,1.41-.36,5.07,5.07,0,0,0,1.32-1.11V32.71a4.56,4.56,0,0,0-1.31-.87,3.41,3.41,0,0,0-1.29-.25,2.52,2.52,0,0,0-1.2.3,3,3,0,0,0-1,.84A4.19,4.19,0,0,0,95,34,5.42,5.42,0,0,0,94.73,35.68Z" style="fill:#53575c"/><path d="M105.69,30.34h1.83v6.53a3.89,3.89,0,0,0,.47,2.19,1.74,1.74,0,0,0,1.53.67A2.58,2.58,0,0,0,111,39.3a6.91,6.91,0,0,0,1.41-1.37V30.34h1.8V41h-1.5l-.15-1.67h-.07a7.15,7.15,0,0,1-1.57,1.41,3.53,3.53,0,0,1-1.95.53,2.9,2.9,0,0,1-2.5-1.06,5.21,5.21,0,0,1-.78-3.12Z" style="fill:#53575c"/><path d="M117,35.7a6.38,6.38,0,0,1,.42-2.39,5.38,5.38,0,0,1,1.12-1.77,4.68,4.68,0,0,1,1.64-1.1,5.26,5.26,0,0,1,2-.37,4,4,0,0,1,1.81.39,5.8,5.8,0,0,1,1.31.89l-.9,1.17a5.06,5.06,0,0,0-1-.68,2.51,2.51,0,0,0-1.16-.26,3.06,3.06,0,0,0-1.34.3,3,3,0,0,0-1.05.85,4.17,4.17,0,0,0-.69,1.31,5.29,5.29,0,0,0-.25,1.68,5.42,5.42,0,0,0,.24,1.67,4,4,0,0,0,.67,1.29,3,3,0,0,0,1,.84,3.2,3.2,0,0,0,2.74,0,5,5,0,0,0,1.11-.76l.81,1.19a5.89,5.89,0,0,1-1.62,1,4.76,4.76,0,0,1-1.86.37,5.24,5.24,0,0,1-2-.37,4.45,4.45,0,0,1-1.59-1.09,5.09,5.09,0,0,1-1.06-1.76A6.8,6.8,0,0,1,117,35.7Z" style="fill:#53575c"/><path d="M128.15,31.81h-1.58V30.45l1.67-.11.22-3H130v3h2.88v1.47H130v5.94a2.72,2.72,0,0,0,.36,1.53,1.44,1.44,0,0,0,1.29.54,2.4,2.4,0,0,0,.62-.09,4.62,4.62,0,0,0,.59-.2l.35,1.36a9.6,9.6,0,0,1-1,.27,4.49,4.49,0,0,1-1,.12,3.49,3.49,0,0,1-1.44-.26,2.47,2.47,0,0,1-.95-.73,2.84,2.84,0,0,1-.52-1.12,6.4,6.4,0,0,1-.15-1.45Z" style="fill:#53575c"/><path d="M139.9,26.6h1.89L147,35.66l1.56,3h.09q-.06-1.1-.14-2.28t-.08-2.32V26.6h1.74V41h-1.89L143,31.94l-1.56-3h-.09q.09,1.1.17,2.23t.08,2.28V41H139.9Z" style="fill:#53575c"/><path d="M153.43,38.26A3,3,0,0,1,155,35.56a13,13,0,0,1,5-1.31,5,5,0,0,0-.1-1,2.36,2.36,0,0,0-.35-.86,1.92,1.92,0,0,0-.67-.6,2.22,2.22,0,0,0-1.08-.23,4.32,4.32,0,0,0-1.75.35,8.63,8.63,0,0,0-1.44.79l-.73-1.25a11.65,11.65,0,0,1,1.83-.94,6.09,6.09,0,0,1,2.38-.45,3.28,3.28,0,0,1,2.84,1.2,5.29,5.29,0,0,1,.88,3.2V41h-1.5l-.15-1.28h0a8.89,8.89,0,0,1-1.66,1.09,4.12,4.12,0,0,1-1.88.45,3.27,3.27,0,0,1-2.25-.79A2.85,2.85,0,0,1,153.43,38.26Zm1.78-.13a1.53,1.53,0,0,0,.54,1.32,2.19,2.19,0,0,0,1.33.4,3.11,3.11,0,0,0,1.46-.36A7.12,7.12,0,0,0,160,38.41v-3a18.87,18.87,0,0,0-2.27.42,6,6,0,0,0-1.48.57,2.12,2.12,0,0,0-.8.76A1.86,1.86,0,0,0,155.21,38.13Z" style="fill:#53575c"/><path d="M165.22,30.34h1.5l.15,1.54h.07a7.43,7.43,0,0,1,1.53-1.29,3.32,3.32,0,0,1,1.79-.52,3.07,3.07,0,0,1,1.93.54,3.13,3.13,0,0,1,1,1.51,9,9,0,0,1,1.68-1.48,3.26,3.26,0,0,1,1.84-.56,2.89,2.89,0,0,1,2.45,1.06,5.11,5.11,0,0,1,.8,3.12V41h-1.8V34.49a3.82,3.82,0,0,0-.48-2.19,1.72,1.72,0,0,0-1.5-.67,4,4,0,0,0-2.68,1.65V41h-1.8V34.49a3.82,3.82,0,0,0-.48-2.19,1.74,1.74,0,0,0-1.52-.67A4,4,0,0,0,167,33.28V41h-1.8Z" style="fill:#53575c"/><path d="M182.66,35.7a6.47,6.47,0,0,1,.41-2.36,5.52,5.52,0,0,1,1.08-1.77,4.68,4.68,0,0,1,1.53-1.11,4.31,4.31,0,0,1,1.78-.39,4.48,4.48,0,0,1,1.81.35,3.54,3.54,0,0,1,1.34,1,4.64,4.64,0,0,1,.83,1.58,7,7,0,0,1,.29,2.07,6.06,6.06,0,0,1-.07,1h-7.22a4.25,4.25,0,0,0,1.07,2.75,3.28,3.28,0,0,0,2.5,1,4.22,4.22,0,0,0,1.42-.23,6.29,6.29,0,0,0,1.24-.6l.64,1.19a9.12,9.12,0,0,1-1.56.77,5.43,5.43,0,0,1-2,.33,5.24,5.24,0,0,1-2-.39,4.76,4.76,0,0,1-1.63-1.1,5.08,5.08,0,0,1-1.09-1.75A6.55,6.55,0,0,1,182.66,35.7Zm7.48-.81a4,4,0,0,0-.69-2.52,2.35,2.35,0,0,0-1.95-.87,2.63,2.63,0,0,0-1.09.23,3,3,0,0,0-.94.66,3.51,3.51,0,0,0-.69,1.06,4.87,4.87,0,0,0-.36,1.44Z" style="fill:#53575c"/><path d="M22.72,47.68,36.08,27.42a5.35,5.35,0,0,1,.16-.73v0l-14.54,20Q22.19,47.19,22.72,47.68Z" style="fill:url(#radial-gradient)"/><path d="M19.12,42.93q.33.63.7,1.23L36.48,26a5.38,5.38,0,0,1,.51-.91Z" style="fill:url(#radial-gradient-2)"/><path d="M50.55,27.55Q50.29,27,50,26.41l-3.4,3.37a5.33,5.33,0,0,1-.24.63Z" style="fill:url(#radial-gradient-3)"/><path d="M44.57,32.57l7.57,3.37c0-.46,0-1.07,0-1.14l-7.36-2.41Z" style="fill:url(#radial-gradient-4)"/><path d="M51.59,30.42l-5.74.85-.24.32,6.23,0Q51.74,31,51.59,30.42Z" style="fill:url(#radial-gradient-5)"/><path d="M48.21,23.81q-.45-.54-.94-1.05l-.42,3.73-2-5.82q-.68-.49-1.42-.92l1.7,3.83-4.39-5.1a17.35,17.35,0,0,0-1.8-.56l4.45,4.66-7.28-5.13a17.91,17.91,0,0,0-1.84-.05l7.65,4.86-10.4-4.58q-.84.15-1.65.38l11,4.25L27.06,19.14q-.76.37-1.48.81L39.91,22.5l-16.75-.77q-.65.57-1.24,1.19L39.2,22.8,20.12,25.18q-.46.68-.85,1.41l19.27-3.41L18,29.56q-.22.68-.38,1.38l20.27-7.22L17.2,34c0,.43,0,1,0,1.46L37.31,24.37,17.55,38.51q.14.68.34,1.34L37.24,24.8a5.39,5.39,0,0,1,9.5,4.3Z" style="fill:url(#radial-gradient-6)"/><path d="M36.06,28.84a5.44,5.44,0,0,1,0-.61L25.21,49.63q.55.36,1.13.67Z" style="fill:url(#radial-gradient-7)"/><path d="M42.18,33.54l-.28,0,7.43,10.88q.36-.55.68-1.13Z" style="fill:url(#radial-gradient-5)"/><path d="M43.56,33.15l-.25.1,8,7.13q.19-.58.34-1.18Z" style="fill:url(#radial-gradient-9)"/><path d="M47.47,46.84,40.8,33.56l-.34,0,6.09,14.24Q47,47.31,47.47,46.84Z" style="fill:url(#radial-gradient-10)"/><path d="M35.22,52.39l1.91-20.92q-.13-.17-.25-.36l-3,21.27C34.31,52.41,35,52.41,35.22,52.39Z" style="fill:url(#radial-gradient-11)"/><path d="M39.39,33.2l-.31-.13,3.65,17.36q.61-.32,1.19-.68Z" style="fill:url(#radial-gradient-10)"/><path d="M36.42,30.23q-.1-.24-.17-.48L29.36,51.58q.64.2,1.31.36Z" style="fill:url(#radial-gradient-10)"/><path d="M38.15,32.49l-.3-.25L38.44,52q.69-.15,1.36-.35Z" style="fill:url(#radial-gradient-14)"/><line x1="74.36" y1="65.72" x2="0.36" y2="65.72" style="fill:none;stroke:#ff8f1c;stroke-miterlimit:10;stroke-width:2px"/><line x1="74.36" y1="65.72" x2="0.36" y2="65.72" style="fill:#009697"/><rect x="706" y="24" width="287" height="24" rx="2" ry="2" style="fill:#fff"/><g style="clip-path:url(#clip-path)"><g style="clip-path:url(#clip-path-2)"><rect x="960.5" y="12.5" width="38" height="45" transform="translate(1959 70) rotate(180)" style="fill:url(#_.brand-gradient)"/></g><path d="M975.68,39.35a4.54,4.54,0,0,1-1.82-.37,4.7,4.7,0,0,1-2.49-2.48,4.67,4.67,0,0,1,0-3.64,4.68,4.68,0,0,1,2.49-2.49,4.67,4.67,0,0,1,3.64,0A4.7,4.7,0,0,1,980,32.86a4.65,4.65,0,0,1,.25,2.85,4.72,4.72,0,0,1-.33.94l2.63,2.64a1.5,1.5,0,0,1,.47,1.12,1.59,1.59,0,0,1-2.71,1.13l-2.64-2.64a4.72,4.72,0,0,1-.94.33A4.51,4.51,0,0,1,975.68,39.35Zm-1.28-7.72a3.32,3.32,0,0,0-1.05.71,3.4,3.4,0,0,0-.71,1.05,3.28,3.28,0,0,0,0,2.58,3.4,3.4,0,0,0,.71,1.05,3.32,3.32,0,0,0,1.05.71,3.35,3.35,0,0,0,2.58,0A3.3,3.3,0,0,0,978.73,36a3.35,3.35,0,0,0,0-2.58A3.3,3.3,0,0,0,977,31.63a3.35,3.35,0,0,0-2.58,0Z" style="fill:#eaeef3"/></g><rect x="706" y="24" width="287" height="24" rx="2" ry="2" style="fill:none;stroke:#c1c5ca;stroke-miterlimit:10"/><line x1="764" y1="48.5" x2="764" y2="24.5" style="fill:none;stroke:#c1c5ca;stroke-miterlimit:10"/><path d="M751.44,40.27a.57.57,0,0,1-.18.12.52.52,0,0,1-.21,0,.5.5,0,0,1-.21,0,.56.56,0,0,1-.3-.3.5.5,0,0,1,0-.21V32.12a.53.53,0,0,1,0-.21.6.6,0,0,1,.3-.3.56.56,0,0,1,.21,0,.59.59,0,0,1,.21,0,.47.47,0,0,1,.18.13l3.88,3.88a.51.51,0,0,1,.13.18.52.52,0,0,1,0,.21.5.5,0,0,1,0,.21.62.62,0,0,1-.13.18Z" style="fill:#009697"/><path d="M716.21,39.87V31.28h1.14v7.58h4.23v1Z" style="fill:#009697"/><path d="M726.86,39.11a3.93,3.93,0,0,1-1.13.7,3.26,3.26,0,0,1-1.16.21,2.26,2.26,0,0,1-1.58-.5,1.65,1.65,0,0,1-.55-1.28,1.7,1.7,0,0,1,.21-.83,1.72,1.72,0,0,1,.54-.61,2.56,2.56,0,0,1,.76-.35,7.54,7.54,0,0,1,.94-.16,9.64,9.64,0,0,0,1.88-.36q0-.22,0-.28a1.16,1.16,0,0,0-.3-.91,1.77,1.77,0,0,0-1.2-.36,1.86,1.86,0,0,0-1.1.26,1.59,1.59,0,0,0-.52.92l-1-.14a2.56,2.56,0,0,1,.46-1.07,2,2,0,0,1,.93-.63,4.16,4.16,0,0,1,1.41-.22,3.74,3.74,0,0,1,1.29.19,1.71,1.71,0,0,1,.73.47,1.66,1.66,0,0,1,.33.72,5.94,5.94,0,0,1,.05,1v1.41a14.93,14.93,0,0,0,.07,1.86,2.35,2.35,0,0,0,.27.75h-1.1A2.24,2.24,0,0,1,726.86,39.11Zm-.09-2.36a7.74,7.74,0,0,1-1.72.4,4,4,0,0,0-.92.21.92.92,0,0,0-.42.34.93.93,0,0,0,.17,1.2,1.37,1.37,0,0,0,.93.28,2.18,2.18,0,0,0,1.08-.27,1.64,1.64,0,0,0,.7-.73,2.55,2.55,0,0,0,.17-1.05Z" style="fill:#009697"/><path d="M730.44,39.87h-1V31.28h1.05v3.06a2.09,2.09,0,0,1,1.71-.84,2.61,2.61,0,0,1,1.09.23,2.22,2.22,0,0,1,.84.65,3.14,3.14,0,0,1,.52,1,4.17,4.17,0,0,1,.19,1.27,3.55,3.55,0,0,1-.79,2.47,2.47,2.47,0,0,1-1.9.87,2,2,0,0,1-1.73-.92Zm0-3.16a3.23,3.23,0,0,0,.3,1.62,1.51,1.51,0,0,0,2.54.21,2.73,2.73,0,0,0,.5-1.79,2.78,2.78,0,0,0-.48-1.8,1.47,1.47,0,0,0-1.17-.58,1.52,1.52,0,0,0-1.2.6A2.64,2.64,0,0,0,730.43,36.72Z" style="fill:#009697"/><path d="M740.4,37.87l1.09.13a2.66,2.66,0,0,1-1,1.48,3.24,3.24,0,0,1-3.95-.31,3.29,3.29,0,0,1-.8-2.36,3.44,3.44,0,0,1,.81-2.44,2.74,2.74,0,0,1,2.1-.87,2.66,2.66,0,0,1,2,.85,3.38,3.38,0,0,1,.79,2.39q0,.09,0,.28h-4.64a2.39,2.39,0,0,0,.58,1.57,1.73,1.73,0,0,0,1.3.54,1.61,1.61,0,0,0,1-.3A2,2,0,0,0,740.4,37.87Zm-3.46-1.71h3.47A2.11,2.11,0,0,0,740,35a1.62,1.62,0,0,0-1.31-.61,1.68,1.68,0,0,0-1.22.49A1.92,1.92,0,0,0,736.94,36.17Z" style="fill:#009697"/><path d="M742.79,39.87V31.28h1.05v8.59Z" style="fill:#009697"/><path d="M772,38.13a2.41,2.41,0,0,0,.33,1.19,2.17,2.17,0,0,0,2,.86,3.37,3.37,0,0,0,1.15-.19,1.32,1.32,0,0,0,1-1.3,1.14,1.14,0,0,0-.43-1,4.21,4.21,0,0,0-1.35-.51l-1.13-.26a5,5,0,0,1-1.57-.57,1.82,1.82,0,0,1-.79-1.61,2.51,2.51,0,0,1,.78-1.9,3.08,3.08,0,0,1,2.21-.74,3.77,3.77,0,0,1,2.24.65,2.38,2.38,0,0,1,.92,2.09h-1.1a2.22,2.22,0,0,0-.36-1.06,2,2,0,0,0-1.74-.67,2,2,0,0,0-1.42.43,1.39,1.39,0,0,0-.43,1,1,1,0,0,0,.51.93,7.35,7.35,0,0,0,1.52.47l1.17.28a3.53,3.53,0,0,1,1.31.54,2.07,2.07,0,0,1,.79,1.75,2.2,2.2,0,0,1-1,2,4.46,4.46,0,0,1-2.36.62,3.47,3.47,0,0,1-2.45-.82,2.8,2.8,0,0,1-.87-2.21Z" style="fill:#acb0b5"/><path d="M783,34.81a2.38,2.38,0,0,1,.95.81,2.8,2.8,0,0,1,.42,1.11,7.25,7.25,0,0,1,.09,1.38h-4.56a2.71,2.71,0,0,0,.45,1.54,1.49,1.49,0,0,0,1.3.58,1.67,1.67,0,0,0,1.31-.55,1.87,1.87,0,0,0,.39-.74h1a2.18,2.18,0,0,1-.27.77,2.78,2.78,0,0,1-.52.69,2.43,2.43,0,0,1-1.18.63,3.56,3.56,0,0,1-.86.09,2.62,2.62,0,0,1-2-.85,3.33,3.33,0,0,1-.81-2.39,3.62,3.62,0,0,1,.82-2.46,2.68,2.68,0,0,1,2.13-.94A2.83,2.83,0,0,1,783,34.81Zm.38,2.46a2.75,2.75,0,0,0-.3-1.1,1.51,1.51,0,0,0-1.43-.76,1.58,1.58,0,0,0-1.21.52,2,2,0,0,0-.52,1.33Z" style="fill:#acb0b5"/><path d="M789.15,37.11a.57.57,0,0,0,.49-.3.93.93,0,0,0,.07-.41.86.86,0,0,0-.38-.79,2,2,0,0,0-1.1-.24,1.39,1.39,0,0,0-1.17.45,1.48,1.48,0,0,0-.25.74h-1a1.82,1.82,0,0,1,.75-1.62,3.08,3.08,0,0,1,1.68-.46,3.41,3.41,0,0,1,1.8.42,1.43,1.43,0,0,1,.68,1.31v3.62a.46.46,0,0,0,.07.26.32.32,0,0,0,.28.1h.16l.19,0v.78l-.37.09-.35,0a.87.87,0,0,1-.79-.39,1.49,1.49,0,0,1-.18-.58,2.68,2.68,0,0,1-.93.73,2.86,2.86,0,0,1-1.33.31,2,2,0,0,1-1.43-.53,1.76,1.76,0,0,1-.55-1.33,1.71,1.71,0,0,1,.54-1.35,2.59,2.59,0,0,1,1.43-.59ZM786.93,40a1.24,1.24,0,0,0,.79.26,2.41,2.41,0,0,0,1.08-.26,1.45,1.45,0,0,0,.88-1.4v-.85a1.81,1.81,0,0,1-.5.21,4.2,4.2,0,0,1-.6.12l-.64.08a2.46,2.46,0,0,0-.86.24.93.93,0,0,0-.49.88A.87.87,0,0,0,786.93,40Z" style="fill:#acb0b5"/><path d="M792.49,34.64h1v1.08a2.39,2.39,0,0,1,.6-.77,1.56,1.56,0,0,1,1.11-.45h.1l.24,0v1.11l-.17,0h-.17a1.51,1.51,0,0,0-1.22.51,1.79,1.79,0,0,0-.43,1.18v3.61h-1.05Z" style="fill:#acb0b5"/><path d="M800.6,35a2.47,2.47,0,0,1,.8,1.78h-1a1.89,1.89,0,0,0-.43-1,1.35,1.35,0,0,0-1.07-.38,1.48,1.48,0,0,0-1.44,1,3.9,3.9,0,0,0-.28,1.57,3,3,0,0,0,.4,1.59,1.55,1.55,0,0,0,2.29.24,2.2,2.2,0,0,0,.53-1.09h1a2.48,2.48,0,0,1-2.68,2.4,2.4,2.4,0,0,1-2-.9,3.44,3.44,0,0,1-.73-2.25,3.79,3.79,0,0,1,.8-2.57,2.59,2.59,0,0,1,2-.92A2.74,2.74,0,0,1,800.6,35Z" style="fill:#acb0b5"/><path d="M802.45,32.27h1.05v3.21a3,3,0,0,1,.67-.67,2.27,2.27,0,0,1,1.27-.33,1.88,1.88,0,0,1,1.85,1,3.26,3.26,0,0,1,.26,1.45v4h-1.08V37a2.21,2.21,0,0,0-.18-1,1.12,1.12,0,0,0-1.08-.52,1.8,1.8,0,0,0-1.19.45,2.17,2.17,0,0,0-.53,1.71v3.33h-1.05Z" style="fill:#acb0b5"/><rect x="0.36" y="702.89" width="1366" height="64" style="fill:#4c4b4c"/><path d="M25.11,731.32v-7.58H22.28v-1h6.81v1H26.25v7.58Z" style="fill:#fff"/><path d="M32.81,729.32l1.09.13a2.66,2.66,0,0,1-1,1.48,3.24,3.24,0,0,1-3.95-.31,3.29,3.29,0,0,1-.8-2.36,3.44,3.44,0,0,1,.81-2.44,2.74,2.74,0,0,1,2.1-.87,2.66,2.66,0,0,1,2,.85,3.38,3.38,0,0,1,.79,2.39q0,.09,0,.28H29.29a2.39,2.39,0,0,0,.58,1.57,1.73,1.73,0,0,0,1.3.54,1.61,1.61,0,0,0,1-.3A2,2,0,0,0,32.81,729.32Zm-3.46-1.71h3.47a2.11,2.11,0,0,0-.4-1.18,1.62,1.62,0,0,0-1.31-.61,1.68,1.68,0,0,0-1.22.49A1.92,1.92,0,0,0,29.34,727.61Z" style="fill:#fff"/><path d="M35,731.32V725.1h.95V726a2.57,2.57,0,0,1,.67-.87,1.17,1.17,0,0,1,.68-.21,2.06,2.06,0,0,1,1.08.34l-.36,1a1.51,1.51,0,0,0-.77-.23,1,1,0,0,0-.62.21,1.13,1.13,0,0,0-.39.58,4.11,4.11,0,0,0-.18,1.23v3.26Z" style="fill:#fff"/><path d="M38.74,731.32V725.1h.94V726a2.22,2.22,0,0,1,.78-.74,2.19,2.19,0,0,1,1.11-.28,2,2,0,0,1,1.13.29,1.54,1.54,0,0,1,.62.8A2.23,2.23,0,0,1,45.25,725a1.89,1.89,0,0,1,1.42.51,2.19,2.19,0,0,1,.5,1.58v4.27h-1V727.4a2.89,2.89,0,0,0-.1-.91.88.88,0,0,0-.37-.45,1.16,1.16,0,0,0-.63-.17,1.47,1.47,0,0,0-1.09.44,1.92,1.92,0,0,0-.43,1.4v3.62H42.44v-4a1.78,1.78,0,0,0-.26-1.05,1,1,0,0,0-.84-.35,1.53,1.53,0,0,0-.82.23,1.33,1.33,0,0,0-.55.69,3.86,3.86,0,0,0-.17,1.3v3.23Z" style="fill:#fff"/><path d="M48.07,729.47l1-.16a1.46,1.46,0,0,0,.49,1,1.71,1.71,0,0,0,1.12.33,1.65,1.65,0,0,0,1.08-.3.88.88,0,0,0,.35-.69.64.64,0,0,0-.31-.56,4.57,4.57,0,0,0-1.08-.36,9.84,9.84,0,0,1-1.61-.51,1.54,1.54,0,0,1-.91-1.43,1.6,1.6,0,0,1,.19-.77,1.71,1.71,0,0,1,.52-.59,2.17,2.17,0,0,1,.67-.31,3.19,3.19,0,0,1,.91-.13,3.6,3.6,0,0,1,1.29.21,1.75,1.75,0,0,1,.82.57,2.23,2.23,0,0,1,.36,1l-1,.14a1.13,1.13,0,0,0-.41-.75,1.49,1.49,0,0,0-1-.27,1.72,1.72,0,0,0-1,.24.7.7,0,0,0-.31.56.58.58,0,0,0,.13.37.93.93,0,0,0,.4.28l.93.27a13,13,0,0,1,1.56.49,1.58,1.58,0,0,1,.69.55,1.55,1.55,0,0,1,.25.9,1.77,1.77,0,0,1-.31,1,2,2,0,0,1-.89.72,3.23,3.23,0,0,1-1.31.25,2.92,2.92,0,0,1-1.85-.5A2.34,2.34,0,0,1,48.07,729.47Z" style="fill:#fff"/><path d="M57,728.21a3.21,3.21,0,0,1,1-2.56,2.9,2.9,0,0,1,2-.69,2.79,2.79,0,0,1,2.1.84,3.2,3.2,0,0,1,.81,2.32,4.12,4.12,0,0,1-.36,1.89,2.55,2.55,0,0,1-1,1.07,3.05,3.05,0,0,1-1.5.38,2.8,2.8,0,0,1-2.11-.84A3.35,3.35,0,0,1,57,728.21Zm1.08,0a2.65,2.65,0,0,0,.52,1.79,1.74,1.74,0,0,0,2.62,0,2.71,2.71,0,0,0,.52-1.82,2.57,2.57,0,0,0-.52-1.75,1.74,1.74,0,0,0-2.62,0A2.64,2.64,0,0,0,58,728.21Z" style="fill:#fff"/><path d="M64,731.32v-5.4H63.1v-.82H64v-.66a2.9,2.9,0,0,1,.11-.93,1.35,1.35,0,0,1,.54-.67,1.93,1.93,0,0,1,1.08-.25,5.16,5.16,0,0,1,1,.11l-.16.92a3.54,3.54,0,0,0-.62-.06.92.92,0,0,0-.68.21,1.11,1.11,0,0,0-.2.77v.57H66.3v.82H65.08v5.4Z" style="fill:#fff"/><path d="M75.74,722.73h1.14v5a5.87,5.87,0,0,1-.29,2.06A2.51,2.51,0,0,1,75.53,731a3.75,3.75,0,0,1-2,.48,4.12,4.12,0,0,1-2-.42,2.37,2.37,0,0,1-1.1-1.2,5.74,5.74,0,0,1-.33-2.15v-5h1.14v5a4.83,4.83,0,0,0,.21,1.65,1.58,1.58,0,0,0,.71.82,2.48,2.48,0,0,0,1.24.29,2.37,2.37,0,0,0,1.79-.57,3.27,3.27,0,0,0,.53-2.19Z" style="fill:#fff"/><path d="M78,729.47l1-.16a1.46,1.46,0,0,0,.49,1,1.71,1.71,0,0,0,1.12.33,1.65,1.65,0,0,0,1.08-.3.88.88,0,0,0,.35-.69.64.64,0,0,0-.31-.56,4.57,4.57,0,0,0-1.08-.36,9.84,9.84,0,0,1-1.61-.51,1.54,1.54,0,0,1-.91-1.43,1.6,1.6,0,0,1,.19-.77,1.71,1.71,0,0,1,.52-.59,2.17,2.17,0,0,1,.67-.31,3.19,3.19,0,0,1,.91-.13,3.6,3.6,0,0,1,1.29.21,1.75,1.75,0,0,1,.82.57,2.23,2.23,0,0,1,.36,1l-1,.14a1.13,1.13,0,0,0-.41-.75,1.49,1.49,0,0,0-1-.27,1.72,1.72,0,0,0-1,.24.7.7,0,0,0-.31.56.58.58,0,0,0,.13.37.93.93,0,0,0,.4.28l.93.27a13,13,0,0,1,1.56.49,1.58,1.58,0,0,1,.69.55,1.55,1.55,0,0,1,.25.9,1.77,1.77,0,0,1-.31,1,2,2,0,0,1-.89.72,3.23,3.23,0,0,1-1.31.25,2.92,2.92,0,0,1-1.85-.5A2.34,2.34,0,0,1,78,729.47Z" style="fill:#fff"/><path d="M88.42,729.32l1.09.13a2.66,2.66,0,0,1-1,1.48,3.24,3.24,0,0,1-3.95-.31,3.29,3.29,0,0,1-.8-2.36,3.44,3.44,0,0,1,.81-2.44,2.74,2.74,0,0,1,2.1-.87,2.66,2.66,0,0,1,2,.85,3.38,3.38,0,0,1,.79,2.39q0,.09,0,.28H84.89a2.39,2.39,0,0,0,.58,1.57,1.73,1.73,0,0,0,1.3.54,1.61,1.61,0,0,0,1-.3A2,2,0,0,0,88.42,729.32ZM85,727.61h3.47a2.11,2.11,0,0,0-.4-1.18,1.62,1.62,0,0,0-1.31-.61,1.68,1.68,0,0,0-1.22.49A1.92,1.92,0,0,0,85,727.61Z" style="fill:#fff"/><path d="M103.28,733.85V722.59h.92v11.26Z" style="fill:#fff"/><path d="M118.35,731.32v-8.59h3.24a7.82,7.82,0,0,1,1.31.08,2.59,2.59,0,0,1,1.06.4,2.11,2.11,0,0,1,.69.83,2.8,2.8,0,0,1-.44,3,3.34,3.34,0,0,1-2.52.76h-2.2v3.49Zm1.14-4.51h2.22a2.36,2.36,0,0,0,1.56-.41,1.46,1.46,0,0,0,.46-1.15,1.55,1.55,0,0,0-.27-.92,1.27,1.27,0,0,0-.72-.51,4.86,4.86,0,0,0-1.06-.08h-2.2Z" style="fill:#fff"/><path d="M126,731.32V725.1h.95V726a2.57,2.57,0,0,1,.67-.87,1.17,1.17,0,0,1,.68-.21,2.06,2.06,0,0,1,1.08.34l-.36,1a1.51,1.51,0,0,0-.77-.23,1,1,0,0,0-.62.21,1.13,1.13,0,0,0-.39.58,4.11,4.11,0,0,0-.18,1.23v3.26Z" style="fill:#fff"/><path d="M129.75,723.95v-1.21h1.05v1.21Zm0,7.38V725.1h1.05v6.22Z" style="fill:#fff"/><path d="M133.89,731.32l-2.37-6.22h1.11l1.34,3.73q.22.6.4,1.25.14-.49.39-1.18l1.38-3.8h1.08l-2.36,6.22Z" style="fill:#fff"/><path d="M142,730.56a3.93,3.93,0,0,1-1.13.7,3.26,3.26,0,0,1-1.16.21,2.26,2.26,0,0,1-1.58-.5,1.65,1.65,0,0,1-.55-1.28,1.7,1.7,0,0,1,.21-.83,1.72,1.72,0,0,1,.54-.61,2.56,2.56,0,0,1,.76-.35,7.54,7.54,0,0,1,.94-.16,9.64,9.64,0,0,0,1.88-.36q0-.22,0-.28a1.16,1.16,0,0,0-.3-.91,1.77,1.77,0,0,0-1.2-.36,1.86,1.86,0,0,0-1.1.26,1.59,1.59,0,0,0-.52.92l-1-.14a2.56,2.56,0,0,1,.46-1.07,2,2,0,0,1,.93-.63,4.16,4.16,0,0,1,1.41-.22,3.74,3.74,0,0,1,1.29.19,1.71,1.71,0,0,1,.73.47,1.66,1.66,0,0,1,.33.72,5.94,5.94,0,0,1,.05,1v1.41a14.93,14.93,0,0,0,.07,1.86,2.35,2.35,0,0,0,.27.75h-1.1A2.24,2.24,0,0,1,142,730.56Zm-.09-2.36a7.74,7.74,0,0,1-1.72.4,4,4,0,0,0-.92.21.92.92,0,0,0-.42.34.93.93,0,0,0,.17,1.2,1.37,1.37,0,0,0,.93.28,2.18,2.18,0,0,0,1.08-.27,1.64,1.64,0,0,0,.7-.73,2.55,2.55,0,0,0,.17-1.05Z" style="fill:#fff"/><path d="M148.42,729l1,.13a2.69,2.69,0,0,1-.87,1.68,2.53,2.53,0,0,1-1.72.61,2.67,2.67,0,0,1-2.05-.83,3.39,3.39,0,0,1-.78-2.39,4.33,4.33,0,0,1,.33-1.76,2.33,2.33,0,0,1,1-1.13,3,3,0,0,1,1.49-.38,2.58,2.58,0,0,1,1.66.51,2.35,2.35,0,0,1,.83,1.46l-1,.16a1.7,1.7,0,0,0-.52-.94,1.34,1.34,0,0,0-.9-.32,1.64,1.64,0,0,0-1.29.57,2.71,2.71,0,0,0-.5,1.81,2.8,2.8,0,0,0,.48,1.82,1.56,1.56,0,0,0,1.25.57,1.48,1.48,0,0,0,1-.38A1.89,1.89,0,0,0,148.42,729Z" style="fill:#fff"/><path d="M150.07,733.72l-.12-1a2.35,2.35,0,0,0,.6.09,1.16,1.16,0,0,0,.56-.12,1,1,0,0,0,.35-.33,5.17,5.17,0,0,0,.32-.79l.09-.26-2.36-6.23h1.14l1.29,3.6q.25.69.45,1.44a14.19,14.19,0,0,1,.43-1.42l1.33-3.63h1.05l-2.37,6.33a12.42,12.42,0,0,1-.59,1.41,2.08,2.08,0,0,1-.64.76,1.52,1.52,0,0,1-.87.24A2.11,2.11,0,0,1,150.07,733.72Z" style="fill:#fff"/><path d="M159.11,731.32v-8.59h3.24a7.82,7.82,0,0,1,1.31.08,2.59,2.59,0,0,1,1.06.4,2.11,2.11,0,0,1,.69.83,2.8,2.8,0,0,1-.44,3,3.34,3.34,0,0,1-2.52.76h-2.2v3.49Zm1.14-4.51h2.22a2.36,2.36,0,0,0,1.56-.41,1.46,1.46,0,0,0,.46-1.15,1.55,1.55,0,0,0-.27-.92,1.27,1.27,0,0,0-.72-.51,4.86,4.86,0,0,0-1.06-.08h-2.2Z" style="fill:#fff"/><path d="M166.34,728.21a3.21,3.21,0,0,1,1-2.56,2.9,2.9,0,0,1,2-.69,2.79,2.79,0,0,1,2.1.84,3.2,3.2,0,0,1,.81,2.32,4.12,4.12,0,0,1-.36,1.89,2.55,2.55,0,0,1-1,1.07,3.05,3.05,0,0,1-1.5.38,2.8,2.8,0,0,1-2.11-.84A3.35,3.35,0,0,1,166.34,728.21Zm1.08,0a2.65,2.65,0,0,0,.52,1.79,1.74,1.74,0,0,0,2.62,0,2.71,2.71,0,0,0,.52-1.82,2.57,2.57,0,0,0-.52-1.75,1.74,1.74,0,0,0-2.62,0A2.64,2.64,0,0,0,167.43,728.21Z" style="fill:#fff"/><path d="M173.15,731.32v-8.59h1.05v8.59Z" style="fill:#fff"/><path d="M175.6,723.95v-1.21h1.05v1.21Zm0,7.38V725.1h1.05v6.22Z" style="fill:#fff"/><path d="M182.08,729l1,.13a2.69,2.69,0,0,1-.87,1.68,2.53,2.53,0,0,1-1.72.61,2.67,2.67,0,0,1-2.05-.83,3.39,3.39,0,0,1-.78-2.39,4.33,4.33,0,0,1,.33-1.76,2.33,2.33,0,0,1,1-1.13,3,3,0,0,1,1.49-.38,2.58,2.58,0,0,1,1.66.51,2.35,2.35,0,0,1,.83,1.46l-1,.16a1.7,1.7,0,0,0-.52-.94,1.34,1.34,0,0,0-.9-.32,1.64,1.64,0,0,0-1.29.57,2.71,2.71,0,0,0-.5,1.81,2.8,2.8,0,0,0,.48,1.82,1.56,1.56,0,0,0,1.25.57,1.48,1.48,0,0,0,1-.38A1.89,1.89,0,0,0,182.08,729Z" style="fill:#fff"/><path d="M183.74,733.72l-.12-1a2.35,2.35,0,0,0,.6.09,1.16,1.16,0,0,0,.56-.12,1,1,0,0,0,.35-.33,5.17,5.17,0,0,0,.32-.79l.09-.26-2.36-6.23h1.14l1.29,3.6q.25.69.45,1.44a14.19,14.19,0,0,1,.43-1.42l1.33-3.63h1.05l-2.37,6.33a12.42,12.42,0,0,1-.59,1.41,2.08,2.08,0,0,1-.64.76,1.52,1.52,0,0,1-.87.24A2.11,2.11,0,0,1,183.74,733.72Z" style="fill:#fff"/><path d="M202.23,733.85V722.59h.92v11.26Z" style="fill:#fff"/><path d="M223.44,728.31l1.14.29a3.83,3.83,0,0,1-1.29,2.14,3.54,3.54,0,0,1-2.27.74,4.08,4.08,0,0,1-2.26-.57,3.53,3.53,0,0,1-1.32-1.64A5.84,5.84,0,0,1,217,727a5.06,5.06,0,0,1,.51-2.34,3.51,3.51,0,0,1,1.46-1.52,4.26,4.26,0,0,1,2.08-.52,3.52,3.52,0,0,1,2.17.66,3.41,3.41,0,0,1,1.22,1.85l-1.12.26a2.65,2.65,0,0,0-.87-1.37,2.31,2.31,0,0,0-1.43-.43,2.78,2.78,0,0,0-1.66.47,2.51,2.51,0,0,0-.93,1.27,5.13,5.13,0,0,0-.27,1.65,5.24,5.24,0,0,0,.32,1.91,2.38,2.38,0,0,0,1,1.22,2.79,2.79,0,0,0,1.46.4,2.44,2.44,0,0,0,1.62-.55A2.82,2.82,0,0,0,223.44,728.31Z" style="fill:#fff"/><path d="M229.68,731.32v-.91a2.28,2.28,0,0,1-2,1.05,2.52,2.52,0,0,1-1-.21,1.69,1.69,0,0,1-.71-.53,2,2,0,0,1-.33-.78,5.36,5.36,0,0,1-.06-1V725.1h1.05v3.45a6.15,6.15,0,0,0,.06,1.11,1.1,1.1,0,0,0,.42.65,1.31,1.31,0,0,0,.8.24,1.74,1.74,0,0,0,.89-.24,1.35,1.35,0,0,0,.59-.66,3.32,3.32,0,0,0,.17-1.22V725.1h1.05v6.22Z" style="fill:#fff"/><path d="M231.61,729.47l1-.16a1.46,1.46,0,0,0,.49,1,1.71,1.71,0,0,0,1.12.33,1.65,1.65,0,0,0,1.08-.3.88.88,0,0,0,.35-.69.64.64,0,0,0-.31-.56,4.57,4.57,0,0,0-1.08-.36,9.84,9.84,0,0,1-1.61-.51,1.54,1.54,0,0,1-.91-1.43A1.6,1.6,0,0,1,232,726a1.71,1.71,0,0,1,.52-.59,2.17,2.17,0,0,1,.67-.31,3.19,3.19,0,0,1,.91-.13,3.6,3.6,0,0,1,1.29.21,1.75,1.75,0,0,1,.82.57,2.23,2.23,0,0,1,.36,1l-1,.14a1.13,1.13,0,0,0-.41-.75,1.49,1.49,0,0,0-1-.27,1.72,1.72,0,0,0-1,.24.7.7,0,0,0-.31.56.58.58,0,0,0,.13.37.93.93,0,0,0,.4.28l.93.27a13,13,0,0,1,1.56.49,1.58,1.58,0,0,1,.69.55,1.55,1.55,0,0,1,.25.9,1.77,1.77,0,0,1-.31,1,2,2,0,0,1-.89.72,3.23,3.23,0,0,1-1.31.25,2.92,2.92,0,0,1-1.85-.5A2.34,2.34,0,0,1,231.61,729.47Z" style="fill:#fff"/><path d="M240.09,730.38l.15.93a3.91,3.91,0,0,1-.8.09,1.8,1.8,0,0,1-.89-.18,1,1,0,0,1-.45-.48,3.78,3.78,0,0,1-.13-1.25v-3.58h-.77v-.82H238v-1.54l1-.63v2.17h1.06v.82H239v3.64a1.84,1.84,0,0,0,.06.58.44.44,0,0,0,.18.21.7.7,0,0,0,.36.08A3.43,3.43,0,0,0,240.09,730.38Z" style="fill:#fff"/><path d="M240.49,728.21a3.21,3.21,0,0,1,1-2.56,2.9,2.9,0,0,1,2-.69,2.79,2.79,0,0,1,2.1.84,3.2,3.2,0,0,1,.81,2.32A4.12,4.12,0,0,1,246,730a2.55,2.55,0,0,1-1,1.07,3.05,3.05,0,0,1-1.5.38,2.8,2.8,0,0,1-2.11-.84A3.35,3.35,0,0,1,240.49,728.21Zm1.08,0a2.65,2.65,0,0,0,.52,1.79,1.74,1.74,0,0,0,2.62,0,2.71,2.71,0,0,0,.52-1.82,2.57,2.57,0,0,0-.52-1.75,1.74,1.74,0,0,0-2.62,0A2.64,2.64,0,0,0,241.58,728.21Z" style="fill:#fff"/><path d="M247.32,731.32V725.1h.94V726a2.22,2.22,0,0,1,.78-.74,2.19,2.19,0,0,1,1.11-.28,2,2,0,0,1,1.13.29,1.54,1.54,0,0,1,.62.8,2.23,2.23,0,0,1,1.92-1.09,1.89,1.89,0,0,1,1.42.51,2.19,2.19,0,0,1,.5,1.58v4.27h-1V727.4a2.89,2.89,0,0,0-.1-.91.88.88,0,0,0-.37-.45,1.16,1.16,0,0,0-.63-.17,1.47,1.47,0,0,0-1.09.44,1.92,1.92,0,0,0-.43,1.4v3.62H251v-4a1.78,1.78,0,0,0-.26-1.05,1,1,0,0,0-.84-.35,1.53,1.53,0,0,0-.82.23,1.33,1.33,0,0,0-.55.69,3.86,3.86,0,0,0-.17,1.3v3.23Z" style="fill:#fff"/><path d="M261.33,729.32l1.09.13a2.66,2.66,0,0,1-1,1.48,3.24,3.24,0,0,1-3.95-.31,3.29,3.29,0,0,1-.8-2.36,3.44,3.44,0,0,1,.81-2.44,2.74,2.74,0,0,1,2.1-.87,2.66,2.66,0,0,1,2,.85,3.38,3.38,0,0,1,.79,2.39q0,.09,0,.28h-4.64a2.39,2.39,0,0,0,.58,1.57,1.73,1.73,0,0,0,1.3.54,1.61,1.61,0,0,0,1-.3A2,2,0,0,0,261.33,729.32Zm-3.46-1.71h3.47a2.11,2.11,0,0,0-.4-1.18,1.62,1.62,0,0,0-1.31-.61,1.68,1.68,0,0,0-1.22.49A1.92,1.92,0,0,0,257.87,727.61Z" style="fill:#fff"/><path d="M263.5,731.32V725.1h.95V726a2.57,2.57,0,0,1,.67-.87,1.17,1.17,0,0,1,.68-.21,2.06,2.06,0,0,1,1.08.34l-.36,1a1.51,1.51,0,0,0-.77-.23,1,1,0,0,0-.62.21,1.13,1.13,0,0,0-.39.58,4.11,4.11,0,0,0-.18,1.23v3.26Z" style="fill:#fff"/><path d="M276.62,728.31l1.14.29a3.83,3.83,0,0,1-1.29,2.14,3.54,3.54,0,0,1-2.27.74,4.08,4.08,0,0,1-2.26-.57,3.53,3.53,0,0,1-1.32-1.64,5.84,5.84,0,0,1-.45-2.3,5.06,5.06,0,0,1,.51-2.34,3.51,3.51,0,0,1,1.46-1.52,4.26,4.26,0,0,1,2.08-.52,3.52,3.52,0,0,1,2.17.66,3.41,3.41,0,0,1,1.22,1.85l-1.12.26a2.65,2.65,0,0,0-.87-1.37,2.31,2.31,0,0,0-1.43-.43,2.78,2.78,0,0,0-1.66.47,2.51,2.51,0,0,0-.93,1.27,5.13,5.13,0,0,0-.27,1.65,5.24,5.24,0,0,0,.32,1.91,2.38,2.38,0,0,0,1,1.22,2.79,2.79,0,0,0,1.46.4,2.44,2.44,0,0,0,1.62-.55A2.82,2.82,0,0,0,276.62,728.31Z" style="fill:#fff"/><path d="M282.85,730.56a3.93,3.93,0,0,1-1.13.7,3.26,3.26,0,0,1-1.16.21A2.26,2.26,0,0,1,279,731a1.65,1.65,0,0,1-.55-1.28,1.7,1.7,0,0,1,.21-.83,1.72,1.72,0,0,1,.54-.61,2.56,2.56,0,0,1,.76-.35,7.54,7.54,0,0,1,.94-.16,9.64,9.64,0,0,0,1.88-.36q0-.22,0-.28a1.16,1.16,0,0,0-.3-.91,1.77,1.77,0,0,0-1.2-.36,1.86,1.86,0,0,0-1.1.26,1.59,1.59,0,0,0-.52.92l-1-.14a2.56,2.56,0,0,1,.46-1.07,2,2,0,0,1,.93-.63,4.16,4.16,0,0,1,1.41-.22,3.74,3.74,0,0,1,1.29.19,1.71,1.71,0,0,1,.73.47,1.66,1.66,0,0,1,.33.72,5.94,5.94,0,0,1,.05,1v1.41a14.93,14.93,0,0,0,.07,1.86,2.35,2.35,0,0,0,.27.75h-1.1A2.24,2.24,0,0,1,282.85,730.56Zm-.09-2.36a7.74,7.74,0,0,1-1.72.4,4,4,0,0,0-.92.21.92.92,0,0,0-.42.34.93.93,0,0,0,.17,1.2,1.37,1.37,0,0,0,.93.28,2.18,2.18,0,0,0,1.08-.27,1.64,1.64,0,0,0,.7-.73,2.55,2.55,0,0,0,.17-1.05Z" style="fill:#fff"/><path d="M285.21,731.32V725.1h.95V726a2.57,2.57,0,0,1,.67-.87,1.17,1.17,0,0,1,.68-.21,2.06,2.06,0,0,1,1.08.34l-.36,1a1.51,1.51,0,0,0-.77-.23,1,1,0,0,0-.62.21,1.13,1.13,0,0,0-.39.58,4.11,4.11,0,0,0-.18,1.23v3.26Z" style="fill:#fff"/><path d="M293.23,729.32l1.09.13a2.66,2.66,0,0,1-1,1.48,3.24,3.24,0,0,1-3.95-.31,3.29,3.29,0,0,1-.8-2.36,3.44,3.44,0,0,1,.81-2.44,2.74,2.74,0,0,1,2.1-.87,2.66,2.66,0,0,1,2,.85,3.38,3.38,0,0,1,.79,2.39q0,.09,0,.28h-4.64a2.39,2.39,0,0,0,.58,1.57,1.73,1.73,0,0,0,1.3.54,1.61,1.61,0,0,0,1-.3A2,2,0,0,0,293.23,729.32Zm-3.46-1.71h3.47a2.11,2.11,0,0,0-.4-1.18,1.62,1.62,0,0,0-1.31-.61,1.68,1.68,0,0,0-1.22.49A1.92,1.92,0,0,0,289.77,727.61Z" style="fill:#fff"/><path d="M26.44,738.59a4.53,4.53,0,0,1,2.17.57,4.06,4.06,0,0,1,1.65,1.63,4.44,4.44,0,0,1,0,4.42,4.11,4.11,0,0,1-1.63,1.64,4.44,4.44,0,0,1-4.4,0,4.13,4.13,0,0,1-1.64-1.64,4.42,4.42,0,0,1,0-4.42,4.08,4.08,0,0,1,1.66-1.63A4.53,4.53,0,0,1,26.44,738.59Zm0,.73a3.76,3.76,0,0,0-1.81.48,3.43,3.43,0,0,0-1.38,1.37,3.68,3.68,0,0,0,0,3.68,3.47,3.47,0,0,0,1.37,1.37,3.68,3.68,0,0,0,3.67,0,3.45,3.45,0,0,0,1.37-1.37,3.69,3.69,0,0,0,0-3.68,3.4,3.4,0,0,0-1.38-1.37A3.77,3.77,0,0,0,26.44,739.32Zm1.42,4.41.72.21a2,2,0,0,1-.75,1.17,2.43,2.43,0,0,1-3.06-.23,2.56,2.56,0,0,1-.64-1.85,2.91,2.91,0,0,1,.29-1.34,2,2,0,0,1,.83-.86,2.59,2.59,0,0,1,1.24-.29,2.16,2.16,0,0,1,1.29.37,1.85,1.85,0,0,1,.7,1l-.7.17a1.42,1.42,0,0,0-.52-.67,1.41,1.41,0,0,0-.81-.23,1.43,1.43,0,0,0-1.11.48,2.41,2.41,0,0,0,0,2.73,1.37,1.37,0,0,0,1.07.46,1.48,1.48,0,0,0,.93-.3A1.44,1.44,0,0,0,27.86,743.73Z" style="fill:#fff"/><path d="M39.73,746.31v1H34.06a1.87,1.87,0,0,1,.12-.73,3.87,3.87,0,0,1,.69-1.14,10.88,10.88,0,0,1,1.38-1.3,11.7,11.7,0,0,0,1.89-1.82,2.18,2.18,0,0,0,.49-1.27,1.41,1.41,0,0,0-.45-1.06,1.62,1.62,0,0,0-1.17-.43,1.65,1.65,0,0,0-1.22.46,1.73,1.73,0,0,0-.46,1.27l-1.08-.11a2.67,2.67,0,0,1,.84-1.85,2.86,2.86,0,0,1,2-.64,2.72,2.72,0,0,1,2,.69,2.25,2.25,0,0,1,.72,1.7,2.58,2.58,0,0,1-.21,1,3.93,3.93,0,0,1-.7,1,17.06,17.06,0,0,1-1.63,1.51q-.95.8-1.22,1.08a3.47,3.47,0,0,0-.45.57Z" style="fill:#fff"/><path d="M40.63,743.09a7.86,7.86,0,0,1,.31-2.45,3.05,3.05,0,0,1,.93-1.43,2.38,2.38,0,0,1,1.56-.5,2.54,2.54,0,0,1,1.21.28,2.32,2.32,0,0,1,.86.8,4.31,4.31,0,0,1,.53,1.28,8.49,8.49,0,0,1,.19,2,7.88,7.88,0,0,1-.31,2.44A3.05,3.05,0,0,1,45,747a2.38,2.38,0,0,1-1.56.51,2.36,2.36,0,0,1-2-.89A5.66,5.66,0,0,1,40.63,743.09Zm1.08,0a5.39,5.39,0,0,0,.5,2.82,1.41,1.41,0,0,0,2.44,0,8.25,8.25,0,0,0,0-5.63,1.47,1.47,0,0,0-1.23-.7,1.35,1.35,0,0,0-1.16.62A5.45,5.45,0,0,0,41.71,743.09Z" style="fill:#fff"/><path d="M51,747.32H50V740.6a5.45,5.45,0,0,1-1,.73,7.08,7.08,0,0,1-1.11.54v-1a6.37,6.37,0,0,0,1.55-1,4,4,0,0,0,.94-1.15H51Z" style="fill:#fff"/><path d="M53.56,739.86v-1h5.56v.82A11.72,11.72,0,0,0,57.5,742a14.13,14.13,0,0,0-1.25,3,11.06,11.06,0,0,0-.4,2.36H54.76a10.53,10.53,0,0,1,.4-2.45,12.86,12.86,0,0,1,1.09-2.77,11.87,11.87,0,0,1,1.51-2.25Z" style="fill:#fff"/><path d="M60.49,747.32v-1.2h1.2v1.2a2.13,2.13,0,0,1-.23,1.07,1.53,1.53,0,0,1-.74.63l-.29-.45a1,1,0,0,0,.49-.43,1.84,1.84,0,0,0,.18-.82Z" style="fill:#fff"/><path d="M66.74,747.32v-8.59h1.14v8.59Z" style="fill:#fff"/><path d="M69.67,747.32v-8.59h1.14v3.53h4.46v-3.53h1.14v8.59H75.27v-4H70.81v4Z" style="fill:#fff"/><path d="M77.67,744.56l1.07-.09a2.37,2.37,0,0,0,.35,1.06,1.94,1.94,0,0,0,.86.67,3.27,3.27,0,0,0,1.32.25,3.16,3.16,0,0,0,1.15-.19,1.59,1.59,0,0,0,.74-.53,1.23,1.23,0,0,0,.24-.74,1.12,1.12,0,0,0-.23-.71,1.74,1.74,0,0,0-.77-.51,15.12,15.12,0,0,0-1.53-.42,7.81,7.81,0,0,1-1.66-.54,2.33,2.33,0,0,1-.92-.8A2,2,0,0,1,78,741a2.18,2.18,0,0,1,.37-1.22,2.29,2.29,0,0,1,1.08-.86,4.09,4.09,0,0,1,1.58-.29,4.31,4.31,0,0,1,1.68.31,2.43,2.43,0,0,1,1.12.91,2.6,2.6,0,0,1,.42,1.35l-1.09.08a1.76,1.76,0,0,0-.59-1.23,2.31,2.31,0,0,0-1.5-.42,2.4,2.4,0,0,0-1.5.38,1.13,1.13,0,0,0-.47.91,1,1,0,0,0,.33.76,4.53,4.53,0,0,0,1.71.61,11.34,11.34,0,0,1,1.9.55,2.6,2.6,0,0,1,1.11.88,2.13,2.13,0,0,1,.36,1.22,2.34,2.34,0,0,1-.39,1.29,2.58,2.58,0,0,1-1.13.94,3.93,3.93,0,0,1-1.66.34,4.94,4.94,0,0,1-2-.34,2.74,2.74,0,0,1-1.24-1A2.9,2.9,0,0,1,77.67,744.56Z" style="fill:#fff"/><path d="M88.88,747.32v-8.59H90.6l2,6.08q.28.85.41,1.27.15-.47.46-1.38l2.06-6h1.53v8.59H96v-7.19l-2.5,7.19h-1L90,740v7.31Z" style="fill:#fff"/><path d="M102.6,746.56a3.93,3.93,0,0,1-1.13.7,3.26,3.26,0,0,1-1.16.21,2.26,2.26,0,0,1-1.58-.5,1.65,1.65,0,0,1-.55-1.28,1.7,1.7,0,0,1,.21-.83,1.72,1.72,0,0,1,.54-.61,2.56,2.56,0,0,1,.76-.35,7.54,7.54,0,0,1,.94-.16,9.64,9.64,0,0,0,1.88-.36q0-.22,0-.28a1.16,1.16,0,0,0-.3-.91,1.77,1.77,0,0,0-1.2-.36,1.86,1.86,0,0,0-1.1.26,1.59,1.59,0,0,0-.52.92l-1-.14a2.56,2.56,0,0,1,.46-1.07,2,2,0,0,1,.93-.63,4.16,4.16,0,0,1,1.41-.22,3.74,3.74,0,0,1,1.29.19,1.71,1.71,0,0,1,.73.47,1.66,1.66,0,0,1,.33.72,5.94,5.94,0,0,1,.05,1v1.41a14.93,14.93,0,0,0,.07,1.86,2.35,2.35,0,0,0,.27.75h-1.1A2.24,2.24,0,0,1,102.6,746.56Zm-.09-2.36a7.74,7.74,0,0,1-1.72.4,4,4,0,0,0-.92.21.92.92,0,0,0-.42.34.93.93,0,0,0,.17,1.2,1.37,1.37,0,0,0,.93.28,2.18,2.18,0,0,0,1.08-.27,1.64,1.64,0,0,0,.7-.73,2.55,2.55,0,0,0,.17-1.05Z" style="fill:#fff"/><path d="M105,747.32V741.1h.95V742a2.57,2.57,0,0,1,.67-.87,1.17,1.17,0,0,1,.68-.21,2.06,2.06,0,0,1,1.08.34l-.36,1a1.51,1.51,0,0,0-.77-.23,1,1,0,0,0-.62.21,1.13,1.13,0,0,0-.39.58,4.11,4.11,0,0,0-.18,1.23v3.26Z" style="fill:#fff"/><path d="M108.74,747.32v-8.59h1.05v4.9l2.5-2.53h1.37l-2.38,2.31,2.62,3.91h-1.3l-2.06-3.18-.74.71v2.47Z" style="fill:#fff"/><path d="M114.5,739.95v-1.21h1.05v1.21Zm0,7.38V741.1h1.05v6.22Z" style="fill:#fff"/><path d="M119.22,746.38l.15.93a3.91,3.91,0,0,1-.8.09,1.8,1.8,0,0,1-.89-.18,1,1,0,0,1-.45-.48,3.78,3.78,0,0,1-.13-1.25v-3.58h-.77v-.82h.77v-1.54l1-.63v2.17h1.06v.82h-1.06v3.64a1.84,1.84,0,0,0,.06.58.44.44,0,0,0,.18.21.7.7,0,0,0,.36.08A3.43,3.43,0,0,0,119.22,746.38Z" style="fill:#fff"/><path d="M120.31,747.32v-1.2h1.2v1.2Z" style="fill:#fff"/><path d="M124.73,747.32l3.3-8.59h1.22l3.52,8.59h-1.29l-1-2.6h-3.59l-.94,2.6Zm2.48-3.53h2.91l-.9-2.38q-.41-1.08-.61-1.78a11,11,0,0,1-.46,1.64Z" style="fill:#fff"/><path d="M133.28,747.32v-8.59h1.05v8.59Z" style="fill:#fff"/><path d="M135.7,747.32v-8.59h1.05v8.59Z" style="fill:#fff"/><path d="M141.24,747.32V741.1h.95V742a2.57,2.57,0,0,1,.67-.87,1.17,1.17,0,0,1,.68-.21,2.06,2.06,0,0,1,1.08.34l-.36,1a1.51,1.51,0,0,0-.77-.23,1,1,0,0,0-.62.21,1.13,1.13,0,0,0-.39.58,4.11,4.11,0,0,0-.18,1.23v3.26Z" style="fill:#fff"/><path d="M145,739.95v-1.21h1.05v1.21Zm0,7.38V741.1h1.05v6.22Z" style="fill:#fff"/><path d="M147.24,747.84l1,.15a1,1,0,0,0,.36.69,1.76,1.76,0,0,0,1.07.29,1.88,1.88,0,0,0,1.13-.29,1.44,1.44,0,0,0,.54-.82,6.74,6.74,0,0,0,.08-1.35,2.17,2.17,0,0,1-1.72.81,2.35,2.35,0,0,1-2-.93,3.57,3.57,0,0,1-.7-2.22,4.13,4.13,0,0,1,.32-1.64,2.58,2.58,0,0,1,.93-1.16,2.52,2.52,0,0,1,1.44-.41,2.23,2.23,0,0,1,1.82.89v-.75h1v5.38a5.1,5.1,0,0,1-.3,2.06,2.16,2.16,0,0,1-.94,1,3.25,3.25,0,0,1-1.58.35,3,3,0,0,1-1.8-.5A1.69,1.69,0,0,1,147.24,747.84Zm.87-3.74a2.7,2.7,0,0,0,.49,1.79,1.6,1.6,0,0,0,2.44,0,2.61,2.61,0,0,0,.49-1.75,2.55,2.55,0,0,0-.51-1.72,1.57,1.57,0,0,0-1.22-.58,1.52,1.52,0,0,0-1.2.57A2.54,2.54,0,0,0,148.11,744.1Z" style="fill:#fff"/><path d="M153.86,747.32v-8.59h1.05v3.08a2.36,2.36,0,0,1,1.86-.86,2.51,2.51,0,0,1,1.2.27,1.6,1.6,0,0,1,.73.75,3.47,3.47,0,0,1,.22,1.39v3.94h-1.05v-3.94a1.63,1.63,0,0,0-.34-1.15,1.27,1.27,0,0,0-1-.36,1.71,1.71,0,0,0-.88.24,1.37,1.37,0,0,0-.59.66,3,3,0,0,0-.18,1.15v3.4Z" style="fill:#fff"/><path d="M162.6,746.38l.15.93a3.91,3.91,0,0,1-.8.09,1.8,1.8,0,0,1-.89-.18,1,1,0,0,1-.45-.48,3.78,3.78,0,0,1-.13-1.25v-3.58h-.77v-.82h.77v-1.54l1-.63v2.17h1.06v.82h-1.06v3.64a1.84,1.84,0,0,0,.06.58.44.44,0,0,0,.18.21.7.7,0,0,0,.36.08A3.43,3.43,0,0,0,162.6,746.38Z" style="fill:#fff"/><path d="M163,745.47l1-.16a1.46,1.46,0,0,0,.49,1,1.71,1.71,0,0,0,1.12.33,1.65,1.65,0,0,0,1.08-.3.88.88,0,0,0,.35-.69.64.64,0,0,0-.31-.56,4.57,4.57,0,0,0-1.08-.36,9.84,9.84,0,0,1-1.61-.51,1.54,1.54,0,0,1-.91-1.43,1.6,1.6,0,0,1,.19-.77,1.71,1.71,0,0,1,.52-.59,2.17,2.17,0,0,1,.67-.31,3.19,3.19,0,0,1,.91-.13,3.6,3.6,0,0,1,1.29.21,1.75,1.75,0,0,1,.82.57,2.23,2.23,0,0,1,.36,1l-1,.14a1.13,1.13,0,0,0-.41-.75,1.49,1.49,0,0,0-1-.27,1.72,1.72,0,0,0-1,.24.7.7,0,0,0-.31.56.58.58,0,0,0,.13.37.93.93,0,0,0,.4.28l.93.27a13,13,0,0,1,1.56.49,1.58,1.58,0,0,1,.69.55,1.55,1.55,0,0,1,.25.9,1.77,1.77,0,0,1-.31,1,2,2,0,0,1-.89.72,3.23,3.23,0,0,1-1.31.25,2.92,2.92,0,0,1-1.85-.5A2.34,2.34,0,0,1,163,745.47Z" style="fill:#fff"/><path d="M172.23,747.32V741.1h.95V742a2.57,2.57,0,0,1,.67-.87,1.17,1.17,0,0,1,.68-.21,2.06,2.06,0,0,1,1.08.34l-.36,1a1.51,1.51,0,0,0-.77-.23,1,1,0,0,0-.62.21,1.13,1.13,0,0,0-.39.58,4.11,4.11,0,0,0-.18,1.23v3.26Z" style="fill:#fff"/><path d="M180.26,745.32l1.09.13a2.66,2.66,0,0,1-1,1.48,3.24,3.24,0,0,1-3.95-.31,3.29,3.29,0,0,1-.8-2.36,3.44,3.44,0,0,1,.81-2.44,2.74,2.74,0,0,1,2.1-.87,2.66,2.66,0,0,1,2,.85,3.38,3.38,0,0,1,.79,2.39q0,.09,0,.28h-4.64a2.39,2.39,0,0,0,.58,1.57,1.73,1.73,0,0,0,1.3.54,1.61,1.61,0,0,0,1-.3A2,2,0,0,0,180.26,745.32Zm-3.46-1.71h3.47a2.11,2.11,0,0,0-.4-1.18,1.62,1.62,0,0,0-1.31-.61,1.68,1.68,0,0,0-1.22.49A1.92,1.92,0,0,0,176.8,743.61Z" style="fill:#fff"/><path d="M182,745.47l1-.16a1.46,1.46,0,0,0,.49,1,1.71,1.71,0,0,0,1.12.33,1.65,1.65,0,0,0,1.08-.3.88.88,0,0,0,.35-.69.64.64,0,0,0-.31-.56,4.57,4.57,0,0,0-1.08-.36,9.84,9.84,0,0,1-1.61-.51,1.54,1.54,0,0,1-.91-1.43,1.6,1.6,0,0,1,.19-.77,1.71,1.71,0,0,1,.52-.59,2.17,2.17,0,0,1,.67-.31,3.19,3.19,0,0,1,.91-.13,3.6,3.6,0,0,1,1.29.21,1.75,1.75,0,0,1,.82.57,2.23,2.23,0,0,1,.36,1l-1,.14a1.13,1.13,0,0,0-.41-.75,1.49,1.49,0,0,0-1-.27,1.72,1.72,0,0,0-1,.24.7.7,0,0,0-.31.56.58.58,0,0,0,.13.37.93.93,0,0,0,.4.28l.93.27a13,13,0,0,1,1.56.49,1.58,1.58,0,0,1,.69.55,1.55,1.55,0,0,1,.25.9,1.77,1.77,0,0,1-.31,1,2,2,0,0,1-.89.72,3.23,3.23,0,0,1-1.31.25,2.92,2.92,0,0,1-1.85-.5A2.34,2.34,0,0,1,182,745.47Z" style="fill:#fff"/><path d="M192.45,745.32l1.09.13a2.66,2.66,0,0,1-1,1.48,3.24,3.24,0,0,1-3.95-.31,3.29,3.29,0,0,1-.8-2.36,3.44,3.44,0,0,1,.81-2.44,2.74,2.74,0,0,1,2.1-.87,2.66,2.66,0,0,1,2,.85,3.38,3.38,0,0,1,.79,2.39q0,.09,0,.28h-4.64a2.39,2.39,0,0,0,.58,1.57,1.73,1.73,0,0,0,1.3.54,1.61,1.61,0,0,0,1-.3A2,2,0,0,0,192.45,745.32ZM189,743.61h3.47a2.11,2.11,0,0,0-.4-1.18,1.62,1.62,0,0,0-1.31-.61,1.68,1.68,0,0,0-1.22.49A1.92,1.92,0,0,0,189,743.61Z" style="fill:#fff"/><path d="M194.62,747.32V741.1h.95V742a2.57,2.57,0,0,1,.67-.87,1.17,1.17,0,0,1,.68-.21,2.06,2.06,0,0,1,1.08.34l-.36,1a1.51,1.51,0,0,0-.77-.23,1,1,0,0,0-.62.21,1.13,1.13,0,0,0-.39.58,4.11,4.11,0,0,0-.18,1.23v3.26Z" style="fill:#fff"/><path d="M200.11,747.32l-2.37-6.22h1.11l1.34,3.73q.22.6.4,1.25.14-.49.39-1.18l1.38-3.8h1.08l-2.36,6.22Z" style="fill:#fff"/><path d="M208.4,745.32l1.09.13a2.66,2.66,0,0,1-1,1.48,3.24,3.24,0,0,1-3.95-.31,3.29,3.29,0,0,1-.8-2.36,3.44,3.44,0,0,1,.81-2.44,2.74,2.74,0,0,1,2.1-.87,2.66,2.66,0,0,1,2,.85,3.38,3.38,0,0,1,.79,2.39q0,.09,0,.28h-4.64a2.39,2.39,0,0,0,.58,1.57,1.73,1.73,0,0,0,1.3.54,1.61,1.61,0,0,0,1-.3A2,2,0,0,0,208.4,745.32Zm-3.46-1.71h3.47a2.11,2.11,0,0,0-.4-1.18,1.62,1.62,0,0,0-1.31-.61,1.68,1.68,0,0,0-1.22.49A1.92,1.92,0,0,0,204.94,743.61Z" style="fill:#fff"/><path d="M214.62,747.32v-.79a1.94,1.94,0,0,1-1.74.93,2.44,2.44,0,0,1-1.37-.41,2.7,2.7,0,0,1-1-1.15,4,4,0,0,1-.34-1.69,4.42,4.42,0,0,1,.31-1.69,2.45,2.45,0,0,1,.93-1.16,2.49,2.49,0,0,1,1.39-.4,2.08,2.08,0,0,1,1.72.86v-3.08h1v8.59Zm-3.33-3.11a2.7,2.7,0,0,0,.5,1.79,1.52,1.52,0,0,0,1.19.59,1.49,1.49,0,0,0,1.17-.57,2.61,2.61,0,0,0,.48-1.73,2.93,2.93,0,0,0-.49-1.87,1.51,1.51,0,0,0-1.21-.6,1.46,1.46,0,0,0-1.17.57A2.83,2.83,0,0,0,211.28,744.22Z" style="fill:#fff"/><path d="M217.31,747.32v-1.2h1.2v1.2Z" style="fill:#fff"/><path d="M223.35,747.32v-8.59h3.81a5.07,5.07,0,0,1,1.75.23,1.91,1.91,0,0,1,1,.82,2.44,2.44,0,0,1,.36,1.29,2.16,2.16,0,0,1-.59,1.54,3,3,0,0,1-1.83.8,3,3,0,0,1,.69.43,5.91,5.91,0,0,1,.94,1.14l1.49,2.34h-1.43l-1.14-1.79q-.5-.77-.82-1.18a2.58,2.58,0,0,0-.58-.57,1.71,1.71,0,0,0-.52-.23,3.41,3.41,0,0,0-.63,0h-1.32v3.81Zm1.14-4.8h2.44a3.66,3.66,0,0,0,1.22-.16,1.3,1.3,0,0,0,.67-.52,1.39,1.39,0,0,0,.23-.77,1.28,1.28,0,0,0-.44-1,2.07,2.07,0,0,0-1.4-.39h-2.72Z" style="fill:#fff"/><path d="M235.89,745.32l1.09.13a2.66,2.66,0,0,1-1,1.48,3.24,3.24,0,0,1-3.95-.31,3.29,3.29,0,0,1-.8-2.36,3.44,3.44,0,0,1,.81-2.44,2.74,2.74,0,0,1,2.1-.87,2.66,2.66,0,0,1,2,.85,3.38,3.38,0,0,1,.79,2.39q0,.09,0,.28h-4.64a2.39,2.39,0,0,0,.58,1.57,1.73,1.73,0,0,0,1.3.54,1.61,1.61,0,0,0,1-.3A2,2,0,0,0,235.89,745.32Zm-3.46-1.71h3.47a2.11,2.11,0,0,0-.4-1.18,1.62,1.62,0,0,0-1.31-.61,1.68,1.68,0,0,0-1.22.49A1.92,1.92,0,0,0,232.42,743.61Z" style="fill:#fff"/><path d="M238.06,749.71V741.1h1v.81a2.37,2.37,0,0,1,.77-.71,2.11,2.11,0,0,1,1-.24,2.46,2.46,0,0,1,1.41.41,2.52,2.52,0,0,1,.92,1.16,4.23,4.23,0,0,1,.31,1.64,4.16,4.16,0,0,1-.34,1.72,2.58,2.58,0,0,1-1,1.17,2.56,2.56,0,0,1-1.37.41,2,2,0,0,1-.95-.22,2.15,2.15,0,0,1-.69-.56v3Zm1-5.46a2.71,2.71,0,0,0,.49,1.78,1.49,1.49,0,0,0,1.18.57,1.52,1.52,0,0,0,1.2-.59,2.82,2.82,0,0,0,.5-1.84,2.75,2.75,0,0,0-.49-1.78,1.47,1.47,0,0,0-1.17-.59,1.52,1.52,0,0,0-1.19.63A2.82,2.82,0,0,0,239,744.25Z" style="fill:#fff"/><path d="M244.48,747.32V741.1h.95V742a2.57,2.57,0,0,1,.67-.87,1.17,1.17,0,0,1,.68-.21,2.06,2.06,0,0,1,1.08.34l-.36,1a1.51,1.51,0,0,0-.77-.23,1,1,0,0,0-.62.21,1.13,1.13,0,0,0-.39.58,4.11,4.11,0,0,0-.18,1.23v3.26Z" style="fill:#fff"/><path d="M247.86,744.21a3.21,3.21,0,0,1,1-2.56,2.9,2.9,0,0,1,2-.69,2.79,2.79,0,0,1,2.1.84,3.2,3.2,0,0,1,.81,2.32,4.12,4.12,0,0,1-.36,1.89,2.55,2.55,0,0,1-1,1.07,3.05,3.05,0,0,1-1.5.38,2.8,2.8,0,0,1-2.11-.84A3.35,3.35,0,0,1,247.86,744.21Zm1.08,0a2.65,2.65,0,0,0,.52,1.79,1.74,1.74,0,0,0,2.62,0,2.71,2.71,0,0,0,.52-1.82,2.57,2.57,0,0,0-.52-1.75,1.74,1.74,0,0,0-2.62,0A2.64,2.64,0,0,0,248.94,744.21Z" style="fill:#fff"/><path d="M258.72,747.32v-.79a1.94,1.94,0,0,1-1.74.93,2.44,2.44,0,0,1-1.37-.41,2.7,2.7,0,0,1-1-1.15,4,4,0,0,1-.34-1.69,4.42,4.42,0,0,1,.31-1.69,2.45,2.45,0,0,1,.93-1.16,2.49,2.49,0,0,1,1.39-.4,2.08,2.08,0,0,1,1.72.86v-3.08h1v8.59Zm-3.33-3.11a2.7,2.7,0,0,0,.5,1.79,1.52,1.52,0,0,0,1.19.59,1.49,1.49,0,0,0,1.17-.57,2.61,2.61,0,0,0,.48-1.73,2.93,2.93,0,0,0-.49-1.87,1.51,1.51,0,0,0-1.21-.6,1.46,1.46,0,0,0-1.17.57A2.83,2.83,0,0,0,255.39,744.22Z" style="fill:#fff"/><path d="M265.2,747.32v-.91a2.28,2.28,0,0,1-2,1.05,2.52,2.52,0,0,1-1-.21,1.69,1.69,0,0,1-.71-.53,2,2,0,0,1-.33-.78,5.36,5.36,0,0,1-.06-1V741.1h1.05v3.45a6.15,6.15,0,0,0,.06,1.11,1.1,1.1,0,0,0,.42.65,1.31,1.31,0,0,0,.8.24,1.74,1.74,0,0,0,.89-.24,1.35,1.35,0,0,0,.59-.66,3.32,3.32,0,0,0,.17-1.22V741.1h1.05v6.22Z" style="fill:#fff"/><path d="M271.61,745l1,.13a2.69,2.69,0,0,1-.87,1.68,2.53,2.53,0,0,1-1.72.61,2.67,2.67,0,0,1-2.05-.83,3.39,3.39,0,0,1-.78-2.39,4.33,4.33,0,0,1,.33-1.76,2.33,2.33,0,0,1,1-1.13,3,3,0,0,1,1.49-.38,2.58,2.58,0,0,1,1.66.51,2.35,2.35,0,0,1,.83,1.46l-1,.16a1.7,1.7,0,0,0-.52-.94,1.34,1.34,0,0,0-.9-.32,1.64,1.64,0,0,0-1.29.57,2.71,2.71,0,0,0-.5,1.81,2.8,2.8,0,0,0,.48,1.82,1.56,1.56,0,0,0,1.25.57,1.48,1.48,0,0,0,1-.38A1.89,1.89,0,0,0,271.61,745Z" style="fill:#fff"/><path d="M275.61,746.38l.15.93a3.91,3.91,0,0,1-.8.09,1.8,1.8,0,0,1-.89-.18,1,1,0,0,1-.45-.48,3.78,3.78,0,0,1-.13-1.25v-3.58h-.77v-.82h.77v-1.54l1-.63v2.17h1.06v.82h-1.06v3.64a1.84,1.84,0,0,0,.06.58.44.44,0,0,0,.18.21.7.7,0,0,0,.36.08A3.43,3.43,0,0,0,275.61,746.38Z" style="fill:#fff"/><path d="M276.41,739.95v-1.21h1.05v1.21Zm0,7.38V741.1h1.05v6.22Z" style="fill:#fff"/><path d="M278.44,744.21a3.21,3.21,0,0,1,1-2.56,2.9,2.9,0,0,1,2-.69,2.79,2.79,0,0,1,2.1.84,3.2,3.2,0,0,1,.81,2.32,4.12,4.12,0,0,1-.36,1.89,2.55,2.55,0,0,1-1,1.07,3.05,3.05,0,0,1-1.5.38,2.8,2.8,0,0,1-2.11-.84A3.35,3.35,0,0,1,278.44,744.21Zm1.08,0A2.65,2.65,0,0,0,280,746a1.74,1.74,0,0,0,2.62,0,2.71,2.71,0,0,0,.52-1.82,2.57,2.57,0,0,0-.52-1.75,1.74,1.74,0,0,0-2.62,0A2.64,2.64,0,0,0,279.52,744.21Z" style="fill:#fff"/><path d="M285.26,747.32V741.1h.95V742a2.24,2.24,0,0,1,2-1,2.6,2.6,0,0,1,1,.2,1.63,1.63,0,0,1,.71.53,2,2,0,0,1,.33.78,6,6,0,0,1,.06,1v3.83h-1.05v-3.79a2.84,2.84,0,0,0-.12-1,1,1,0,0,0-.44-.51,1.39,1.39,0,0,0-.74-.19,1.71,1.71,0,0,0-1.16.43,2.11,2.11,0,0,0-.49,1.62v3.4Z" style="fill:#fff"/><path d="M294.8,739.95v-1.21h1.05v1.21Zm0,7.38V741.1h1.05v6.22Z" style="fill:#fff"/><path d="M297.22,747.32V741.1h.95V742a2.24,2.24,0,0,1,2-1,2.6,2.6,0,0,1,1,.2,1.63,1.63,0,0,1,.71.53,2,2,0,0,1,.33.78,6,6,0,0,1,.06,1v3.83h-1.05v-3.79a2.84,2.84,0,0,0-.12-1,1,1,0,0,0-.44-.51,1.39,1.39,0,0,0-.74-.19,1.71,1.71,0,0,0-1.16.43,2.11,2.11,0,0,0-.49,1.62v3.4Z" style="fill:#fff"/><path d="M307.9,747.32,306,741.1h1.09l1,3.59.37,1.34.32-1.28,1-3.64h1.08l.93,3.61.31,1.19.36-1.2,1.07-3.6h1l-1.95,6.22h-1.1l-1-3.73-.24-1.06L309,747.32Z" style="fill:#fff"/><path d="M315.17,747.32v-8.59h1.05v3.08a2.36,2.36,0,0,1,1.86-.86,2.51,2.51,0,0,1,1.2.27,1.6,1.6,0,0,1,.73.75,3.47,3.47,0,0,1,.22,1.39v3.94h-1.05v-3.94a1.63,1.63,0,0,0-.34-1.15,1.27,1.27,0,0,0-1-.36,1.71,1.71,0,0,0-.88.24,1.37,1.37,0,0,0-.59.66,3,3,0,0,0-.18,1.15v3.4Z" style="fill:#fff"/><path d="M321.21,744.21a3.21,3.21,0,0,1,1-2.56,2.9,2.9,0,0,1,2-.69,2.79,2.79,0,0,1,2.1.84,3.2,3.2,0,0,1,.81,2.32,4.12,4.12,0,0,1-.36,1.89,2.55,2.55,0,0,1-1,1.07,3.05,3.05,0,0,1-1.5.38,2.8,2.8,0,0,1-2.11-.84A3.35,3.35,0,0,1,321.21,744.21Zm1.08,0a2.65,2.65,0,0,0,.52,1.79,1.74,1.74,0,0,0,2.62,0,2.71,2.71,0,0,0,.52-1.82,2.57,2.57,0,0,0-.52-1.75,1.74,1.74,0,0,0-2.62,0A2.64,2.64,0,0,0,322.3,744.21Z" style="fill:#fff"/><path d="M328,747.32v-8.59h1.05v8.59Z" style="fill:#fff"/><path d="M334.73,745.32l1.09.13a2.66,2.66,0,0,1-1,1.48,3.24,3.24,0,0,1-3.95-.31,3.29,3.29,0,0,1-.8-2.36,3.44,3.44,0,0,1,.81-2.44A2.74,2.74,0,0,1,333,741a2.66,2.66,0,0,1,2,.85,3.38,3.38,0,0,1,.79,2.39q0,.09,0,.28h-4.64a2.39,2.39,0,0,0,.58,1.57,1.73,1.73,0,0,0,1.3.54,1.61,1.61,0,0,0,1-.3A2,2,0,0,0,334.73,745.32Zm-3.46-1.71h3.47a2.11,2.11,0,0,0-.4-1.18,1.62,1.62,0,0,0-1.31-.61,1.68,1.68,0,0,0-1.22.49A1.92,1.92,0,0,0,331.26,743.61Z" style="fill:#fff"/><path d="M339.6,744.21a3.21,3.21,0,0,1,1-2.56,2.9,2.9,0,0,1,2-.69,2.79,2.79,0,0,1,2.1.84,3.2,3.2,0,0,1,.81,2.32,4.12,4.12,0,0,1-.36,1.89,2.55,2.55,0,0,1-1,1.07,3.05,3.05,0,0,1-1.5.38,2.8,2.8,0,0,1-2.11-.84A3.35,3.35,0,0,1,339.6,744.21Zm1.08,0a2.65,2.65,0,0,0,.52,1.79,1.74,1.74,0,0,0,2.62,0,2.71,2.71,0,0,0,.52-1.82,2.57,2.57,0,0,0-.52-1.75,1.74,1.74,0,0,0-2.62,0A2.64,2.64,0,0,0,340.69,744.21Z" style="fill:#fff"/><path d="M346.42,747.32V741.1h.95V742a2.57,2.57,0,0,1,.67-.87,1.17,1.17,0,0,1,.68-.21,2.06,2.06,0,0,1,1.08.34l-.36,1a1.51,1.51,0,0,0-.77-.23,1,1,0,0,0-.62.21,1.13,1.13,0,0,0-.39.58,4.11,4.11,0,0,0-.18,1.23v3.26Z" style="fill:#fff"/><path d="M353.28,739.95v-1.21h1.05v1.21Zm0,7.38V741.1h1.05v6.22Z" style="fill:#fff"/><path d="M355.7,747.32V741.1h.95V742a2.24,2.24,0,0,1,2-1,2.6,2.6,0,0,1,1,.2,1.63,1.63,0,0,1,.71.53,2,2,0,0,1,.33.78,6,6,0,0,1,.06,1v3.83h-1.05v-3.79a2.84,2.84,0,0,0-.12-1,1,1,0,0,0-.44-.51,1.39,1.39,0,0,0-.74-.19,1.71,1.71,0,0,0-1.16.43,2.11,2.11,0,0,0-.49,1.62v3.4Z" style="fill:#fff"/><path d="M365.23,749.71V741.1h1v.81a2.37,2.37,0,0,1,.77-.71,2.11,2.11,0,0,1,1-.24,2.46,2.46,0,0,1,1.41.41,2.52,2.52,0,0,1,.92,1.16,4.23,4.23,0,0,1,.31,1.64,4.16,4.16,0,0,1-.34,1.72,2.58,2.58,0,0,1-1,1.17,2.56,2.56,0,0,1-1.37.41,2,2,0,0,1-.95-.22,2.15,2.15,0,0,1-.69-.56v3Zm1-5.46a2.71,2.71,0,0,0,.49,1.78,1.49,1.49,0,0,0,1.18.57,1.52,1.52,0,0,0,1.2-.59,2.82,2.82,0,0,0,.5-1.84,2.75,2.75,0,0,0-.49-1.78,1.47,1.47,0,0,0-1.17-.59,1.52,1.52,0,0,0-1.19.63A2.82,2.82,0,0,0,366.19,744.25Z" style="fill:#fff"/><path d="M375.73,746.56a3.93,3.93,0,0,1-1.13.7,3.26,3.26,0,0,1-1.16.21,2.26,2.26,0,0,1-1.58-.5,1.65,1.65,0,0,1-.55-1.28,1.7,1.7,0,0,1,.21-.83,1.72,1.72,0,0,1,.54-.61,2.56,2.56,0,0,1,.76-.35,7.54,7.54,0,0,1,.94-.16,9.64,9.64,0,0,0,1.88-.36q0-.22,0-.28a1.16,1.16,0,0,0-.3-.91,1.77,1.77,0,0,0-1.2-.36,1.86,1.86,0,0,0-1.1.26,1.59,1.59,0,0,0-.52.92l-1-.14a2.56,2.56,0,0,1,.46-1.07,2,2,0,0,1,.93-.63,4.16,4.16,0,0,1,1.41-.22,3.74,3.74,0,0,1,1.29.19,1.71,1.71,0,0,1,.73.47,1.66,1.66,0,0,1,.33.72,5.94,5.94,0,0,1,.05,1v1.41a14.93,14.93,0,0,0,.07,1.86,2.35,2.35,0,0,0,.27.75h-1.1A2.24,2.24,0,0,1,375.73,746.56Zm-.09-2.36a7.74,7.74,0,0,1-1.72.4,4,4,0,0,0-.92.21.92.92,0,0,0-.42.34.93.93,0,0,0,.17,1.2,1.37,1.37,0,0,0,.93.28,2.18,2.18,0,0,0,1.08-.27,1.64,1.64,0,0,0,.7-.73,2.55,2.55,0,0,0,.17-1.05Z" style="fill:#fff"/><path d="M378.09,747.32V741.1H379V742a2.57,2.57,0,0,1,.67-.87,1.17,1.17,0,0,1,.68-.21,2.06,2.06,0,0,1,1.08.34l-.36,1a1.51,1.51,0,0,0-.77-.23,1,1,0,0,0-.62.21,1.13,1.13,0,0,0-.39.58,4.11,4.11,0,0,0-.18,1.23v3.26Z" style="fill:#fff"/><path d="M384.16,746.38l.15.93a3.91,3.91,0,0,1-.8.09,1.8,1.8,0,0,1-.89-.18,1,1,0,0,1-.45-.48,3.78,3.78,0,0,1-.13-1.25v-3.58h-.77v-.82H382v-1.54l1-.63v2.17h1.06v.82H383.1v3.64a1.84,1.84,0,0,0,.06.58.44.44,0,0,0,.18.21.7.7,0,0,0,.36.08A3.43,3.43,0,0,0,384.16,746.38Z" style="fill:#fff"/><path d="M389.19,747.32l-1.9-6.22h1.09l1,3.59.37,1.34.32-1.28,1-3.64h1.08l.93,3.61.31,1.19.36-1.2,1.07-3.6h1l-1.95,6.22h-1.1l-1-3.73-.24-1.06-1.26,4.79Z" style="fill:#fff"/><path d="M396.48,739.95v-1.21h1.05v1.21Zm0,7.38V741.1h1.05v6.22Z" style="fill:#fff"/><path d="M401.2,746.38l.15.93a3.91,3.91,0,0,1-.8.09,1.8,1.8,0,0,1-.89-.18,1,1,0,0,1-.45-.48,3.78,3.78,0,0,1-.13-1.25v-3.58h-.77v-.82h.77v-1.54l1-.63v2.17h1.06v.82h-1.06v3.64a1.84,1.84,0,0,0,.06.58.44.44,0,0,0,.18.21.7.7,0,0,0,.36.08A3.43,3.43,0,0,0,401.2,746.38Z" style="fill:#fff"/><path d="M402,747.32v-8.59H403v3.08a2.36,2.36,0,0,1,1.86-.86,2.51,2.51,0,0,1,1.2.27,1.6,1.6,0,0,1,.73.75,3.47,3.47,0,0,1,.22,1.39v3.94H406v-3.94a1.63,1.63,0,0,0-.34-1.15,1.27,1.27,0,0,0-1-.36,1.71,1.71,0,0,0-.88.24,1.37,1.37,0,0,0-.59.66,3,3,0,0,0-.18,1.15v3.4Z" style="fill:#fff"/><path d="M408,744.21a3.21,3.21,0,0,1,1-2.56,2.9,2.9,0,0,1,2-.69,2.79,2.79,0,0,1,2.1.84,3.2,3.2,0,0,1,.81,2.32,4.12,4.12,0,0,1-.36,1.89,2.55,2.55,0,0,1-1,1.07,3.05,3.05,0,0,1-1.5.38,2.8,2.8,0,0,1-2.11-.84A3.35,3.35,0,0,1,408,744.21Zm1.08,0a2.65,2.65,0,0,0,.52,1.79,1.74,1.74,0,0,0,2.62,0,2.71,2.71,0,0,0,.52-1.82,2.57,2.57,0,0,0-.52-1.75,1.74,1.74,0,0,0-2.62,0A2.64,2.64,0,0,0,409.12,744.21Z" style="fill:#fff"/><path d="M418.94,747.32v-.91a2.28,2.28,0,0,1-2,1.05,2.52,2.52,0,0,1-1-.21,1.69,1.69,0,0,1-.71-.53,2,2,0,0,1-.33-.78,5.36,5.36,0,0,1-.06-1V741.1h1.05v3.45a6.15,6.15,0,0,0,.06,1.11,1.1,1.1,0,0,0,.42.65,1.31,1.31,0,0,0,.8.24,1.74,1.74,0,0,0,.89-.24,1.35,1.35,0,0,0,.59-.66,3.32,3.32,0,0,0,.17-1.22V741.1h1.05v6.22Z" style="fill:#fff"/><path d="M423.59,746.38l.15.93a3.91,3.91,0,0,1-.8.09,1.8,1.8,0,0,1-.89-.18,1,1,0,0,1-.45-.48,3.78,3.78,0,0,1-.13-1.25v-3.58h-.77v-.82h.77v-1.54l1-.63v2.17h1.06v.82h-1.06v3.64a1.84,1.84,0,0,0,.06.58.44.44,0,0,0,.18.21.7.7,0,0,0,.36.08A3.43,3.43,0,0,0,423.59,746.38Z" style="fill:#fff"/><path d="M427.48,749.71V741.1h1v.81a2.37,2.37,0,0,1,.77-.71,2.11,2.11,0,0,1,1-.24,2.46,2.46,0,0,1,1.41.41,2.52,2.52,0,0,1,.92,1.16,4.23,4.23,0,0,1,.31,1.64,4.16,4.16,0,0,1-.34,1.72,2.58,2.58,0,0,1-1,1.17,2.56,2.56,0,0,1-1.37.41,2,2,0,0,1-.95-.22,2.15,2.15,0,0,1-.69-.56v3Zm1-5.46a2.71,2.71,0,0,0,.49,1.78,1.49,1.49,0,0,0,1.18.57,1.52,1.52,0,0,0,1.2-.59,2.82,2.82,0,0,0,.5-1.84,2.75,2.75,0,0,0-.49-1.78,1.47,1.47,0,0,0-1.17-.59,1.52,1.52,0,0,0-1.19.63A2.82,2.82,0,0,0,428.43,744.25Z" style="fill:#fff"/><path d="M438.17,745.32l1.09.13a2.66,2.66,0,0,1-1,1.48,3.24,3.24,0,0,1-3.95-.31,3.29,3.29,0,0,1-.8-2.36,3.44,3.44,0,0,1,.81-2.44,2.74,2.74,0,0,1,2.1-.87,2.66,2.66,0,0,1,2,.85,3.38,3.38,0,0,1,.79,2.39q0,.09,0,.28h-4.64a2.39,2.39,0,0,0,.58,1.57,1.73,1.73,0,0,0,1.3.54,1.61,1.61,0,0,0,1-.3A2,2,0,0,0,438.17,745.32Zm-3.46-1.71h3.47a2.11,2.11,0,0,0-.4-1.18,1.62,1.62,0,0,0-1.31-.61,1.68,1.68,0,0,0-1.22.49A1.92,1.92,0,0,0,434.71,743.61Z" style="fill:#fff"/><path d="M440.33,747.32V741.1h.95V742a2.57,2.57,0,0,1,.67-.87,1.17,1.17,0,0,1,.68-.21,2.06,2.06,0,0,1,1.08.34l-.36,1a1.51,1.51,0,0,0-.77-.23,1,1,0,0,0-.62.21,1.13,1.13,0,0,0-.39.58,4.11,4.11,0,0,0-.18,1.23v3.26Z" style="fill:#fff"/><path d="M444.1,747.32V741.1H445V742a2.22,2.22,0,0,1,.78-.74,2.19,2.19,0,0,1,1.11-.28,2,2,0,0,1,1.13.29,1.54,1.54,0,0,1,.62.8,2.23,2.23,0,0,1,1.92-1.09,1.89,1.89,0,0,1,1.42.51,2.19,2.19,0,0,1,.5,1.58v4.27h-1V743.4a2.89,2.89,0,0,0-.1-.91A.88.88,0,0,0,451,742a1.16,1.16,0,0,0-.63-.17,1.47,1.47,0,0,0-1.09.44,1.92,1.92,0,0,0-.43,1.4v3.62H447.8v-4a1.78,1.78,0,0,0-.26-1.05,1,1,0,0,0-.84-.35,1.53,1.53,0,0,0-.82.23,1.33,1.33,0,0,0-.55.69,3.86,3.86,0,0,0-.17,1.3v3.23Z" style="fill:#fff"/><path d="M453.87,739.95v-1.21h1.05v1.21Zm0,7.38V741.1h1.05v6.22Z" style="fill:#fff"/><path d="M455.86,745.47l1-.16a1.46,1.46,0,0,0,.49,1,1.71,1.71,0,0,0,1.12.33,1.65,1.65,0,0,0,1.08-.3.88.88,0,0,0,.35-.69.64.64,0,0,0-.31-.56,4.57,4.57,0,0,0-1.08-.36,9.84,9.84,0,0,1-1.61-.51,1.54,1.54,0,0,1-.91-1.43,1.6,1.6,0,0,1,.19-.77,1.71,1.71,0,0,1,.52-.59,2.17,2.17,0,0,1,.67-.31,3.19,3.19,0,0,1,.91-.13,3.6,3.6,0,0,1,1.29.21,1.75,1.75,0,0,1,.82.57,2.23,2.23,0,0,1,.36,1l-1,.14a1.13,1.13,0,0,0-.41-.75,1.49,1.49,0,0,0-1-.27,1.72,1.72,0,0,0-1,.24.7.7,0,0,0-.31.56.58.58,0,0,0,.13.37.93.93,0,0,0,.4.28l.93.27a13,13,0,0,1,1.56.49,1.58,1.58,0,0,1,.69.55,1.55,1.55,0,0,1,.25.9,1.77,1.77,0,0,1-.31,1,2,2,0,0,1-.89.72,3.23,3.23,0,0,1-1.31.25,2.92,2.92,0,0,1-1.85-.5A2.34,2.34,0,0,1,455.86,745.47Z" style="fill:#fff"/><path d="M461.62,745.47l1-.16a1.46,1.46,0,0,0,.49,1,1.71,1.71,0,0,0,1.12.33,1.65,1.65,0,0,0,1.08-.3.88.88,0,0,0,.35-.69.64.64,0,0,0-.31-.56,4.57,4.57,0,0,0-1.08-.36,9.84,9.84,0,0,1-1.61-.51,1.54,1.54,0,0,1-.91-1.43A1.6,1.6,0,0,1,462,742a1.71,1.71,0,0,1,.52-.59,2.17,2.17,0,0,1,.67-.31,3.19,3.19,0,0,1,.91-.13,3.6,3.6,0,0,1,1.29.21,1.75,1.75,0,0,1,.82.57,2.23,2.23,0,0,1,.36,1l-1,.14a1.13,1.13,0,0,0-.41-.75,1.49,1.49,0,0,0-1-.27,1.72,1.72,0,0,0-1,.24.7.7,0,0,0-.31.56.58.58,0,0,0,.13.37.93.93,0,0,0,.4.28l.93.27a13,13,0,0,1,1.56.49,1.58,1.58,0,0,1,.69.55,1.55,1.55,0,0,1,.25.9,1.77,1.77,0,0,1-.31,1,2,2,0,0,1-.89.72,3.23,3.23,0,0,1-1.31.25,2.92,2.92,0,0,1-1.85-.5A2.34,2.34,0,0,1,461.62,745.47Z" style="fill:#fff"/><path d="M467.81,739.95v-1.21h1.05v1.21Zm0,7.38V741.1h1.05v6.22Z" style="fill:#fff"/><path d="M469.84,744.21a3.21,3.21,0,0,1,1-2.56,2.9,2.9,0,0,1,2-.69,2.79,2.79,0,0,1,2.1.84,3.2,3.2,0,0,1,.81,2.32,4.12,4.12,0,0,1-.36,1.89,2.55,2.55,0,0,1-1,1.07,3.05,3.05,0,0,1-1.5.38,2.8,2.8,0,0,1-2.11-.84A3.35,3.35,0,0,1,469.84,744.21Zm1.08,0a2.65,2.65,0,0,0,.52,1.79,1.74,1.74,0,0,0,2.62,0,2.71,2.71,0,0,0,.52-1.82,2.57,2.57,0,0,0-.52-1.75,1.74,1.74,0,0,0-2.62,0A2.64,2.64,0,0,0,470.92,744.21Z" style="fill:#fff"/><path d="M476.67,747.32V741.1h.95V742a2.24,2.24,0,0,1,2-1,2.6,2.6,0,0,1,1,.2,1.63,1.63,0,0,1,.71.53,2,2,0,0,1,.33.78,6,6,0,0,1,.06,1v3.83h-1.05v-3.79a2.84,2.84,0,0,0-.12-1,1,1,0,0,0-.44-.51,1.39,1.39,0,0,0-.74-.19,1.71,1.71,0,0,0-1.16.43,2.11,2.11,0,0,0-.49,1.62v3.4Z" style="fill:#fff"/><path d="M486.2,739.95v-1.21h1.05v1.21Zm0,7.38V741.1h1.05v6.22Z" style="fill:#fff"/><path d="M488.2,745.47l1-.16a1.46,1.46,0,0,0,.49,1,1.71,1.71,0,0,0,1.12.33,1.65,1.65,0,0,0,1.08-.3.88.88,0,0,0,.35-.69A.64.64,0,0,0,492,745a4.57,4.57,0,0,0-1.08-.36,9.84,9.84,0,0,1-1.61-.51,1.54,1.54,0,0,1-.91-1.43,1.6,1.6,0,0,1,.19-.77,1.71,1.71,0,0,1,.52-.59,2.17,2.17,0,0,1,.67-.31,3.19,3.19,0,0,1,.91-.13,3.6,3.6,0,0,1,1.29.21,1.75,1.75,0,0,1,.82.57,2.23,2.23,0,0,1,.36,1l-1,.14a1.13,1.13,0,0,0-.41-.75,1.49,1.49,0,0,0-1-.27,1.72,1.72,0,0,0-1,.24.7.7,0,0,0-.31.56.58.58,0,0,0,.13.37.93.93,0,0,0,.4.28l.93.27a13,13,0,0,1,1.56.49,1.58,1.58,0,0,1,.69.55,1.55,1.55,0,0,1,.25.9,1.77,1.77,0,0,1-.31,1,2,2,0,0,1-.89.72,3.23,3.23,0,0,1-1.31.25A2.92,2.92,0,0,1,489,747,2.34,2.34,0,0,1,488.2,745.47Z" style="fill:#fff"/><path d="M497.47,749.71V741.1h1v.81a2.37,2.37,0,0,1,.77-.71,2.11,2.11,0,0,1,1-.24,2.46,2.46,0,0,1,1.41.41,2.52,2.52,0,0,1,.92,1.16,4.23,4.23,0,0,1,.31,1.64,4.16,4.16,0,0,1-.34,1.72,2.58,2.58,0,0,1-1,1.17,2.56,2.56,0,0,1-1.37.41,2,2,0,0,1-.95-.22,2.15,2.15,0,0,1-.69-.56v3Zm1-5.46a2.71,2.71,0,0,0,.49,1.78,1.49,1.49,0,0,0,1.18.57,1.52,1.52,0,0,0,1.2-.59,2.82,2.82,0,0,0,.5-1.84,2.75,2.75,0,0,0-.49-1.78,1.47,1.47,0,0,0-1.17-.59,1.52,1.52,0,0,0-1.19.63A2.82,2.82,0,0,0,498.43,744.25Z" style="fill:#fff"/><path d="M503.89,747.32V741.1h.95V742a2.57,2.57,0,0,1,.67-.87,1.17,1.17,0,0,1,.68-.21,2.06,2.06,0,0,1,1.08.34l-.36,1a1.51,1.51,0,0,0-.77-.23,1,1,0,0,0-.62.21,1.13,1.13,0,0,0-.39.58,4.11,4.11,0,0,0-.18,1.23v3.26Z" style="fill:#fff"/><path d="M507.27,744.21a3.21,3.21,0,0,1,1-2.56,2.9,2.9,0,0,1,2-.69,2.79,2.79,0,0,1,2.1.84,3.2,3.2,0,0,1,.81,2.32,4.12,4.12,0,0,1-.36,1.89,2.55,2.55,0,0,1-1,1.07,3.05,3.05,0,0,1-1.5.38,2.8,2.8,0,0,1-2.11-.84A3.35,3.35,0,0,1,507.27,744.21Zm1.08,0a2.65,2.65,0,0,0,.52,1.79,1.74,1.74,0,0,0,2.62,0,2.71,2.71,0,0,0,.52-1.82,2.57,2.57,0,0,0-.52-1.75,1.74,1.74,0,0,0-2.62,0A2.64,2.64,0,0,0,508.35,744.21Z" style="fill:#fff"/><path d="M514.1,747.32v-8.59h1.05v3.08A2.36,2.36,0,0,1,517,741a2.51,2.51,0,0,1,1.2.27,1.6,1.6,0,0,1,.73.75,3.47,3.47,0,0,1,.22,1.39v3.94h-1.05v-3.94a1.63,1.63,0,0,0-.34-1.15,1.27,1.27,0,0,0-1-.36,1.71,1.71,0,0,0-.88.24,1.37,1.37,0,0,0-.59.66,3,3,0,0,0-.18,1.15v3.4Z" style="fill:#fff"/><path d="M520.54,739.95v-1.21h1.05v1.21Zm0,7.38V741.1h1.05v6.22Z" style="fill:#fff"/><path d="M523.93,747.32h-1v-8.59H524v3.06a2.09,2.09,0,0,1,1.71-.84,2.61,2.61,0,0,1,1.09.23,2.22,2.22,0,0,1,.84.65,3.14,3.14,0,0,1,.52,1,4.17,4.17,0,0,1,.19,1.27,3.55,3.55,0,0,1-.79,2.47,2.47,2.47,0,0,1-1.9.87,2,2,0,0,1-1.73-.92Zm0-3.16a3.23,3.23,0,0,0,.3,1.62,1.51,1.51,0,0,0,2.54.21,2.73,2.73,0,0,0,.5-1.79,2.78,2.78,0,0,0-.48-1.8,1.47,1.47,0,0,0-1.17-.58,1.52,1.52,0,0,0-1.2.6A2.64,2.64,0,0,0,523.92,744.17Z" style="fill:#fff"/><path d="M529.4,739.95v-1.21h1.05v1.21Zm0,7.38V741.1h1.05v6.22Z" style="fill:#fff"/><path d="M534.12,746.38l.15.93a3.91,3.91,0,0,1-.8.09,1.8,1.8,0,0,1-.89-.18,1,1,0,0,1-.45-.48,3.78,3.78,0,0,1-.13-1.25v-3.58h-.77v-.82H532v-1.54l1-.63v2.17h1.06v.82h-1.06v3.64a1.84,1.84,0,0,0,.06.58.44.44,0,0,0,.18.21.7.7,0,0,0,.36.08A3.43,3.43,0,0,0,534.12,746.38Z" style="fill:#fff"/><path d="M539.17,745.32l1.09.13a2.66,2.66,0,0,1-1,1.48,3.24,3.24,0,0,1-3.95-.31,3.29,3.29,0,0,1-.8-2.36,3.44,3.44,0,0,1,.81-2.44,2.74,2.74,0,0,1,2.1-.87,2.66,2.66,0,0,1,2,.85,3.38,3.38,0,0,1,.79,2.39q0,.09,0,.28h-4.64a2.39,2.39,0,0,0,.58,1.57,1.73,1.73,0,0,0,1.3.54,1.61,1.61,0,0,0,1-.3A2,2,0,0,0,539.17,745.32Zm-3.46-1.71h3.47a2.11,2.11,0,0,0-.4-1.18,1.62,1.62,0,0,0-1.31-.61,1.68,1.68,0,0,0-1.22.49A1.92,1.92,0,0,0,535.71,743.61Z" style="fill:#fff"/><path d="M545.38,747.32v-.79a1.94,1.94,0,0,1-1.74.93,2.44,2.44,0,0,1-1.37-.41,2.7,2.7,0,0,1-1-1.15,4,4,0,0,1-.34-1.69,4.42,4.42,0,0,1,.31-1.69,2.45,2.45,0,0,1,.93-1.16,2.49,2.49,0,0,1,1.39-.4,2.08,2.08,0,0,1,1.72.86v-3.08h1v8.59ZM542,744.22a2.7,2.7,0,0,0,.5,1.79,1.52,1.52,0,0,0,1.19.59,1.49,1.49,0,0,0,1.17-.57,2.61,2.61,0,0,0,.48-1.73,2.93,2.93,0,0,0-.49-1.87,1.51,1.51,0,0,0-1.21-.6,1.46,1.46,0,0,0-1.17.57A2.83,2.83,0,0,0,542,744.22Z" style="fill:#fff"/><path d="M548.08,747.32v-1.2h1.2v1.2Z" style="fill:#fff"/><path d="M1219.25,748.93l14-21.18a5.59,5.59,0,0,1,.17-.76v0l-15.2,20.89Q1218.69,748.41,1219.25,748.93Z" style="fill:#fff"/><path d="M1215.48,744q.34.66.73,1.28l17.41-18.94a5.63,5.63,0,0,1,.53-.95Z" style="fill:#fff"/><path d="M1248.34,727.88q-.28-.6-.6-1.18l-3.56,3.52a5.57,5.57,0,0,1-.25.66Z" style="fill:#fff"/><path d="M1242.09,733.13l7.91,3.52c0-.48,0-1.12,0-1.19l-7.69-2.52Z" style="fill:#fff"/><path d="M1249.42,730.88l-6,.88-.25.33,6.51,0Q1249.57,731.47,1249.42,730.88Z" style="fill:#fff"/><path d="M1245.88,724q-.47-.57-1-1.1l-.43,3.9-2.09-6.08q-.72-.51-1.48-1l1.78,4-4.59-5.33a18.13,18.13,0,0,0-1.88-.58l4.65,4.87-7.61-5.36a18.71,18.71,0,0,0-1.92-.06l8,5.08-10.87-4.79q-.88.16-1.73.4l11.45,4.44-14.39-3.32q-.8.39-1.55.85l15,2.66-17.51-.81q-.68.59-1.29,1.25l18.06-.12-19.94,2.49q-.48.71-.89,1.47l20.14-3.56L1214.31,730q-.23.71-.4,1.45l21.18-7.54-21.63,10.7c0,.44,0,1,0,1.53l21-11.56-20.65,14.79q.15.71.35,1.4L1234.42,725a5.63,5.63,0,0,1,9.93,4.49Z" style="fill:#fff"/><path d="M1233.19,729.23a5.68,5.68,0,0,1,0-.64L1221.85,751q.58.37,1.18.7Z" style="fill:#fff"/><path d="M1239.58,734.15l-.29,0,7.77,11.38q.38-.58.71-1.18Z" style="fill:#fff"/><path d="M1241,733.74l-.27.11,8.35,7.45q.2-.61.36-1.23Z" style="fill:#fff"/><path d="M1245.11,748l-7-13.88-.35-.05,6.37,14.88Q1244.65,748.53,1245.11,748Z" style="fill:#fff"/><path d="M1232.31,753.85l2-21.86q-.14-.18-.26-.38l-3.14,22.23C1231.35,753.86,1232,753.86,1232.31,753.85Z" style="fill:#fff"/><path d="M1236.67,733.79l-.32-.14,3.82,18.15q.63-.33,1.24-.71Z" style="fill:#fff"/><path d="M1233.56,730.69q-.1-.25-.18-.5l-7.2,22.82q.67.21,1.37.38Z" style="fill:#fff"/><path d="M1235.37,733l-.31-.26.61,20.64q.72-.16,1.42-.37Z" style="fill:#fff"/><path d="M1256.88,728.71h1.32v13.72h-1.32Z" style="fill:#fff"/><path d="M1261.8,728.71h1.32v5.88h7.43v-5.88h1.32v13.72h-1.32v-6.64h-7.43v6.64h-1.32Z" style="fill:#fff"/><path d="M1274.39,739.05l1.17-.43a3.86,3.86,0,0,0,3.93,2.89c2.06,0,3.39-.95,3.39-2.48s-.69-2.15-3.6-3.08-4.45-1.72-4.45-4c0-2,1.76-3.52,4.26-3.52a4.59,4.59,0,0,1,4.71,3.15l-1.11.52a3.5,3.5,0,0,0-3.61-2.48c-1.84,0-2.95,1-2.95,2.24,0,1.54.91,2.06,3.8,3s4.26,1.85,4.26,4.08-2,3.74-4.76,3.74A4.94,4.94,0,0,1,1274.39,739.05Z" style="fill:#fff"/><path d="M1291.39,728.71h1.71l4.6,12h0l4.56-12H1304v13.72h-1.32V730.93h0c-.19.61-.52,1.52-.85,2.41l-3.56,9.08h-1.2l-3.56-9.08c-.33-.89-.56-1.46-.85-2.45h0v11.53h-1.22Z" style="fill:#fff"/><path d="M1306.72,740.15c0-1.93,1.65-3.34,6.62-4.1v-.5a1.77,1.77,0,0,0-2-2,5.31,5.31,0,0,0-3.65,1.54l-.69-.8a6.23,6.23,0,0,1,4.45-1.82c2.19,0,3.13,1.17,3.13,3.11V740a6.75,6.75,0,0,0,.28,2.41h-1.32a4.37,4.37,0,0,1-.22-1.39,5.59,5.59,0,0,1-3.86,1.56C1307.74,742.59,1306.72,741.67,1306.72,740.15Zm6.62-.15v-3c-4.19.7-5.36,1.74-5.36,3,0,1,.69,1.56,1.78,1.56A5.09,5.09,0,0,0,1313.34,740Z" style="fill:#fff"/><path d="M1317.6,732.66h1.28v1.93h0a4.3,4.3,0,0,1,3.87-2.11h.22l-.13,1.19-.39,0a4,4,0,0,0-3.61,2.43v6.36h-1.28Z" style="fill:#fff"/><path d="M1324.88,728.71h1.28v9.1l4.65-5.15h1.5l-3.19,3.45,3.58,6.32h-1.39l-3-5.34-2.11,2.26v3.08h-1.28Z" style="fill:#fff"/><path d="M1334.73,729h1.35v1.37h-1.35Zm0,3.63H1336v9.77h-1.28Z" style="fill:#fff"/><path d="M1339.93,740.15v-6.4h-1.71v-1.09h1.71v-3.5h1.28v3.5h2.54v1.09h-2.54v6.14c0,1,.33,1.59,1.54,1.59a3.4,3.4,0,0,0,1-.13v1.09a7.73,7.73,0,0,1-1.26.11C1340.63,742.56,1339.93,741.83,1339.93,740.15Z" style="fill:#fff"/><path d="M1345.28,732.81h-.57v-.16h1.3v.16h-.57v1.6h-.17Z" style="fill:#fff"/><path d="M1346.32,732.66h.22l.59,1.54h0l.58-1.54h.22v1.76h-.17v-1.47h0c0,.08-.07.19-.11.31l-.46,1.16h-.15l-.46-1.16c0-.11-.07-.19-.11-.31h0v1.48h-.16Z" style="fill:#fff"/><rect x="0.5" y="0.5" width="1366" height="766" style="fill:none;stroke:#c1c5ca;stroke-miterlimit:10"/></g></g></svg>