<svg xmlns="http://www.w3.org/2000/svg" viewBox="0 0 1366 1134.23"><defs><style>.cls-1{fill:#eaeef3;}.cls-2{fill:#84888d;}.cls-3{fill:#c1c5ca;}.cls-4{fill:#fff;}.cls-10,.cls-5,.cls-6,.cls-8{fill:none;stroke-miterlimit:10;}.cls-5{stroke:#f0f;}.cls-6{stroke:#fff;stroke-width:16px;}.cls-7{fill:#cf1034;}.cls-8{stroke:#acb0b5;stroke-width:7px;}.cls-10,.cls-8{stroke-linecap:round;}.cls-9{fill:#acb0b5;}.cls-10{stroke:#c1c5ca;}</style></defs><title>Spaces Dont</title><g id="Layer_2" data-name="Layer 2"><g id="Layer_1-2" data-name="Layer 1"><rect class="cls-1" y="90" width="251" height="947"/><rect class="cls-1" x="246" y="89" width="1120" height="94"/><rect class="cls-2" y="1056" width="1366" height="24"/><rect class="cls-3" x="0.5" y="0.5" width="1365" height="89"/><path class="cls-4" d="M1365,1V89H1V1H1365m1-1H0V90H1366V0Z"/><rect class="cls-2" y="65" width="1366" height="24"/><path class="cls-5" d="M56.5,0"/><line class="cls-6" x1="1110" y1="183" x2="1110" y2="1048"/><line class="cls-6" x1="1365" y1="325" x2="1111" y2="325"/><line class="cls-6" x1="1365" y1="488" x2="1111" y2="488"/><line class="cls-6" x1="1365" y1="651" x2="1111" y2="651"/><line class="cls-6" x1="1365" y1="814" x2="1111" y2="814"/><line class="cls-6" x1="1365" y1="977" x2="1111" y2="977"/><rect class="cls-7" x="22" y="1095" width="1311" height="15"/><path class="cls-7" d="M643,1134v-14.32H648a12,12,0,0,1,2.55.21,4.84,4.84,0,0,1,2.1,1,5.82,5.82,0,0,1,1.69,2.45,9.6,9.6,0,0,1,.56,3.4,10,10,0,0,1-.38,2.89,7,7,0,0,1-1,2.08,5.18,5.18,0,0,1-1.3,1.3,5.33,5.33,0,0,1-1.71.72,9.74,9.74,0,0,1-2.3.24Zm1.89-1.69H648a7.42,7.42,0,0,0,2.22-.26,3.17,3.17,0,0,0,1.28-.74,4.51,4.51,0,0,0,1-1.81,8.86,8.86,0,0,0,.38-2.76,6.66,6.66,0,0,0-.74-3.45,3.71,3.71,0,0,0-1.79-1.62,7.41,7.41,0,0,0-2.45-.29h-3Z"/><path class="cls-7" d="M656.61,1128.81a5.35,5.35,0,0,1,1.6-4.27,4.82,4.82,0,0,1,3.26-1.15,4.65,4.65,0,0,1,3.5,1.4,5.33,5.33,0,0,1,1.36,3.87,6.86,6.86,0,0,1-.6,3.15,4.25,4.25,0,0,1-1.75,1.78,5.09,5.09,0,0,1-2.5.63,4.66,4.66,0,0,1-3.52-1.4A5.58,5.58,0,0,1,656.61,1128.81Zm1.81,0a4.42,4.42,0,0,0,.87,3,2.89,2.89,0,0,0,4.37,0,4.52,4.52,0,0,0,.87-3,4.29,4.29,0,0,0-.87-2.92,2.9,2.9,0,0,0-4.36,0A4.4,4.4,0,0,0,658.41,1128.81Z"/><path class="cls-7" d="M668.38,1134v-10.37H670v1.47a3.73,3.73,0,0,1,3.3-1.71,4.33,4.33,0,0,1,1.72.34,2.71,2.71,0,0,1,1.18.88,3.39,3.39,0,0,1,.55,1.3,10.08,10.08,0,0,1,.1,1.71V1134h-1.76v-6.31a4.74,4.74,0,0,0-.21-1.61,1.69,1.69,0,0,0-.73-.85,2.31,2.31,0,0,0-1.23-.32,2.85,2.85,0,0,0-1.94.71,3.52,3.52,0,0,0-.82,2.71V1134Z"/><path class="cls-7" d="M679.4,1121.58v-2h1.88v1.61a4.31,4.31,0,0,1-.3,1.88,2.66,2.66,0,0,1-1.31,1.19l-.43-.69a1.53,1.53,0,0,0,.79-.68,2.85,2.85,0,0,0,.29-1.27Z"/><path class="cls-7" d="M687.79,1132.43,688,1134a6.5,6.5,0,0,1-1.33.16,3,3,0,0,1-1.48-.3,1.69,1.69,0,0,1-.74-.8,6.29,6.29,0,0,1-.21-2.08v-6H683v-1.37h1.29v-2.57L686,1120v3.62h1.77V1125H686v6.06a3.09,3.09,0,0,0,.09,1,.74.74,0,0,0,.3.34,1.17,1.17,0,0,0,.6.13A5.67,5.67,0,0,0,687.79,1132.43Z"/><rect class="cls-3" x="1041.95" y="115" width="144.99" height="42" rx="2" ry="2"/><rect class="cls-4" x="840.5" y="115.5" width="192.92" height="41" rx="1.5" ry="1.5"/><path class="cls-3" d="M1031.92,116a1,1,0,0,1,1,1v38a1,1,0,0,1-1,1H842a1,1,0,0,1-1-1V117a1,1,0,0,1,1-1h189.92m0-1H842a2,2,0,0,0-2,2v38a2,2,0,0,0,2,2h189.92a2,2,0,0,0,2-2V117a2,2,0,0,0-2-2Z"/><rect class="cls-4" x="771.07" y="115.5" width="60.43" height="41" rx="1.5" ry="1.5"/><path class="cls-3" d="M830,116a1,1,0,0,1,1,1v38a1,1,0,0,1-1,1H772.57a1,1,0,0,1-1-1V117a1,1,0,0,1,1-1H830m0-1H772.57a2,2,0,0,0-2,2v38a2,2,0,0,0,2,2H830a2,2,0,0,0,2-2V117a2,2,0,0,0-2-2Z"/><rect class="cls-3" x="1196.95" y="115" width="144.99" height="42" rx="2" ry="2"/><line class="cls-8" x1="41" y1="141" x2="217" y2="141"/><line class="cls-8" x1="41.5" y1="213.5" x2="217.5" y2="213.5"/><line class="cls-8" x1="276.5" y1="210.5" x2="952" y2="210.5"/><line class="cls-8" x1="307.2" y1="228.5" x2="952" y2="228.5"/><line class="cls-8" x1="305.43" y1="245.5" x2="469.19" y2="245.5"/><line class="cls-8" x1="305.43" y1="262.5" x2="469.19" y2="262.5"/><line class="cls-8" x1="305.43" y1="279.5" x2="469.76" y2="279.5"/><line class="cls-8" x1="307.2" y1="296.5" x2="951.39" y2="296.5"/><line class="cls-8" x1="307.2" y1="313.5" x2="952" y2="313.5"/><line class="cls-8" x1="276.5" y1="342.5" x2="952" y2="342.5"/><line class="cls-8" x1="307.2" y1="360.5" x2="952" y2="360.5"/><line class="cls-8" x1="305.43" y1="377.5" x2="469.19" y2="377.5"/><line class="cls-8" x1="305.43" y1="394.5" x2="469.19" y2="394.5"/><line class="cls-8" x1="305.43" y1="411.5" x2="469.76" y2="411.5"/><line class="cls-8" x1="307.2" y1="428.5" x2="951.39" y2="428.5"/><line class="cls-8" x1="307.2" y1="445.5" x2="952" y2="445.5"/><line class="cls-8" x1="276.5" y1="475.5" x2="952" y2="475.5"/><line class="cls-8" x1="307.2" y1="493.5" x2="952" y2="493.5"/><line class="cls-8" x1="305.43" y1="510.5" x2="469.19" y2="510.5"/><line class="cls-8" x1="305.43" y1="527.5" x2="469.19" y2="527.5"/><line class="cls-8" x1="305.43" y1="544.5" x2="469.76" y2="544.5"/><line class="cls-8" x1="307.2" y1="561.5" x2="951.39" y2="561.5"/><line class="cls-8" x1="307.2" y1="578.5" x2="952" y2="578.5"/><line class="cls-8" x1="276.5" y1="607.5" x2="952" y2="607.5"/><line class="cls-8" x1="307.2" y1="625.5" x2="952" y2="625.5"/><line class="cls-8" x1="305.43" y1="642.5" x2="469.19" y2="642.5"/><line class="cls-8" x1="305.43" y1="659.5" x2="469.19" y2="659.5"/><line class="cls-8" x1="305.43" y1="676.5" x2="469.76" y2="676.5"/><line class="cls-8" x1="307.2" y1="693.5" x2="951.39" y2="693.5"/><line class="cls-8" x1="307.2" y1="710.5" x2="952" y2="710.5"/><line class="cls-8" x1="276.5" y1="740.5" x2="952" y2="740.5"/><line class="cls-8" x1="307.2" y1="758.5" x2="952" y2="758.5"/><line class="cls-8" x1="305.43" y1="775.5" x2="469.19" y2="775.5"/><line class="cls-8" x1="305.43" y1="792.5" x2="469.19" y2="792.5"/><line class="cls-8" x1="305.43" y1="809.5" x2="469.76" y2="809.5"/><line class="cls-8" x1="307.2" y1="826.5" x2="951.39" y2="826.5"/><line class="cls-8" x1="307.2" y1="843.5" x2="952" y2="843.5"/><line class="cls-8" x1="276.5" y1="872.5" x2="952" y2="872.5"/><line class="cls-8" x1="307.2" y1="890.5" x2="952" y2="890.5"/><line class="cls-8" x1="276.5" y1="1010.5" x2="952" y2="1010.5"/><line class="cls-8" x1="307.2" y1="1028.5" x2="952" y2="1028.5"/><line class="cls-8" x1="305.43" y1="907.5" x2="469.19" y2="907.5"/><line class="cls-8" x1="305.43" y1="924.5" x2="469.19" y2="924.5"/><line class="cls-8" x1="305.43" y1="941.5" x2="469.76" y2="941.5"/><line class="cls-8" x1="307.2" y1="958.5" x2="951.39" y2="958.5"/><line class="cls-8" x1="307.2" y1="975.5" x2="952" y2="975.5"/><line class="cls-8" x1="276.5" y1="140.5" x2="452.5" y2="140.5"/><line class="cls-8" x1="488.5" y1="140.5" x2="664.5" y2="140.5"/><line class="cls-8" x1="56" y1="239.5" x2="217.5" y2="239.5"/><line class="cls-8" x1="56" y1="265.5" x2="217.5" y2="265.5"/><line class="cls-8" x1="56" y1="291.5" x2="217.5" y2="291.5"/><line class="cls-8" x1="56" y1="317.5" x2="217.5" y2="317.5"/><line class="cls-8" x1="41.5" y1="367.5" x2="217.5" y2="367.5"/><line class="cls-8" x1="56" y1="393.5" x2="217.5" y2="393.5"/><line class="cls-8" x1="56" y1="419.5" x2="217.5" y2="419.5"/><line class="cls-8" x1="56" y1="445.5" x2="217.5" y2="445.5"/><line class="cls-8" x1="56" y1="471.5" x2="217.5" y2="471.5"/><line class="cls-8" x1="41.5" y1="519.5" x2="217.5" y2="519.5"/><line class="cls-8" x1="56" y1="545.5" x2="217.5" y2="545.5"/><line class="cls-8" x1="56" y1="571.5" x2="217.5" y2="571.5"/><line class="cls-8" x1="56" y1="597.5" x2="217.5" y2="597.5"/><line class="cls-8" x1="56" y1="623.5" x2="217.5" y2="623.5"/><line class="cls-8" x1="41.5" y1="671.5" x2="217.5" y2="671.5"/><line class="cls-8" x1="41.5" y1="705.5" x2="217.5" y2="705.5"/><line class="cls-8" x1="41.5" y1="737.5" x2="217.5" y2="737.5"/><line class="cls-8" x1="41.5" y1="771.5" x2="217.5" y2="771.5"/><line class="cls-8" x1="41.5" y1="805.5" x2="217.5" y2="805.5"/><rect class="cls-9" x="982.5" y="204.5" width="359" height="33"/><rect class="cls-1" x="983" y="238" width="359" height="122"/><rect class="cls-9" x="982.5" y="375.5" width="359" height="33"/><rect class="cls-1" x="983" y="409" width="359" height="122"/><rect class="cls-9" x="982.5" y="546.5" width="359" height="33"/><rect class="cls-1" x="983" y="580" width="359" height="122"/><rect class="cls-9" x="982.5" y="717.5" width="359" height="33"/><rect class="cls-1" x="983" y="751" width="359" height="122"/><rect class="cls-9" x="982.5" y="886.5" width="359" height="33"/><rect class="cls-1" x="983" y="920" width="359" height="122"/><line class="cls-8" x1="1001" y1="256.5" x2="1325" y2="256.5"/><line class="cls-8" x1="1001" y1="282.5" x2="1325" y2="282.5"/><line class="cls-8" x1="1001" y1="308.5" x2="1325" y2="308.5"/><line class="cls-8" x1="1001" y1="334.5" x2="1325" y2="334.5"/><line class="cls-8" x1="1001.5" y1="431.5" x2="1325.5" y2="431.5"/><line class="cls-8" x1="1001.5" y1="457.5" x2="1325.5" y2="457.5"/><line class="cls-8" x1="1001.5" y1="483.5" x2="1325.5" y2="483.5"/><line class="cls-8" x1="1001.5" y1="509.5" x2="1325.5" y2="509.5"/><line class="cls-8" x1="1001.5" y1="602.5" x2="1325.5" y2="602.5"/><line class="cls-8" x1="1001.5" y1="628.5" x2="1325.5" y2="628.5"/><line class="cls-8" x1="1001.5" y1="654.5" x2="1325.5" y2="654.5"/><line class="cls-8" x1="1001.5" y1="680.5" x2="1325.5" y2="680.5"/><line class="cls-8" x1="1001.5" y1="770.5" x2="1325.5" y2="770.5"/><line class="cls-8" x1="1001.5" y1="796.5" x2="1325.5" y2="796.5"/><line class="cls-8" x1="1001.5" y1="822.5" x2="1325.5" y2="822.5"/><line class="cls-8" x1="1001.5" y1="848.5" x2="1325.5" y2="848.5"/><line class="cls-8" x1="1001.5" y1="942.5" x2="1325.5" y2="942.5"/><line class="cls-8" x1="1001.5" y1="968.5" x2="1325.5" y2="968.5"/><line class="cls-8" x1="1001.5" y1="994.5" x2="1325.5" y2="994.5"/><line class="cls-8" x1="1001.5" y1="1020.5" x2="1325.5" y2="1020.5"/><line class="cls-10" x1="250.5" y1="345.5" x2="0.5" y2="345.5"/><line class="cls-10" x1="250.5" y1="183.5" x2="0.5" y2="183.5"/><line class="cls-10" x1="250.5" y1="495.5" x2="0.5" y2="495.5"/><line class="cls-10" x1="250.5" y1="645.5" x2="0.5" y2="645.5"/><line class="cls-10" x1="250.5" y1="688.5" x2="0.5" y2="688.5"/><line class="cls-10" x1="250.5" y1="721.5" x2="0.5" y2="721.5"/><line class="cls-10" x1="250.5" y1="754.5" x2="0.5" y2="754.5"/><line class="cls-10" x1="250.5" y1="788.5" x2="0.5" y2="788.5"/><line class="cls-10" x1="250.5" y1="833.5" x2="0.5" y2="833.5"/></g></g></svg>