<svg xmlns="http://www.w3.org/2000/svg" viewBox="0 0 641.83 121.51"><defs><style>.cls-1{fill:#585c61;}.cls-2{fill:#acb0b5;}.cls-3{fill:#fff;}.cls-4{fill:none;stroke:aqua;stroke-miterlimit:10;stroke-dasharray:2;}</style></defs><title>tag spec</title><g id="Layer_2" data-name="Layer 2"><g id="Layer_1-2" data-name="Layer 1"><path d="M2.25,12.89a1.14,1.14,0,0,1,0,2.27,1.14,1.14,0,0,1,0-2.27Z" transform="translate(-1.17 -3.74)"/><path d="M5.71,7.39H4.41V6.28l1.37-.09L6,3.74H7.2V6.19H9.56V7.39H7.2v4.86c0,1.08.34,1.69,1.35,1.69a3.16,3.16,0,0,0,1-.23l.29,1.12a5.4,5.4,0,0,1-1.62.32c-1.87,0-2.5-1.19-2.5-2.92Z" transform="translate(-1.17 -3.74)"/><path d="M16.17,9.39c0-1.12-.38-2.2-1.8-2.2a4.71,4.71,0,0,0-2.61.94l-.59-1A6.5,6.5,0,0,1,14.6,6c2.14,0,3,1.42,3,3.6v5.37H16.42l-.13-1h0a4.75,4.75,0,0,1-2.9,1.26,2.39,2.39,0,0,1-2.58-2.48C10.78,10.76,12.44,9.81,16.17,9.39ZM13.77,14a3.59,3.59,0,0,0,2.39-1.17V10.37c-2.94.36-3.93,1.08-3.93,2.2A1.34,1.34,0,0,0,13.77,14Z" transform="translate(-1.17 -3.74)"/><path d="M21,14.63v-.07a1.62,1.62,0,0,1-.77-1.42,2,2,0,0,1,1-1.62v-.07A3.09,3.09,0,0,1,23.38,6a3.48,3.48,0,0,1,1.24.22h3V7.32h-1.8a2.54,2.54,0,0,1,.72,1.8,3,3,0,0,1-3.21,3,3.06,3.06,0,0,1-1.31-.31,1.33,1.33,0,0,0-.56,1c0,.56.36,1,1.55,1h1.69c2,0,3.06.63,3.06,2.09,0,1.62-1.71,3-4.43,3-2.14,0-3.62-.85-3.62-2.36A2.53,2.53,0,0,1,21,14.63Zm2.56,3.31c1.67,0,2.77-.86,2.77-1.78s-.63-1.08-1.76-1.08H23.1A4.29,4.29,0,0,1,22,14.94a1.84,1.84,0,0,0-.9,1.48C21.06,17.35,22,17.95,23.6,17.95Zm1.64-8.86a1.86,1.86,0,1,0-3.71,0,1.87,1.87,0,1,0,3.71,0Z" transform="translate(-1.17 -3.74)"/><path class="cls-1" d="M8.31,32.43a5,5,0,0,1,5.25,5.3c0,2.8-1.75,4.26-3.2,4.26a1.48,1.48,0,0,1-1.65-1.22h0a2.75,2.75,0,0,1-2,1.09c-1.09,0-1.92-.8-1.92-2.26,0-1.71,1.2-3.71,3.07-3.71a1.38,1.38,0,0,1,1.28.77h0L9.37,36h.88l-.62,3.2c-.32,1.26,0,1.87.86,1.87s2.14-1.23,2.14-3.31A4.13,4.13,0,0,0,8.2,33.31a5.84,5.84,0,0,0-5.6,6.16,4.55,4.55,0,0,0,4.77,4.9A5.22,5.22,0,0,0,10,43.65l.35.78a5.74,5.74,0,0,1-3,.82,5.34,5.34,0,0,1-5.63-5.73A6.73,6.73,0,0,1,8.31,32.43ZM7,41A2.07,2.07,0,0,0,8.46,40l.46-2.54a1.11,1.11,0,0,0-1-.67c-1.26,0-2,1.52-2,2.72C5.86,40.55,6.34,41,7,41Z" transform="translate(-1.17 -3.74)"/><path class="cls-1" d="M15.69,31.38H17V41.3c0,.42.18.58.37.58a1.09,1.09,0,0,0,.29,0l.18,1a1.76,1.76,0,0,1-.75.13c-1,0-1.39-.62-1.39-1.76Z" transform="translate(-1.17 -3.74)"/><path class="cls-1" d="M24.17,37.84c0-1-.34-2-1.6-2a4.18,4.18,0,0,0-2.32.83l-.53-.91a5.77,5.77,0,0,1,3.06-1c1.91,0,2.71,1.26,2.71,3.2v4.77H24.39l-.11-.93h0A4.22,4.22,0,0,1,21.67,43a2.12,2.12,0,0,1-2.29-2.21C19.38,39.06,20.86,38.21,24.17,37.84ZM22,41.91a3.18,3.18,0,0,0,2.13-1V38.71c-2.61.32-3.49,1-3.49,2A1.19,1.19,0,0,0,22,41.91Z" transform="translate(-1.17 -3.74)"/><path class="cls-1" d="M28,31.38h1.31v3.1l0,1.41a3.84,3.84,0,0,1,2.43-1.09c2,0,3.09,1.55,3.09,4,0,2.66-1.58,4.21-3.36,4.21a3.52,3.52,0,0,1-2.22-1h0l-.11.77H28Zm3.22,10.48c1.28,0,2.22-1.17,2.22-3.09,0-1.71-.58-2.87-2-2.87A3.21,3.21,0,0,0,29.27,37V41A3,3,0,0,0,31.18,41.86Z" transform="translate(-1.17 -3.74)"/><path class="cls-1" d="M39.75,34.8c2,0,3.11,1.42,3.11,3.65a4.63,4.63,0,0,1,0,.72H37.56a2.59,2.59,0,0,0,2.59,2.74,3.52,3.52,0,0,0,1.94-.61l.46.86A4.63,4.63,0,0,1,40,43a3.72,3.72,0,0,1-3.73-4.07C36.26,36.35,38,34.8,39.75,34.8Zm2,3.5c0-1.58-.7-2.46-1.92-2.46a2.43,2.43,0,0,0-2.24,2.46Z" transform="translate(-1.17 -3.74)"/><path class="cls-1" d="M44.77,31.38h1.31V41.3c0,.42.18.58.37.58a1.09,1.09,0,0,0,.29,0l.18,1a1.76,1.76,0,0,1-.75.13c-1,0-1.39-.62-1.39-1.76Z" transform="translate(-1.17 -3.74)"/><path class="cls-1" d="M259.31,49.43a5,5,0,0,1,5.25,5.3c0,2.8-1.75,4.26-3.2,4.26a1.48,1.48,0,0,1-1.65-1.22h0a2.75,2.75,0,0,1-2,1.09c-1.09,0-1.92-.8-1.92-2.26,0-1.71,1.2-3.71,3.07-3.71a1.38,1.38,0,0,1,1.28.77h0l.18-.64h.88l-.62,3.2c-.32,1.26,0,1.87.86,1.87s2.14-1.23,2.14-3.31a4.13,4.13,0,0,0-4.43-4.47,5.84,5.84,0,0,0-5.6,6.16,4.55,4.55,0,0,0,4.77,4.9,5.22,5.22,0,0,0,2.59-.72l.35.78a5.74,5.74,0,0,1-3,.82,5.34,5.34,0,0,1-5.63-5.73A6.73,6.73,0,0,1,259.31,49.43ZM258,58a2.07,2.07,0,0,0,1.47-.95l.46-2.54a1.11,1.11,0,0,0-1-.67c-1.26,0-2,1.52-2,2.72C256.86,57.55,257.34,58,258,58Z" transform="translate(-1.17 -3.74)"/><path class="cls-1" d="M266.69,48.38H268V58.3c0,.42.18.58.37.58a1.09,1.09,0,0,0,.29,0l.18,1a1.76,1.76,0,0,1-.75.13c-1,0-1.39-.62-1.39-1.76Z" transform="translate(-1.17 -3.74)"/><path class="cls-1" d="M275.17,54.84c0-1-.34-2-1.6-2a4.18,4.18,0,0,0-2.32.83l-.53-.91a5.77,5.77,0,0,1,3.06-1c1.91,0,2.71,1.26,2.71,3.2v4.77h-1.09l-.11-.93h0A4.22,4.22,0,0,1,272.67,60a2.12,2.12,0,0,1-2.29-2.21C270.38,56.06,271.86,55.21,275.17,54.84ZM273,58.91a3.18,3.18,0,0,0,2.13-1V55.71c-2.61.32-3.49,1-3.49,2A1.19,1.19,0,0,0,273,58.91Z" transform="translate(-1.17 -3.74)"/><path class="cls-1" d="M279,48.38h1.31v3.1l0,1.41a3.84,3.84,0,0,1,2.43-1.09c2,0,3.09,1.55,3.09,4,0,2.66-1.58,4.21-3.36,4.21a3.52,3.52,0,0,1-2.22-1h0l-.11.77H279Zm3.22,10.48c1.28,0,2.22-1.17,2.22-3.09,0-1.71-.58-2.87-2-2.87A3.21,3.21,0,0,0,280.27,54V58A3,3,0,0,0,282.18,58.86Z" transform="translate(-1.17 -3.74)"/><path class="cls-1" d="M290.75,51.8c2,0,3.11,1.42,3.11,3.65a4.63,4.63,0,0,1,0,.72h-5.25a2.59,2.59,0,0,0,2.59,2.74,3.52,3.52,0,0,0,1.94-.61l.46.86A4.63,4.63,0,0,1,291,60a3.72,3.72,0,0,1-3.73-4.07C287.26,53.35,289,51.8,290.75,51.8Zm2,3.5c0-1.58-.7-2.46-1.92-2.46a2.43,2.43,0,0,0-2.24,2.46Z" transform="translate(-1.17 -3.74)"/><path class="cls-1" d="M295.77,48.38h1.31V58.3c0,.42.18.58.37.58a1.09,1.09,0,0,0,.29,0l.18,1a1.76,1.76,0,0,1-.75.13c-1,0-1.39-.62-1.39-1.76Z" transform="translate(-1.17 -3.74)"/><path class="cls-1" d="M299.2,55.26h3.68v1H299.2Z" transform="translate(-1.17 -3.74)"/><path class="cls-1" d="M304.83,48.38h1.31v3.1l0,1.6a3.72,3.72,0,0,1,2.59-1.28c1.63,0,2.37,1.06,2.37,3v4.93h-1.31V55c0-1.46-.45-2.08-1.47-2.08-.8,0-1.34.42-2.13,1.2v5.63h-1.31Z" transform="translate(-1.17 -3.74)"/><path class="cls-1" d="M316.45,51.8c2,0,3.11,1.42,3.11,3.65a4.63,4.63,0,0,1,0,.72h-5.25a2.59,2.59,0,0,0,2.59,2.74,3.52,3.52,0,0,0,1.94-.61l.46.86a4.63,4.63,0,0,1-2.56.8A3.72,3.72,0,0,1,313,55.9C313,53.35,314.67,51.8,316.45,51.8Zm2,3.5c0-1.58-.7-2.46-1.92-2.46a2.43,2.43,0,0,0-2.24,2.46Z" transform="translate(-1.17 -3.74)"/><path class="cls-1" d="M321.23,49.54a.92.92,0,0,1,1.83,0,.92.92,0,0,1-1.83,0Zm.24,2.45h1.31v7.78h-1.31Z" transform="translate(-1.17 -3.74)"/><path class="cls-1" d="M325.95,59.5v-.06a1.44,1.44,0,0,1-.69-1.27,1.82,1.82,0,0,1,.85-1.44v-.06A2.75,2.75,0,0,1,328,51.8a3.1,3.1,0,0,1,1.1.19h2.71v1h-1.6a2.26,2.26,0,0,1,.64,1.6A2.67,2.67,0,0,1,328,57.31a2.71,2.71,0,0,1-1.17-.27,1.18,1.18,0,0,0-.5.93c0,.5.32.85,1.38.85h1.5c1.81,0,2.72.56,2.72,1.86s-1.52,2.69-3.94,2.69c-1.9,0-3.22-.75-3.22-2.1A2.24,2.24,0,0,1,325.95,59.5Zm2.27,2.94c1.49,0,2.46-.77,2.46-1.58s-.56-1-1.57-1h-1.34a3.8,3.8,0,0,1-1-.13,1.64,1.64,0,0,0-.8,1.31C326,61.92,326.81,62.45,328.22,62.45Zm1.46-7.87a1.66,1.66,0,1,0-3.3,0,1.66,1.66,0,1,0,3.3,0Z" transform="translate(-1.17 -3.74)"/><path class="cls-1" d="M333.47,48.38h1.31v3.1l0,1.6a3.72,3.72,0,0,1,2.59-1.28c1.63,0,2.37,1.06,2.37,3v4.93h-1.31V55c0-1.46-.45-2.08-1.47-2.08-.8,0-1.34.42-2.13,1.2v5.63h-1.31Z" transform="translate(-1.17 -3.74)"/><path class="cls-1" d="M342.4,53.07h-1.15v-1l1.22-.08.16-2.18h1.1V52h2.1v1.07h-2.1v4.32c0,1,.3,1.5,1.2,1.5a2.81,2.81,0,0,0,.88-.21l.26,1a4.82,4.82,0,0,1-1.44.29c-1.67,0-2.23-1.06-2.23-2.59Z" transform="translate(-1.17 -3.74)"/><path class="cls-1" d="M346.51,55.26h3.68v1h-3.68Z" transform="translate(-1.17 -3.74)"/><path class="cls-1" d="M352.14,48.38h1.31V58.3c0,.42.18.58.37.58a1.09,1.09,0,0,0,.29,0l.18,1a1.76,1.76,0,0,1-.75.13c-1,0-1.39-.62-1.39-1.76Z" transform="translate(-1.17 -3.74)"/><path class="cls-1" d="M360.62,54.84c0-1-.34-2-1.6-2a4.18,4.18,0,0,0-2.32.83l-.53-.91a5.77,5.77,0,0,1,3.06-1c1.91,0,2.71,1.26,2.71,3.2v4.77h-1.09l-.11-.93h0A4.22,4.22,0,0,1,358.13,60a2.12,2.12,0,0,1-2.29-2.21C355.84,56.06,357.31,55.21,360.62,54.84Zm-2.13,4.07a3.18,3.18,0,0,0,2.13-1V55.71c-2.61.32-3.49,1-3.49,2A1.19,1.19,0,0,0,358.49,58.91Z" transform="translate(-1.17 -3.74)"/><path class="cls-1" d="M364.41,52h1.09l.11,1.41h0a2.66,2.66,0,0,1,2.21-1.6,1.93,1.93,0,0,1,.83.16l-.26,1.15a2.17,2.17,0,0,0-.75-.13c-.66,0-1.44.48-2,1.79v5h-1.31Z" transform="translate(-1.17 -3.74)"/><path class="cls-1" d="M370.35,59.5v-.06a1.44,1.44,0,0,1-.69-1.27,1.82,1.82,0,0,1,.85-1.44v-.06a2.75,2.75,0,0,1,1.92-4.87,3.1,3.1,0,0,1,1.1.19h2.71v1h-1.6a2.26,2.26,0,0,1,.64,1.6,2.67,2.67,0,0,1-2.85,2.71,2.71,2.71,0,0,1-1.17-.27,1.18,1.18,0,0,0-.5.93c0,.5.32.85,1.38.85h1.5c1.81,0,2.72.56,2.72,1.86s-1.52,2.69-3.94,2.69c-1.9,0-3.22-.75-3.22-2.1A2.24,2.24,0,0,1,370.35,59.5Zm2.27,2.94c1.49,0,2.46-.77,2.46-1.58s-.56-1-1.57-1h-1.34a3.8,3.8,0,0,1-1-.13,1.64,1.64,0,0,0-.8,1.31C370.37,61.92,371.21,62.45,372.62,62.45Zm1.46-7.87a1.66,1.66,0,1,0-3.3,0,1.66,1.66,0,1,0,3.3,0Z" transform="translate(-1.17 -3.74)"/><path class="cls-1" d="M380.56,51.8c2,0,3.11,1.42,3.11,3.65a4.63,4.63,0,0,1,0,.72h-5.25A2.59,2.59,0,0,0,381,58.91a3.52,3.52,0,0,0,1.94-.61l.46.86a4.63,4.63,0,0,1-2.56.8,3.72,3.72,0,0,1-3.73-4.07C377.07,53.35,378.78,51.8,380.56,51.8Zm2,3.5c0-1.58-.7-2.46-1.92-2.46a2.43,2.43,0,0,0-2.24,2.46Z" transform="translate(-1.17 -3.74)"/><path class="cls-1" d="M259.31,69.43a5,5,0,0,1,5.25,5.3c0,2.8-1.75,4.26-3.2,4.26a1.48,1.48,0,0,1-1.65-1.22h0a2.75,2.75,0,0,1-2,1.09c-1.09,0-1.92-.8-1.92-2.26,0-1.71,1.2-3.71,3.07-3.71a1.38,1.38,0,0,1,1.28.77h0l.18-.64h.88l-.62,3.2c-.32,1.26,0,1.87.86,1.87s2.14-1.23,2.14-3.31a4.13,4.13,0,0,0-4.43-4.47,5.84,5.84,0,0,0-5.6,6.16,4.55,4.55,0,0,0,4.77,4.9,5.22,5.22,0,0,0,2.59-.72l.35.78a5.74,5.74,0,0,1-3,.82,5.34,5.34,0,0,1-5.63-5.73A6.73,6.73,0,0,1,259.31,69.43ZM258,78a2.07,2.07,0,0,0,1.47-.95l.46-2.54a1.11,1.11,0,0,0-1-.67c-1.26,0-2,1.52-2,2.72C256.86,77.55,257.34,78,258,78Z" transform="translate(-1.17 -3.74)"/><path class="cls-1" d="M266.69,68.38H268V78.3c0,.42.18.58.37.58a1.09,1.09,0,0,0,.29,0l.18,1a1.76,1.76,0,0,1-.75.13c-1,0-1.39-.62-1.39-1.76Z" transform="translate(-1.17 -3.74)"/><path class="cls-1" d="M275.17,74.84c0-1-.34-2-1.6-2a4.18,4.18,0,0,0-2.32.83l-.53-.91a5.77,5.77,0,0,1,3.06-1c1.91,0,2.71,1.26,2.71,3.2v4.77h-1.09l-.11-.93h0A4.22,4.22,0,0,1,272.67,80a2.12,2.12,0,0,1-2.29-2.21C270.38,76.06,271.86,75.21,275.17,74.84ZM273,78.91a3.18,3.18,0,0,0,2.13-1V75.71c-2.61.32-3.49,1-3.49,2A1.19,1.19,0,0,0,273,78.91Z" transform="translate(-1.17 -3.74)"/><path class="cls-1" d="M279,68.38h1.31v3.1l0,1.41a3.84,3.84,0,0,1,2.43-1.09c2,0,3.09,1.55,3.09,4,0,2.66-1.58,4.21-3.36,4.21a3.52,3.52,0,0,1-2.22-1h0l-.11.77H279Zm3.22,10.48c1.28,0,2.22-1.17,2.22-3.09,0-1.71-.58-2.87-2-2.87A3.21,3.21,0,0,0,280.27,74V78A3,3,0,0,0,282.18,78.86Z" transform="translate(-1.17 -3.74)"/><path class="cls-1" d="M290.75,71.8c2,0,3.11,1.42,3.11,3.65a4.63,4.63,0,0,1,0,.72h-5.25a2.59,2.59,0,0,0,2.59,2.74,3.52,3.52,0,0,0,1.94-.61l.46.86A4.63,4.63,0,0,1,291,80a3.72,3.72,0,0,1-3.73-4.07C287.26,73.35,289,71.8,290.75,71.8Zm2,3.5c0-1.58-.7-2.46-1.92-2.46a2.43,2.43,0,0,0-2.24,2.46Z" transform="translate(-1.17 -3.74)"/><path class="cls-1" d="M295.77,68.38h1.31V78.3c0,.42.18.58.37.58a1.09,1.09,0,0,0,.29,0l.18,1a1.76,1.76,0,0,1-.75.13c-1,0-1.39-.62-1.39-1.76Z" transform="translate(-1.17 -3.74)"/><path class="cls-1" d="M299.2,75.26h3.68v1H299.2Z" transform="translate(-1.17 -3.74)"/><path class="cls-1" d="M304.83,68.38h1.31v3.1l0,1.6a3.72,3.72,0,0,1,2.59-1.28c1.63,0,2.37,1.06,2.37,3v4.93h-1.31V75c0-1.46-.45-2.08-1.47-2.08-.8,0-1.34.42-2.13,1.2v5.63h-1.31Z" transform="translate(-1.17 -3.74)"/><path class="cls-1" d="M316.45,71.8c2,0,3.11,1.42,3.11,3.65a4.63,4.63,0,0,1,0,.72h-5.25a2.59,2.59,0,0,0,2.59,2.74,3.52,3.52,0,0,0,1.94-.61l.46.86a4.63,4.63,0,0,1-2.56.8A3.72,3.72,0,0,1,313,75.9C313,73.35,314.67,71.8,316.45,71.8Zm2,3.5c0-1.58-.7-2.46-1.92-2.46a2.43,2.43,0,0,0-2.24,2.46Z" transform="translate(-1.17 -3.74)"/><path class="cls-1" d="M321.23,69.54a.92.92,0,0,1,1.83,0,.92.92,0,0,1-1.83,0Zm.24,2.45h1.31v7.78h-1.31Z" transform="translate(-1.17 -3.74)"/><path class="cls-1" d="M325.95,79.5v-.06a1.44,1.44,0,0,1-.69-1.27,1.82,1.82,0,0,1,.85-1.44v-.06A2.75,2.75,0,0,1,328,71.8a3.1,3.1,0,0,1,1.1.19h2.71v1h-1.6a2.26,2.26,0,0,1,.64,1.6A2.67,2.67,0,0,1,328,77.31a2.71,2.71,0,0,1-1.17-.27,1.18,1.18,0,0,0-.5.93c0,.5.32.85,1.38.85h1.5c1.81,0,2.72.56,2.72,1.86s-1.52,2.69-3.94,2.69c-1.9,0-3.22-.75-3.22-2.1A2.24,2.24,0,0,1,325.95,79.5Zm2.27,2.94c1.49,0,2.46-.77,2.46-1.58s-.56-1-1.57-1h-1.34a3.8,3.8,0,0,1-1-.13,1.64,1.64,0,0,0-.8,1.31C326,81.92,326.81,82.45,328.22,82.45Zm1.46-7.87a1.66,1.66,0,1,0-3.3,0,1.66,1.66,0,1,0,3.3,0Z" transform="translate(-1.17 -3.74)"/><path class="cls-1" d="M333.47,68.38h1.31v3.1l0,1.6a3.72,3.72,0,0,1,2.59-1.28c1.63,0,2.37,1.06,2.37,3v4.93h-1.31V75c0-1.46-.45-2.08-1.47-2.08-.8,0-1.34.42-2.13,1.2v5.63h-1.31Z" transform="translate(-1.17 -3.74)"/><path class="cls-1" d="M342.4,73.07h-1.15v-1l1.22-.08.16-2.18h1.1V72h2.1v1.07h-2.1v4.32c0,1,.3,1.5,1.2,1.5a2.81,2.81,0,0,0,.88-.21l.26,1a4.82,4.82,0,0,1-1.44.29c-1.67,0-2.23-1.06-2.23-2.59Z" transform="translate(-1.17 -3.74)"/><path class="cls-1" d="M346.51,75.26h3.68v1h-3.68Z" transform="translate(-1.17 -3.74)"/><path class="cls-1" d="M352.14,68.38h1.31v3.1l0,1.41a3.84,3.84,0,0,1,2.43-1.09c2,0,3.09,1.55,3.09,4,0,2.66-1.58,4.21-3.36,4.21a3.52,3.52,0,0,1-2.22-1h0l-.11.77h-1.06Zm3.22,10.48c1.28,0,2.22-1.17,2.22-3.09,0-1.71-.58-2.87-2-2.87A3.21,3.21,0,0,0,353.45,74V78A3,3,0,0,0,355.36,78.86Z" transform="translate(-1.17 -3.74)"/><path class="cls-1" d="M365.2,74.84c0-1-.34-2-1.6-2a4.18,4.18,0,0,0-2.32.83l-.53-.91a5.77,5.77,0,0,1,3.06-1c1.91,0,2.71,1.26,2.71,3.2v4.77h-1.09l-.11-.93h0A4.22,4.22,0,0,1,362.7,80a2.12,2.12,0,0,1-2.29-2.21C360.41,76.06,361.89,75.21,365.2,74.84Zm-2.13,4.07a3.18,3.18,0,0,0,2.13-1V75.71c-2.61.32-3.49,1-3.49,2A1.19,1.19,0,0,0,363.07,78.91Z" transform="translate(-1.17 -3.74)"/><path class="cls-1" d="M368.78,78a3.49,3.49,0,0,0,2.29.93c1,0,1.54-.54,1.54-1.22s-.93-1.15-1.78-1.47c-1.1-.4-2.32-.93-2.32-2.24s1-2.21,2.67-2.21a3.88,3.88,0,0,1,2.42.88l-.62.83a2.89,2.89,0,0,0-1.78-.69c-1,0-1.42.53-1.42,1.12s.85,1,1.73,1.34c1.12.42,2.37.88,2.37,2.35,0,1.26-1,2.32-2.85,2.32a4.68,4.68,0,0,1-2.9-1.07Z" transform="translate(-1.17 -3.74)"/><path class="cls-1" d="M378.61,71.8c2,0,3.11,1.42,3.11,3.65a4.63,4.63,0,0,1,0,.72h-5.25A2.59,2.59,0,0,0,379,78.91a3.52,3.52,0,0,0,1.94-.61l.46.86a4.63,4.63,0,0,1-2.56.8,3.72,3.72,0,0,1-3.73-4.07C375.12,73.35,376.83,71.8,378.61,71.8Zm2,3.5c0-1.58-.7-2.46-1.92-2.46a2.43,2.43,0,0,0-2.24,2.46Z" transform="translate(-1.17 -3.74)"/><path class="cls-1" d="M2.82,59.95a1,1,0,1,1-1,1A1,1,0,0,1,2.82,59.95Z" transform="translate(-1.17 -3.74)"/><path class="cls-1" d="M5.89,55.07H4.74v-1L6,54l.16-2.18h1.1V54h2.1v1.07H7.22v4.32c0,1,.3,1.5,1.2,1.5a2.81,2.81,0,0,0,.88-.21l.26,1A4.82,4.82,0,0,1,8.12,62c-1.67,0-2.23-1.06-2.23-2.59Z" transform="translate(-1.17 -3.74)"/><path class="cls-1" d="M15.19,56.84c0-1-.34-2-1.6-2a4.18,4.18,0,0,0-2.32.83l-.53-.91a5.77,5.77,0,0,1,3.06-1c1.91,0,2.71,1.26,2.71,3.2v4.77H15.42l-.11-.93h0A4.22,4.22,0,0,1,12.7,62a2.12,2.12,0,0,1-2.29-2.21C10.41,58.06,11.88,57.21,15.19,56.84Zm-2.13,4.07a3.18,3.18,0,0,0,2.13-1V57.71c-2.61.32-3.49,1-3.49,2A1.19,1.19,0,0,0,13.06,60.91Z" transform="translate(-1.17 -3.74)"/><path class="cls-1" d="M19.53,61.5v-.06a1.44,1.44,0,0,1-.69-1.27,1.82,1.82,0,0,1,.85-1.44v-.06a2.75,2.75,0,0,1,1.92-4.87,3.1,3.1,0,0,1,1.1.19h2.71v1h-1.6a2.26,2.26,0,0,1,.64,1.6,2.67,2.67,0,0,1-2.85,2.71A2.71,2.71,0,0,1,20.44,59a1.18,1.18,0,0,0-.5.93c0,.5.32.85,1.38.85h1.5c1.81,0,2.72.56,2.72,1.86S24,65.36,21.61,65.36c-1.9,0-3.22-.75-3.22-2.1A2.24,2.24,0,0,1,19.53,61.5Zm2.27,2.94c1.49,0,2.46-.77,2.46-1.58s-.56-1-1.57-1H21.35a3.8,3.8,0,0,1-1-.13,1.64,1.64,0,0,0-.8,1.31C19.54,63.92,20.39,64.45,21.8,64.45Zm1.46-7.87a1.66,1.66,0,1,0-3.3,0,1.66,1.66,0,1,0,3.3,0Z" transform="translate(-1.17 -3.74)"/><path class="cls-1" d="M26.39,57.26h3.68v1H26.39Z" transform="translate(-1.17 -3.74)"/><path class="cls-1" d="M31.81,60a3.49,3.49,0,0,0,2.29.93c1,0,1.54-.54,1.54-1.22s-.93-1.15-1.78-1.47c-1.1-.4-2.32-.93-2.32-2.24s1-2.21,2.67-2.21a3.88,3.88,0,0,1,2.42.88l-.62.83a2.89,2.89,0,0,0-1.78-.69c-1,0-1.42.53-1.42,1.12s.85,1,1.73,1.34c1.12.42,2.37.88,2.37,2.35,0,1.26-1,2.32-2.85,2.32a4.68,4.68,0,0,1-2.9-1.07Z" transform="translate(-1.17 -3.74)"/><path class="cls-1" d="M38.49,51.54a.92.92,0,0,1,1.83,0,.92.92,0,0,1-1.83,0ZM38.73,54H40v7.78H38.73Z" transform="translate(-1.17 -3.74)"/><path class="cls-1" d="M41.85,61.07l4.1-6H42.29V54h5.31v.7l-4.1,6h4.23v1.07H41.85Z" transform="translate(-1.17 -3.74)"/><path class="cls-1" d="M52.21,53.8c2,0,3.11,1.42,3.11,3.65a4.63,4.63,0,0,1,0,.72H50a2.59,2.59,0,0,0,2.59,2.74,3.52,3.52,0,0,0,1.94-.61l.46.86a4.63,4.63,0,0,1-2.56.8,3.72,3.72,0,0,1-3.73-4.07C48.73,55.35,50.44,53.8,52.21,53.8Zm2,3.5c0-1.58-.7-2.46-1.92-2.46A2.43,2.43,0,0,0,50,57.31Z" transform="translate(-1.17 -3.74)"/><path class="cls-1" d="M8.31,112.43a5,5,0,0,1,5.25,5.3c0,2.8-1.75,4.26-3.2,4.26a1.48,1.48,0,0,1-1.65-1.22h0a2.75,2.75,0,0,1-2,1.09c-1.09,0-1.92-.8-1.92-2.26,0-1.71,1.2-3.71,3.07-3.71a1.38,1.38,0,0,1,1.28.77h0l.18-.64h.88l-.62,3.2c-.32,1.26,0,1.87.86,1.87s2.14-1.23,2.14-3.31a4.13,4.13,0,0,0-4.43-4.47,5.84,5.84,0,0,0-5.6,6.16,4.55,4.55,0,0,0,4.77,4.9,5.22,5.22,0,0,0,2.59-.72l.35.78a5.74,5.74,0,0,1-3,.82,5.34,5.34,0,0,1-5.63-5.73A6.73,6.73,0,0,1,8.31,112.43ZM7,121A2.07,2.07,0,0,0,8.46,120l.46-2.54a1.11,1.11,0,0,0-1-.67c-1.26,0-2,1.52-2,2.72C5.86,120.55,6.34,121,7,121Z" transform="translate(-1.17 -3.74)"/><path class="cls-1" d="M18.86,114.8a3.21,3.21,0,0,1,2.27.93l-.66.85a2.35,2.35,0,0,0-1.57-.69c-1.41,0-2.43,1.22-2.43,3s1,3,2.4,3a2.77,2.77,0,0,0,1.82-.79l.59.87a3.85,3.85,0,0,1-2.53,1c-2.06,0-3.65-1.49-3.65-4.07A3.77,3.77,0,0,1,18.86,114.8Z" transform="translate(-1.17 -3.74)"/><path class="cls-1" d="M23,111.38h1.31v9.92c0,.42.18.58.37.58a1.09,1.09,0,0,0,.29,0l.18,1a1.76,1.76,0,0,1-.75.13c-1,0-1.39-.62-1.39-1.76Z" transform="translate(-1.17 -3.74)"/><path class="cls-1" d="M30.09,114.8c1.9,0,3.6,1.49,3.6,4.1S32,123,30.09,123s-3.6-1.49-3.6-4.07S28.18,114.8,30.09,114.8Zm0,7.08c1.34,0,2.24-1.2,2.24-3s-.9-3-2.24-3-2.24,1.22-2.24,3S28.76,121.88,30.09,121.88Z" transform="translate(-1.17 -3.74)"/><path class="cls-1" d="M35.53,121a3.49,3.49,0,0,0,2.29.93c1,0,1.54-.54,1.54-1.22s-.93-1.15-1.78-1.47c-1.1-.4-2.32-.93-2.32-2.24s1-2.21,2.67-2.21a3.88,3.88,0,0,1,2.42.88l-.62.83a2.89,2.89,0,0,0-1.78-.69c-1,0-1.42.53-1.42,1.12s.85,1,1.73,1.34c1.12.42,2.37.88,2.37,2.35,0,1.26-1,2.32-2.85,2.32a4.68,4.68,0,0,1-2.9-1.07Z" transform="translate(-1.17 -3.74)"/><path class="cls-1" d="M45.35,114.8c2,0,3.11,1.42,3.11,3.65a4.63,4.63,0,0,1,0,.72H43.16a2.59,2.59,0,0,0,2.59,2.74,3.52,3.52,0,0,0,1.94-.61l.46.86a4.63,4.63,0,0,1-2.56.8,3.72,3.72,0,0,1-3.73-4.07C41.86,116.35,43.57,114.8,45.35,114.8Zm2,3.5c0-1.58-.7-2.46-1.92-2.46a2.43,2.43,0,0,0-2.24,2.46Z" transform="translate(-1.17 -3.74)"/><path class="cls-1" d="M253.66,119.51h-1.28v-.91h1.39l.29-2.37H252.7v-.93h1.47l.37-2.93h.85L255,115.3h2.13l.38-2.93h.85L258,115.3h1.3v.93H257.9l-.29,2.37H259v.91H257.5l-.4,3.27h-.85l.38-3.27h-2.11l-.4,3.27h-.86Zm3.09-.91.29-2.37h-2.11l-.29,2.37Z" transform="translate(-1.17 -3.74)"/><path class="cls-1" d="M269.15,112.45a2.29,2.29,0,0,0-.88-.19c-.74,0-1.1.51-1.1,1.5V115h1.65v1.07h-1.65v6.71h-1.31v-6.71h-3.23v6.71h-1.31v-6.71h-1.06v-1l1.06-.08v-1c0-1.62.8-2.62,2.42-2.62a3.59,3.59,0,0,1,1.42.29l-.27,1a2.51,2.51,0,0,0-1-.21c-.77,0-1.22.56-1.22,1.58v1h3.23v-1.23c0-1.58.72-2.58,2.27-2.58a3.54,3.54,0,0,1,1.3.26Z" transform="translate(-1.17 -3.74)"/><path class="cls-1" d="M273.78,112.45a2.17,2.17,0,0,0-.88-.19c-.74,0-1.09.51-1.09,1.5V115h1.65v1.07h-1.65v6.71h-1.31v-6.71h-1.06v-1l1.06-.08v-1.23c0-1.58.72-2.58,2.27-2.58a3.54,3.54,0,0,1,1.3.26Z" transform="translate(-1.17 -3.74)"/><path class="cls-1" d="M2.82,99.95a1,1,0,1,1-1,1A1,1,0,0,1,2.82,99.95Z" transform="translate(-1.17 -3.74)"/><path class="cls-1" d="M5.89,95.07H4.74v-1L6,94l.16-2.18h1.1V94h2.1v1.07H7.22v4.32c0,1,.3,1.5,1.2,1.5a2.81,2.81,0,0,0,.88-.21l.26,1a4.82,4.82,0,0,1-1.44.29c-1.67,0-2.23-1.06-2.23-2.59Z" transform="translate(-1.17 -3.74)"/><path class="cls-1" d="M15.19,96.84c0-1-.34-2-1.6-2a4.18,4.18,0,0,0-2.32.83l-.53-.91a5.77,5.77,0,0,1,3.06-1c1.91,0,2.71,1.26,2.71,3.2v4.77H15.42l-.11-.93h0A4.22,4.22,0,0,1,12.7,102a2.12,2.12,0,0,1-2.29-2.21C10.41,98.06,11.88,97.21,15.19,96.84Zm-2.13,4.07a3.18,3.18,0,0,0,2.13-1V97.71c-2.61.32-3.49,1-3.49,2A1.19,1.19,0,0,0,13.06,100.91Z" transform="translate(-1.17 -3.74)"/><path class="cls-1" d="M19.53,101.5v-.06a1.44,1.44,0,0,1-.69-1.27,1.82,1.82,0,0,1,.85-1.44v-.06a2.75,2.75,0,0,1,1.92-4.87,3.1,3.1,0,0,1,1.1.19h2.71v1h-1.6a2.26,2.26,0,0,1,.64,1.6,2.67,2.67,0,0,1-2.85,2.71A2.71,2.71,0,0,1,20.44,99a1.18,1.18,0,0,0-.5.93c0,.5.32.85,1.38.85h1.5c1.81,0,2.72.56,2.72,1.86s-1.52,2.69-3.94,2.69c-1.9,0-3.22-.75-3.22-2.1A2.24,2.24,0,0,1,19.53,101.5Zm2.27,2.94c1.49,0,2.46-.77,2.46-1.58s-.56-1-1.57-1H21.35a3.8,3.8,0,0,1-1-.13,1.64,1.64,0,0,0-.8,1.31C19.54,103.92,20.39,104.45,21.8,104.45Zm1.46-7.87a1.66,1.66,0,1,0-3.3,0,1.66,1.66,0,1,0,3.3,0Z" transform="translate(-1.17 -3.74)"/><path class="cls-1" d="M26.39,97.26h3.68v1H26.39Z" transform="translate(-1.17 -3.74)"/><path class="cls-1" d="M32,94h1.09l.11,1.12h0a3.42,3.42,0,0,1,2.42-1.31,2,2,0,0,1,2.15,1.49,3.67,3.67,0,0,1,2.56-1.49c1.6,0,2.37,1.06,2.37,3v4.93H41.45V97c0-1.46-.46-2.08-1.44-2.08a2.86,2.86,0,0,0-2,1.2v5.63H36.74V97c0-1.46-.46-2.08-1.46-2.08a2.92,2.92,0,0,0-2,1.2v5.63H32Z" transform="translate(-1.17 -3.74)"/><path class="cls-1" d="M49.69,96.84c0-1-.34-2-1.6-2a4.18,4.18,0,0,0-2.32.83l-.53-.91a5.77,5.77,0,0,1,3.06-1C50.2,93.8,51,95.07,51,97v4.77H49.91l-.11-.93h0A4.22,4.22,0,0,1,47.19,102a2.12,2.12,0,0,1-2.29-2.21C44.9,98.06,46.38,97.21,49.69,96.84Zm-2.13,4.07a3.18,3.18,0,0,0,2.13-1V97.71c-2.61.32-3.49,1-3.49,2A1.19,1.19,0,0,0,47.56,100.91Z" transform="translate(-1.17 -3.74)"/><path class="cls-1" d="M53.48,94h1.09l.11,1.41h0a2.66,2.66,0,0,1,2.21-1.6,1.93,1.93,0,0,1,.83.16l-.26,1.15a2.17,2.17,0,0,0-.75-.13c-.66,0-1.44.48-2,1.79v5H53.48Z" transform="translate(-1.17 -3.74)"/><path class="cls-1" d="M59.41,101.5v-.06a1.44,1.44,0,0,1-.69-1.27,1.82,1.82,0,0,1,.85-1.44v-.06A2.75,2.75,0,0,1,61.5,93.8a3.1,3.1,0,0,1,1.1.19H65.3v1H63.7a2.26,2.26,0,0,1,.64,1.6,2.67,2.67,0,0,1-2.85,2.71A2.71,2.71,0,0,1,60.33,99a1.18,1.18,0,0,0-.5.93c0,.5.32.85,1.38.85h1.5c1.81,0,2.72.56,2.72,1.86s-1.52,2.69-3.94,2.69c-1.9,0-3.22-.75-3.22-2.1A2.24,2.24,0,0,1,59.41,101.5Zm2.27,2.94c1.49,0,2.46-.77,2.46-1.58s-.56-1-1.57-1H61.24a3.8,3.8,0,0,1-1-.13,1.64,1.64,0,0,0-.8,1.31C59.43,103.92,60.28,104.45,61.69,104.45Zm1.46-7.87a1.66,1.66,0,1,0-3.3,0,1.66,1.66,0,1,0,3.3,0Z" transform="translate(-1.17 -3.74)"/><path class="cls-1" d="M66.69,91.54a.92.92,0,0,1,1.83,0,.92.92,0,0,1-1.83,0ZM66.93,94h1.31v7.78H66.93Z" transform="translate(-1.17 -3.74)"/><path class="cls-1" d="M70.87,94H72l.11,1.12h0a3.66,3.66,0,0,1,2.61-1.31c1.63,0,2.37,1.06,2.37,3v4.93H75.78V97c0-1.46-.45-2.08-1.47-2.08-.8,0-1.34.42-2.13,1.2v5.63H70.87Z" transform="translate(-1.17 -3.74)"/><path class="cls-1" d="M252.53,96.63c0-3.43,1.23-5.27,3.28-5.27s3.27,1.84,3.27,5.27-1.23,5.33-3.27,5.33S252.53,100.06,252.53,96.63Zm5.27,0c0-3-.8-4.21-2-4.21s-2,1.22-2,4.21.8,4.27,2,4.27S257.79,99.63,257.79,96.63Z" transform="translate(-1.17 -3.74)"/><path class="cls-1" d="M262.4,102.43v2.63h-1.31V94h1.09l.11.9h0a4,4,0,0,1,2.48-1.09c2,0,3.07,1.55,3.07,4,0,2.64-1.58,4.19-3.36,4.19a3.61,3.61,0,0,1-2.16-.9Zm1.91-1.57c1.28,0,2.22-1.17,2.22-3.09,0-1.71-.58-2.87-2-2.87A3.28,3.28,0,0,0,262.4,96V100A3.08,3.08,0,0,0,264.3,100.86Z" transform="translate(-1.17 -3.74)"/><path class="cls-1" d="M271.15,97.71,268.8,94h1.42l1,1.71c.24.42.5.86.77,1.3h.06c.22-.43.46-.88.7-1.3l.94-1.71h1.38l-2.35,3.86,2.53,3.92h-1.42L272.74,100c-.27-.46-.56-.95-.85-1.39h-.06c-.27.45-.53.91-.78,1.39L270,101.77h-1.38Z" transform="translate(-1.17 -3.74)"/><path class="cls-1" d="M276.27,103.73a2.15,2.15,0,0,0,1.44-2,.56.56,0,0,1-.16,0,.88.88,0,0,1-.94-.91.92.92,0,0,1,1-.93c.69,0,1.1.59,1.1,1.55a3.18,3.18,0,0,1-2.1,3Z" transform="translate(-1.17 -3.74)"/><path class="cls-1" d="M290.24,99h-1.39v2.82H287.6V99H283v-.86l4.37-6.53h1.47V97.9h1.39ZM287.6,97.9v-3c0-.54,0-1.42.08-2h-.06c-.26.5-.54.95-.83,1.44L284.4,97.9Z" transform="translate(-1.17 -3.74)"/><path class="cls-1" d="M293.31,102.43v2.63H292V94h1.09l.11.9h0a4,4,0,0,1,2.48-1.09c2,0,3.07,1.55,3.07,4,0,2.64-1.58,4.19-3.36,4.19a3.61,3.61,0,0,1-2.16-.9Zm1.91-1.57c1.28,0,2.22-1.17,2.22-3.09,0-1.71-.58-2.87-2-2.87A3.28,3.28,0,0,0,293.31,96V100A3.08,3.08,0,0,0,295.22,100.86Z" transform="translate(-1.17 -3.74)"/><path class="cls-1" d="M302.06,97.71,299.71,94h1.42l1,1.71c.24.42.5.86.77,1.3H303c.22-.43.46-.88.7-1.3l.94-1.71H306l-2.35,3.86,2.53,3.92h-1.42L303.65,100c-.27-.46-.56-.95-.85-1.39h-.06c-.27.45-.53.91-.78,1.39l-1.06,1.81h-1.38Z" transform="translate(-1.17 -3.74)"/><path class="cls-1" d="M307.18,103.73a2.15,2.15,0,0,0,1.44-2,.56.56,0,0,1-.16,0,.88.88,0,0,1-.94-.91.92.92,0,0,1,1-.93c.69,0,1.1.59,1.1,1.55a3.18,3.18,0,0,1-2.1,3Z" transform="translate(-1.17 -3.74)"/><path class="cls-1" d="M316.22,96.41v-.06A2.9,2.9,0,0,1,314.8,94a2.9,2.9,0,0,1,5.78.1,3.36,3.36,0,0,1-1.41,2.46v.06a3,3,0,0,1,1.78,2.63c0,1.52-1.31,2.72-3.3,2.72s-3.35-1.18-3.35-2.8A3.23,3.23,0,0,1,316.22,96.41Zm1.46,4.58a1.82,1.82,0,0,0,2-1.79c0-1.31-1.3-1.79-2.77-2.38A2.77,2.77,0,0,0,315.49,99,2,2,0,0,0,317.68,101Zm1.76-6.83a1.7,1.7,0,0,0-1.78-1.81A1.58,1.58,0,0,0,316,94c0,1.22,1.12,1.73,2.35,2.21A2.75,2.75,0,0,0,319.44,94.15Z" transform="translate(-1.17 -3.74)"/><path class="cls-1" d="M324.22,102.43v2.63h-1.31V94H324l.11.9h0a4,4,0,0,1,2.48-1.09c2,0,3.07,1.55,3.07,4,0,2.64-1.58,4.19-3.36,4.19a3.61,3.61,0,0,1-2.16-.9Zm1.91-1.57c1.28,0,2.22-1.17,2.22-3.09,0-1.71-.58-2.87-2-2.87A3.28,3.28,0,0,0,324.22,96V100A3.08,3.08,0,0,0,326.13,100.86Z" transform="translate(-1.17 -3.74)"/><path class="cls-1" d="M333,97.71,330.62,94H332l1,1.71c.24.42.5.86.77,1.3h.06c.22-.43.46-.88.7-1.3l.94-1.71h1.38l-2.35,3.86,2.53,3.92H335.7L334.56,100c-.27-.46-.56-.95-.85-1.39h-.06c-.27.45-.53.91-.78,1.39l-1.06,1.81h-1.38Z" transform="translate(-1.17 -3.74)"/><path class="cls-1" d="M338.09,103.73a2.15,2.15,0,0,0,1.44-2,.56.56,0,0,1-.16,0,.88.88,0,0,1-.94-.91.92.92,0,0,1,1-.93c.69,0,1.1.59,1.1,1.55a3.18,3.18,0,0,1-2.1,3Z" transform="translate(-1.17 -3.74)"/><path class="cls-1" d="M352.06,99h-1.39v2.82h-1.25V99h-4.59v-.86l4.37-6.53h1.47V97.9h1.39Zm-2.64-1.06v-3c0-.54,0-1.42.08-2h-.06c-.26.5-.54.95-.83,1.44l-2.38,3.49Z" transform="translate(-1.17 -3.74)"/><path class="cls-1" d="M355.13,102.43v2.63h-1.31V94h1.09l.11.9h0a4,4,0,0,1,2.48-1.09c2,0,3.07,1.55,3.07,4,0,2.64-1.58,4.19-3.36,4.19a3.61,3.61,0,0,1-2.16-.9Zm1.91-1.57c1.28,0,2.22-1.17,2.22-3.09,0-1.71-.58-2.87-2-2.87A3.28,3.28,0,0,0,355.13,96V100A3.08,3.08,0,0,0,357,100.86Z" transform="translate(-1.17 -3.74)"/><path class="cls-1" d="M363.89,97.71,361.53,94H363l1,1.71c.24.42.5.86.77,1.3h.06c.22-.43.46-.88.7-1.3l.94-1.71h1.38l-2.35,3.86,2.53,3.92h-1.42L365.47,100c-.27-.46-.56-.95-.85-1.39h-.06c-.27.45-.53.91-.78,1.39l-1.06,1.81h-1.38Z" transform="translate(-1.17 -3.74)"/><rect class="cls-2" x="516.83" y="72.2" width="96" height="16" rx="1" ry="1"/><path class="cls-3" d="M522.88,86.94V78.35H524v7.58h4.23v1Z" transform="translate(-1.17 -3.74)"/><path class="cls-3" d="M529.07,83.83a3.21,3.21,0,0,1,1-2.56,2.9,2.9,0,0,1,2-.69,2.79,2.79,0,0,1,2.1.84,3.2,3.2,0,0,1,.81,2.32,4.12,4.12,0,0,1-.36,1.89,2.55,2.55,0,0,1-1,1.07,3.05,3.05,0,0,1-1.5.38,2.8,2.8,0,0,1-2.11-.84A3.35,3.35,0,0,1,529.07,83.83Zm1.08,0a2.65,2.65,0,0,0,.52,1.79,1.74,1.74,0,0,0,2.62,0,2.71,2.71,0,0,0,.52-1.82,2.57,2.57,0,0,0-.52-1.75,1.74,1.74,0,0,0-2.62,0A2.64,2.64,0,0,0,530.16,83.83Z" transform="translate(-1.17 -3.74)"/><path class="cls-3" d="M536.13,86.94V80.72h.95v.94a2.57,2.57,0,0,1,.67-.87,1.17,1.17,0,0,1,.68-.21,2.06,2.06,0,0,1,1.08.34l-.36,1a1.51,1.51,0,0,0-.77-.23,1,1,0,0,0-.62.21,1.13,1.13,0,0,0-.39.58,4.11,4.11,0,0,0-.18,1.23v3.26Z" transform="translate(-1.17 -3.74)"/><path class="cls-3" d="M544.39,84.94l1.09.13a2.66,2.66,0,0,1-1,1.48,3.24,3.24,0,0,1-3.95-.31,3.29,3.29,0,0,1-.8-2.36,3.44,3.44,0,0,1,.81-2.44,2.74,2.74,0,0,1,2.1-.87,2.66,2.66,0,0,1,2,.85,3.38,3.38,0,0,1,.79,2.39q0,.09,0,.28h-4.64a2.39,2.39,0,0,0,.58,1.57,1.73,1.73,0,0,0,1.3.54,1.61,1.61,0,0,0,1-.3A2,2,0,0,0,544.39,84.94Zm-3.46-1.71h3.47a2.11,2.11,0,0,0-.4-1.18,1.62,1.62,0,0,0-1.31-.61,1.68,1.68,0,0,0-1.22.49A1.92,1.92,0,0,0,540.93,83.23Z" transform="translate(-1.17 -3.74)"/><path class="cls-3" d="M546.81,86.94V80.72h.94v.87a2.22,2.22,0,0,1,.78-.74,2.19,2.19,0,0,1,1.11-.28,2,2,0,0,1,1.13.29,1.54,1.54,0,0,1,.62.8,2.23,2.23,0,0,1,1.92-1.09,1.89,1.89,0,0,1,1.42.51,2.19,2.19,0,0,1,.5,1.58v4.27h-1V83a2.89,2.89,0,0,0-.1-.91.88.88,0,0,0-.37-.45,1.16,1.16,0,0,0-.63-.17,1.47,1.47,0,0,0-1.09.44,1.92,1.92,0,0,0-.43,1.4v3.62h-1.05v-4a1.78,1.78,0,0,0-.26-1.05,1,1,0,0,0-.84-.35,1.53,1.53,0,0,0-.82.23,1.33,1.33,0,0,0-.55.69,3.86,3.86,0,0,0-.17,1.3v3.23Z" transform="translate(-1.17 -3.74)"/><path class="cls-3" d="M560.14,79.56V78.35h1.05v1.21Zm0,7.38V80.72h1.05v6.22Z" transform="translate(-1.17 -3.74)"/><path class="cls-3" d="M562.8,89.32V80.72h1v.81a2.37,2.37,0,0,1,.77-.71,2.11,2.11,0,0,1,1-.24A2.46,2.46,0,0,1,567,81a2.52,2.52,0,0,1,.92,1.16,4.23,4.23,0,0,1,.31,1.64,4.16,4.16,0,0,1-.34,1.72,2.58,2.58,0,0,1-1,1.17,2.56,2.56,0,0,1-1.37.41,2,2,0,0,1-.95-.22,2.15,2.15,0,0,1-.69-.56v3Zm1-5.46a2.71,2.71,0,0,0,.49,1.78,1.49,1.49,0,0,0,1.18.57,1.52,1.52,0,0,0,1.2-.59,2.82,2.82,0,0,0,.5-1.84,2.75,2.75,0,0,0-.49-1.78,1.47,1.47,0,0,0-1.17-.59,1.52,1.52,0,0,0-1.19.63A2.82,2.82,0,0,0,563.76,83.86Z" transform="translate(-1.17 -3.74)"/><path class="cls-3" d="M569.06,85.08l1-.16a1.46,1.46,0,0,0,.49,1,1.71,1.71,0,0,0,1.12.33,1.65,1.65,0,0,0,1.08-.3.88.88,0,0,0,.35-.69.64.64,0,0,0-.31-.56,4.57,4.57,0,0,0-1.08-.36,9.84,9.84,0,0,1-1.61-.51,1.54,1.54,0,0,1-.91-1.43,1.6,1.6,0,0,1,.19-.77,1.71,1.71,0,0,1,.52-.59,2.17,2.17,0,0,1,.67-.31,3.19,3.19,0,0,1,.91-.13,3.6,3.6,0,0,1,1.29.21,1.75,1.75,0,0,1,.82.57,2.23,2.23,0,0,1,.36,1l-1,.14a1.13,1.13,0,0,0-.41-.75,1.49,1.49,0,0,0-1-.27,1.72,1.72,0,0,0-1,.24.7.7,0,0,0-.31.56.58.58,0,0,0,.13.37.93.93,0,0,0,.4.28l.93.27a13,13,0,0,1,1.56.49,1.58,1.58,0,0,1,.69.55,1.55,1.55,0,0,1,.25.9,1.77,1.77,0,0,1-.31,1,2,2,0,0,1-.89.72,3.23,3.23,0,0,1-1.31.25,2.92,2.92,0,0,1-1.85-.5A2.34,2.34,0,0,1,569.06,85.08Z" transform="translate(-1.17 -3.74)"/><path class="cls-3" d="M579.56,86.94V86a2.28,2.28,0,0,1-2,1.05,2.52,2.52,0,0,1-1-.21,1.69,1.69,0,0,1-.71-.53,2,2,0,0,1-.33-.78,5.36,5.36,0,0,1-.06-1V80.72h1.05v3.45a6.15,6.15,0,0,0,.06,1.11,1.1,1.1,0,0,0,.42.65,1.31,1.31,0,0,0,.8.24,1.74,1.74,0,0,0,.89-.24,1.35,1.35,0,0,0,.59-.66,3.32,3.32,0,0,0,.17-1.22V80.72h1.05v6.22Z" transform="translate(-1.17 -3.74)"/><path class="cls-3" d="M582.15,86.94V80.72h.94v.87a2.22,2.22,0,0,1,.78-.74,2.19,2.19,0,0,1,1.11-.28,2,2,0,0,1,1.13.29,1.54,1.54,0,0,1,.62.8,2.23,2.23,0,0,1,1.92-1.09,1.89,1.89,0,0,1,1.42.51,2.19,2.19,0,0,1,.5,1.58v4.27h-1V83a2.89,2.89,0,0,0-.1-.91.88.88,0,0,0-.37-.45,1.16,1.16,0,0,0-.63-.17,1.47,1.47,0,0,0-1.09.44,1.92,1.92,0,0,0-.43,1.4v3.62h-1.05v-4a1.78,1.78,0,0,0-.26-1.05,1,1,0,0,0-.84-.35,1.53,1.53,0,0,0-.82.23,1.33,1.33,0,0,0-.55.69,3.86,3.86,0,0,0-.17,1.3v3.23Z" transform="translate(-1.17 -3.74)"/><rect class="cls-2" x="516.83" y="38.2" width="103" height="24" rx="1" ry="1"/><path class="cls-3" d="M526.88,57.94V49.35H528v7.58h4.23v1Z" transform="translate(-1.17 -3.74)"/><path class="cls-3" d="M533.07,54.83a3.21,3.21,0,0,1,1-2.56,2.9,2.9,0,0,1,2-.69,2.79,2.79,0,0,1,2.1.84,3.2,3.2,0,0,1,.81,2.32,4.12,4.12,0,0,1-.36,1.89,2.55,2.55,0,0,1-1,1.07,3.05,3.05,0,0,1-1.5.38,2.8,2.8,0,0,1-2.11-.84A3.35,3.35,0,0,1,533.07,54.83Zm1.08,0a2.65,2.65,0,0,0,.52,1.79,1.74,1.74,0,0,0,2.62,0,2.71,2.71,0,0,0,.52-1.82,2.57,2.57,0,0,0-.52-1.75,1.74,1.74,0,0,0-2.62,0A2.64,2.64,0,0,0,534.16,54.83Z" transform="translate(-1.17 -3.74)"/><path class="cls-3" d="M540.13,57.94V51.72h.95v.94a2.57,2.57,0,0,1,.67-.87,1.17,1.17,0,0,1,.68-.21,2.06,2.06,0,0,1,1.08.34l-.36,1a1.51,1.51,0,0,0-.77-.23,1,1,0,0,0-.62.21,1.13,1.13,0,0,0-.39.58,4.11,4.11,0,0,0-.18,1.23v3.26Z" transform="translate(-1.17 -3.74)"/><path class="cls-3" d="M548.39,55.94l1.09.13a2.66,2.66,0,0,1-1,1.48,3.24,3.24,0,0,1-3.95-.31,3.29,3.29,0,0,1-.8-2.36,3.44,3.44,0,0,1,.81-2.44,2.74,2.74,0,0,1,2.1-.87,2.66,2.66,0,0,1,2,.85,3.38,3.38,0,0,1,.79,2.39q0,.09,0,.28h-4.64a2.39,2.39,0,0,0,.58,1.57,1.73,1.73,0,0,0,1.3.54,1.61,1.61,0,0,0,1-.3A2,2,0,0,0,548.39,55.94Zm-3.46-1.71h3.47a2.11,2.11,0,0,0-.4-1.18,1.62,1.62,0,0,0-1.31-.61,1.68,1.68,0,0,0-1.22.49A1.92,1.92,0,0,0,544.93,54.23Z" transform="translate(-1.17 -3.74)"/><path class="cls-3" d="M550.81,57.94V51.72h.94v.87a2.22,2.22,0,0,1,.78-.74,2.19,2.19,0,0,1,1.11-.28,2,2,0,0,1,1.13.29,1.54,1.54,0,0,1,.62.8,2.23,2.23,0,0,1,1.92-1.09,1.89,1.89,0,0,1,1.42.51,2.19,2.19,0,0,1,.5,1.58v4.27h-1V54a2.89,2.89,0,0,0-.1-.91.88.88,0,0,0-.37-.45,1.16,1.16,0,0,0-.63-.17,1.47,1.47,0,0,0-1.09.44,1.92,1.92,0,0,0-.43,1.4v3.62h-1.05v-4a1.78,1.78,0,0,0-.26-1.05,1,1,0,0,0-.84-.35,1.53,1.53,0,0,0-.82.23,1.33,1.33,0,0,0-.55.69,3.86,3.86,0,0,0-.17,1.3v3.23Z" transform="translate(-1.17 -3.74)"/><path class="cls-3" d="M564.14,50.56V49.35h1.05v1.21Zm0,7.38V51.72h1.05v6.22Z" transform="translate(-1.17 -3.74)"/><path class="cls-3" d="M566.8,60.32V51.72h1v.81a2.37,2.37,0,0,1,.77-.71,2.11,2.11,0,0,1,1-.24A2.46,2.46,0,0,1,571,52a2.52,2.52,0,0,1,.92,1.16,4.23,4.23,0,0,1,.31,1.64,4.16,4.16,0,0,1-.34,1.72,2.58,2.58,0,0,1-1,1.17,2.56,2.56,0,0,1-1.37.41,2,2,0,0,1-.95-.22,2.15,2.15,0,0,1-.69-.56v3Zm1-5.46a2.71,2.71,0,0,0,.49,1.78,1.49,1.49,0,0,0,1.18.57,1.52,1.52,0,0,0,1.2-.59,2.82,2.82,0,0,0,.5-1.84,2.75,2.75,0,0,0-.49-1.78,1.47,1.47,0,0,0-1.17-.59,1.52,1.52,0,0,0-1.19.63A2.82,2.82,0,0,0,567.76,54.86Z" transform="translate(-1.17 -3.74)"/><path class="cls-3" d="M573.06,56.08l1-.16a1.46,1.46,0,0,0,.49,1,1.71,1.71,0,0,0,1.12.33,1.65,1.65,0,0,0,1.08-.3.88.88,0,0,0,.35-.69.64.64,0,0,0-.31-.56,4.57,4.57,0,0,0-1.08-.36,9.84,9.84,0,0,1-1.61-.51,1.54,1.54,0,0,1-.91-1.43,1.6,1.6,0,0,1,.19-.77,1.71,1.71,0,0,1,.52-.59,2.17,2.17,0,0,1,.67-.31,3.19,3.19,0,0,1,.91-.13,3.6,3.6,0,0,1,1.29.21,1.75,1.75,0,0,1,.82.57,2.23,2.23,0,0,1,.36,1l-1,.14a1.13,1.13,0,0,0-.41-.75,1.49,1.49,0,0,0-1-.27,1.72,1.72,0,0,0-1,.24.7.7,0,0,0-.31.56.58.58,0,0,0,.13.37.93.93,0,0,0,.4.28l.93.27a13,13,0,0,1,1.56.49,1.58,1.58,0,0,1,.69.55,1.55,1.55,0,0,1,.25.9,1.77,1.77,0,0,1-.31,1,2,2,0,0,1-.89.72,3.23,3.23,0,0,1-1.31.25,2.92,2.92,0,0,1-1.85-.5A2.34,2.34,0,0,1,573.06,56.08Z" transform="translate(-1.17 -3.74)"/><path class="cls-3" d="M583.56,57.94V57a2.28,2.28,0,0,1-2,1.05,2.52,2.52,0,0,1-1-.21,1.69,1.69,0,0,1-.71-.53,2,2,0,0,1-.33-.78,5.36,5.36,0,0,1-.06-1V51.72h1.05v3.45a6.15,6.15,0,0,0,.06,1.11,1.1,1.1,0,0,0,.42.65,1.31,1.31,0,0,0,.8.24,1.74,1.74,0,0,0,.89-.24,1.35,1.35,0,0,0,.59-.66,3.32,3.32,0,0,0,.17-1.22V51.72h1.05v6.22Z" transform="translate(-1.17 -3.74)"/><path class="cls-3" d="M586.15,57.94V51.72h.94v.87a2.22,2.22,0,0,1,.78-.74,2.19,2.19,0,0,1,1.11-.28,2,2,0,0,1,1.13.29,1.54,1.54,0,0,1,.62.8,2.23,2.23,0,0,1,1.92-1.09,1.89,1.89,0,0,1,1.42.51,2.19,2.19,0,0,1,.5,1.58v4.27h-1V54a2.89,2.89,0,0,0-.1-.91.88.88,0,0,0-.37-.45,1.16,1.16,0,0,0-.63-.17,1.47,1.47,0,0,0-1.09.44,1.92,1.92,0,0,0-.43,1.4v3.62h-1.05v-4a1.78,1.78,0,0,0-.26-1.05,1,1,0,0,0-.84-.35,1.53,1.53,0,0,0-.82.23,1.33,1.33,0,0,0-.55.69,3.86,3.86,0,0,0-.17,1.3v3.23Z" transform="translate(-1.17 -3.74)"/><path class="cls-3" d="M613,57l0,.06a.36.36,0,0,1,0,.18.28.28,0,0,1-.08.16l-1.44,1.44a.28.28,0,0,1-.16.08.36.36,0,0,1-.18,0l-.06,0,0,0-3-3-3,3,0,0-.06,0a.36.36,0,0,1-.18,0,.28.28,0,0,1-.16-.08l-1.44-1.44a.28.28,0,0,1-.08-.16.36.36,0,0,1,0-.18l0-.06,0,0,3-3-3-3,0-.06,0-.06a.33.33,0,0,1,0-.17.29.29,0,0,1,.08-.16L604.52,49a.31.31,0,0,1,.16-.09.32.32,0,0,1,.18,0l.06,0,0,0,3,3,3-3,0,0,.06,0a.32.32,0,0,1,.18,0,.31.31,0,0,1,.16.09l1.44,1.43a.36.36,0,0,1,.08.16.3.3,0,0,1,0,.17l0,.06,0,.06-3,3,3,3Z" transform="translate(-1.17 -3.74)"/><path class="cls-3" d="M608,87l0,.06a.36.36,0,0,1,0,.18.28.28,0,0,1-.08.16l-1.44,1.44a.28.28,0,0,1-.16.08.36.36,0,0,1-.18,0l-.06,0,0,0-3-3-3,3,0,0-.06,0a.36.36,0,0,1-.18,0,.28.28,0,0,1-.16-.08l-1.44-1.44a.28.28,0,0,1-.08-.16.36.36,0,0,1,0-.18l0-.06,0,0,3-3-3-3,0-.06,0-.06a.33.33,0,0,1,0-.17.29.29,0,0,1,.08-.16L599.52,79a.31.31,0,0,1,.16-.09.32.32,0,0,1,.18,0l.06,0,0,0,3,3,3-3,0,0,.06,0a.32.32,0,0,1,.18,0,.31.31,0,0,1,.16.09l1.44,1.43a.36.36,0,0,1,.08.16.3.3,0,0,1,0,.17l0,.06,0,.06-3,3,3,3Z" transform="translate(-1.17 -3.74)"/><line class="cls-4" x1="516.33" y1="98.2" x2="516.33" y2="11.2"/><line class="cls-4" x1="512.33" y1="98.2" x2="512.33" y2="11.2"/><line class="cls-4" x1="503.83" y1="71.7" x2="641.83" y2="71.7"/><line class="cls-4" x1="503.83" y1="63.7" x2="641.83" y2="63.7"/><line class="cls-4" x1="624.33" y1="98.2" x2="624.33" y2="11.2"/><line class="cls-4" x1="620.33" y1="98.2" x2="620.33" y2="11.2"/></g></g></svg>