<svg xmlns="http://www.w3.org/2000/svg" viewBox="0 0 511.5 81.4"><defs><style>.cls-1,.cls-4{fill:#acb0b5;}.cls-2{fill:#fff;}.cls-3{fill:#eaeef3;stroke:#eaeef3;}.cls-3,.cls-4{stroke-miterlimit:10;}.cls-4{stroke:#c1c5ca;}.cls-5{fill:#009697;}</style></defs><title>tag example</title><g id="Layer_2" data-name="Layer 2"><g id="Layer_1-2" data-name="Layer 1"><rect class="cls-1" y="22.4" width="96" height="16" rx="1" ry="1"/><path class="cls-2" d="M4.88,35V26.38H6V34h4.23v1Z" transform="translate(0 -1.56)"/><path class="cls-2" d="M11.07,31.85a3.21,3.21,0,0,1,1-2.56,2.9,2.9,0,0,1,2-.69,2.79,2.79,0,0,1,2.1.84,3.2,3.2,0,0,1,.81,2.32,4.12,4.12,0,0,1-.36,1.89,2.55,2.55,0,0,1-1,1.07,3.05,3.05,0,0,1-1.5.38,2.8,2.8,0,0,1-2.11-.84A3.35,3.35,0,0,1,11.07,31.85Zm1.08,0a2.65,2.65,0,0,0,.52,1.79,1.74,1.74,0,0,0,2.62,0,2.71,2.71,0,0,0,.52-1.82,2.57,2.57,0,0,0-.52-1.75,1.74,1.74,0,0,0-2.62,0A2.64,2.64,0,0,0,12.16,31.85Z" transform="translate(0 -1.56)"/><path class="cls-2" d="M18.13,35V28.74h.95v.94a2.57,2.57,0,0,1,.67-.87,1.17,1.17,0,0,1,.68-.21,2.06,2.06,0,0,1,1.08.34l-.36,1a1.51,1.51,0,0,0-.77-.23,1,1,0,0,0-.62.21,1.13,1.13,0,0,0-.39.58,4.11,4.11,0,0,0-.18,1.23V35Z" transform="translate(0 -1.56)"/><path class="cls-2" d="M26.39,33l1.09.13a2.66,2.66,0,0,1-1,1.48,2.87,2.87,0,0,1-1.78.53,2.85,2.85,0,0,1-2.17-.84,3.29,3.29,0,0,1-.8-2.36,3.44,3.44,0,0,1,.81-2.44,2.74,2.74,0,0,1,2.1-.87,2.66,2.66,0,0,1,2,.85,3.38,3.38,0,0,1,.79,2.39q0,.09,0,.28H22.87a2.39,2.39,0,0,0,.58,1.57,1.73,1.73,0,0,0,1.3.54,1.61,1.61,0,0,0,1-.3A2,2,0,0,0,26.39,33Zm-3.46-1.71h3.47a2.11,2.11,0,0,0-.4-1.18,1.62,1.62,0,0,0-1.31-.61,1.68,1.68,0,0,0-1.22.49A1.92,1.92,0,0,0,22.93,31.26Z" transform="translate(0 -1.56)"/><path class="cls-2" d="M28.81,35V28.74h.94v.87a2.22,2.22,0,0,1,.78-.74,2.19,2.19,0,0,1,1.11-.28,2,2,0,0,1,1.13.29,1.54,1.54,0,0,1,.62.8,2.23,2.23,0,0,1,1.92-1.09,1.89,1.89,0,0,1,1.42.51,2.19,2.19,0,0,1,.5,1.58V35h-1V31a2.89,2.89,0,0,0-.1-.91.88.88,0,0,0-.37-.45,1.16,1.16,0,0,0-.63-.17A1.47,1.47,0,0,0,34,30a1.92,1.92,0,0,0-.43,1.4V35H32.51v-4a1.78,1.78,0,0,0-.26-1.05,1,1,0,0,0-.84-.35,1.53,1.53,0,0,0-.82.23,1.33,1.33,0,0,0-.55.69,3.86,3.86,0,0,0-.17,1.3V35Z" transform="translate(0 -1.56)"/><path class="cls-2" d="M42.14,27.59V26.38H43.2v1.21Zm0,7.38V28.74H43.2V35Z" transform="translate(0 -1.56)"/><path class="cls-2" d="M44.8,37.35V28.74h1v.81a2.37,2.37,0,0,1,.77-.71,2.11,2.11,0,0,1,1-.24A2.46,2.46,0,0,1,49,29a2.52,2.52,0,0,1,.92,1.16,4.23,4.23,0,0,1,.31,1.64,4.16,4.16,0,0,1-.34,1.72,2.58,2.58,0,0,1-1,1.17,2.56,2.56,0,0,1-1.37.41,2,2,0,0,1-.95-.22,2.15,2.15,0,0,1-.69-.56v3Zm1-5.46a2.71,2.71,0,0,0,.49,1.78,1.49,1.49,0,0,0,1.18.57,1.52,1.52,0,0,0,1.2-.59,2.82,2.82,0,0,0,.5-1.84A2.75,2.75,0,0,0,48.64,30a1.47,1.47,0,0,0-1.17-.59,1.52,1.52,0,0,0-1.19.63A2.82,2.82,0,0,0,45.76,31.89Z" transform="translate(0 -1.56)"/><path class="cls-2" d="M51.06,33.11l1-.16a1.46,1.46,0,0,0,.49,1,1.71,1.71,0,0,0,1.12.33,1.65,1.65,0,0,0,1.08-.3.88.88,0,0,0,.35-.69.64.64,0,0,0-.31-.56,4.57,4.57,0,0,0-1.08-.36,9.84,9.84,0,0,1-1.61-.51,1.54,1.54,0,0,1-.91-1.43,1.6,1.6,0,0,1,.19-.77,1.71,1.71,0,0,1,.52-.59,2.17,2.17,0,0,1,.67-.31,3.19,3.19,0,0,1,.91-.13,3.6,3.6,0,0,1,1.29.21,1.75,1.75,0,0,1,.82.57,2.23,2.23,0,0,1,.36,1l-1,.14a1.13,1.13,0,0,0-.41-.75,1.49,1.49,0,0,0-1-.27,1.72,1.72,0,0,0-1,.24.7.7,0,0,0-.31.56.58.58,0,0,0,.13.37.93.93,0,0,0,.4.28l.93.27a13,13,0,0,1,1.56.49,1.58,1.58,0,0,1,.69.55,1.55,1.55,0,0,1,.25.9,1.77,1.77,0,0,1-.31,1,2,2,0,0,1-.89.72,3.23,3.23,0,0,1-1.31.25,2.92,2.92,0,0,1-1.85-.5A2.34,2.34,0,0,1,51.06,33.11Z" transform="translate(0 -1.56)"/><path class="cls-2" d="M61.56,35v-.91a2.28,2.28,0,0,1-2,1.05,2.52,2.52,0,0,1-1-.21,1.69,1.69,0,0,1-.71-.53,2,2,0,0,1-.33-.78,5.36,5.36,0,0,1-.06-1V28.74h1.05v3.45a6.15,6.15,0,0,0,.06,1.11A1.1,1.1,0,0,0,59,34a1.31,1.31,0,0,0,.8.24,1.74,1.74,0,0,0,.89-.24,1.35,1.35,0,0,0,.59-.66,3.32,3.32,0,0,0,.17-1.22V28.74H62.5V35Z" transform="translate(0 -1.56)"/><path class="cls-2" d="M64.15,35V28.74h.94v.87a2.22,2.22,0,0,1,.78-.74A2.19,2.19,0,0,1,67,28.6a2,2,0,0,1,1.13.29,1.54,1.54,0,0,1,.62.8,2.23,2.23,0,0,1,1.92-1.09,1.89,1.89,0,0,1,1.42.51,2.19,2.19,0,0,1,.5,1.58V35h-1V31a2.89,2.89,0,0,0-.1-.91.88.88,0,0,0-.37-.45,1.16,1.16,0,0,0-.63-.17,1.47,1.47,0,0,0-1.09.44,1.92,1.92,0,0,0-.43,1.4V35H67.85v-4a1.78,1.78,0,0,0-.26-1.05,1,1,0,0,0-.84-.35,1.53,1.53,0,0,0-.82.23,1.33,1.33,0,0,0-.55.69,3.86,3.86,0,0,0-.17,1.3V35Z" transform="translate(0 -1.56)"/><path class="cls-2" d="M90,35l0,.06a.36.36,0,0,1,0,.18.28.28,0,0,1-.08.16l-1.44,1.44a.28.28,0,0,1-.16.08.36.36,0,0,1-.18,0l-.06,0,0,0-3-3-3,3,0,0-.06,0a.36.36,0,0,1-.18,0,.28.28,0,0,1-.16-.08l-1.44-1.44a.28.28,0,0,1-.08-.16.36.36,0,0,1,0-.18L80,35l0,0,3-3-3-3,0-.06,0-.06a.33.33,0,0,1,0-.17.29.29,0,0,1,.08-.16l1.44-1.43a.31.31,0,0,1,.16-.09.32.32,0,0,1,.18,0l.06,0,0,0,3,3,3-3,0,0,.06,0a.32.32,0,0,1,.18,0,.31.31,0,0,1,.16.09l1.44,1.43a.36.36,0,0,1,.08.16.3.3,0,0,1,0,.17l0,.06,0,.06-3,3,3,3Z" transform="translate(0 -1.56)"/><rect class="cls-1" x="100" y="22.4" width="96" height="16" rx="1" ry="1"/><path class="cls-2" d="M104.88,35V26.38H106V34h4.23v1Z" transform="translate(0 -1.56)"/><path class="cls-2" d="M111.07,31.85a3.21,3.21,0,0,1,1-2.56,2.9,2.9,0,0,1,2-.69,2.79,2.79,0,0,1,2.1.84,3.2,3.2,0,0,1,.81,2.32,4.12,4.12,0,0,1-.36,1.89,2.55,2.55,0,0,1-1,1.07,3.05,3.05,0,0,1-1.5.38,2.8,2.8,0,0,1-2.11-.84A3.35,3.35,0,0,1,111.07,31.85Zm1.08,0a2.65,2.65,0,0,0,.52,1.79,1.74,1.74,0,0,0,2.62,0,2.71,2.71,0,0,0,.52-1.82,2.57,2.57,0,0,0-.52-1.75,1.74,1.74,0,0,0-2.62,0A2.64,2.64,0,0,0,112.16,31.85Z" transform="translate(0 -1.56)"/><path class="cls-2" d="M118.13,35V28.74h.95v.94a2.57,2.57,0,0,1,.67-.87,1.17,1.17,0,0,1,.68-.21,2.06,2.06,0,0,1,1.08.34l-.36,1a1.51,1.51,0,0,0-.77-.23,1,1,0,0,0-.62.21,1.13,1.13,0,0,0-.39.58,4.11,4.11,0,0,0-.18,1.23V35Z" transform="translate(0 -1.56)"/><path class="cls-2" d="M126.39,33l1.09.13a2.66,2.66,0,0,1-1,1.48,3.24,3.24,0,0,1-3.95-.31,3.29,3.29,0,0,1-.8-2.36,3.44,3.44,0,0,1,.81-2.44,2.74,2.74,0,0,1,2.1-.87,2.66,2.66,0,0,1,2,.85,3.38,3.38,0,0,1,.79,2.39q0,.09,0,.28h-4.64a2.39,2.39,0,0,0,.58,1.57,1.73,1.73,0,0,0,1.3.54,1.61,1.61,0,0,0,1-.3A2,2,0,0,0,126.39,33Zm-3.46-1.71h3.47a2.11,2.11,0,0,0-.4-1.18,1.62,1.62,0,0,0-1.31-.61,1.68,1.68,0,0,0-1.22.49A1.92,1.92,0,0,0,122.93,31.26Z" transform="translate(0 -1.56)"/><path class="cls-2" d="M128.81,35V28.74h.94v.87a2.22,2.22,0,0,1,.78-.74,2.19,2.19,0,0,1,1.11-.28,2,2,0,0,1,1.13.29,1.54,1.54,0,0,1,.62.8,2.23,2.23,0,0,1,1.92-1.09,1.89,1.89,0,0,1,1.42.51,2.19,2.19,0,0,1,.5,1.58V35h-1V31a2.89,2.89,0,0,0-.1-.91.88.88,0,0,0-.37-.45,1.16,1.16,0,0,0-.63-.17A1.47,1.47,0,0,0,134,30a1.92,1.92,0,0,0-.43,1.4V35h-1.05v-4a1.78,1.78,0,0,0-.26-1.05,1,1,0,0,0-.84-.35,1.53,1.53,0,0,0-.82.23,1.33,1.33,0,0,0-.55.69,3.86,3.86,0,0,0-.17,1.3V35Z" transform="translate(0 -1.56)"/><path class="cls-2" d="M142.14,27.59V26.38h1.05v1.21Zm0,7.38V28.74h1.05V35Z" transform="translate(0 -1.56)"/><path class="cls-2" d="M144.8,37.35V28.74h1v.81a2.37,2.37,0,0,1,.77-.71,2.11,2.11,0,0,1,1-.24A2.46,2.46,0,0,1,149,29a2.52,2.52,0,0,1,.92,1.16,4.23,4.23,0,0,1,.31,1.64,4.16,4.16,0,0,1-.34,1.72,2.58,2.58,0,0,1-1,1.17,2.56,2.56,0,0,1-1.37.41,2,2,0,0,1-.95-.22,2.15,2.15,0,0,1-.69-.56v3Zm1-5.46a2.71,2.71,0,0,0,.49,1.78,1.49,1.49,0,0,0,1.18.57,1.52,1.52,0,0,0,1.2-.59,2.82,2.82,0,0,0,.5-1.84,2.75,2.75,0,0,0-.49-1.78,1.47,1.47,0,0,0-1.17-.59,1.52,1.52,0,0,0-1.19.63A2.82,2.82,0,0,0,145.76,31.89Z" transform="translate(0 -1.56)"/><path class="cls-2" d="M151.06,33.11l1-.16a1.46,1.46,0,0,0,.49,1,1.71,1.71,0,0,0,1.12.33,1.65,1.65,0,0,0,1.08-.3.88.88,0,0,0,.35-.69.64.64,0,0,0-.31-.56,4.57,4.57,0,0,0-1.08-.36,9.84,9.84,0,0,1-1.61-.51,1.54,1.54,0,0,1-.91-1.43,1.6,1.6,0,0,1,.19-.77,1.71,1.71,0,0,1,.52-.59,2.17,2.17,0,0,1,.67-.31,3.19,3.19,0,0,1,.91-.13,3.6,3.6,0,0,1,1.29.21,1.75,1.75,0,0,1,.82.57,2.23,2.23,0,0,1,.36,1l-1,.14a1.13,1.13,0,0,0-.41-.75,1.49,1.49,0,0,0-1-.27,1.72,1.72,0,0,0-1,.24.7.7,0,0,0-.31.56.58.58,0,0,0,.13.37.93.93,0,0,0,.4.28l.93.27a13,13,0,0,1,1.56.49,1.58,1.58,0,0,1,.69.55,1.55,1.55,0,0,1,.25.9,1.77,1.77,0,0,1-.31,1,2,2,0,0,1-.89.72,3.23,3.23,0,0,1-1.31.25,2.92,2.92,0,0,1-1.85-.5A2.34,2.34,0,0,1,151.06,33.11Z" transform="translate(0 -1.56)"/><path class="cls-2" d="M161.56,35v-.91a2.28,2.28,0,0,1-2,1.05,2.52,2.52,0,0,1-1-.21,1.69,1.69,0,0,1-.71-.53,2,2,0,0,1-.33-.78,5.36,5.36,0,0,1-.06-1V28.74h1.05v3.45a6.15,6.15,0,0,0,.06,1.11A1.1,1.1,0,0,0,159,34a1.31,1.31,0,0,0,.8.24,1.74,1.74,0,0,0,.89-.24,1.35,1.35,0,0,0,.59-.66,3.32,3.32,0,0,0,.17-1.22V28.74h1.05V35Z" transform="translate(0 -1.56)"/><path class="cls-2" d="M164.15,35V28.74h.94v.87a2.22,2.22,0,0,1,.78-.74A2.19,2.19,0,0,1,167,28.6a2,2,0,0,1,1.13.29,1.54,1.54,0,0,1,.62.8,2.23,2.23,0,0,1,1.92-1.09,1.89,1.89,0,0,1,1.42.51,2.19,2.19,0,0,1,.5,1.58V35h-1V31a2.89,2.89,0,0,0-.1-.91.88.88,0,0,0-.37-.45,1.16,1.16,0,0,0-.63-.17,1.47,1.47,0,0,0-1.09.44,1.92,1.92,0,0,0-.43,1.4V35h-1.05v-4a1.78,1.78,0,0,0-.26-1.05,1,1,0,0,0-.84-.35,1.53,1.53,0,0,0-.82.23,1.33,1.33,0,0,0-.55.69,3.86,3.86,0,0,0-.17,1.3V35Z" transform="translate(0 -1.56)"/><path class="cls-2" d="M190,35l0,.06a.36.36,0,0,1,0,.18.28.28,0,0,1-.08.16l-1.44,1.44a.28.28,0,0,1-.16.08.36.36,0,0,1-.18,0l-.06,0,0,0-3-3-3,3,0,0-.06,0a.36.36,0,0,1-.18,0,.28.28,0,0,1-.16-.08l-1.44-1.44a.28.28,0,0,1-.08-.16.36.36,0,0,1,0-.18l0-.06,0,0,3-3-3-3,0-.06,0-.06a.33.33,0,0,1,0-.17.29.29,0,0,1,.08-.16l1.44-1.43a.31.31,0,0,1,.16-.09.32.32,0,0,1,.18,0l.06,0,0,0,3,3,3-3,0,0,.06,0a.32.32,0,0,1,.18,0,.31.31,0,0,1,.16.09l1.44,1.43a.36.36,0,0,1,.08.16.3.3,0,0,1,0,.17l0,.06,0,.06-3,3,3,3Z" transform="translate(0 -1.56)"/><rect class="cls-1" x="200" y="22.4" width="96" height="16" rx="1" ry="1"/><path class="cls-2" d="M204.88,35V26.38H206V34h4.23v1Z" transform="translate(0 -1.56)"/><path class="cls-2" d="M211.07,31.85a3.21,3.21,0,0,1,1-2.56,2.9,2.9,0,0,1,2-.69,2.79,2.79,0,0,1,2.1.84,3.2,3.2,0,0,1,.81,2.32,4.12,4.12,0,0,1-.36,1.89,2.55,2.55,0,0,1-1,1.07,3.05,3.05,0,0,1-1.5.38,2.8,2.8,0,0,1-2.11-.84A3.35,3.35,0,0,1,211.07,31.85Zm1.08,0a2.65,2.65,0,0,0,.52,1.79,1.74,1.74,0,0,0,2.62,0,2.71,2.71,0,0,0,.52-1.82,2.57,2.57,0,0,0-.52-1.75,1.74,1.74,0,0,0-2.62,0A2.64,2.64,0,0,0,212.16,31.85Z" transform="translate(0 -1.56)"/><path class="cls-2" d="M218.13,35V28.74h.95v.94a2.57,2.57,0,0,1,.67-.87,1.17,1.17,0,0,1,.68-.21,2.06,2.06,0,0,1,1.08.34l-.36,1a1.51,1.51,0,0,0-.77-.23,1,1,0,0,0-.62.21,1.13,1.13,0,0,0-.39.58,4.11,4.11,0,0,0-.18,1.23V35Z" transform="translate(0 -1.56)"/><path class="cls-2" d="M226.39,33l1.09.13a2.66,2.66,0,0,1-1,1.48,3.24,3.24,0,0,1-3.95-.31,3.29,3.29,0,0,1-.8-2.36,3.44,3.44,0,0,1,.81-2.44,2.74,2.74,0,0,1,2.1-.87,2.66,2.66,0,0,1,2,.85,3.38,3.38,0,0,1,.79,2.39q0,.09,0,.28h-4.64a2.39,2.39,0,0,0,.58,1.57,1.73,1.73,0,0,0,1.3.54,1.61,1.61,0,0,0,1-.3A2,2,0,0,0,226.39,33Zm-3.46-1.71h3.47a2.11,2.11,0,0,0-.4-1.18,1.62,1.62,0,0,0-1.31-.61,1.68,1.68,0,0,0-1.22.49A1.92,1.92,0,0,0,222.93,31.26Z" transform="translate(0 -1.56)"/><path class="cls-2" d="M228.81,35V28.74h.94v.87a2.22,2.22,0,0,1,.78-.74,2.19,2.19,0,0,1,1.11-.28,2,2,0,0,1,1.13.29,1.54,1.54,0,0,1,.62.8,2.23,2.23,0,0,1,1.92-1.09,1.89,1.89,0,0,1,1.42.51,2.19,2.19,0,0,1,.5,1.58V35h-1V31a2.89,2.89,0,0,0-.1-.91.88.88,0,0,0-.37-.45,1.16,1.16,0,0,0-.63-.17A1.47,1.47,0,0,0,234,30a1.92,1.92,0,0,0-.43,1.4V35h-1.05v-4a1.78,1.78,0,0,0-.26-1.05,1,1,0,0,0-.84-.35,1.53,1.53,0,0,0-.82.23,1.33,1.33,0,0,0-.55.69,3.86,3.86,0,0,0-.17,1.3V35Z" transform="translate(0 -1.56)"/><path class="cls-2" d="M242.14,27.59V26.38h1.05v1.21Zm0,7.38V28.74h1.05V35Z" transform="translate(0 -1.56)"/><path class="cls-2" d="M244.8,37.35V28.74h1v.81a2.37,2.37,0,0,1,.77-.71,2.11,2.11,0,0,1,1-.24A2.46,2.46,0,0,1,249,29a2.52,2.52,0,0,1,.92,1.16,4.23,4.23,0,0,1,.31,1.64,4.16,4.16,0,0,1-.34,1.72,2.58,2.58,0,0,1-1,1.17,2.56,2.56,0,0,1-1.37.41,2,2,0,0,1-.95-.22,2.15,2.15,0,0,1-.69-.56v3Zm1-5.46a2.71,2.71,0,0,0,.49,1.78,1.49,1.49,0,0,0,1.18.57,1.52,1.52,0,0,0,1.2-.59,2.82,2.82,0,0,0,.5-1.84,2.75,2.75,0,0,0-.49-1.78,1.47,1.47,0,0,0-1.17-.59,1.52,1.52,0,0,0-1.19.63A2.82,2.82,0,0,0,245.76,31.89Z" transform="translate(0 -1.56)"/><path class="cls-2" d="M251.06,33.11l1-.16a1.46,1.46,0,0,0,.49,1,1.71,1.71,0,0,0,1.12.33,1.65,1.65,0,0,0,1.08-.3.88.88,0,0,0,.35-.69.64.64,0,0,0-.31-.56,4.57,4.57,0,0,0-1.08-.36,9.84,9.84,0,0,1-1.61-.51,1.54,1.54,0,0,1-.91-1.43,1.6,1.6,0,0,1,.19-.77,1.71,1.71,0,0,1,.52-.59,2.17,2.17,0,0,1,.67-.31,3.19,3.19,0,0,1,.91-.13,3.6,3.6,0,0,1,1.29.21,1.75,1.75,0,0,1,.82.57,2.23,2.23,0,0,1,.36,1l-1,.14a1.13,1.13,0,0,0-.41-.75,1.49,1.49,0,0,0-1-.27,1.72,1.72,0,0,0-1,.24.7.7,0,0,0-.31.56.58.58,0,0,0,.13.37.93.93,0,0,0,.4.28l.93.27a13,13,0,0,1,1.56.49,1.58,1.58,0,0,1,.69.55,1.55,1.55,0,0,1,.25.9,1.77,1.77,0,0,1-.31,1,2,2,0,0,1-.89.72,3.23,3.23,0,0,1-1.31.25,2.92,2.92,0,0,1-1.85-.5A2.34,2.34,0,0,1,251.06,33.11Z" transform="translate(0 -1.56)"/><path class="cls-2" d="M261.56,35v-.91a2.28,2.28,0,0,1-2,1.05,2.52,2.52,0,0,1-1-.21,1.69,1.69,0,0,1-.71-.53,2,2,0,0,1-.33-.78,5.36,5.36,0,0,1-.06-1V28.74h1.05v3.45a6.15,6.15,0,0,0,.06,1.11A1.1,1.1,0,0,0,259,34a1.31,1.31,0,0,0,.8.24,1.74,1.74,0,0,0,.89-.24,1.35,1.35,0,0,0,.59-.66,3.32,3.32,0,0,0,.17-1.22V28.74h1.05V35Z" transform="translate(0 -1.56)"/><path class="cls-2" d="M264.15,35V28.74h.94v.87a2.22,2.22,0,0,1,.78-.74A2.19,2.19,0,0,1,267,28.6a2,2,0,0,1,1.13.29,1.54,1.54,0,0,1,.62.8,2.23,2.23,0,0,1,1.92-1.09,1.89,1.89,0,0,1,1.42.51,2.19,2.19,0,0,1,.5,1.58V35h-1V31a2.89,2.89,0,0,0-.1-.91.88.88,0,0,0-.37-.45,1.16,1.16,0,0,0-.63-.17,1.47,1.47,0,0,0-1.09.44,1.92,1.92,0,0,0-.43,1.4V35h-1.05v-4a1.78,1.78,0,0,0-.26-1.05,1,1,0,0,0-.84-.35,1.53,1.53,0,0,0-.82.23,1.33,1.33,0,0,0-.55.69,3.86,3.86,0,0,0-.17,1.3V35Z" transform="translate(0 -1.56)"/><path class="cls-2" d="M290,35l0,.06a.36.36,0,0,1,0,.18.28.28,0,0,1-.08.16l-1.44,1.44a.28.28,0,0,1-.16.08.36.36,0,0,1-.18,0l-.06,0,0,0-3-3-3,3,0,0-.06,0a.36.36,0,0,1-.18,0,.28.28,0,0,1-.16-.08l-1.44-1.44a.28.28,0,0,1-.08-.16.36.36,0,0,1,0-.18l0-.06,0,0,3-3-3-3,0-.06,0-.06a.33.33,0,0,1,0-.17.29.29,0,0,1,.08-.16l1.44-1.43a.31.31,0,0,1,.16-.09.32.32,0,0,1,.18,0l.06,0,0,0,3,3,3-3,0,0,.06,0a.32.32,0,0,1,.18,0,.31.31,0,0,1,.16.09l1.44,1.43a.36.36,0,0,1,.08.16.3.3,0,0,1,0,.17l0,.06,0,.06-3,3,3,3Z" transform="translate(0 -1.56)"/><path d="M.87,7.54l1.07-.09A2.37,2.37,0,0,0,2.3,8.5a1.94,1.94,0,0,0,.86.67,3.27,3.27,0,0,0,1.32.25,3.16,3.16,0,0,0,1.15-.19,1.59,1.59,0,0,0,.74-.53A1.23,1.23,0,0,0,6.61,8a1.12,1.12,0,0,0-.23-.71,1.74,1.74,0,0,0-.77-.51,15.12,15.12,0,0,0-1.53-.42A7.81,7.81,0,0,1,2.42,5.8,2.33,2.33,0,0,1,1.5,5a2,2,0,0,1-.3-1.07,2.18,2.18,0,0,1,.37-1.22,2.29,2.29,0,0,1,1.08-.86,4.09,4.09,0,0,1,1.58-.29,4.31,4.31,0,0,1,1.68.31A2.43,2.43,0,0,1,7,2.77a2.6,2.6,0,0,1,.42,1.35l-1.09.08A1.76,1.76,0,0,0,5.77,3a2.31,2.31,0,0,0-1.5-.42,2.4,2.4,0,0,0-1.5.38,1.13,1.13,0,0,0-.47.91,1,1,0,0,0,.33.76,4.53,4.53,0,0,0,1.71.61,11.34,11.34,0,0,1,1.9.55,2.6,2.6,0,0,1,1.11.88,2.13,2.13,0,0,1,.36,1.22,2.34,2.34,0,0,1-.39,1.29,2.58,2.58,0,0,1-1.13.94,3.93,3.93,0,0,1-1.66.34,4.94,4.94,0,0,1-2-.34,2.74,2.74,0,0,1-1.24-1A2.9,2.9,0,0,1,.87,7.54Z" transform="translate(0 -1.56)"/><path d="M13.39,8.29l1.09.13a2.66,2.66,0,0,1-1,1.48,2.87,2.87,0,0,1-1.78.53A2.85,2.85,0,0,1,9.58,9.6a3.29,3.29,0,0,1-.8-2.36A3.44,3.44,0,0,1,9.58,4.8a2.74,2.74,0,0,1,2.1-.87,2.66,2.66,0,0,1,2,.85,3.38,3.38,0,0,1,.79,2.39q0,.09,0,.28H9.87A2.39,2.39,0,0,0,10.45,9a1.73,1.73,0,0,0,1.3.54,1.61,1.61,0,0,0,1-.3A2,2,0,0,0,13.39,8.29ZM9.92,6.59H13.4A2.11,2.11,0,0,0,13,5.41a1.62,1.62,0,0,0-1.31-.61,1.68,1.68,0,0,0-1.22.49A1.92,1.92,0,0,0,9.92,6.59Z" transform="translate(0 -1.56)"/><path d="M15.78,10.3V1.71h1.05V10.3Z" transform="translate(0 -1.56)"/><path d="M22.73,8.29l1.09.13a2.66,2.66,0,0,1-1,1.48,2.87,2.87,0,0,1-1.78.53,2.85,2.85,0,0,1-2.17-.84,3.29,3.29,0,0,1-.8-2.36,3.44,3.44,0,0,1,.81-2.44A2.74,2.74,0,0,1,21,3.93a2.66,2.66,0,0,1,2,.85,3.38,3.38,0,0,1,.79,2.39q0,.09,0,.28H19.21A2.39,2.39,0,0,0,19.79,9a1.73,1.73,0,0,0,1.3.54,1.61,1.61,0,0,0,1-.3A2,2,0,0,0,22.73,8.29ZM19.26,6.59h3.47a2.11,2.11,0,0,0-.4-1.18A1.62,1.62,0,0,0,21,4.8a1.68,1.68,0,0,0-1.22.49A1.92,1.92,0,0,0,19.26,6.59Z" transform="translate(0 -1.56)"/><path d="M29.2,8l1,.13a2.69,2.69,0,0,1-.87,1.68,2.53,2.53,0,0,1-1.72.61A2.67,2.67,0,0,1,25.6,9.6a3.39,3.39,0,0,1-.78-2.39,4.33,4.33,0,0,1,.33-1.76,2.33,2.33,0,0,1,1-1.13,3,3,0,0,1,1.49-.38,2.58,2.58,0,0,1,1.66.51,2.35,2.35,0,0,1,.83,1.46l-1,.16a1.7,1.7,0,0,0-.52-.94,1.34,1.34,0,0,0-.9-.32,1.64,1.64,0,0,0-1.29.57,2.71,2.71,0,0,0-.5,1.81A2.8,2.8,0,0,0,26.38,9a1.56,1.56,0,0,0,1.25.57,1.48,1.48,0,0,0,1-.38A1.89,1.89,0,0,0,29.2,8Z" transform="translate(0 -1.56)"/><path d="M33.44,9.35l.15.93a3.91,3.91,0,0,1-.8.09,1.8,1.8,0,0,1-.89-.18,1,1,0,0,1-.45-.48,3.78,3.78,0,0,1-.13-1.25V4.9h-.77V4.08h.77V2.53l1-.63V4.08h1.06V4.9H32.38V8.53a1.84,1.84,0,0,0,.06.58.44.44,0,0,0,.18.21A.7.7,0,0,0,33,9.4,3.43,3.43,0,0,0,33.44,9.35Z" transform="translate(0 -1.56)"/><path d="M38.74,8.29l1.09.13a2.66,2.66,0,0,1-1,1.48,3.24,3.24,0,0,1-3.95-.31,3.29,3.29,0,0,1-.8-2.36,3.44,3.44,0,0,1,.81-2.44A2.74,2.74,0,0,1,37,3.93a2.66,2.66,0,0,1,2,.85,3.38,3.38,0,0,1,.79,2.39q0,.09,0,.28H35.21A2.39,2.39,0,0,0,35.79,9a1.73,1.73,0,0,0,1.3.54,1.61,1.61,0,0,0,1-.3A2,2,0,0,0,38.74,8.29ZM35.27,6.59h3.47a2.11,2.11,0,0,0-.4-1.18A1.62,1.62,0,0,0,37,4.8a1.68,1.68,0,0,0-1.22.49A1.92,1.92,0,0,0,35.27,6.59Z" transform="translate(0 -1.56)"/><path d="M45.19,10.3V9.51a1.94,1.94,0,0,1-1.74.93A2.44,2.44,0,0,1,42.08,10a2.7,2.7,0,0,1-1-1.15,4,4,0,0,1-.34-1.69,4.42,4.42,0,0,1,.31-1.69A2.45,2.45,0,0,1,42,4.34a2.49,2.49,0,0,1,1.39-.4,2.08,2.08,0,0,1,1.72.86V1.71h1V10.3ZM41.85,7.19A2.7,2.7,0,0,0,42.36,9a1.52,1.52,0,0,0,1.19.59A1.49,1.49,0,0,0,44.72,9a2.61,2.61,0,0,0,.48-1.73,2.93,2.93,0,0,0-.49-1.87,1.51,1.51,0,0,0-1.21-.6,1.46,1.46,0,0,0-1.17.57A2.83,2.83,0,0,0,41.85,7.19Z" transform="translate(0 -1.56)"/><path d="M51.16,2.92V1.71h1.05V2.92Zm0,7.38V4.08h1.05V10.3Z" transform="translate(0 -1.56)"/><path d="M56.13,9.35l.15.93a3.91,3.91,0,0,1-.8.09,1.8,1.8,0,0,1-.89-.18,1,1,0,0,1-.45-.48A3.78,3.78,0,0,1,54,8.48V4.9h-.77V4.08H54V2.53l1-.63V4.08h1.06V4.9H55.07V8.53a1.84,1.84,0,0,0,.06.58.44.44,0,0,0,.18.21.7.7,0,0,0,.36.08A3.43,3.43,0,0,0,56.13,9.35Z" transform="translate(0 -1.56)"/><path d="M61.42,8.29l1.09.13a2.66,2.66,0,0,1-1,1.48,3.24,3.24,0,0,1-3.95-.31,3.29,3.29,0,0,1-.8-2.36,3.44,3.44,0,0,1,.81-2.44,2.74,2.74,0,0,1,2.1-.87,2.66,2.66,0,0,1,2,.85,3.38,3.38,0,0,1,.79,2.39q0,.09,0,.28H57.9A2.39,2.39,0,0,0,58.48,9a1.73,1.73,0,0,0,1.3.54,1.61,1.61,0,0,0,1-.3A2,2,0,0,0,61.42,8.29ZM58,6.59h3.47A2.11,2.11,0,0,0,61,5.41a1.62,1.62,0,0,0-1.31-.61,1.68,1.68,0,0,0-1.22.49A1.92,1.92,0,0,0,58,6.59Z" transform="translate(0 -1.56)"/><path d="M63.83,10.3V4.08h.94v.87a2.22,2.22,0,0,1,.78-.74,2.19,2.19,0,0,1,1.11-.28,2,2,0,0,1,1.13.29,1.54,1.54,0,0,1,.62.8,2.23,2.23,0,0,1,1.92-1.09,1.89,1.89,0,0,1,1.42.51A2.19,2.19,0,0,1,72.26,6V10.3h-1V6.38a2.89,2.89,0,0,0-.1-.91A.88.88,0,0,0,70.74,5a1.16,1.16,0,0,0-.63-.17A1.47,1.47,0,0,0,69,5.29a1.92,1.92,0,0,0-.43,1.4V10.3H67.53v-4a1.78,1.78,0,0,0-.26-1.05,1,1,0,0,0-.84-.35,1.53,1.53,0,0,0-.82.23,1.33,1.33,0,0,0-.55.69,3.86,3.86,0,0,0-.17,1.3V10.3Z" transform="translate(0 -1.56)"/><path d="M73.41,8.44l1-.16a1.46,1.46,0,0,0,.49,1,1.71,1.71,0,0,0,1.12.33,1.65,1.65,0,0,0,1.08-.3.88.88,0,0,0,.35-.69A.64.64,0,0,0,77.18,8a4.57,4.57,0,0,0-1.08-.36,9.84,9.84,0,0,1-1.61-.51,1.54,1.54,0,0,1-.91-1.43A1.6,1.6,0,0,1,73.77,5a1.71,1.71,0,0,1,.52-.59A2.17,2.17,0,0,1,75,4.06a3.19,3.19,0,0,1,.91-.13,3.6,3.6,0,0,1,1.29.21,1.75,1.75,0,0,1,.82.57,2.23,2.23,0,0,1,.36,1l-1,.14a1.13,1.13,0,0,0-.41-.75,1.49,1.49,0,0,0-1-.27,1.72,1.72,0,0,0-1,.24.7.7,0,0,0-.31.56.58.58,0,0,0,.13.37.93.93,0,0,0,.4.28l.93.27A13,13,0,0,1,77.63,7a1.58,1.58,0,0,1,.69.55,1.55,1.55,0,0,1,.25.9,1.77,1.77,0,0,1-.31,1,2,2,0,0,1-.89.72,3.23,3.23,0,0,1-1.31.25,2.92,2.92,0,0,1-1.85-.5A2.34,2.34,0,0,1,73.41,8.44Z" transform="translate(0 -1.56)"/><rect class="cls-3" x="111.5" y="56.9" width="399.5" height="24" rx="2" ry="2"/><line class="cls-4" x1="0.5" y1="14.9" x2="510.5" y2="14.9"/><rect class="cls-1" x="118" y="61.4" width="96" height="16" rx="1" ry="1"/><path class="cls-2" d="M122.88,74V65.38H124V73h4.23v1Z" transform="translate(0 -1.56)"/><path class="cls-2" d="M129.07,70.85a3.21,3.21,0,0,1,1-2.56,2.9,2.9,0,0,1,2-.69,2.79,2.79,0,0,1,2.1.84,3.2,3.2,0,0,1,.81,2.32,4.12,4.12,0,0,1-.36,1.89,2.55,2.55,0,0,1-1,1.07,3.05,3.05,0,0,1-1.5.38,2.8,2.8,0,0,1-2.11-.84A3.35,3.35,0,0,1,129.07,70.85Zm1.08,0a2.65,2.65,0,0,0,.52,1.79,1.74,1.74,0,0,0,2.62,0,2.71,2.71,0,0,0,.52-1.82,2.57,2.57,0,0,0-.52-1.75,1.74,1.74,0,0,0-2.62,0A2.64,2.64,0,0,0,130.16,70.85Z" transform="translate(0 -1.56)"/><path class="cls-2" d="M136.13,74V67.74h.95v.94a2.57,2.57,0,0,1,.67-.87,1.17,1.17,0,0,1,.68-.21,2.06,2.06,0,0,1,1.08.34l-.36,1a1.51,1.51,0,0,0-.77-.23,1,1,0,0,0-.62.21,1.13,1.13,0,0,0-.39.58,4.11,4.11,0,0,0-.18,1.23V74Z" transform="translate(0 -1.56)"/><path class="cls-2" d="M144.39,72l1.09.13a2.66,2.66,0,0,1-1,1.48,3.24,3.24,0,0,1-3.95-.31,3.29,3.29,0,0,1-.8-2.36,3.44,3.44,0,0,1,.81-2.44,2.74,2.74,0,0,1,2.1-.87,2.66,2.66,0,0,1,2,.85,3.38,3.38,0,0,1,.79,2.39q0,.09,0,.28h-4.64a2.39,2.39,0,0,0,.58,1.57,1.73,1.73,0,0,0,1.3.54,1.61,1.61,0,0,0,1-.3A2,2,0,0,0,144.39,72Zm-3.46-1.71h3.47a2.11,2.11,0,0,0-.4-1.18,1.62,1.62,0,0,0-1.31-.61,1.68,1.68,0,0,0-1.22.49A1.92,1.92,0,0,0,140.93,70.26Z" transform="translate(0 -1.56)"/><path class="cls-2" d="M146.81,74V67.74h.94v.87a2.22,2.22,0,0,1,.78-.74,2.19,2.19,0,0,1,1.11-.28,2,2,0,0,1,1.13.29,1.54,1.54,0,0,1,.62.8,2.23,2.23,0,0,1,1.92-1.09,1.89,1.89,0,0,1,1.42.51,2.19,2.19,0,0,1,.5,1.58V74h-1V70a2.89,2.89,0,0,0-.1-.91.88.88,0,0,0-.37-.45,1.16,1.16,0,0,0-.63-.17A1.47,1.47,0,0,0,152,69a1.92,1.92,0,0,0-.43,1.4V74h-1.05v-4a1.78,1.78,0,0,0-.26-1.05,1,1,0,0,0-.84-.35,1.53,1.53,0,0,0-.82.23,1.33,1.33,0,0,0-.55.69,3.86,3.86,0,0,0-.17,1.3V74Z" transform="translate(0 -1.56)"/><path class="cls-2" d="M160.14,66.59V65.38h1.05v1.21Zm0,7.38V67.74h1.05V74Z" transform="translate(0 -1.56)"/><path class="cls-2" d="M162.8,76.35V67.74h1v.81a2.37,2.37,0,0,1,.77-.71,2.11,2.11,0,0,1,1-.24A2.46,2.46,0,0,1,167,68a2.52,2.52,0,0,1,.92,1.16,4.23,4.23,0,0,1,.31,1.64,4.16,4.16,0,0,1-.34,1.72,2.58,2.58,0,0,1-1,1.17,2.56,2.56,0,0,1-1.37.41,2,2,0,0,1-.95-.22,2.15,2.15,0,0,1-.69-.56v3Zm1-5.46a2.71,2.71,0,0,0,.49,1.78,1.49,1.49,0,0,0,1.18.57,1.52,1.52,0,0,0,1.2-.59,2.82,2.82,0,0,0,.5-1.84,2.75,2.75,0,0,0-.49-1.78,1.47,1.47,0,0,0-1.17-.59,1.52,1.52,0,0,0-1.19.63A2.82,2.82,0,0,0,163.76,70.89Z" transform="translate(0 -1.56)"/><path class="cls-2" d="M169.06,72.11l1-.16a1.46,1.46,0,0,0,.49,1,1.71,1.71,0,0,0,1.12.33,1.65,1.65,0,0,0,1.08-.3.88.88,0,0,0,.35-.69.64.64,0,0,0-.31-.56,4.57,4.57,0,0,0-1.08-.36,9.84,9.84,0,0,1-1.61-.51,1.54,1.54,0,0,1-.91-1.43,1.6,1.6,0,0,1,.19-.77,1.71,1.71,0,0,1,.52-.59,2.17,2.17,0,0,1,.67-.31,3.19,3.19,0,0,1,.91-.13,3.6,3.6,0,0,1,1.29.21,1.75,1.75,0,0,1,.82.57,2.23,2.23,0,0,1,.36,1l-1,.14a1.13,1.13,0,0,0-.41-.75,1.49,1.49,0,0,0-1-.27,1.72,1.72,0,0,0-1,.24.7.7,0,0,0-.31.56.58.58,0,0,0,.13.37.93.93,0,0,0,.4.28l.93.27a13,13,0,0,1,1.56.49,1.58,1.58,0,0,1,.69.55,1.55,1.55,0,0,1,.25.9,1.77,1.77,0,0,1-.31,1,2,2,0,0,1-.89.72,3.23,3.23,0,0,1-1.31.25,2.92,2.92,0,0,1-1.85-.5A2.34,2.34,0,0,1,169.06,72.11Z" transform="translate(0 -1.56)"/><path class="cls-2" d="M179.56,74v-.91a2.28,2.28,0,0,1-2,1.05,2.52,2.52,0,0,1-1-.21,1.69,1.69,0,0,1-.71-.53,2,2,0,0,1-.33-.78,5.36,5.36,0,0,1-.06-1V67.74h1.05v3.45a6.15,6.15,0,0,0,.06,1.11A1.1,1.1,0,0,0,177,73a1.31,1.31,0,0,0,.8.24,1.74,1.74,0,0,0,.89-.24,1.35,1.35,0,0,0,.59-.66,3.32,3.32,0,0,0,.17-1.22V67.74h1.05V74Z" transform="translate(0 -1.56)"/><path class="cls-2" d="M182.15,74V67.74h.94v.87a2.22,2.22,0,0,1,.78-.74A2.19,2.19,0,0,1,185,67.6a2,2,0,0,1,1.13.29,1.54,1.54,0,0,1,.62.8,2.23,2.23,0,0,1,1.92-1.09,1.89,1.89,0,0,1,1.42.51,2.19,2.19,0,0,1,.5,1.58V74h-1V70a2.89,2.89,0,0,0-.1-.91.88.88,0,0,0-.37-.45,1.16,1.16,0,0,0-.63-.17,1.47,1.47,0,0,0-1.09.44,1.92,1.92,0,0,0-.43,1.4V74h-1.05v-4a1.78,1.78,0,0,0-.26-1.05,1,1,0,0,0-.84-.35,1.53,1.53,0,0,0-.82.23,1.33,1.33,0,0,0-.55.69,3.86,3.86,0,0,0-.17,1.3V74Z" transform="translate(0 -1.56)"/><path class="cls-2" d="M208,74l0,.06a.36.36,0,0,1,0,.18.28.28,0,0,1-.08.16l-1.44,1.44a.28.28,0,0,1-.16.08.36.36,0,0,1-.18,0l-.06,0,0,0-3-3-3,3,0,0-.06,0a.36.36,0,0,1-.18,0,.28.28,0,0,1-.16-.08l-1.44-1.44a.28.28,0,0,1-.08-.16.36.36,0,0,1,0-.18l0-.06,0,0,3-3-3-3,0-.06,0-.06a.33.33,0,0,1,0-.17.29.29,0,0,1,.08-.16l1.44-1.43a.31.31,0,0,1,.16-.09.32.32,0,0,1,.18,0l.06,0,0,0,3,3,3-3,0,0,.06,0a.32.32,0,0,1,.18,0,.31.31,0,0,1,.16.09l1.44,1.43a.36.36,0,0,1,.08.16.3.3,0,0,1,0,.17l0,.06,0,.06-3,3,3,3Z" transform="translate(0 -1.56)"/><rect class="cls-1" x="218" y="61.4" width="96" height="16" rx="1" ry="1"/><path class="cls-2" d="M222.88,74V65.38H224V73h4.23v1Z" transform="translate(0 -1.56)"/><path class="cls-2" d="M229.07,70.85a3.21,3.21,0,0,1,1-2.56,2.9,2.9,0,0,1,2-.69,2.79,2.79,0,0,1,2.1.84,3.2,3.2,0,0,1,.81,2.32,4.12,4.12,0,0,1-.36,1.89,2.55,2.55,0,0,1-1,1.07,3.05,3.05,0,0,1-1.5.38,2.8,2.8,0,0,1-2.11-.84A3.35,3.35,0,0,1,229.07,70.85Zm1.08,0a2.65,2.65,0,0,0,.52,1.79,1.74,1.74,0,0,0,2.62,0,2.71,2.71,0,0,0,.52-1.82,2.57,2.57,0,0,0-.52-1.75,1.74,1.74,0,0,0-2.62,0A2.64,2.64,0,0,0,230.16,70.85Z" transform="translate(0 -1.56)"/><path class="cls-2" d="M236.13,74V67.74h.95v.94a2.57,2.57,0,0,1,.67-.87,1.17,1.17,0,0,1,.68-.21,2.06,2.06,0,0,1,1.08.34l-.36,1a1.51,1.51,0,0,0-.77-.23,1,1,0,0,0-.62.21,1.13,1.13,0,0,0-.39.58,4.11,4.11,0,0,0-.18,1.23V74Z" transform="translate(0 -1.56)"/><path class="cls-2" d="M244.39,72l1.09.13a2.66,2.66,0,0,1-1,1.48,3.24,3.24,0,0,1-3.95-.31,3.29,3.29,0,0,1-.8-2.36,3.44,3.44,0,0,1,.81-2.44,2.74,2.74,0,0,1,2.1-.87,2.66,2.66,0,0,1,2,.85,3.38,3.38,0,0,1,.79,2.39q0,.09,0,.28h-4.64a2.39,2.39,0,0,0,.58,1.57,1.73,1.73,0,0,0,1.3.54,1.61,1.61,0,0,0,1-.3A2,2,0,0,0,244.39,72Zm-3.46-1.71h3.47a2.11,2.11,0,0,0-.4-1.18,1.62,1.62,0,0,0-1.31-.61,1.68,1.68,0,0,0-1.22.49A1.92,1.92,0,0,0,240.93,70.26Z" transform="translate(0 -1.56)"/><path class="cls-2" d="M246.81,74V67.74h.94v.87a2.22,2.22,0,0,1,.78-.74,2.19,2.19,0,0,1,1.11-.28,2,2,0,0,1,1.13.29,1.54,1.54,0,0,1,.62.8,2.23,2.23,0,0,1,1.92-1.09,1.89,1.89,0,0,1,1.42.51,2.19,2.19,0,0,1,.5,1.58V74h-1V70a2.89,2.89,0,0,0-.1-.91.88.88,0,0,0-.37-.45,1.16,1.16,0,0,0-.63-.17A1.47,1.47,0,0,0,252,69a1.92,1.92,0,0,0-.43,1.4V74h-1.05v-4a1.78,1.78,0,0,0-.26-1.05,1,1,0,0,0-.84-.35,1.53,1.53,0,0,0-.82.23,1.33,1.33,0,0,0-.55.69,3.86,3.86,0,0,0-.17,1.3V74Z" transform="translate(0 -1.56)"/><path class="cls-2" d="M260.14,66.59V65.38h1.05v1.21Zm0,7.38V67.74h1.05V74Z" transform="translate(0 -1.56)"/><path class="cls-2" d="M262.8,76.35V67.74h1v.81a2.37,2.37,0,0,1,.77-.71,2.11,2.11,0,0,1,1-.24A2.46,2.46,0,0,1,267,68a2.52,2.52,0,0,1,.92,1.16,4.23,4.23,0,0,1,.31,1.64,4.16,4.16,0,0,1-.34,1.72,2.58,2.58,0,0,1-1,1.17,2.56,2.56,0,0,1-1.37.41,2,2,0,0,1-.95-.22,2.15,2.15,0,0,1-.69-.56v3Zm1-5.46a2.71,2.71,0,0,0,.49,1.78,1.49,1.49,0,0,0,1.18.57,1.52,1.52,0,0,0,1.2-.59,2.82,2.82,0,0,0,.5-1.84,2.75,2.75,0,0,0-.49-1.78,1.47,1.47,0,0,0-1.17-.59,1.52,1.52,0,0,0-1.19.63A2.82,2.82,0,0,0,263.76,70.89Z" transform="translate(0 -1.56)"/><path class="cls-2" d="M269.06,72.11l1-.16a1.46,1.46,0,0,0,.49,1,1.71,1.71,0,0,0,1.12.33,1.65,1.65,0,0,0,1.08-.3.88.88,0,0,0,.35-.69.64.64,0,0,0-.31-.56,4.57,4.57,0,0,0-1.08-.36,9.84,9.84,0,0,1-1.61-.51,1.54,1.54,0,0,1-.91-1.43,1.6,1.6,0,0,1,.19-.77,1.71,1.71,0,0,1,.52-.59,2.17,2.17,0,0,1,.67-.31,3.19,3.19,0,0,1,.91-.13,3.6,3.6,0,0,1,1.29.21,1.75,1.75,0,0,1,.82.57,2.23,2.23,0,0,1,.36,1l-1,.14a1.13,1.13,0,0,0-.41-.75,1.49,1.49,0,0,0-1-.27,1.72,1.72,0,0,0-1,.24.7.7,0,0,0-.31.56.58.58,0,0,0,.13.37.93.93,0,0,0,.4.28l.93.27a13,13,0,0,1,1.56.49,1.58,1.58,0,0,1,.69.55,1.55,1.55,0,0,1,.25.9,1.77,1.77,0,0,1-.31,1,2,2,0,0,1-.89.72,3.23,3.23,0,0,1-1.31.25,2.92,2.92,0,0,1-1.85-.5A2.34,2.34,0,0,1,269.06,72.11Z" transform="translate(0 -1.56)"/><path class="cls-2" d="M279.56,74v-.91a2.28,2.28,0,0,1-2,1.05,2.52,2.52,0,0,1-1-.21,1.69,1.69,0,0,1-.71-.53,2,2,0,0,1-.33-.78,5.36,5.36,0,0,1-.06-1V67.74h1.05v3.45a6.15,6.15,0,0,0,.06,1.11A1.1,1.1,0,0,0,277,73a1.31,1.31,0,0,0,.8.24,1.74,1.74,0,0,0,.89-.24,1.35,1.35,0,0,0,.59-.66,3.32,3.32,0,0,0,.17-1.22V67.74h1.05V74Z" transform="translate(0 -1.56)"/><path class="cls-2" d="M282.15,74V67.74h.94v.87a2.22,2.22,0,0,1,.78-.74A2.19,2.19,0,0,1,285,67.6a2,2,0,0,1,1.13.29,1.54,1.54,0,0,1,.62.8,2.23,2.23,0,0,1,1.92-1.09,1.89,1.89,0,0,1,1.42.51,2.19,2.19,0,0,1,.5,1.58V74h-1V70a2.89,2.89,0,0,0-.1-.91.88.88,0,0,0-.37-.45,1.16,1.16,0,0,0-.63-.17,1.47,1.47,0,0,0-1.09.44,1.92,1.92,0,0,0-.43,1.4V74h-1.05v-4a1.78,1.78,0,0,0-.26-1.05,1,1,0,0,0-.84-.35,1.53,1.53,0,0,0-.82.23,1.33,1.33,0,0,0-.55.69,3.86,3.86,0,0,0-.17,1.3V74Z" transform="translate(0 -1.56)"/><path class="cls-2" d="M308,74l0,.06a.36.36,0,0,1,0,.18.28.28,0,0,1-.08.16l-1.44,1.44a.28.28,0,0,1-.16.08.36.36,0,0,1-.18,0l-.06,0,0,0-3-3-3,3,0,0-.06,0a.36.36,0,0,1-.18,0,.28.28,0,0,1-.16-.08l-1.44-1.44a.28.28,0,0,1-.08-.16.36.36,0,0,1,0-.18l0-.06,0,0,3-3-3-3,0-.06,0-.06a.33.33,0,0,1,0-.17.29.29,0,0,1,.08-.16l1.44-1.43a.31.31,0,0,1,.16-.09.32.32,0,0,1,.18,0l.06,0,0,0,3,3,3-3,0,0,.06,0a.32.32,0,0,1,.18,0,.31.31,0,0,1,.16.09l1.44,1.43a.36.36,0,0,1,.08.16.3.3,0,0,1,0,.17l0,.06,0,.06-3,3,3,3Z" transform="translate(0 -1.56)"/><rect class="cls-5" y="57.4" width="104" height="24" rx="2" ry="2"/><path class="cls-2" d="M10.44,75.21V66.63h2.78a10.09,10.09,0,0,1,2.06.13,2.25,2.25,0,0,1,1.24.84,2.67,2.67,0,0,1,.5,1.67,2.8,2.8,0,0,1-.29,1.33,2.36,2.36,0,0,1-.73.85,2.51,2.51,0,0,1-.9.41,9.9,9.9,0,0,1-1.8.12H12.17v3.24Zm1.73-7.14v2.44h.95a4.48,4.48,0,0,0,1.37-.13A1.14,1.14,0,0,0,15,70a1.15,1.15,0,0,0,.2-.67,1.11,1.11,0,0,0-.28-.77,1.2,1.2,0,0,0-.7-.38A8.34,8.34,0,0,0,13,68.08Z" transform="translate(0 -1.56)"/><path class="cls-2" d="M18.43,68.15V66.63h1.65v1.52Zm0,7.07V69h1.65v6.22Z" transform="translate(0 -1.56)"/><path class="cls-2" d="M27.19,70.83l-1.62.29a1.18,1.18,0,0,0-.37-.73,1.12,1.12,0,0,0-.75-.25,1.23,1.23,0,0,0-1,.42A2.18,2.18,0,0,0,23.1,72a2.52,2.52,0,0,0,.37,1.56,1.22,1.22,0,0,0,1,.46,1.11,1.11,0,0,0,.77-.27,1.6,1.6,0,0,0,.42-.92l1.62.28a2.87,2.87,0,0,1-1,1.68,3,3,0,0,1-1.92.57,2.85,2.85,0,0,1-2.18-.86,3.93,3.93,0,0,1,0-4.78,2.89,2.89,0,0,1,2.2-.86,3,3,0,0,1,1.81.49A2.71,2.71,0,0,1,27.19,70.83Z" transform="translate(0 -1.56)"/><path class="cls-2" d="M28.38,75.21V66.63H30v4.56L32,69h2l-2.13,2.27,2.28,3.95H32.36L30.8,72.42l-.77.8v2Z" transform="translate(0 -1.56)"/><path class="cls-2" d="M37.73,69h.91v-.47a3.11,3.11,0,0,1,.17-1.17,1.32,1.32,0,0,1,.62-.63,2.36,2.36,0,0,1,1.13-.24,4.58,4.58,0,0,1,1.38.21l-.22,1.15a3.25,3.25,0,0,0-.76-.09.67.67,0,0,0-.51.17,1,1,0,0,0-.16.64V69h1.23v1.29H40.29v4.93H38.64V70.29h-.91Z" transform="translate(0 -1.56)"/><path class="cls-2" d="M44,75.21H42.37V69H43.9v.88a2.66,2.66,0,0,1,.71-.83,1.3,1.3,0,0,1,.71-.2,2.09,2.09,0,0,1,1.08.31L45.9,70.6a1.44,1.44,0,0,0-.77-.27.91.91,0,0,0-.59.19,1.3,1.3,0,0,0-.38.69A9.78,9.78,0,0,0,44,73.29Z" transform="translate(0 -1.56)"/><path class="cls-2" d="M46.73,72a3.37,3.37,0,0,1,.4-1.59,2.78,2.78,0,0,1,1.15-1.17,3.4,3.4,0,0,1,1.66-.4,3.11,3.11,0,0,1,2.31.92,3.17,3.17,0,0,1,.9,2.32,3.21,3.21,0,0,1-.91,2.34,3.08,3.08,0,0,1-2.29.93A3.61,3.61,0,0,1,48.32,75a2.65,2.65,0,0,1-1.18-1.13A3.78,3.78,0,0,1,46.73,72Zm1.69.09a2.06,2.06,0,0,0,.44,1.42,1.44,1.44,0,0,0,2.17,0,2.09,2.09,0,0,0,.44-1.43A2.05,2.05,0,0,0,51,70.69a1.44,1.44,0,0,0-2.17,0A2.06,2.06,0,0,0,48.42,72.1Z" transform="translate(0 -1.56)"/><path class="cls-2" d="M54.32,69h1.52v.85a2.44,2.44,0,0,1,1.94-1,2.09,2.09,0,0,1,1,.25,1.89,1.89,0,0,1,.72.74,2.87,2.87,0,0,1,.88-.74,2.17,2.17,0,0,1,1-.25,2.26,2.26,0,0,1,1.16.28,1.71,1.71,0,0,1,.71.82,3.55,3.55,0,0,1,.17,1.29v4H61.83V71.66a2.65,2.65,0,0,0-.17-1.2.78.78,0,0,0-.7-.35,1.12,1.12,0,0,0-.65.21,1.17,1.17,0,0,0-.44.62,4.45,4.45,0,0,0-.13,1.29v3H58.08V71.8A4.73,4.73,0,0,0,58,70.63a.75.75,0,0,0-.27-.39.86.86,0,0,0-.5-.13,1.2,1.2,0,0,0-.69.21,1.12,1.12,0,0,0-.44.59A4.4,4.4,0,0,0,56,72.19v3H54.32Z" transform="translate(0 -1.56)"/><path class="cls-2" d="M69.68,70.89l-1.49-.27a2.33,2.33,0,0,1,.87-1.34,3.17,3.17,0,0,1,1.83-.43,3.94,3.94,0,0,1,1.64.26,1.64,1.64,0,0,1,.76.66,3.4,3.4,0,0,1,.22,1.47l0,1.92a6.67,6.67,0,0,0,.08,1.21,3.53,3.53,0,0,0,.3.83H72.23q-.06-.16-.16-.49L72,74.54a3,3,0,0,1-.9.62,2.58,2.58,0,0,1-1,.21,2.12,2.12,0,0,1-1.51-.52A1.73,1.73,0,0,1,68,73.52a1.77,1.77,0,0,1,.25-.94,1.65,1.65,0,0,1,.71-.63,5.52,5.52,0,0,1,1.31-.38,9,9,0,0,0,1.6-.4V71a.85.85,0,0,0-.23-.68,1.4,1.4,0,0,0-.88-.2,1.18,1.18,0,0,0-.69.17A1.2,1.2,0,0,0,69.68,70.89Zm2.2,1.34a10.29,10.29,0,0,1-1,.25,3,3,0,0,0-.9.29.69.69,0,0,0-.32.58.81.81,0,0,0,.26.6.9.9,0,0,0,.66.25,1.43,1.43,0,0,0,.85-.29,1,1,0,0,0,.39-.54,3.25,3.25,0,0,0,.06-.8Z" transform="translate(0 -1.56)"/><path class="cls-2" d="M78.46,75.21V66.63H80.1v8.59Z" transform="translate(0 -1.56)"/><path class="cls-2" d="M81.79,68.15V66.63h1.65v1.52Zm0,7.07V69h1.65v6.22Z" transform="translate(0 -1.56)"/><path class="cls-2" d="M84.54,73.44l1.65-.25a1.21,1.21,0,0,0,.43.73,1.45,1.45,0,0,0,.9.25,1.63,1.63,0,0,0,1-.23.52.52,0,0,0,.22-.44.43.43,0,0,0-.12-.31A1.31,1.31,0,0,0,88,73a8.88,8.88,0,0,1-2.53-.8,1.6,1.6,0,0,1-.74-1.4,1.73,1.73,0,0,1,.64-1.36,3,3,0,0,1,2-.55,3.46,3.46,0,0,1,1.9.42,2.13,2.13,0,0,1,.86,1.23l-1.55.29a1,1,0,0,0-.38-.56,1.38,1.38,0,0,0-.79-.19,1.79,1.79,0,0,0-.93.18.39.39,0,0,0-.19.33.36.36,0,0,0,.16.3,6.18,6.18,0,0,0,1.54.46,4.58,4.58,0,0,1,1.84.73,1.52,1.52,0,0,1,.52,1.22,1.88,1.88,0,0,1-.71,1.47,3.16,3.16,0,0,1-2.12.62,3.47,3.47,0,0,1-2-.52A2.38,2.38,0,0,1,84.54,73.44Z" transform="translate(0 -1.56)"/><path class="cls-2" d="M94.65,69V70.3H93.53v2.51a6.24,6.24,0,0,0,0,.89.36.36,0,0,0,.15.21A.46.46,0,0,0,94,74a2.13,2.13,0,0,0,.66-.16l.14,1.28a3.27,3.27,0,0,1-1.3.25,2.06,2.06,0,0,1-.8-.15,1.17,1.17,0,0,1-.52-.39,1.53,1.53,0,0,1-.23-.64A8,8,0,0,1,91.87,73V70.3h-.76V69h.76V67.76l1.65-1V69Z" transform="translate(0 -1.56)"/></g></g></svg>