<svg xmlns="http://www.w3.org/2000/svg" viewBox="0 0 730.05 242.86"><defs><style>.cls-1{fill:#009697;}.cls-10,.cls-2,.cls-7{fill:#fff;}.cls-2{stroke:#eaeef3;}.cls-10,.cls-2,.cls-6{stroke-miterlimit:10;}.cls-3{fill:#585c61;}.cls-4{fill:#c1c5ca;}.cls-5{fill:#8a8f95;}.cls-6{fill:none;}.cls-10,.cls-6{stroke:#c1c5ca;}.cls-8{fill:#53575c;}.cls-9{fill:#cf1034;}</style></defs><title>Tooltip and Popover example</title><g id="Layer_2" data-name="Layer 2"><g id="Layer_1-2" data-name="Layer 1"><path class="cls-1" d="M476.94,49.72a7.89,7.89,0,0,1,3.13.59,8,8,0,0,1,4.32,4.2,7.69,7.69,0,0,1,.66,3.1,7.88,7.88,0,0,1-.59,3.13,8,8,0,0,1-4.2,4.32,8.11,8.11,0,0,1-6.23.09,8,8,0,0,1-4.32-4.2,7.71,7.71,0,0,1-.66-3.11,7.84,7.84,0,0,1,.59-3.12,8.05,8.05,0,0,1,4.2-4.31A7.88,7.88,0,0,1,476.94,49.72Zm2.84,7.19a2.21,2.21,0,0,0,.34-.66,2.77,2.77,0,0,0,.13-.72,2.68,2.68,0,0,0-.24-1.16,2.13,2.13,0,0,0-.71-.84,3.08,3.08,0,0,0-1-.51,4.8,4.8,0,0,0-1.28-.16,3.92,3.92,0,0,0-1,.12,2.93,2.93,0,0,0-.83.35,2.49,2.49,0,0,0-.89,1,3.84,3.84,0,0,0-.36,1.51v.09h1.92v-.08a1.68,1.68,0,0,1,.07-.48,1.79,1.79,0,0,1,.21-.45.89.89,0,0,1,.37-.33,1.32,1.32,0,0,1,.57-.11,1.65,1.65,0,0,1,.56.09.72.72,0,0,1,.36.27,1.3,1.3,0,0,1,.19.38,1.4,1.4,0,0,1,.06.41.86.86,0,0,1-.07.33,2,2,0,0,1-.21.38,1,1,0,0,1-.15.17l-.18.16-.55.38a4.26,4.26,0,0,0-.84.74,1.06,1.06,0,0,0-.25.55,7,7,0,0,0-.06.8v.16h1.86v-.08a1.32,1.32,0,0,1,0-.31l.05-.19a.89.89,0,0,1,.17-.29,2.52,2.52,0,0,1,.31-.3l.5-.34q.33-.25.58-.47A2.53,2.53,0,0,0,479.78,56.91Zm-2.86,5.69a1.15,1.15,0,0,0,.83-.31,1.12,1.12,0,0,0,.34-.81,1.14,1.14,0,0,0-.3-.85,1.18,1.18,0,0,0-.85-.35h0a1.13,1.13,0,0,0-1.17,1.14,1.11,1.11,0,0,0,.3.84,1.15,1.15,0,0,0,.84.35Z" transform="translate(0 -2.03)"/><path class="cls-1" d="M1.66,130.49l6.77-6.55,4.3,4.3-6.66,6.66L5.9,135a.27.27,0,0,1-.16.07L.8,136.5H.58a.49.49,0,0,1-.21-.07.87.87,0,0,1-.21-.15A2.33,2.33,0,0,1,0,136a.41.41,0,0,1,0-.32l1.5-4.94A.42.42,0,0,1,1.66,130.49Zm3.55,3.44-.44-2.16-2-.42-.86,2.8.53.53Zm10.42-11.06a1.6,1.6,0,0,1,.38,1,1,1,0,0,1-.49.89l-1.61,1.72-4.09-4.08,1.72-1.62a1.54,1.54,0,0,1,2,0Z" transform="translate(0 -2.03)"/><rect class="cls-2" x="490.05" y="22.36" width="239.5" height="66" rx="2" ry="2"/><path class="cls-3" d="M499.63,44.47V35.88h1.17l4.51,6.74V35.88h1.09v8.59h-1.17l-4.51-6.75v6.75Z" transform="translate(0 -2.03)"/><path class="cls-3" d="M512.25,44.47v-.91a2.28,2.28,0,0,1-2,1.05,2.52,2.52,0,0,1-1-.21,1.69,1.69,0,0,1-.71-.53,2,2,0,0,1-.33-.78,5.36,5.36,0,0,1-.06-1V38.25h1.05V41.7a6.15,6.15,0,0,0,.06,1.11,1.1,1.1,0,0,0,.42.65,1.31,1.31,0,0,0,.8.24,1.74,1.74,0,0,0,.89-.24,1.35,1.35,0,0,0,.59-.66,3.32,3.32,0,0,0,.17-1.22V38.25h1.05v6.22Z" transform="translate(0 -2.03)"/><path class="cls-3" d="M514.82,44.47V35.88h1.05v8.59Z" transform="translate(0 -2.03)"/><path class="cls-3" d="M517.49,44.47V35.88h1.05v8.59Z" transform="translate(0 -2.03)"/><path class="cls-3" d="M524.24,43.7a3.93,3.93,0,0,1-1.13.7,3.26,3.26,0,0,1-1.16.21,2.26,2.26,0,0,1-1.58-.5,1.65,1.65,0,0,1-.55-1.28A1.7,1.7,0,0,1,520,42a1.72,1.72,0,0,1,.54-.61,2.56,2.56,0,0,1,.76-.35,7.54,7.54,0,0,1,.94-.16,9.64,9.64,0,0,0,1.88-.36q0-.22,0-.28a1.16,1.16,0,0,0-.3-.91,1.77,1.77,0,0,0-1.2-.36,1.86,1.86,0,0,0-1.1.26,1.59,1.59,0,0,0-.52.92L520,40a2.56,2.56,0,0,1,.46-1.07,2,2,0,0,1,.93-.63,4.16,4.16,0,0,1,1.41-.22,3.74,3.74,0,0,1,1.29.19,1.71,1.71,0,0,1,.73.47,1.66,1.66,0,0,1,.33.72,5.94,5.94,0,0,1,.05,1v1.41a14.93,14.93,0,0,0,.07,1.86,2.35,2.35,0,0,0,.27.75h-1.1A2.24,2.24,0,0,1,524.24,43.7Zm-.09-2.36a7.74,7.74,0,0,1-1.72.4,4,4,0,0,0-.92.21.92.92,0,0,0-.42.34.93.93,0,0,0,.17,1.2,1.37,1.37,0,0,0,.93.28,2.18,2.18,0,0,0,1.08-.27,1.64,1.64,0,0,0,.7-.73,2.55,2.55,0,0,0,.17-1.05Z" transform="translate(0 -2.03)"/><path class="cls-3" d="M526.85,44.47V38.25h.94v.87a2.22,2.22,0,0,1,.78-.74,2.19,2.19,0,0,1,1.11-.28,2,2,0,0,1,1.13.29,1.54,1.54,0,0,1,.62.8,2.23,2.23,0,0,1,1.92-1.09,1.89,1.89,0,0,1,1.42.51,2.19,2.19,0,0,1,.5,1.58v4.27h-1V40.55a2.89,2.89,0,0,0-.1-.91.88.88,0,0,0-.37-.45,1.16,1.16,0,0,0-.63-.17,1.47,1.47,0,0,0-1.09.44,1.92,1.92,0,0,0-.43,1.4v3.62h-1.05v-4a1.78,1.78,0,0,0-.26-1.05,1,1,0,0,0-.84-.35,1.53,1.53,0,0,0-.82.23,1.33,1.33,0,0,0-.55.69,3.86,3.86,0,0,0-.17,1.3v3.23Z" transform="translate(0 -2.03)"/><path class="cls-3" d="M540.19,37.09V35.88h1.05v1.21Zm0,7.38V38.25h1.05v6.22Z" transform="translate(0 -2.03)"/><path class="cls-3" d="M546.88,44.47v-.79a1.94,1.94,0,0,1-1.74.93,2.44,2.44,0,0,1-1.37-.41,2.7,2.7,0,0,1-1-1.15,4,4,0,0,1-.34-1.69,4.42,4.42,0,0,1,.31-1.69,2.45,2.45,0,0,1,.93-1.16,2.49,2.49,0,0,1,1.39-.4,2.08,2.08,0,0,1,1.72.86V35.88h1v8.59Zm-3.33-3.11a2.7,2.7,0,0,0,.5,1.79,1.52,1.52,0,0,0,1.19.59,1.49,1.49,0,0,0,1.17-.57,2.61,2.61,0,0,0,.48-1.73,2.93,2.93,0,0,0-.49-1.87,1.51,1.51,0,0,0-1.21-.6,1.46,1.46,0,0,0-1.17.57A2.83,2.83,0,0,0,543.55,41.36Z" transform="translate(0 -2.03)"/><path class="cls-3" d="M556.89,44.47v-.79a1.94,1.94,0,0,1-1.74.93,2.44,2.44,0,0,1-1.37-.41,2.7,2.7,0,0,1-1-1.15,4,4,0,0,1-.34-1.69,4.42,4.42,0,0,1,.31-1.69,2.45,2.45,0,0,1,.93-1.16,2.49,2.49,0,0,1,1.39-.4,2.08,2.08,0,0,1,1.72.86V35.88h1v8.59Zm-3.33-3.11a2.7,2.7,0,0,0,.5,1.79,1.52,1.52,0,0,0,1.19.59,1.49,1.49,0,0,0,1.17-.57,2.61,2.61,0,0,0,.48-1.73,2.93,2.93,0,0,0-.49-1.87,1.51,1.51,0,0,0-1.21-.6,1.46,1.46,0,0,0-1.17.57A2.83,2.83,0,0,0,553.56,41.36Z" transform="translate(0 -2.03)"/><path class="cls-3" d="M559.13,41.36a3.21,3.21,0,0,1,1-2.56,2.9,2.9,0,0,1,2-.69,2.79,2.79,0,0,1,2.1.84,3.2,3.2,0,0,1,.81,2.32,4.12,4.12,0,0,1-.36,1.89,2.55,2.55,0,0,1-1,1.07,3.05,3.05,0,0,1-1.5.38,2.8,2.8,0,0,1-2.11-.84A3.35,3.35,0,0,1,559.13,41.36Zm1.08,0a2.65,2.65,0,0,0,.52,1.79,1.74,1.74,0,0,0,2.62,0,2.71,2.71,0,0,0,.52-1.82,2.57,2.57,0,0,0-.52-1.75,1.74,1.74,0,0,0-2.62,0A2.64,2.64,0,0,0,560.22,41.36Z" transform="translate(0 -2.03)"/><path class="cls-3" d="M566.18,44.47V35.88h1.05v8.59Z" transform="translate(0 -2.03)"/><path class="cls-3" d="M568.47,41.36a3.21,3.21,0,0,1,1-2.56,2.9,2.9,0,0,1,2-.69,2.79,2.79,0,0,1,2.1.84,3.2,3.2,0,0,1,.81,2.32,4.12,4.12,0,0,1-.36,1.89,2.55,2.55,0,0,1-1,1.07,3.05,3.05,0,0,1-1.5.38,2.8,2.8,0,0,1-2.11-.84A3.35,3.35,0,0,1,568.47,41.36Zm1.08,0a2.65,2.65,0,0,0,.52,1.79,1.74,1.74,0,0,0,2.62,0,2.71,2.71,0,0,0,.52-1.82,2.57,2.57,0,0,0-.52-1.75,1.74,1.74,0,0,0-2.62,0A2.64,2.64,0,0,0,569.56,41.36Z" transform="translate(0 -2.03)"/><path class="cls-3" d="M575.53,44.47V38.25h.95v.94a2.57,2.57,0,0,1,.67-.87,1.17,1.17,0,0,1,.68-.21,2.06,2.06,0,0,1,1.08.34l-.36,1a1.51,1.51,0,0,0-.77-.23,1,1,0,0,0-.62.21,1.13,1.13,0,0,0-.39.58,4.11,4.11,0,0,0-.18,1.23v3.26Z" transform="translate(0 -2.03)"/><path class="cls-3" d="M582.88,37.09V35.88h1.05v1.21Zm0,7.38V38.25h1.05v6.22Z" transform="translate(0 -2.03)"/><path class="cls-3" d="M589.57,44.47v-.79a1.94,1.94,0,0,1-1.74.93,2.44,2.44,0,0,1-1.37-.41,2.7,2.7,0,0,1-1-1.15,4,4,0,0,1-.34-1.69,4.42,4.42,0,0,1,.31-1.69,2.45,2.45,0,0,1,.93-1.16,2.49,2.49,0,0,1,1.39-.4,2.08,2.08,0,0,1,1.72.86V35.88h1v8.59Zm-3.33-3.11a2.7,2.7,0,0,0,.5,1.79,1.52,1.52,0,0,0,1.19.59,1.49,1.49,0,0,0,1.17-.57,2.61,2.61,0,0,0,.48-1.73,2.93,2.93,0,0,0-.49-1.87,1.51,1.51,0,0,0-1.21-.6,1.46,1.46,0,0,0-1.17.57A2.83,2.83,0,0,0,586.24,41.36Z" transform="translate(0 -2.03)"/><path class="cls-3" d="M595.54,44.47V38.25h.95v.88a2.24,2.24,0,0,1,2-1,2.6,2.6,0,0,1,1,.2,1.63,1.63,0,0,1,.71.53,2,2,0,0,1,.33.78,6,6,0,0,1,.06,1v3.83h-1.05V40.68a2.84,2.84,0,0,0-.12-1,1,1,0,0,0-.44-.51,1.39,1.39,0,0,0-.74-.19,1.71,1.71,0,0,0-1.16.43,2.11,2.11,0,0,0-.49,1.62v3.4Z" transform="translate(0 -2.03)"/><path class="cls-3" d="M602.22,37.09V35.88h1.05v1.21Zm0,7.38V38.25h1.05v6.22Z" transform="translate(0 -2.03)"/><path class="cls-3" d="M605.86,44.47h-1V35.88h1.05v3.06a2.09,2.09,0,0,1,1.71-.84,2.61,2.61,0,0,1,1.09.23,2.22,2.22,0,0,1,.84.65,3.14,3.14,0,0,1,.52,1,4.17,4.17,0,0,1,.19,1.27,3.55,3.55,0,0,1-.79,2.47,2.47,2.47,0,0,1-1.9.87,2,2,0,0,1-1.73-.92Zm0-3.16a3.23,3.23,0,0,0,.3,1.62,1.51,1.51,0,0,0,2.54.21,2.73,2.73,0,0,0,.5-1.79,2.78,2.78,0,0,0-.48-1.8,1.47,1.47,0,0,0-1.17-.58,1.52,1.52,0,0,0-1.2.6A2.64,2.64,0,0,0,605.85,41.31Z" transform="translate(0 -2.03)"/><path class="cls-3" d="M611.56,44.47V35.88h1.05V39a2.36,2.36,0,0,1,1.86-.86,2.51,2.51,0,0,1,1.2.27,1.6,1.6,0,0,1,.73.75,3.47,3.47,0,0,1,.22,1.39v3.94h-1.05V40.52a1.63,1.63,0,0,0-.34-1.15,1.27,1.27,0,0,0-1-.36,1.71,1.71,0,0,0-.88.24,1.37,1.37,0,0,0-.59.66,3,3,0,0,0-.18,1.15v3.4Z" transform="translate(0 -2.03)"/><path class="cls-3" d="M625.64,44.47v-.91a2.28,2.28,0,0,1-2,1.05,2.52,2.52,0,0,1-1-.21,1.69,1.69,0,0,1-.71-.53,2,2,0,0,1-.33-.78,5.36,5.36,0,0,1-.06-1V38.25h1.05V41.7a6.15,6.15,0,0,0,.06,1.11,1.1,1.1,0,0,0,.42.65,1.31,1.31,0,0,0,.8.24,1.74,1.74,0,0,0,.89-.24,1.35,1.35,0,0,0,.59-.66,3.32,3.32,0,0,0,.17-1.22V38.25h1.05v6.22Z" transform="translate(0 -2.03)"/><path class="cls-3" d="M628.22,44.47V35.88h1.05v8.59Z" transform="translate(0 -2.03)"/><path class="cls-3" d="M633.21,43.52l.15.93a3.91,3.91,0,0,1-.8.09,1.8,1.8,0,0,1-.89-.18,1,1,0,0,1-.45-.48,3.78,3.78,0,0,1-.13-1.25V39.07h-.77v-.82h.77V36.7l1-.63v2.17h1.06v.82h-1.06V42.7a1.84,1.84,0,0,0,.06.58.44.44,0,0,0,.18.21.7.7,0,0,0,.36.08A3.43,3.43,0,0,0,633.21,43.52Z" transform="translate(0 -2.03)"/><path class="cls-3" d="M634.23,44.47V38.25h.95v.94a2.57,2.57,0,0,1,.67-.87,1.17,1.17,0,0,1,.68-.21,2.06,2.06,0,0,1,1.08.34l-.36,1a1.51,1.51,0,0,0-.77-.23,1,1,0,0,0-.62.21,1.13,1.13,0,0,0-.39.58,4.11,4.11,0,0,0-.18,1.23v3.26Z" transform="translate(0 -2.03)"/><path class="cls-3" d="M638.24,37.09V35.88h1.05v1.21Zm0,7.38V38.25h1.05v6.22Z" transform="translate(0 -2.03)"/><path class="cls-3" d="M645,42.19l1,.13a2.69,2.69,0,0,1-.87,1.68,2.53,2.53,0,0,1-1.72.61,2.67,2.67,0,0,1-2.05-.83,3.39,3.39,0,0,1-.78-2.39,4.33,4.33,0,0,1,.33-1.76,2.33,2.33,0,0,1,1-1.13,3,3,0,0,1,1.49-.38,2.58,2.58,0,0,1,1.66.51,2.35,2.35,0,0,1,.83,1.46l-1,.16a1.7,1.7,0,0,0-.52-.94,1.34,1.34,0,0,0-.9-.32,1.64,1.64,0,0,0-1.29.57,2.71,2.71,0,0,0-.5,1.81,2.8,2.8,0,0,0,.48,1.82,1.56,1.56,0,0,0,1.25.57,1.48,1.48,0,0,0,1-.38A1.89,1.89,0,0,0,645,42.19Z" transform="translate(0 -2.03)"/><path class="cls-3" d="M646.91,37.09V35.88H648v1.21Zm0,7.38V38.25H648v6.22Z" transform="translate(0 -2.03)"/><path class="cls-3" d="M653.83,42.46l1.09.13a2.66,2.66,0,0,1-1,1.48,3.24,3.24,0,0,1-3.95-.31,3.29,3.29,0,0,1-.8-2.36A3.44,3.44,0,0,1,650,39a2.74,2.74,0,0,1,2.1-.87,2.66,2.66,0,0,1,2,.85,3.38,3.38,0,0,1,.79,2.39q0,.09,0,.28h-4.64a2.39,2.39,0,0,0,.58,1.57,1.73,1.73,0,0,0,1.3.54,1.61,1.61,0,0,0,1-.3A2,2,0,0,0,653.83,42.46Zm-3.46-1.71h3.47a2.11,2.11,0,0,0-.4-1.18,1.62,1.62,0,0,0-1.31-.61,1.68,1.68,0,0,0-1.22.49A1.92,1.92,0,0,0,650.37,40.76Z" transform="translate(0 -2.03)"/><path class="cls-3" d="M655.82,42.61l1-.16a1.46,1.46,0,0,0,.49,1,1.71,1.71,0,0,0,1.12.33,1.65,1.65,0,0,0,1.08-.3.88.88,0,0,0,.35-.69.64.64,0,0,0-.31-.56,4.57,4.57,0,0,0-1.08-.36,9.84,9.84,0,0,1-1.61-.51A1.54,1.54,0,0,1,656,39.9a1.6,1.6,0,0,1,.19-.77,1.71,1.71,0,0,1,.52-.59,2.17,2.17,0,0,1,.67-.31,3.19,3.19,0,0,1,.91-.13,3.6,3.6,0,0,1,1.29.21,1.75,1.75,0,0,1,.82.57,2.23,2.23,0,0,1,.36,1l-1,.14a1.13,1.13,0,0,0-.41-.75,1.49,1.49,0,0,0-1-.27,1.72,1.72,0,0,0-1,.24.7.7,0,0,0-.31.56.58.58,0,0,0,.13.37.93.93,0,0,0,.4.28l.93.27a13,13,0,0,1,1.56.49,1.58,1.58,0,0,1,.69.55,1.55,1.55,0,0,1,.25.9,1.77,1.77,0,0,1-.31,1,2,2,0,0,1-.89.72,3.23,3.23,0,0,1-1.31.25,2.92,2.92,0,0,1-1.85-.5A2.34,2.34,0,0,1,655.82,42.61Z" transform="translate(0 -2.03)"/><path class="cls-3" d="M667.3,44.47l-2.37-6.22h1.11L667.39,42q.22.6.4,1.25.14-.49.39-1.18l1.38-3.8h1.08l-2.36,6.22Z" transform="translate(0 -2.03)"/><path class="cls-3" d="M675.84,42.46l1.09.13a2.66,2.66,0,0,1-1,1.48,3.24,3.24,0,0,1-3.95-.31,3.29,3.29,0,0,1-.8-2.36A3.44,3.44,0,0,1,672,39a2.74,2.74,0,0,1,2.1-.87,2.66,2.66,0,0,1,2,.85,3.38,3.38,0,0,1,.79,2.39q0,.09,0,.28h-4.64a2.39,2.39,0,0,0,.58,1.57,1.73,1.73,0,0,0,1.3.54,1.61,1.61,0,0,0,1-.3A2,2,0,0,0,675.84,42.46Zm-3.46-1.71h3.47a2.11,2.11,0,0,0-.4-1.18,1.62,1.62,0,0,0-1.31-.61,1.68,1.68,0,0,0-1.22.49A1.92,1.92,0,0,0,672.37,40.76Z" transform="translate(0 -2.03)"/><path class="cls-3" d="M678.25,44.47V35.88h1.05V39a2.36,2.36,0,0,1,1.86-.86,2.51,2.51,0,0,1,1.2.27,1.6,1.6,0,0,1,.73.75,3.47,3.47,0,0,1,.22,1.39v3.94h-1.05V40.52a1.63,1.63,0,0,0-.34-1.15,1.27,1.27,0,0,0-1-.36,1.71,1.71,0,0,0-.88.24,1.37,1.37,0,0,0-.59.66,3,3,0,0,0-.18,1.15v3.4Z" transform="translate(0 -2.03)"/><path class="cls-3" d="M684.93,37.09V35.88H686v1.21Zm0,7.38V38.25H686v6.22Z" transform="translate(0 -2.03)"/><path class="cls-3" d="M691.65,42.19l1,.13a2.69,2.69,0,0,1-.87,1.68,2.53,2.53,0,0,1-1.72.61,2.67,2.67,0,0,1-2.05-.83,3.39,3.39,0,0,1-.78-2.39,4.33,4.33,0,0,1,.33-1.76,2.33,2.33,0,0,1,1-1.13,3,3,0,0,1,1.49-.38,2.58,2.58,0,0,1,1.66.51,2.35,2.35,0,0,1,.83,1.46l-1,.16a1.7,1.7,0,0,0-.52-.94,1.34,1.34,0,0,0-.9-.32,1.64,1.64,0,0,0-1.29.57,2.71,2.71,0,0,0-.5,1.81,2.8,2.8,0,0,0,.48,1.82,1.56,1.56,0,0,0,1.25.57,1.48,1.48,0,0,0,1-.38A1.89,1.89,0,0,0,691.65,42.19Z" transform="translate(0 -2.03)"/><path class="cls-3" d="M697.67,44.47v-.91a2.28,2.28,0,0,1-2,1.05,2.52,2.52,0,0,1-1-.21,1.69,1.69,0,0,1-.71-.53,2,2,0,0,1-.33-.78,5.36,5.36,0,0,1-.06-1V38.25h1.05V41.7a6.15,6.15,0,0,0,.06,1.11,1.1,1.1,0,0,0,.42.65,1.31,1.31,0,0,0,.8.24,1.74,1.74,0,0,0,.89-.24,1.35,1.35,0,0,0,.59-.66,3.32,3.32,0,0,0,.17-1.22V38.25h1.05v6.22Z" transform="translate(0 -2.03)"/><path class="cls-3" d="M700.24,44.47V35.88h1.05v8.59Z" transform="translate(0 -2.03)"/><path class="cls-3" d="M707,43.7a3.93,3.93,0,0,1-1.13.7,3.26,3.26,0,0,1-1.16.21,2.26,2.26,0,0,1-1.58-.5,1.65,1.65,0,0,1-.55-1.28,1.7,1.7,0,0,1,.21-.83,1.72,1.72,0,0,1,.54-.61,2.56,2.56,0,0,1,.76-.35,7.54,7.54,0,0,1,.94-.16,9.64,9.64,0,0,0,1.88-.36q0-.22,0-.28a1.16,1.16,0,0,0-.3-.91,1.77,1.77,0,0,0-1.2-.36,1.86,1.86,0,0,0-1.1.26,1.59,1.59,0,0,0-.52.92l-1-.14a2.56,2.56,0,0,1,.46-1.07,2,2,0,0,1,.93-.63,4.16,4.16,0,0,1,1.41-.22,3.74,3.74,0,0,1,1.29.19,1.71,1.71,0,0,1,.73.47,1.66,1.66,0,0,1,.33.72,5.94,5.94,0,0,1,.05,1v1.41a14.93,14.93,0,0,0,.07,1.86,2.35,2.35,0,0,0,.27.75h-1.1A2.24,2.24,0,0,1,707,43.7Zm-.09-2.36a7.74,7.74,0,0,1-1.72.4,4,4,0,0,0-.92.21.92.92,0,0,0-.42.34.93.93,0,0,0,.17,1.2,1.37,1.37,0,0,0,.93.28,2.18,2.18,0,0,0,1.08-.27,1.64,1.64,0,0,0,.7-.73,2.55,2.55,0,0,0,.17-1.05Z" transform="translate(0 -2.03)"/><path class="cls-3" d="M503.58,58.87V58a2.28,2.28,0,0,1-2,1.05,2.52,2.52,0,0,1-1-.21,1.69,1.69,0,0,1-.71-.53,2,2,0,0,1-.33-.78,5.36,5.36,0,0,1-.06-1V52.65h1.05V56.1a6.15,6.15,0,0,0,.06,1.11,1.1,1.1,0,0,0,.42.65,1.31,1.31,0,0,0,.8.24,1.74,1.74,0,0,0,.89-.24,1.35,1.35,0,0,0,.59-.66,3.32,3.32,0,0,0,.17-1.22V52.65h1.05v6.22Z" transform="translate(0 -2.03)"/><path class="cls-3" d="M508.48,57.92l.15.93a3.91,3.91,0,0,1-.8.09,1.8,1.8,0,0,1-.89-.18,1,1,0,0,1-.45-.48,3.78,3.78,0,0,1-.13-1.25V53.47h-.77v-.82h.77V51.1l1-.63v2.17h1.06v.82h-1.06V57.1a1.84,1.84,0,0,0,.06.58.44.44,0,0,0,.18.21A.7.7,0,0,0,508,58,3.43,3.43,0,0,0,508.48,57.92Z" transform="translate(0 -2.03)"/><path class="cls-3" d="M512.85,51.49V50.28h1.05v1.21Zm0,7.38V52.65h1.05v6.22Z" transform="translate(0 -2.03)"/><path class="cls-3" d="M519.55,58.87v-.79a1.94,1.94,0,0,1-1.74.93,2.44,2.44,0,0,1-1.37-.41,2.7,2.7,0,0,1-1-1.15,4,4,0,0,1-.34-1.69,4.42,4.42,0,0,1,.31-1.69,2.45,2.45,0,0,1,.93-1.16,2.49,2.49,0,0,1,1.39-.4,2.08,2.08,0,0,1,1.72.86V50.28h1v8.59Zm-3.33-3.11a2.7,2.7,0,0,0,.5,1.79,1.52,1.52,0,0,0,1.19.59,1.49,1.49,0,0,0,1.17-.57,2.61,2.61,0,0,0,.48-1.73,2.93,2.93,0,0,0-.49-1.87,1.51,1.51,0,0,0-1.21-.6,1.46,1.46,0,0,0-1.17.57A2.83,2.83,0,0,0,516.21,55.76Z" transform="translate(0 -2.03)"/><path class="cls-3" d="M529.78,56.86l1.09.13a2.66,2.66,0,0,1-1,1.48,3.24,3.24,0,0,1-3.95-.31,3.29,3.29,0,0,1-.8-2.36,3.44,3.44,0,0,1,.81-2.44,2.74,2.74,0,0,1,2.1-.87,2.66,2.66,0,0,1,2,.85,3.38,3.38,0,0,1,.79,2.39q0,.09,0,.28h-4.64a2.39,2.39,0,0,0,.58,1.57,1.73,1.73,0,0,0,1.3.54,1.61,1.61,0,0,0,1-.3A2,2,0,0,0,529.78,56.86Zm-3.46-1.71h3.47a2.11,2.11,0,0,0-.4-1.18,1.62,1.62,0,0,0-1.31-.61,1.68,1.68,0,0,0-1.22.49A1.92,1.92,0,0,0,526.32,55.16Z" transform="translate(0 -2.03)"/><path class="cls-3" d="M532.17,58.87V50.28h1.05v8.59Z" transform="translate(0 -2.03)"/><path class="cls-3" d="M534.87,51.49V50.28h1.05v1.21Zm0,7.38V52.65h1.05v6.22Z" transform="translate(0 -2.03)"/><path class="cls-3" d="M539.83,57.92l.15.93a3.91,3.91,0,0,1-.8.09,1.8,1.8,0,0,1-.89-.18,1,1,0,0,1-.45-.48,3.78,3.78,0,0,1-.13-1.25V53.47h-.77v-.82h.77V51.1l1-.63v2.17h1.06v.82h-1.06V57.1a1.84,1.84,0,0,0,.06.58.44.44,0,0,0,.18.21.7.7,0,0,0,.36.08A3.43,3.43,0,0,0,539.83,57.92Z" transform="translate(0 -2.03)"/><path class="cls-3" d="M541.16,58.87v-1.2h1.2v1.2Z" transform="translate(0 -2.03)"/><path class="cls-3" d="M553.79,55.86l1.14.29a3.83,3.83,0,0,1-1.29,2.14,3.54,3.54,0,0,1-2.27.74,4.08,4.08,0,0,1-2.26-.57,3.53,3.53,0,0,1-1.32-1.64,5.84,5.84,0,0,1-.45-2.3,5.06,5.06,0,0,1,.51-2.34,3.51,3.51,0,0,1,1.46-1.52,4.26,4.26,0,0,1,2.08-.52,3.52,3.52,0,0,1,2.17.66,3.41,3.41,0,0,1,1.22,1.85l-1.12.26a2.65,2.65,0,0,0-.87-1.37,2.31,2.31,0,0,0-1.43-.43,2.78,2.78,0,0,0-1.66.47,2.51,2.51,0,0,0-.93,1.27,5.13,5.13,0,0,0-.27,1.65,5.24,5.24,0,0,0,.32,1.91,2.38,2.38,0,0,0,1,1.22,2.79,2.79,0,0,0,1.46.4,2.44,2.44,0,0,0,1.62-.55A2.82,2.82,0,0,0,553.79,55.86Z" transform="translate(0 -2.03)"/><path class="cls-3" d="M560.27,58.87V58a2.28,2.28,0,0,1-2,1.05,2.52,2.52,0,0,1-1-.21,1.69,1.69,0,0,1-.71-.53,2,2,0,0,1-.33-.78,5.36,5.36,0,0,1-.06-1V52.65h1.05V56.1a6.15,6.15,0,0,0,.06,1.11,1.1,1.1,0,0,0,.42.65,1.31,1.31,0,0,0,.8.24,1.74,1.74,0,0,0,.89-.24,1.35,1.35,0,0,0,.59-.66,3.32,3.32,0,0,0,.17-1.22V52.65h1.05v6.22Z" transform="translate(0 -2.03)"/><path class="cls-3" d="M562.87,58.87V52.65h.94v.87a2.22,2.22,0,0,1,.78-.74,2.19,2.19,0,0,1,1.11-.28,2,2,0,0,1,1.13.29,1.54,1.54,0,0,1,.62.8,2.23,2.23,0,0,1,1.92-1.09,1.89,1.89,0,0,1,1.42.51,2.19,2.19,0,0,1,.5,1.58v4.27h-1V54.95a2.89,2.89,0,0,0-.1-.91.88.88,0,0,0-.37-.45,1.16,1.16,0,0,0-.63-.17,1.47,1.47,0,0,0-1.09.44,1.92,1.92,0,0,0-.43,1.4v3.62h-1.05v-4a1.78,1.78,0,0,0-.26-1.05,1,1,0,0,0-.84-.35,1.53,1.53,0,0,0-.82.23,1.33,1.33,0,0,0-.55.69,3.86,3.86,0,0,0-.17,1.3v3.23Z" transform="translate(0 -2.03)"/><path class="cls-3" d="M575.78,57l1-.16a1.46,1.46,0,0,0,.49,1,1.71,1.71,0,0,0,1.12.33,1.65,1.65,0,0,0,1.08-.3.88.88,0,0,0,.35-.69.64.64,0,0,0-.31-.56,4.57,4.57,0,0,0-1.08-.36,9.84,9.84,0,0,1-1.61-.51A1.54,1.54,0,0,1,576,54.3a1.6,1.6,0,0,1,.19-.77,1.71,1.71,0,0,1,.52-.59,2.17,2.17,0,0,1,.67-.31,3.19,3.19,0,0,1,.91-.13,3.6,3.6,0,0,1,1.29.21,1.75,1.75,0,0,1,.82.57,2.23,2.23,0,0,1,.36,1l-1,.14a1.13,1.13,0,0,0-.41-.75,1.49,1.49,0,0,0-1-.27,1.72,1.72,0,0,0-1,.24.7.7,0,0,0-.31.56.58.58,0,0,0,.13.37.93.93,0,0,0,.4.28l.93.27a13,13,0,0,1,1.56.49,1.58,1.58,0,0,1,.69.55,1.55,1.55,0,0,1,.25.9,1.77,1.77,0,0,1-.31,1,2,2,0,0,1-.89.72,3.23,3.23,0,0,1-1.31.25,2.92,2.92,0,0,1-1.85-.5A2.34,2.34,0,0,1,575.78,57Z" transform="translate(0 -2.03)"/><path class="cls-3" d="M581.8,55.76a3.21,3.21,0,0,1,1-2.56,2.9,2.9,0,0,1,2-.69,2.79,2.79,0,0,1,2.1.84,3.2,3.2,0,0,1,.81,2.32,4.12,4.12,0,0,1-.36,1.89,2.55,2.55,0,0,1-1,1.07,3.05,3.05,0,0,1-1.5.38,2.8,2.8,0,0,1-2.11-.84A3.35,3.35,0,0,1,581.8,55.76Zm1.08,0a2.65,2.65,0,0,0,.52,1.79,1.74,1.74,0,0,0,2.62,0,2.71,2.71,0,0,0,.52-1.82A2.57,2.57,0,0,0,586,54a1.74,1.74,0,0,0-2.62,0A2.64,2.64,0,0,0,582.89,55.76Z" transform="translate(0 -2.03)"/><path class="cls-3" d="M592.93,56.59l1,.13a2.69,2.69,0,0,1-.87,1.68,2.53,2.53,0,0,1-1.72.61,2.67,2.67,0,0,1-2.05-.83,3.39,3.39,0,0,1-.78-2.39,4.33,4.33,0,0,1,.33-1.76,2.33,2.33,0,0,1,1-1.13,3,3,0,0,1,1.49-.38A2.58,2.58,0,0,1,593,53a2.35,2.35,0,0,1,.83,1.46l-1,.16a1.7,1.7,0,0,0-.52-.94,1.34,1.34,0,0,0-.9-.32,1.64,1.64,0,0,0-1.29.57,2.71,2.71,0,0,0-.5,1.81,2.8,2.8,0,0,0,.48,1.82,1.56,1.56,0,0,0,1.25.57,1.48,1.48,0,0,0,1-.38A1.89,1.89,0,0,0,592.93,56.59Z" transform="translate(0 -2.03)"/><path class="cls-3" d="M594.88,51.49V50.28h1.05v1.21Zm0,7.38V52.65h1.05v6.22Z" transform="translate(0 -2.03)"/><path class="cls-3" d="M597.54,51.49V50.28h1.05v1.21Zm0,7.38V52.65h1.05v6.22Z" transform="translate(0 -2.03)"/><path class="cls-3" d="M599.78,57l1-.16a1.46,1.46,0,0,0,.49,1,1.71,1.71,0,0,0,1.12.33,1.65,1.65,0,0,0,1.08-.3.88.88,0,0,0,.35-.69.64.64,0,0,0-.31-.56,4.57,4.57,0,0,0-1.08-.36,9.84,9.84,0,0,1-1.61-.51A1.54,1.54,0,0,1,600,54.3a1.6,1.6,0,0,1,.19-.77,1.71,1.71,0,0,1,.52-.59,2.17,2.17,0,0,1,.67-.31,3.19,3.19,0,0,1,.91-.13,3.6,3.6,0,0,1,1.29.21,1.75,1.75,0,0,1,.82.57,2.23,2.23,0,0,1,.36,1l-1,.14a1.13,1.13,0,0,0-.41-.75,1.49,1.49,0,0,0-1-.27,1.72,1.72,0,0,0-1,.24.7.7,0,0,0-.31.56.58.58,0,0,0,.13.37.93.93,0,0,0,.4.28l.93.27a13,13,0,0,1,1.56.49,1.58,1.58,0,0,1,.69.55,1.55,1.55,0,0,1,.25.9,1.77,1.77,0,0,1-.31,1,2,2,0,0,1-.89.72,3.23,3.23,0,0,1-1.31.25,2.92,2.92,0,0,1-1.85-.5A2.34,2.34,0,0,1,599.78,57Z" transform="translate(0 -2.03)"/><path class="cls-3" d="M609.54,58.87V52.65h.95v.88a2.24,2.24,0,0,1,2-1,2.6,2.6,0,0,1,1,.2,1.63,1.63,0,0,1,.71.53,2,2,0,0,1,.33.78,6,6,0,0,1,.06,1v3.83h-1.05V55.08a2.84,2.84,0,0,0-.12-1,1,1,0,0,0-.44-.51,1.39,1.39,0,0,0-.74-.19,1.71,1.71,0,0,0-1.16.43,2.11,2.11,0,0,0-.49,1.62v3.4Z" transform="translate(0 -2.03)"/><path class="cls-3" d="M620.27,58.1a3.93,3.93,0,0,1-1.13.7A3.26,3.26,0,0,1,618,59a2.26,2.26,0,0,1-1.58-.5,1.65,1.65,0,0,1-.55-1.28,1.7,1.7,0,0,1,.21-.83,1.72,1.72,0,0,1,.54-.61,2.56,2.56,0,0,1,.76-.35,7.54,7.54,0,0,1,.94-.16,9.64,9.64,0,0,0,1.88-.36q0-.22,0-.28a1.16,1.16,0,0,0-.3-.91,1.77,1.77,0,0,0-1.2-.36,1.86,1.86,0,0,0-1.1.26,1.59,1.59,0,0,0-.52.92l-1-.14a2.56,2.56,0,0,1,.46-1.07,2,2,0,0,1,.93-.63,4.16,4.16,0,0,1,1.41-.22,3.74,3.74,0,0,1,1.29.19,1.71,1.71,0,0,1,.73.47,1.66,1.66,0,0,1,.33.72,5.94,5.94,0,0,1,.05,1v1.41a14.93,14.93,0,0,0,.07,1.86,2.35,2.35,0,0,0,.27.75h-1.1A2.24,2.24,0,0,1,620.27,58.1Zm-.09-2.36a7.74,7.74,0,0,1-1.72.4,4,4,0,0,0-.92.21.92.92,0,0,0-.42.34.93.93,0,0,0,.17,1.2,1.37,1.37,0,0,0,.93.28,2.18,2.18,0,0,0,1.08-.27,1.64,1.64,0,0,0,.7-.73,2.55,2.55,0,0,0,.17-1.05Z" transform="translate(0 -2.03)"/><path class="cls-3" d="M625.19,57.92l.15.93a3.91,3.91,0,0,1-.8.09,1.8,1.8,0,0,1-.89-.18,1,1,0,0,1-.45-.48,3.78,3.78,0,0,1-.13-1.25V53.47h-.77v-.82h.77V51.1l1-.63v2.17h1.06v.82h-1.06V57.1a1.84,1.84,0,0,0,.06.58.44.44,0,0,0,.18.21.7.7,0,0,0,.36.08A3.43,3.43,0,0,0,625.19,57.92Z" transform="translate(0 -2.03)"/><path class="cls-3" d="M625.83,55.76a3.21,3.21,0,0,1,1-2.56,2.9,2.9,0,0,1,2-.69,2.79,2.79,0,0,1,2.1.84,3.2,3.2,0,0,1,.81,2.32,4.12,4.12,0,0,1-.36,1.89,2.55,2.55,0,0,1-1,1.07,3.05,3.05,0,0,1-1.5.38,2.8,2.8,0,0,1-2.11-.84A3.35,3.35,0,0,1,625.83,55.76Zm1.08,0a2.65,2.65,0,0,0,.52,1.79,1.74,1.74,0,0,0,2.62,0,2.71,2.71,0,0,0,.52-1.82A2.57,2.57,0,0,0,630,54a1.74,1.74,0,0,0-2.62,0A2.64,2.64,0,0,0,626.91,55.76Z" transform="translate(0 -2.03)"/><path class="cls-3" d="M636.86,61.25v-3a1.89,1.89,0,0,1-.69.57,2,2,0,0,1-.94.23,2.49,2.49,0,0,1-1.91-.88,3.48,3.48,0,0,1-.8-2.43,4.16,4.16,0,0,1,.33-1.68,2.43,2.43,0,0,1,.94-1.13,2.52,2.52,0,0,1,1.36-.38,2.08,2.08,0,0,1,1.82,1v-.83h.95v8.61Zm-3.25-5.51a2.75,2.75,0,0,0,.5,1.8,1.53,1.53,0,0,0,1.21.6,1.48,1.48,0,0,0,1.16-.57,2.63,2.63,0,0,0,.49-1.74,2.9,2.9,0,0,0-.51-1.87,1.52,1.52,0,0,0-1.2-.63,1.45,1.45,0,0,0-1.16.58A2.85,2.85,0,0,0,633.61,55.74Z" transform="translate(0 -2.03)"/><path class="cls-3" d="M643.64,58.87V58a2.28,2.28,0,0,1-2,1.05,2.52,2.52,0,0,1-1-.21,1.69,1.69,0,0,1-.71-.53,2,2,0,0,1-.33-.78,5.36,5.36,0,0,1-.06-1V52.65h1.05V56.1a6.15,6.15,0,0,0,.06,1.11,1.1,1.1,0,0,0,.42.65,1.31,1.31,0,0,0,.8.24,1.74,1.74,0,0,0,.89-.24,1.35,1.35,0,0,0,.59-.66,3.32,3.32,0,0,0,.17-1.22V52.65h1.05v6.22Z" transform="translate(0 -2.03)"/><path class="cls-3" d="M650.5,56.86l1.09.13a2.66,2.66,0,0,1-1,1.48,3.24,3.24,0,0,1-3.95-.31,3.29,3.29,0,0,1-.8-2.36,3.44,3.44,0,0,1,.81-2.44,2.74,2.74,0,0,1,2.1-.87,2.66,2.66,0,0,1,2,.85,3.38,3.38,0,0,1,.79,2.39q0,.09,0,.28H647a2.39,2.39,0,0,0,.58,1.57,1.73,1.73,0,0,0,1.3.54,1.61,1.61,0,0,0,1-.3A2,2,0,0,0,650.5,56.86ZM647,55.16h3.47a2.11,2.11,0,0,0-.4-1.18,1.62,1.62,0,0,0-1.31-.61,1.68,1.68,0,0,0-1.22.49A1.92,1.92,0,0,0,647,55.16Z" transform="translate(0 -2.03)"/><path class="cls-3" d="M656.25,61.25V52.65h1v.81a2.37,2.37,0,0,1,.77-.71,2.11,2.11,0,0,1,1-.24,2.46,2.46,0,0,1,1.41.41,2.52,2.52,0,0,1,.92,1.16,4.23,4.23,0,0,1,.31,1.64,4.16,4.16,0,0,1-.34,1.72,2.58,2.58,0,0,1-1,1.17,2.56,2.56,0,0,1-1.37.41,2,2,0,0,1-.95-.22,2.15,2.15,0,0,1-.69-.56v3Zm1-5.46a2.71,2.71,0,0,0,.49,1.78,1.49,1.49,0,0,0,1.18.57,1.52,1.52,0,0,0,1.2-.59,2.82,2.82,0,0,0,.5-1.84,2.75,2.75,0,0,0-.49-1.78,1.47,1.47,0,0,0-1.17-.59,1.52,1.52,0,0,0-1.19.63A2.82,2.82,0,0,0,657.2,55.79Z" transform="translate(0 -2.03)"/><path class="cls-3" d="M667.18,56.86l1.09.13a2.66,2.66,0,0,1-1,1.48,3.24,3.24,0,0,1-3.95-.31,3.29,3.29,0,0,1-.8-2.36,3.44,3.44,0,0,1,.81-2.44,2.74,2.74,0,0,1,2.1-.87,2.66,2.66,0,0,1,2,.85,3.38,3.38,0,0,1,.79,2.39q0,.09,0,.28h-4.64a2.39,2.39,0,0,0,.58,1.57,1.73,1.73,0,0,0,1.3.54,1.61,1.61,0,0,0,1-.3A2,2,0,0,0,667.18,56.86Zm-3.46-1.71h3.47a2.11,2.11,0,0,0-.4-1.18,1.62,1.62,0,0,0-1.31-.61,1.68,1.68,0,0,0-1.22.49A1.92,1.92,0,0,0,663.72,55.16Z" transform="translate(0 -2.03)"/><path class="cls-3" d="M669.6,58.87V52.65h.95v.88a2.24,2.24,0,0,1,2-1,2.6,2.6,0,0,1,1,.2,1.63,1.63,0,0,1,.71.53,2,2,0,0,1,.33.78,6,6,0,0,1,.06,1v3.83H673.6V55.08a2.84,2.84,0,0,0-.12-1,1,1,0,0,0-.44-.51,1.39,1.39,0,0,0-.74-.19,1.71,1.71,0,0,0-1.16.43,2.11,2.11,0,0,0-.49,1.62v3.4Z" transform="translate(0 -2.03)"/><path class="cls-3" d="M680.33,58.1a3.93,3.93,0,0,1-1.13.7A3.26,3.26,0,0,1,678,59a2.26,2.26,0,0,1-1.58-.5,1.65,1.65,0,0,1-.55-1.28,1.7,1.7,0,0,1,.21-.83,1.72,1.72,0,0,1,.54-.61,2.56,2.56,0,0,1,.76-.35,7.54,7.54,0,0,1,.94-.16,9.64,9.64,0,0,0,1.88-.36q0-.22,0-.28a1.16,1.16,0,0,0-.3-.91,1.77,1.77,0,0,0-1.2-.36,1.86,1.86,0,0,0-1.1.26,1.59,1.59,0,0,0-.52.92l-1-.14a2.56,2.56,0,0,1,.46-1.07,2,2,0,0,1,.93-.63,4.16,4.16,0,0,1,1.41-.22,3.74,3.74,0,0,1,1.29.19,1.71,1.71,0,0,1,.73.47,1.66,1.66,0,0,1,.33.72,5.94,5.94,0,0,1,.05,1v1.41a14.93,14.93,0,0,0,.07,1.86,2.35,2.35,0,0,0,.27.75h-1.1A2.24,2.24,0,0,1,680.33,58.1Zm-.09-2.36a7.74,7.74,0,0,1-1.72.4,4,4,0,0,0-.92.21.92.92,0,0,0-.42.34.93.93,0,0,0,.17,1.2,1.37,1.37,0,0,0,.93.28,2.18,2.18,0,0,0,1.08-.27,1.64,1.64,0,0,0,.7-.73,2.55,2.55,0,0,0,.17-1.05Z" transform="translate(0 -2.03)"/><path class="cls-3" d="M685.25,57.92l.15.93a3.91,3.91,0,0,1-.8.09,1.8,1.8,0,0,1-.89-.18,1,1,0,0,1-.45-.48,3.78,3.78,0,0,1-.13-1.25V53.47h-.77v-.82h.77V51.1l1-.63v2.17h1.06v.82h-1.06V57.1a1.84,1.84,0,0,0,.06.58.44.44,0,0,0,.18.21.7.7,0,0,0,.36.08A3.43,3.43,0,0,0,685.25,57.92Z" transform="translate(0 -2.03)"/><path class="cls-3" d="M686.28,51.49V50.28h1.05v1.21Zm0,7.38V52.65h1.05v6.22Z" transform="translate(0 -2.03)"/><path class="cls-3" d="M689.92,58.87h-1V50.28H690v3.06a2.09,2.09,0,0,1,1.71-.84,2.61,2.61,0,0,1,1.09.23,2.22,2.22,0,0,1,.84.65,3.14,3.14,0,0,1,.52,1,4.17,4.17,0,0,1,.19,1.27,3.55,3.55,0,0,1-.79,2.47,2.47,2.47,0,0,1-1.9.87,2,2,0,0,1-1.73-.92Zm0-3.16a3.23,3.23,0,0,0,.3,1.62,1.51,1.51,0,0,0,2.54.21,2.73,2.73,0,0,0,.5-1.79,2.78,2.78,0,0,0-.48-1.8,1.47,1.47,0,0,0-1.17-.58,1.52,1.52,0,0,0-1.2.6A2.64,2.64,0,0,0,689.9,55.71Z" transform="translate(0 -2.03)"/><path class="cls-3" d="M699.7,58.87V58a2.28,2.28,0,0,1-2,1.05,2.52,2.52,0,0,1-1-.21,1.69,1.69,0,0,1-.71-.53,2,2,0,0,1-.33-.78,5.36,5.36,0,0,1-.06-1V52.65h1.05V56.1a6.15,6.15,0,0,0,.06,1.11,1.1,1.1,0,0,0,.42.65,1.31,1.31,0,0,0,.8.24,1.74,1.74,0,0,0,.89-.24,1.35,1.35,0,0,0,.59-.66,3.32,3.32,0,0,0,.17-1.22V52.65h1.05v6.22Z" transform="translate(0 -2.03)"/><path class="cls-3" d="M701.87,57l1-.16a1.46,1.46,0,0,0,.49,1,1.71,1.71,0,0,0,1.12.33,1.65,1.65,0,0,0,1.08-.3.88.88,0,0,0,.35-.69.64.64,0,0,0-.31-.56,4.57,4.57,0,0,0-1.08-.36,9.84,9.84,0,0,1-1.61-.51A1.54,1.54,0,0,1,702,54.3a1.6,1.6,0,0,1,.19-.77,1.71,1.71,0,0,1,.52-.59,2.17,2.17,0,0,1,.67-.31,3.19,3.19,0,0,1,.91-.13,3.6,3.6,0,0,1,1.29.21,1.75,1.75,0,0,1,.82.57,2.23,2.23,0,0,1,.36,1l-1,.14a1.13,1.13,0,0,0-.41-.75,1.49,1.49,0,0,0-1-.27,1.72,1.72,0,0,0-1,.24.7.7,0,0,0-.31.56.58.58,0,0,0,.13.37.93.93,0,0,0,.4.28l.93.27a13,13,0,0,1,1.56.49,1.58,1.58,0,0,1,.69.55,1.55,1.55,0,0,1,.25.9,1.77,1.77,0,0,1-.31,1,2,2,0,0,1-.89.72,3.23,3.23,0,0,1-1.31.25,2.92,2.92,0,0,1-1.85-.5A2.34,2.34,0,0,1,701.87,57Z" transform="translate(0 -2.03)"/><path class="cls-3" d="M715.88,56.86,717,57a2.66,2.66,0,0,1-1,1.48,3.24,3.24,0,0,1-3.95-.31,3.29,3.29,0,0,1-.8-2.36,3.44,3.44,0,0,1,.81-2.44,2.74,2.74,0,0,1,2.1-.87,2.66,2.66,0,0,1,2,.85,3.38,3.38,0,0,1,.79,2.39q0,.09,0,.28h-4.64a2.39,2.39,0,0,0,.58,1.57,1.73,1.73,0,0,0,1.3.54,1.61,1.61,0,0,0,1-.3A2,2,0,0,0,715.88,56.86Zm-3.46-1.71h3.47a2.11,2.11,0,0,0-.4-1.18,1.62,1.62,0,0,0-1.31-.61,1.68,1.68,0,0,0-1.22.49A1.92,1.92,0,0,0,712.42,55.16Z" transform="translate(0 -2.03)"/><path class="cls-3" d="M720.6,57.92l.15.93a3.91,3.91,0,0,1-.8.09,1.8,1.8,0,0,1-.89-.18,1,1,0,0,1-.45-.48,3.78,3.78,0,0,1-.13-1.25V53.47h-.77v-.82h.77V51.1l1-.63v2.17h1.06v.82h-1.06V57.1a1.84,1.84,0,0,0,.06.58.44.44,0,0,0,.18.21.7.7,0,0,0,.36.08A3.43,3.43,0,0,0,720.6,57.92Z" transform="translate(0 -2.03)"/><path class="cls-3" d="M499.5,73.27V67h.94v.87a2.22,2.22,0,0,1,.78-.74,2.19,2.19,0,0,1,1.11-.28,2,2,0,0,1,1.13.29,1.54,1.54,0,0,1,.62.8A2.23,2.23,0,0,1,506,66.9a1.89,1.89,0,0,1,1.42.51,2.19,2.19,0,0,1,.5,1.58v4.27h-1V69.35a2.89,2.89,0,0,0-.1-.91.88.88,0,0,0-.37-.45,1.16,1.16,0,0,0-.63-.17,1.47,1.47,0,0,0-1.09.44,1.92,1.92,0,0,0-.43,1.4v3.62H503.2v-4a1.78,1.78,0,0,0-.26-1.05,1,1,0,0,0-.84-.35,1.53,1.53,0,0,0-.82.23,1.33,1.33,0,0,0-.55.69,3.86,3.86,0,0,0-.17,1.3v3.23Z" transform="translate(0 -2.03)"/><path class="cls-3" d="M513.56,72.5a3.93,3.93,0,0,1-1.13.7,3.26,3.26,0,0,1-1.16.21,2.26,2.26,0,0,1-1.58-.5,1.65,1.65,0,0,1-.55-1.28,1.7,1.7,0,0,1,.21-.83,1.72,1.72,0,0,1,.54-.61,2.56,2.56,0,0,1,.76-.35,7.54,7.54,0,0,1,.94-.16,9.64,9.64,0,0,0,1.88-.36q0-.22,0-.28a1.16,1.16,0,0,0-.3-.91,1.77,1.77,0,0,0-1.2-.36,1.86,1.86,0,0,0-1.1.26,1.59,1.59,0,0,0-.52.92l-1-.14a2.56,2.56,0,0,1,.46-1.07,2,2,0,0,1,.93-.63,4.16,4.16,0,0,1,1.41-.22,3.74,3.74,0,0,1,1.29.19,1.71,1.71,0,0,1,.73.47,1.66,1.66,0,0,1,.33.72,5.94,5.94,0,0,1,.05,1v1.41a14.93,14.93,0,0,0,.07,1.86,2.35,2.35,0,0,0,.27.75h-1.1A2.24,2.24,0,0,1,513.56,72.5Zm-.09-2.36a7.74,7.74,0,0,1-1.72.4,4,4,0,0,0-.92.21.92.92,0,0,0-.42.34.93.93,0,0,0,.17,1.2,1.37,1.37,0,0,0,.93.28,2.18,2.18,0,0,0,1.08-.27,1.64,1.64,0,0,0,.7-.73,2.55,2.55,0,0,0,.17-1.05Z" transform="translate(0 -2.03)"/><path class="cls-3" d="M516,73.78l1,.15a1,1,0,0,0,.36.69,1.76,1.76,0,0,0,1.07.29,1.88,1.88,0,0,0,1.13-.29,1.44,1.44,0,0,0,.54-.82,6.74,6.74,0,0,0,.08-1.35,2.17,2.17,0,0,1-1.72.81,2.35,2.35,0,0,1-2-.93,3.57,3.57,0,0,1-.7-2.22,4.13,4.13,0,0,1,.32-1.64,2.58,2.58,0,0,1,.93-1.16,2.52,2.52,0,0,1,1.44-.41,2.23,2.23,0,0,1,1.82.89V67h1v5.38a5.1,5.1,0,0,1-.3,2.06,2.16,2.16,0,0,1-.94,1,3.25,3.25,0,0,1-1.58.35,3,3,0,0,1-1.8-.5A1.69,1.69,0,0,1,516,73.78Zm.87-3.74a2.7,2.7,0,0,0,.49,1.79,1.6,1.6,0,0,0,2.44,0,2.61,2.61,0,0,0,.49-1.75,2.55,2.55,0,0,0-.51-1.72,1.57,1.57,0,0,0-1.22-.58,1.52,1.52,0,0,0-1.2.57A2.54,2.54,0,0,0,516.85,70Z" transform="translate(0 -2.03)"/><path class="cls-3" d="M522.85,73.27V67h.95v.88a2.24,2.24,0,0,1,2-1,2.6,2.6,0,0,1,1,.2,1.63,1.63,0,0,1,.71.53,2,2,0,0,1,.33.78,6,6,0,0,1,.06,1v3.83h-1.05V69.48a2.84,2.84,0,0,0-.12-1,1,1,0,0,0-.44-.51,1.39,1.39,0,0,0-.74-.19,1.71,1.71,0,0,0-1.16.43,2.11,2.11,0,0,0-.49,1.62v3.4Z" transform="translate(0 -2.03)"/><path class="cls-3" d="M529.53,65.89V64.68h1.05v1.21Zm0,7.38V67h1.05v6.22Z" transform="translate(0 -2.03)"/><path class="cls-3" d="M531.77,71.41l1-.16a1.46,1.46,0,0,0,.49,1,1.71,1.71,0,0,0,1.12.33,1.65,1.65,0,0,0,1.08-.3.88.88,0,0,0,.35-.69.64.64,0,0,0-.31-.56,4.57,4.57,0,0,0-1.08-.36,9.84,9.84,0,0,1-1.61-.51,1.54,1.54,0,0,1-.91-1.43,1.6,1.6,0,0,1,.19-.77,1.71,1.71,0,0,1,.52-.59,2.17,2.17,0,0,1,.67-.31,3.19,3.19,0,0,1,.91-.13,3.6,3.6,0,0,1,1.29.21,1.75,1.75,0,0,1,.82.57,2.23,2.23,0,0,1,.36,1l-1,.14a1.13,1.13,0,0,0-.41-.75,1.49,1.49,0,0,0-1-.27,1.72,1.72,0,0,0-1,.24.7.7,0,0,0-.31.56.58.58,0,0,0,.13.37.93.93,0,0,0,.4.28l.93.27A13,13,0,0,1,536,70a1.58,1.58,0,0,1,.69.55,1.55,1.55,0,0,1,.25.9,1.77,1.77,0,0,1-.31,1,2,2,0,0,1-.89.72,3.23,3.23,0,0,1-1.31.25,2.92,2.92,0,0,1-1.85-.5A2.34,2.34,0,0,1,531.77,71.41Z" transform="translate(0 -2.03)"/><path class="cls-3" d="M545.56,73.27v-.79a1.94,1.94,0,0,1-1.74.93,2.44,2.44,0,0,1-1.37-.41,2.7,2.7,0,0,1-1-1.15,4,4,0,0,1-.34-1.69,4.42,4.42,0,0,1,.31-1.69,2.45,2.45,0,0,1,.93-1.16,2.49,2.49,0,0,1,1.39-.4,2.08,2.08,0,0,1,1.72.86V64.68h1v8.59Zm-3.33-3.11a2.7,2.7,0,0,0,.5,1.79,1.52,1.52,0,0,0,1.19.59,1.49,1.49,0,0,0,1.17-.57,2.61,2.61,0,0,0,.48-1.73,2.93,2.93,0,0,0-.49-1.87,1.51,1.51,0,0,0-1.21-.6,1.46,1.46,0,0,0-1.17.57A2.83,2.83,0,0,0,542.22,70.16Z" transform="translate(0 -2.03)"/><path class="cls-3" d="M548.2,65.89V64.68h1.05v1.21Zm0,7.38V67h1.05v6.22Z" transform="translate(0 -2.03)"/><path class="cls-3" d="M550.44,71.41l1-.16a1.46,1.46,0,0,0,.49,1,1.71,1.71,0,0,0,1.12.33,1.65,1.65,0,0,0,1.08-.3.88.88,0,0,0,.35-.69.64.64,0,0,0-.31-.56,4.57,4.57,0,0,0-1.08-.36,9.84,9.84,0,0,1-1.61-.51,1.54,1.54,0,0,1-.91-1.43,1.6,1.6,0,0,1,.19-.77,1.71,1.71,0,0,1,.52-.59A2.17,2.17,0,0,1,552,67a3.19,3.19,0,0,1,.91-.13,3.6,3.6,0,0,1,1.29.21,1.75,1.75,0,0,1,.82.57,2.23,2.23,0,0,1,.36,1l-1,.14a1.13,1.13,0,0,0-.41-.75,1.49,1.49,0,0,0-1-.27,1.72,1.72,0,0,0-1,.24.7.7,0,0,0-.31.56.58.58,0,0,0,.13.37.93.93,0,0,0,.4.28l.93.27a13,13,0,0,1,1.56.49,1.58,1.58,0,0,1,.69.55,1.55,1.55,0,0,1,.25.9,1.77,1.77,0,0,1-.31,1,2,2,0,0,1-.89.72,3.23,3.23,0,0,1-1.31.25,2.92,2.92,0,0,1-1.85-.5A2.34,2.34,0,0,1,550.44,71.41Z" transform="translate(0 -2.03)"/><path class="cls-3" d="M560.2,75.65V67h1v.81a2.37,2.37,0,0,1,.77-.71,2.11,2.11,0,0,1,1-.24,2.46,2.46,0,0,1,1.41.41,2.52,2.52,0,0,1,.92,1.16,4.23,4.23,0,0,1,.31,1.64,4.16,4.16,0,0,1-.34,1.72,2.58,2.58,0,0,1-1,1.17,2.56,2.56,0,0,1-1.37.41,2,2,0,0,1-.95-.22,2.15,2.15,0,0,1-.69-.56v3Zm1-5.46a2.71,2.71,0,0,0,.49,1.78,1.49,1.49,0,0,0,1.18.57,1.52,1.52,0,0,0,1.2-.59,2.82,2.82,0,0,0,.5-1.84,2.75,2.75,0,0,0-.49-1.78,1.47,1.47,0,0,0-1.17-.59,1.52,1.52,0,0,0-1.19.63A2.82,2.82,0,0,0,561.15,70.19Z" transform="translate(0 -2.03)"/><path class="cls-3" d="M570.93,72.5a3.93,3.93,0,0,1-1.13.7,3.26,3.26,0,0,1-1.16.21,2.26,2.26,0,0,1-1.58-.5,1.65,1.65,0,0,1-.55-1.28,1.7,1.7,0,0,1,.21-.83,1.72,1.72,0,0,1,.54-.61,2.56,2.56,0,0,1,.76-.35,7.54,7.54,0,0,1,.94-.16,9.64,9.64,0,0,0,1.88-.36q0-.22,0-.28a1.16,1.16,0,0,0-.3-.91,1.77,1.77,0,0,0-1.2-.36,1.86,1.86,0,0,0-1.1.26,1.59,1.59,0,0,0-.52.92l-1-.14a2.56,2.56,0,0,1,.46-1.07,2,2,0,0,1,.93-.63,4.16,4.16,0,0,1,1.41-.22,3.74,3.74,0,0,1,1.29.19,1.71,1.71,0,0,1,.73.47,1.66,1.66,0,0,1,.33.72,5.94,5.94,0,0,1,.05,1v1.41a14.93,14.93,0,0,0,.07,1.86,2.35,2.35,0,0,0,.27.75h-1.1A2.24,2.24,0,0,1,570.93,72.5Zm-.09-2.36a7.74,7.74,0,0,1-1.72.4,4,4,0,0,0-.92.21.92.92,0,0,0-.42.34.93.93,0,0,0,.17,1.2,1.37,1.37,0,0,0,.93.28,2.18,2.18,0,0,0,1.08-.27,1.64,1.64,0,0,0,.7-.73,2.55,2.55,0,0,0,.17-1.05Z" transform="translate(0 -2.03)"/><path class="cls-3" d="M573.53,73.27V67h.95V68a2.57,2.57,0,0,1,.67-.87,1.17,1.17,0,0,1,.68-.21,2.06,2.06,0,0,1,1.08.34l-.36,1a1.51,1.51,0,0,0-.77-.23,1,1,0,0,0-.62.21,1.13,1.13,0,0,0-.39.58,4.11,4.11,0,0,0-.18,1.23v3.26Z" transform="translate(0 -2.03)"/><path class="cls-3" d="M579.84,72.32l.15.93a3.91,3.91,0,0,1-.8.09,1.8,1.8,0,0,1-.89-.18,1,1,0,0,1-.45-.48,3.78,3.78,0,0,1-.13-1.25V67.87H577V67h.77V65.5l1-.63V67h1.06v.82h-1.06V71.5a1.84,1.84,0,0,0,.06.58.44.44,0,0,0,.18.21.7.7,0,0,0,.36.08A3.43,3.43,0,0,0,579.84,72.32Z" transform="translate(0 -2.03)"/><path class="cls-3" d="M585,73.27v-.91a2.28,2.28,0,0,1-2,1.05,2.52,2.52,0,0,1-1-.21,1.69,1.69,0,0,1-.71-.53,2,2,0,0,1-.33-.78,5.36,5.36,0,0,1-.06-1V67h1.05V70.5a6.15,6.15,0,0,0,.06,1.11,1.1,1.1,0,0,0,.42.65,1.31,1.31,0,0,0,.8.24,1.74,1.74,0,0,0,.89-.24,1.35,1.35,0,0,0,.59-.66,3.32,3.32,0,0,0,.17-1.22V67h1.05v6.22Z" transform="translate(0 -2.03)"/><path class="cls-3" d="M587.54,73.27V67h.95V68a2.57,2.57,0,0,1,.67-.87,1.17,1.17,0,0,1,.68-.21,2.06,2.06,0,0,1,1.08.34l-.36,1a1.51,1.51,0,0,0-.77-.23,1,1,0,0,0-.62.21,1.13,1.13,0,0,0-.39.58,4.11,4.11,0,0,0-.18,1.23v3.26Z" transform="translate(0 -2.03)"/><path class="cls-3" d="M591.55,65.89V64.68h1.05v1.21Zm0,7.38V67h1.05v6.22Z" transform="translate(0 -2.03)"/><path class="cls-3" d="M598.47,71.26l1.09.13a2.66,2.66,0,0,1-1,1.48,3.24,3.24,0,0,1-3.95-.31,3.29,3.29,0,0,1-.8-2.36,3.44,3.44,0,0,1,.81-2.44,2.74,2.74,0,0,1,2.1-.87,2.66,2.66,0,0,1,2,.85,3.38,3.38,0,0,1,.79,2.39q0,.09,0,.28h-4.64a2.39,2.39,0,0,0,.58,1.57,1.73,1.73,0,0,0,1.3.54,1.61,1.61,0,0,0,1-.3A2,2,0,0,0,598.47,71.26ZM595,69.56h3.47a2.11,2.11,0,0,0-.4-1.18,1.62,1.62,0,0,0-1.31-.61,1.68,1.68,0,0,0-1.22.49A1.92,1.92,0,0,0,595,69.56Z" transform="translate(0 -2.03)"/><path class="cls-3" d="M600.88,73.27V67h.95v.88a2.24,2.24,0,0,1,2-1,2.6,2.6,0,0,1,1,.2,1.63,1.63,0,0,1,.71.53,2,2,0,0,1,.33.78,6,6,0,0,1,.06,1v3.83h-1.05V69.48a2.84,2.84,0,0,0-.12-1,1,1,0,0,0-.44-.51,1.39,1.39,0,0,0-.74-.19,1.71,1.71,0,0,0-1.16.43,2.11,2.11,0,0,0-.49,1.62v3.4Z" transform="translate(0 -2.03)"/><path class="cls-3" d="M609.86,72.32l.15.93a3.91,3.91,0,0,1-.8.09,1.8,1.8,0,0,1-.89-.18,1,1,0,0,1-.45-.48,3.78,3.78,0,0,1-.13-1.25V67.87H607V67h.77V65.5l1-.63V67h1.06v.82H608.8V71.5a1.84,1.84,0,0,0,.06.58.44.44,0,0,0,.18.21.7.7,0,0,0,.36.08A3.43,3.43,0,0,0,609.86,72.32Z" transform="translate(0 -2.03)"/><path class="cls-3" d="M614.22,73.27V67h.94v.87a2.22,2.22,0,0,1,.78-.74,2.19,2.19,0,0,1,1.11-.28,2,2,0,0,1,1.13.29,1.54,1.54,0,0,1,.62.8,2.23,2.23,0,0,1,1.92-1.09,1.89,1.89,0,0,1,1.42.51,2.19,2.19,0,0,1,.5,1.58v4.27h-1V69.35a2.89,2.89,0,0,0-.1-.91.88.88,0,0,0-.37-.45,1.16,1.16,0,0,0-.63-.17,1.47,1.47,0,0,0-1.09.44,1.92,1.92,0,0,0-.43,1.4v3.62h-1.05v-4a1.78,1.78,0,0,0-.26-1.05,1,1,0,0,0-.84-.35,1.53,1.53,0,0,0-.82.23,1.33,1.33,0,0,0-.55.69,3.86,3.86,0,0,0-.17,1.3v3.23Z" transform="translate(0 -2.03)"/><path class="cls-3" d="M623.83,70.16a3.21,3.21,0,0,1,1-2.56,2.9,2.9,0,0,1,2-.69,2.79,2.79,0,0,1,2.1.84,3.2,3.2,0,0,1,.81,2.32A4.12,4.12,0,0,1,629.3,72a2.55,2.55,0,0,1-1,1.07,3.05,3.05,0,0,1-1.5.38,2.8,2.8,0,0,1-2.11-.84A3.35,3.35,0,0,1,623.83,70.16Zm1.08,0a2.65,2.65,0,0,0,.52,1.79,1.74,1.74,0,0,0,2.62,0,2.71,2.71,0,0,0,.52-1.82,2.57,2.57,0,0,0-.52-1.75,1.74,1.74,0,0,0-2.62,0A2.64,2.64,0,0,0,624.91,70.16Z" transform="translate(0 -2.03)"/><path class="cls-3" d="M630.89,73.27V67h.95v.88a2.24,2.24,0,0,1,2-1,2.6,2.6,0,0,1,1,.2,1.63,1.63,0,0,1,.71.53,2,2,0,0,1,.33.78,6,6,0,0,1,.06,1v3.83H634.9V69.48a2.84,2.84,0,0,0-.12-1,1,1,0,0,0-.44-.51,1.39,1.39,0,0,0-.74-.19,1.71,1.71,0,0,0-1.16.43,2.11,2.11,0,0,0-.49,1.62v3.4Z" transform="translate(0 -2.03)"/><path class="cls-3" d="M639.87,72.32l.15.93a3.91,3.91,0,0,1-.8.09,1.8,1.8,0,0,1-.89-.18,1,1,0,0,1-.45-.48,3.78,3.78,0,0,1-.13-1.25V67.87H637V67h.77V65.5l1-.63V67h1.06v.82h-1.06V71.5a1.84,1.84,0,0,0,.06.58.44.44,0,0,0,.18.21.7.7,0,0,0,.36.08A3.43,3.43,0,0,0,639.87,72.32Z" transform="translate(0 -2.03)"/><path class="cls-3" d="M645.16,71.26l1.09.13a2.66,2.66,0,0,1-1,1.48,3.24,3.24,0,0,1-3.95-.31,3.29,3.29,0,0,1-.8-2.36,3.44,3.44,0,0,1,.81-2.44,2.74,2.74,0,0,1,2.1-.87,2.66,2.66,0,0,1,2,.85,3.38,3.38,0,0,1,.79,2.39q0,.09,0,.28h-4.64a2.39,2.39,0,0,0,.58,1.57,1.73,1.73,0,0,0,1.3.54,1.61,1.61,0,0,0,1-.3A2,2,0,0,0,645.16,71.26Zm-3.46-1.71h3.47a2.11,2.11,0,0,0-.4-1.18,1.62,1.62,0,0,0-1.31-.61,1.68,1.68,0,0,0-1.22.49A1.92,1.92,0,0,0,641.7,69.56Z" transform="translate(0 -2.03)"/><path class="cls-3" d="M647.15,71.41l1-.16a1.46,1.46,0,0,0,.49,1,1.71,1.71,0,0,0,1.12.33,1.65,1.65,0,0,0,1.08-.3.88.88,0,0,0,.35-.69.64.64,0,0,0-.31-.56,4.57,4.57,0,0,0-1.08-.36,9.84,9.84,0,0,1-1.61-.51,1.54,1.54,0,0,1-.91-1.43,1.6,1.6,0,0,1,.19-.77,1.71,1.71,0,0,1,.52-.59,2.17,2.17,0,0,1,.67-.31,3.19,3.19,0,0,1,.91-.13,3.6,3.6,0,0,1,1.29.21,1.75,1.75,0,0,1,.82.57,2.23,2.23,0,0,1,.36,1l-1,.14a1.13,1.13,0,0,0-.41-.75,1.49,1.49,0,0,0-1-.27,1.72,1.72,0,0,0-1,.24.7.7,0,0,0-.31.56.58.58,0,0,0,.13.37.93.93,0,0,0,.4.28l.93.27a13,13,0,0,1,1.56.49,1.58,1.58,0,0,1,.69.55,1.55,1.55,0,0,1,.25.9,1.77,1.77,0,0,1-.31,1,2,2,0,0,1-.89.72,3.23,3.23,0,0,1-1.31.25,2.92,2.92,0,0,1-1.85-.5A2.34,2.34,0,0,1,647.15,71.41Z" transform="translate(0 -2.03)"/><path class="cls-3" d="M653.85,73.27v-1.2h1.2v1.2a2.13,2.13,0,0,1-.23,1.07,1.53,1.53,0,0,1-.74.63l-.29-.45a1,1,0,0,0,.49-.43,1.84,1.84,0,0,0,.18-.82Z" transform="translate(0 -2.03)"/><path class="cls-3" d="M660.24,73.27V67h.95v.88a2.24,2.24,0,0,1,2-1,2.6,2.6,0,0,1,1,.2,1.63,1.63,0,0,1,.71.53,2,2,0,0,1,.33.78,6,6,0,0,1,.06,1v3.83h-1.05V69.48a2.84,2.84,0,0,0-.12-1,1,1,0,0,0-.44-.51,1.39,1.39,0,0,0-.74-.19,1.71,1.71,0,0,0-1.16.43,2.11,2.11,0,0,0-.49,1.62v3.4Z" transform="translate(0 -2.03)"/><path class="cls-3" d="M671,72.5a3.93,3.93,0,0,1-1.13.7,3.26,3.26,0,0,1-1.16.21,2.26,2.26,0,0,1-1.58-.5,1.65,1.65,0,0,1-.55-1.28,1.7,1.7,0,0,1,.21-.83,1.72,1.72,0,0,1,.54-.61,2.56,2.56,0,0,1,.76-.35,7.54,7.54,0,0,1,.94-.16,9.64,9.64,0,0,0,1.88-.36q0-.22,0-.28a1.16,1.16,0,0,0-.3-.91,1.77,1.77,0,0,0-1.2-.36,1.86,1.86,0,0,0-1.1.26,1.59,1.59,0,0,0-.52.92l-1-.14a2.56,2.56,0,0,1,.46-1.07,2,2,0,0,1,.93-.63,4.16,4.16,0,0,1,1.41-.22,3.74,3.74,0,0,1,1.29.19,1.71,1.71,0,0,1,.73.47,1.66,1.66,0,0,1,.33.72,5.94,5.94,0,0,1,.05,1v1.41a14.93,14.93,0,0,0,.07,1.86,2.35,2.35,0,0,0,.27.75h-1.1A2.24,2.24,0,0,1,671,72.5Zm-.09-2.36a7.74,7.74,0,0,1-1.72.4,4,4,0,0,0-.92.21.92.92,0,0,0-.42.34.93.93,0,0,0,.17,1.2,1.37,1.37,0,0,0,.93.28,2.18,2.18,0,0,0,1.08-.27,1.64,1.64,0,0,0,.7-.73,2.55,2.55,0,0,0,.17-1.05Z" transform="translate(0 -2.03)"/><path class="cls-3" d="M673.17,71.41l1-.16a1.46,1.46,0,0,0,.49,1,1.71,1.71,0,0,0,1.12.33,1.65,1.65,0,0,0,1.08-.3.88.88,0,0,0,.35-.69.64.64,0,0,0-.31-.56,4.57,4.57,0,0,0-1.08-.36,9.84,9.84,0,0,1-1.61-.51,1.54,1.54,0,0,1-.91-1.43,1.6,1.6,0,0,1,.19-.77,1.71,1.71,0,0,1,.52-.59,2.17,2.17,0,0,1,.67-.31,3.19,3.19,0,0,1,.91-.13,3.6,3.6,0,0,1,1.29.21,1.75,1.75,0,0,1,.82.57,2.23,2.23,0,0,1,.36,1l-1,.14a1.13,1.13,0,0,0-.41-.75,1.49,1.49,0,0,0-1-.27,1.72,1.72,0,0,0-1,.24.7.7,0,0,0-.31.56.58.58,0,0,0,.13.37.93.93,0,0,0,.4.28l.93.27a13,13,0,0,1,1.56.49,1.58,1.58,0,0,1,.69.55,1.55,1.55,0,0,1,.25.9,1.77,1.77,0,0,1-.31,1,2,2,0,0,1-.89.72,3.23,3.23,0,0,1-1.31.25,2.92,2.92,0,0,1-1.85-.5A2.34,2.34,0,0,1,673.17,71.41Z" transform="translate(0 -2.03)"/><path class="cls-3" d="M683.65,71l1,.13a2.69,2.69,0,0,1-.87,1.68,2.53,2.53,0,0,1-1.72.61,2.67,2.67,0,0,1-2.05-.83,3.39,3.39,0,0,1-.78-2.39,4.33,4.33,0,0,1,.33-1.76,2.33,2.33,0,0,1,1-1.13,3,3,0,0,1,1.49-.38,2.58,2.58,0,0,1,1.66.51,2.35,2.35,0,0,1,.83,1.46l-1,.16a1.7,1.7,0,0,0-.52-.94,1.34,1.34,0,0,0-.9-.32,1.64,1.64,0,0,0-1.29.57,2.71,2.71,0,0,0-.5,1.81,2.8,2.8,0,0,0,.48,1.82,1.56,1.56,0,0,0,1.25.57,1.48,1.48,0,0,0,1-.38A1.89,1.89,0,0,0,683.65,71Z" transform="translate(0 -2.03)"/><path class="cls-3" d="M689.85,71.26l1.09.13a2.66,2.66,0,0,1-1,1.48,3.24,3.24,0,0,1-3.95-.31,3.29,3.29,0,0,1-.8-2.36,3.44,3.44,0,0,1,.81-2.44,2.74,2.74,0,0,1,2.1-.87,2.66,2.66,0,0,1,2,.85,3.38,3.38,0,0,1,.79,2.39q0,.09,0,.28h-4.64a2.39,2.39,0,0,0,.58,1.57,1.73,1.73,0,0,0,1.3.54,1.61,1.61,0,0,0,1-.3A2,2,0,0,0,689.85,71.26Zm-3.46-1.71h3.47a2.11,2.11,0,0,0-.4-1.18,1.62,1.62,0,0,0-1.31-.61,1.68,1.68,0,0,0-1.22.49A1.92,1.92,0,0,0,686.39,69.56Z" transform="translate(0 -2.03)"/><path class="cls-3" d="M694.57,72.32l.15.93a3.91,3.91,0,0,1-.8.09,1.8,1.8,0,0,1-.89-.18,1,1,0,0,1-.45-.48,3.78,3.78,0,0,1-.13-1.25V67.87h-.77V67h.77V65.5l1-.63V67h1.06v.82h-1.06V71.5a1.84,1.84,0,0,0,.06.58.44.44,0,0,0,.18.21.7.7,0,0,0,.36.08A3.43,3.43,0,0,0,694.57,72.32Z" transform="translate(0 -2.03)"/><path class="cls-3" d="M699.68,73.27v-.91a2.28,2.28,0,0,1-2,1.05,2.52,2.52,0,0,1-1-.21,1.69,1.69,0,0,1-.71-.53,2,2,0,0,1-.33-.78,5.36,5.36,0,0,1-.06-1V67h1.05V70.5a6.15,6.15,0,0,0,.06,1.11,1.1,1.1,0,0,0,.42.65,1.31,1.31,0,0,0,.8.24,1.74,1.74,0,0,0,.89-.24,1.35,1.35,0,0,0,.59-.66,3.32,3.32,0,0,0,.17-1.22V67h1.05v6.22Z" transform="translate(0 -2.03)"/><path class="cls-3" d="M702.26,73.27V67h.95V68a2.57,2.57,0,0,1,.67-.87,1.17,1.17,0,0,1,.68-.21,2.06,2.06,0,0,1,1.08.34l-.36,1a1.51,1.51,0,0,0-.77-.23,1,1,0,0,0-.62.21,1.13,1.13,0,0,0-.39.58,4.11,4.11,0,0,0-.18,1.23v3.26Z" transform="translate(0 -2.03)"/><polyline class="cls-4" points="489.55 46.36 480.55 55.36 489.55 64.36"/><rect class="cls-2" x="21.05" y="22.86" width="399.5" height="219.5" rx="2" ry="2"/><polyline class="cls-4" points="20.55 117.36 11.55 126.36 20.55 135.36"/><path class="cls-3" d="M30.66,43.73V35.14h6.21v1H31.8v2.63h4.75v1H31.8v2.92h5.27v1Z" transform="translate(0 -2.03)"/><path class="cls-3" d="M42.54,43.73v-.79a1.94,1.94,0,0,1-1.74.93,2.44,2.44,0,0,1-1.37-.41,2.7,2.7,0,0,1-1-1.15,4,4,0,0,1-.34-1.69,4.42,4.42,0,0,1,.31-1.69,2.45,2.45,0,0,1,.93-1.16,2.49,2.49,0,0,1,1.39-.4,2.08,2.08,0,0,1,1.72.86V35.14h1v8.59Zm-3.33-3.11a2.7,2.7,0,0,0,.5,1.79A1.52,1.52,0,0,0,40.9,43a1.49,1.49,0,0,0,1.17-.57,2.61,2.61,0,0,0,.48-1.73,2.93,2.93,0,0,0-.49-1.87,1.51,1.51,0,0,0-1.21-.6,1.46,1.46,0,0,0-1.17.57A2.83,2.83,0,0,0,39.21,40.62Z" transform="translate(0 -2.03)"/><path class="cls-3" d="M45.19,36.35V35.14h1.05v1.21Zm0,7.38V37.5h1.05v6.22Z" transform="translate(0 -2.03)"/><path class="cls-3" d="M50.15,42.78l.15.93a3.91,3.91,0,0,1-.8.09,1.8,1.8,0,0,1-.89-.18,1,1,0,0,1-.45-.48A3.78,3.78,0,0,1,48,41.9V38.32h-.77V37.5H48V36l1-.63V37.5h1.06v.82H49.09V42a1.84,1.84,0,0,0,.06.58.44.44,0,0,0,.18.21.7.7,0,0,0,.36.08A3.43,3.43,0,0,0,50.15,42.78Z" transform="translate(0 -2.03)"/><path class="cls-3" d="M60.78,40.71l1.14.29a3.83,3.83,0,0,1-1.29,2.14,3.54,3.54,0,0,1-2.27.74,4.08,4.08,0,0,1-2.26-.57,3.53,3.53,0,0,1-1.32-1.64,5.84,5.84,0,0,1-.45-2.3A5.06,5.06,0,0,1,54.83,37a3.51,3.51,0,0,1,1.46-1.52A4.26,4.26,0,0,1,58.38,35a3.52,3.52,0,0,1,2.17.66,3.41,3.41,0,0,1,1.22,1.85l-1.12.26a2.65,2.65,0,0,0-.87-1.37A2.31,2.31,0,0,0,58.35,36a2.78,2.78,0,0,0-1.66.47,2.51,2.51,0,0,0-.93,1.27,5.13,5.13,0,0,0-.27,1.65,5.24,5.24,0,0,0,.32,1.91,2.38,2.38,0,0,0,1,1.22,2.79,2.79,0,0,0,1.46.4,2.44,2.44,0,0,0,1.62-.55A2.82,2.82,0,0,0,60.78,40.71Z" transform="translate(0 -2.03)"/><path class="cls-3" d="M62.79,40.61a3.21,3.21,0,0,1,1-2.56,2.9,2.9,0,0,1,2-.69,2.79,2.79,0,0,1,2.1.84,3.2,3.2,0,0,1,.81,2.32,4.12,4.12,0,0,1-.36,1.89,2.55,2.55,0,0,1-1,1.07,3.05,3.05,0,0,1-1.5.38A2.8,2.8,0,0,1,63.59,43,3.35,3.35,0,0,1,62.79,40.61Zm1.08,0a2.65,2.65,0,0,0,.52,1.79,1.74,1.74,0,0,0,2.62,0,2.71,2.71,0,0,0,.52-1.82A2.57,2.57,0,0,0,67,38.83a1.74,1.74,0,0,0-2.62,0A2.64,2.64,0,0,0,63.87,40.61Z" transform="translate(0 -2.03)"/><path class="cls-3" d="M69.86,43.73V37.5h.94v.87a2.22,2.22,0,0,1,.78-.74,2.19,2.19,0,0,1,1.11-.28,2,2,0,0,1,1.13.29,1.54,1.54,0,0,1,.62.8,2.23,2.23,0,0,1,1.92-1.09,1.89,1.89,0,0,1,1.42.51,2.19,2.19,0,0,1,.5,1.58v4.27h-1V39.81a2.89,2.89,0,0,0-.1-.91.88.88,0,0,0-.37-.45,1.16,1.16,0,0,0-.63-.17,1.47,1.47,0,0,0-1.09.44,1.92,1.92,0,0,0-.43,1.4v3.62H73.55v-4a1.78,1.78,0,0,0-.26-1.05,1,1,0,0,0-.84-.35,1.53,1.53,0,0,0-.82.23,1.33,1.33,0,0,0-.55.69,3.86,3.86,0,0,0-.17,1.3v3.23Z" transform="translate(0 -2.03)"/><path class="cls-3" d="M79.85,43.73V37.5h.94v.87a2.22,2.22,0,0,1,.78-.74,2.19,2.19,0,0,1,1.11-.28,2,2,0,0,1,1.13.29,1.54,1.54,0,0,1,.62.8,2.23,2.23,0,0,1,1.92-1.09,1.89,1.89,0,0,1,1.42.51,2.19,2.19,0,0,1,.5,1.58v4.27h-1V39.81a2.89,2.89,0,0,0-.1-.91.88.88,0,0,0-.37-.45,1.16,1.16,0,0,0-.63-.17,1.47,1.47,0,0,0-1.09.44,1.92,1.92,0,0,0-.43,1.4v3.62H83.55v-4a1.78,1.78,0,0,0-.26-1.05,1,1,0,0,0-.84-.35,1.53,1.53,0,0,0-.82.23,1.33,1.33,0,0,0-.55.69,3.86,3.86,0,0,0-.17,1.3v3.23Z" transform="translate(0 -2.03)"/><path class="cls-3" d="M94.11,41.72l1.09.13a2.66,2.66,0,0,1-1,1.48A3.24,3.24,0,0,1,90.3,43a3.29,3.29,0,0,1-.8-2.36,3.44,3.44,0,0,1,.81-2.44,2.74,2.74,0,0,1,2.1-.87,2.66,2.66,0,0,1,2,.85,3.38,3.38,0,0,1,.79,2.39q0,.09,0,.28H90.59a2.39,2.39,0,0,0,.58,1.57,1.73,1.73,0,0,0,1.3.54,1.61,1.61,0,0,0,1-.3A2,2,0,0,0,94.11,41.72ZM90.64,40h3.47a2.11,2.11,0,0,0-.4-1.18,1.62,1.62,0,0,0-1.31-.61,1.68,1.68,0,0,0-1.22.49A1.92,1.92,0,0,0,90.64,40Z" transform="translate(0 -2.03)"/><path class="cls-3" d="M96.52,43.73V37.5h.95v.88a2.24,2.24,0,0,1,2-1,2.6,2.6,0,0,1,1,.2,1.63,1.63,0,0,1,.71.53,2,2,0,0,1,.33.78,6,6,0,0,1,.06,1v3.83h-1.05V39.94a2.84,2.84,0,0,0-.12-1,1,1,0,0,0-.44-.51,1.39,1.39,0,0,0-.74-.19,1.71,1.71,0,0,0-1.16.43,2.11,2.11,0,0,0-.49,1.62v3.4Z" transform="translate(0 -2.03)"/><path class="cls-3" d="M105.5,42.78l.15.93a3.91,3.91,0,0,1-.8.09,1.8,1.8,0,0,1-.89-.18,1,1,0,0,1-.45-.48,3.78,3.78,0,0,1-.13-1.25V38.32h-.77V37.5h.77V36l1-.63V37.5h1.06v.82h-1.06V42a1.84,1.84,0,0,0,.06.58.44.44,0,0,0,.18.21.7.7,0,0,0,.36.08A3.43,3.43,0,0,0,105.5,42.78Z" transform="translate(0 -2.03)"/><path class="cls-5" d="M410,43.48l0,.06a.36.36,0,0,1,0,.18.28.28,0,0,1-.08.16l-1.44,1.44a.28.28,0,0,1-.16.08.36.36,0,0,1-.18,0l-.06,0,0,0-3-3-3,3,0,0-.06,0a.36.36,0,0,1-.18,0,.28.28,0,0,1-.16-.08l-1.44-1.44a.28.28,0,0,1-.08-.16.36.36,0,0,1,0-.18l0-.06,0,0,3-3-3-3,0-.06,0-.06a.33.33,0,0,1,0-.17.29.29,0,0,1,.08-.16l1.44-1.43a.31.31,0,0,1,.16-.09.32.32,0,0,1,.18,0l.06,0,0,0,3,3,3-3,0,0,.06,0a.32.32,0,0,1,.18,0,.31.31,0,0,1,.16.09L410,36.91a.36.36,0,0,1,.08.16.3.3,0,0,1,0,.17l0,.06,0,.06-3,3,3,3Z" transform="translate(0 -2.03)"/><line class="cls-6" x1="30.55" y1="53.86" x2="410.55" y2="53.86"/><rect class="cls-1" x="339.55" y="209.86" width="71" height="23" rx="1.5" ry="1.5"/><path class="cls-1" d="M409,212.39a1,1,0,0,1,1,1v20a1,1,0,0,1-1,1H341a1,1,0,0,1-1-1v-20a1,1,0,0,1,1-1h68m0-1H341a2,2,0,0,0-2,2v20a2,2,0,0,0,2,2h68a2,2,0,0,0,2-2v-20a2,2,0,0,0-2-2Z" transform="translate(0 -2.03)"/><rect class="cls-7" x="259.55" y="209.86" width="71" height="23" rx="1.5" ry="1.5"/><path class="cls-1" d="M329,212.39a1,1,0,0,1,1,1v20a1,1,0,0,1-1,1H261a1,1,0,0,1-1-1v-20a1,1,0,0,1,1-1h68m0-1H261a2,2,0,0,0-2,2v20a2,2,0,0,0,2,2h68a2,2,0,0,0,2-2v-20a2,2,0,0,0-2-2Z" transform="translate(0 -2.03)"/><path class="cls-8" d="M33.76,76.92V68.33h1.14V75.9h4.23v1Z" transform="translate(0 -2.03)"/><path class="cls-8" d="M44.4,76.15a3.93,3.93,0,0,1-1.13.7,3.26,3.26,0,0,1-1.16.21,2.26,2.26,0,0,1-1.58-.5A1.65,1.65,0,0,1,40,75.27a1.7,1.7,0,0,1,.21-.83,1.72,1.72,0,0,1,.54-.61,2.56,2.56,0,0,1,.76-.35,7.54,7.54,0,0,1,.94-.16A9.64,9.64,0,0,0,44.32,73q0-.22,0-.28a1.16,1.16,0,0,0-.3-.91,1.77,1.77,0,0,0-1.2-.36,1.86,1.86,0,0,0-1.1.26,1.59,1.59,0,0,0-.52.92l-1-.14a2.56,2.56,0,0,1,.46-1.07,2,2,0,0,1,.93-.63A4.16,4.16,0,0,1,43,70.55a3.74,3.74,0,0,1,1.29.19,1.71,1.71,0,0,1,.73.47,1.66,1.66,0,0,1,.33.72,5.94,5.94,0,0,1,.05,1v1.41a14.93,14.93,0,0,0,.07,1.86,2.35,2.35,0,0,0,.27.75h-1.1A2.24,2.24,0,0,1,44.4,76.15Zm-.09-2.36a7.74,7.74,0,0,1-1.72.4,4,4,0,0,0-.92.21.92.92,0,0,0-.42.34.93.93,0,0,0,.17,1.2,1.37,1.37,0,0,0,.93.28A2.18,2.18,0,0,0,43.45,76a1.64,1.64,0,0,0,.7-.73,2.55,2.55,0,0,0,.17-1.05Z" transform="translate(0 -2.03)"/><path class="cls-8" d="M48,76.92H47V68.33h1.05v3.06a2.09,2.09,0,0,1,1.71-.84,2.61,2.61,0,0,1,1.09.23,2.22,2.22,0,0,1,.84.65,3.14,3.14,0,0,1,.52,1,4.17,4.17,0,0,1,.19,1.27,3.55,3.55,0,0,1-.79,2.47,2.47,2.47,0,0,1-1.9.87A2,2,0,0,1,48,76.14Zm0-3.16a3.23,3.23,0,0,0,.3,1.62,1.51,1.51,0,0,0,2.54.21,2.73,2.73,0,0,0,.5-1.79,2.78,2.78,0,0,0-.48-1.8,1.47,1.47,0,0,0-1.17-.58,1.52,1.52,0,0,0-1.2.6A2.64,2.64,0,0,0,48,73.76Z" transform="translate(0 -2.03)"/><path class="cls-8" d="M58,74.91,59,75a2.66,2.66,0,0,1-1,1.48,3.24,3.24,0,0,1-3.95-.31,3.29,3.29,0,0,1-.8-2.36,3.44,3.44,0,0,1,.81-2.44,2.74,2.74,0,0,1,2.1-.87,2.66,2.66,0,0,1,2,.85,3.38,3.38,0,0,1,.79,2.39q0,.09,0,.28H54.43A2.39,2.39,0,0,0,55,75.64a1.73,1.73,0,0,0,1.3.54,1.61,1.61,0,0,0,1-.3A2,2,0,0,0,58,74.91Zm-3.46-1.71H58a2.11,2.11,0,0,0-.4-1.18,1.62,1.62,0,0,0-1.31-.61,1.68,1.68,0,0,0-1.22.49A1.92,1.92,0,0,0,54.49,73.21Z" transform="translate(0 -2.03)"/><path class="cls-8" d="M60.34,76.92V68.33H61.4v8.59Z" transform="translate(0 -2.03)"/><path class="cls-9" d="M66.37,71.66a1.86,1.86,0,0,1,1.85-1.85,1.8,1.8,0,0,1,1.31.54,1.86,1.86,0,1,1-3.17,1.31Z" transform="translate(0 -2.03)"/><rect class="cls-10" x="33.55" y="85.86" width="376" height="24" rx="2" ry="2"/><path class="cls-8" d="M33.76,128.77v-8.59h1.14v7.58h4.23v1Z" transform="translate(0 -2.03)"/><path class="cls-8" d="M44.4,128a3.93,3.93,0,0,1-1.13.7,3.26,3.26,0,0,1-1.16.21,2.26,2.26,0,0,1-1.58-.5,1.65,1.65,0,0,1-.55-1.28,1.7,1.7,0,0,1,.21-.83,1.72,1.72,0,0,1,.54-.61,2.56,2.56,0,0,1,.76-.35,7.54,7.54,0,0,1,.94-.16,9.64,9.64,0,0,0,1.88-.36q0-.22,0-.28a1.16,1.16,0,0,0-.3-.91,1.77,1.77,0,0,0-1.2-.36,1.86,1.86,0,0,0-1.1.26,1.59,1.59,0,0,0-.52.92l-1-.14a2.56,2.56,0,0,1,.46-1.07,2,2,0,0,1,.93-.63A4.16,4.16,0,0,1,43,122.4a3.74,3.74,0,0,1,1.29.19,1.71,1.71,0,0,1,.73.47,1.66,1.66,0,0,1,.33.72,5.94,5.94,0,0,1,.05,1v1.41a14.93,14.93,0,0,0,.07,1.86,2.35,2.35,0,0,0,.27.75h-1.1A2.24,2.24,0,0,1,44.4,128Zm-.09-2.36a7.74,7.74,0,0,1-1.72.4,4,4,0,0,0-.92.21.92.92,0,0,0-.42.34.93.93,0,0,0,.17,1.2,1.37,1.37,0,0,0,.93.28,2.18,2.18,0,0,0,1.08-.27,1.64,1.64,0,0,0,.7-.73,2.55,2.55,0,0,0,.17-1.05Z" transform="translate(0 -2.03)"/><path class="cls-8" d="M48,128.77H47v-8.59h1.05v3.06a2.09,2.09,0,0,1,1.71-.84,2.61,2.61,0,0,1,1.09.23,2.22,2.22,0,0,1,.84.65,3.14,3.14,0,0,1,.52,1,4.17,4.17,0,0,1,.19,1.27,3.55,3.55,0,0,1-.79,2.47,2.47,2.47,0,0,1-1.9.87A2,2,0,0,1,48,128Zm0-3.16a3.23,3.23,0,0,0,.3,1.62,1.51,1.51,0,0,0,2.54.21,2.73,2.73,0,0,0,.5-1.79,2.78,2.78,0,0,0-.48-1.8,1.47,1.47,0,0,0-1.17-.58,1.52,1.52,0,0,0-1.2.6A2.64,2.64,0,0,0,48,125.61Z" transform="translate(0 -2.03)"/><path class="cls-8" d="M58,126.76l1.09.13a2.66,2.66,0,0,1-1,1.48,3.24,3.24,0,0,1-3.95-.31,3.29,3.29,0,0,1-.8-2.36,3.44,3.44,0,0,1,.81-2.44,2.74,2.74,0,0,1,2.1-.87,2.66,2.66,0,0,1,2,.85,3.38,3.38,0,0,1,.79,2.39q0,.09,0,.28H54.43A2.39,2.39,0,0,0,55,127.5a1.73,1.73,0,0,0,1.3.54,1.61,1.61,0,0,0,1-.3A2,2,0,0,0,58,126.76Zm-3.46-1.71H58a2.11,2.11,0,0,0-.4-1.18,1.62,1.62,0,0,0-1.31-.61,1.68,1.68,0,0,0-1.22.49A1.92,1.92,0,0,0,54.49,125.06Z" transform="translate(0 -2.03)"/><path class="cls-8" d="M60.34,128.77v-8.59H61.4v8.59Z" transform="translate(0 -2.03)"/><path class="cls-8" d="M43,98.86v-.81a4.3,4.3,0,0,0,1.59-.37,1.83,1.83,0,0,0,.67-1.23h.83v8.36H45V98.86Z" transform="translate(0 -2.03)"/><path class="cls-8" d="M49.38,102.92a3.63,3.63,0,0,1,1.52-1.46l1.13-.65a5.25,5.25,0,0,0,1.06-.75,1.64,1.64,0,0,0,0-2.28A1.6,1.6,0,0,0,52,97.34a1.53,1.53,0,0,0-1.5.82,3,3,0,0,0-.25,1.22H49.13a3.77,3.77,0,0,1,.4-1.79A2.54,2.54,0,0,1,52,96.38a2.49,2.49,0,0,1,2.77,2.51,2.36,2.36,0,0,1-.71,1.72,6.94,6.94,0,0,1-1.47,1l-.8.45a5.2,5.2,0,0,0-.9.6,2.2,2.2,0,0,0-.74,1.13h4.58v1H48.93A4.89,4.89,0,0,1,49.38,102.92Z" transform="translate(0 -2.03)"/><path class="cls-8" d="M56.18,104.21a3,3,0,0,1-.67-2h1.1a2.73,2.73,0,0,0,.3,1.18,1.6,1.6,0,0,0,1.48.66,1.94,1.94,0,0,0,1.34-.45,1.46,1.46,0,0,0,.5-1.15,1.34,1.34,0,0,0-.53-1.21,2.68,2.68,0,0,0-1.47-.35H57.8V100l.28,0h.24a2.2,2.2,0,0,0,1-.19A1.19,1.19,0,0,0,60,98.67a1.14,1.14,0,0,0-.45-1,1.66,1.66,0,0,0-1-.34,1.54,1.54,0,0,0-1.46.7,2.44,2.44,0,0,0-.25,1.1h-1a3.16,3.16,0,0,1,.38-1.59,2.36,2.36,0,0,1,2.27-1.17,3.07,3.07,0,0,1,2,.57,2,2,0,0,1,.7,1.66,1.85,1.85,0,0,1-.42,1.25,1.75,1.75,0,0,1-.67.47,1.82,1.82,0,0,1,1,.7,2.12,2.12,0,0,1,.37,1.27,2.59,2.59,0,0,1-.79,2,3.12,3.12,0,0,1-2.24.76A2.64,2.64,0,0,1,56.18,104.21Z" transform="translate(0 -2.03)"/><path class="cls-8" d="M65.88,104.8v-2.05H62.2v-1L66,96.39h.89v5.44h1.24v.92H66.94v2.05Zm0-3V98l-2.69,3.81Z" transform="translate(0 -2.03)"/><path class="cls-8" d="M70.06,102.67a1.46,1.46,0,0,0,.84,1.25,2,2,0,0,0,.87.18,1.63,1.63,0,0,0,1.39-.6,2.15,2.15,0,0,0,.45-1.32,1.73,1.73,0,0,0-.54-1.36,1.86,1.86,0,0,0-1.29-.48,1.94,1.94,0,0,0-.93.21,2,2,0,0,0-.67.59l-.91-.05.64-4.52h4.36v1H70.69l-.36,2.33a2.62,2.62,0,0,1,.56-.33A2.83,2.83,0,0,1,72,99.38a2.77,2.77,0,0,1,2,.74,2.46,2.46,0,0,1,.8,1.89,3.24,3.24,0,0,1-.74,2.1,2.84,2.84,0,0,1-2.35.91,3,3,0,0,1-1.81-.58,2.29,2.29,0,0,1-.88-1.77Z" transform="translate(0 -2.03)"/><path class="cls-8" d="M80.72,97.11a2.46,2.46,0,0,1,.55,1.5h-1a1.92,1.92,0,0,0-.3-.78,1.33,1.33,0,0,0-1.15-.53,1.6,1.6,0,0,0-1.41.82,4.71,4.71,0,0,0-.58,2.34,2.29,2.29,0,0,1,.91-.8,2.64,2.64,0,0,1,1.13-.23,2.74,2.74,0,0,1,1.84.67,2.5,2.5,0,0,1,.79,2,3,3,0,0,1-.74,2,2.62,2.62,0,0,1-2.12.88,2.72,2.72,0,0,1-2-.89,4.28,4.28,0,0,1-.86-3,8.1,8.1,0,0,1,.38-2.65,2.7,2.7,0,0,1,2.68-2.09A2.32,2.32,0,0,1,80.72,97.11Zm-.79,6.42a2.16,2.16,0,0,0,.41-1.32A2.26,2.26,0,0,0,80,101a1.46,1.46,0,0,0-1.34-.58,1.75,1.75,0,0,0-1.19.45,1.72,1.72,0,0,0-.51,1.36,2,2,0,0,0,.47,1.34,1.61,1.61,0,0,0,1.29.54A1.45,1.45,0,0,0,79.93,103.52Z" transform="translate(0 -2.03)"/><path class="cls-8" d="M88.2,96.55v.92a9.8,9.8,0,0,0-1.08,1.37,13.84,13.84,0,0,0-1.19,2.1,14.34,14.34,0,0,0-.77,2q-.17.58-.44,1.87H83.56A14.36,14.36,0,0,1,85.31,100,15.14,15.14,0,0,1,87,97.61H82.36V96.55Z" transform="translate(0 -2.03)"/><path class="cls-8" d="M89.74,99.89a1.66,1.66,0,0,1-.46-1.22A2.19,2.19,0,0,1,90,97.06a2.62,2.62,0,0,1,1.93-.67,2.67,2.67,0,0,1,1.89.64,2,2,0,0,1,.68,1.49,1.94,1.94,0,0,1-.4,1.27,2.39,2.39,0,0,1-.69.54,2.69,2.69,0,0,1,.82.55,2.12,2.12,0,0,1,.56,1.52,2.6,2.6,0,0,1-.74,1.88,2.79,2.79,0,0,1-2.1.77,3.25,3.25,0,0,1-2.07-.67,2.31,2.31,0,0,1-.85-1.93,2.14,2.14,0,0,1,1.44-2.12A2.1,2.1,0,0,1,89.74,99.89Zm3.4,3.79a1.44,1.44,0,0,0,.48-1.18,1.53,1.53,0,0,0-.5-1.24,1.91,1.91,0,0,0-1.28-.42,1.77,1.77,0,0,0-1.23.43,1.52,1.52,0,0,0-.48,1.19,1.62,1.62,0,0,0,.44,1.13,1.74,1.74,0,0,0,1.35.48A1.86,1.86,0,0,0,93.14,103.69Zm-.2-4.15a1.27,1.27,0,0,0,.39-.93,1.23,1.23,0,0,0-.37-.86,1.5,1.5,0,0,0-1.14-.39,1.27,1.27,0,0,0-1.44,1.32,1.1,1.1,0,0,0,.44.93,1.65,1.65,0,0,0,1,.33A1.47,1.47,0,0,0,92.94,99.54Z" transform="translate(0 -2.03)"/><path class="cls-8" d="M96.86,102.77a1.33,1.33,0,0,0,.67,1.21,1.49,1.49,0,0,0,.73.18,1.63,1.63,0,0,0,1.29-.63,5.18,5.18,0,0,0,.76-2.56,2,2,0,0,1-.87.78,2.77,2.77,0,0,1-1.12.23,2.5,2.5,0,0,1-1.92-.75,2.73,2.73,0,0,1-.71-1.94,3.11,3.11,0,0,1,.7-2,2.48,2.48,0,0,1,2.06-.87A2.53,2.53,0,0,1,101,98.05a5.81,5.81,0,0,1,.39,2.27,7.48,7.48,0,0,1-.46,2.73,2.68,2.68,0,0,1-2.6,2,2.52,2.52,0,0,1-1.87-.64,2.2,2.2,0,0,1-.64-1.62Zm2.75-2.14a1.74,1.74,0,0,0,.52-1.44,1.84,1.84,0,0,0-.47-1.38,1.63,1.63,0,0,0-1.19-.45,1.55,1.55,0,0,0-1.23.52,2,2,0,0,0-.45,1.38,2,2,0,0,0,.4,1.3,1.56,1.56,0,0,0,1.27.48A1.8,1.8,0,0,0,99.61,100.63Z" transform="translate(0 -2.03)"/><rect class="cls-10" x="33.55" y="133.86" width="375" height="58" rx="2" ry="2"/><path d="M493.31,3.79H490V2.6h8V3.79h-3.3v9.6h-1.41Z" transform="translate(0 -2.03)"/><path d="M505,9.46a3.79,3.79,0,0,1-3.86,4.11,3.68,3.68,0,0,1-3.71-4,3.78,3.78,0,0,1,3.84-4.11A3.67,3.67,0,0,1,505,9.46Zm-6.15.08c0,1.7,1,3,2.35,3s2.35-1.26,2.35-3c0-1.31-.66-3-2.32-3S498.9,8.06,498.9,9.54Z" transform="translate(0 -2.03)"/><path d="M513.83,9.46A3.79,3.79,0,0,1,510,13.57a3.68,3.68,0,0,1-3.71-4,3.78,3.78,0,0,1,3.84-4.11A3.67,3.67,0,0,1,513.83,9.46Zm-6.15.08c0,1.7,1,3,2.35,3s2.35-1.26,2.35-3c0-1.31-.66-3-2.32-3S507.68,8.06,507.68,9.54Z" transform="translate(0 -2.03)"/><path d="M515.6,2H517V13.39H515.6Z" transform="translate(0 -2.03)"/><path d="M521.07,3.42V5.65h2V6.72h-2V10.9c0,1,.27,1.5,1.06,1.5a3.1,3.1,0,0,0,.82-.1l.06,1.06a3.44,3.44,0,0,1-1.25.19,2,2,0,0,1-1.52-.59,2.87,2.87,0,0,1-.54-2V6.72h-1.2V5.65h1.2V3.79Z" transform="translate(0 -2.03)"/><path d="M526.24,3.47a.87.87,0,0,1-1.75,0,.86.86,0,0,1,.88-.88A.84.84,0,0,1,526.24,3.47Zm-1.57,9.92V5.65h1.41v7.75Z" transform="translate(0 -2.03)"/><path d="M528.41,8.17c0-1,0-1.79-.06-2.53h1.26L529.68,7h0a3,3,0,0,1,2.75-1.5c1.87,0,3.28,1.58,3.28,3.94,0,2.79-1.7,4.16-3.52,4.16a2.72,2.72,0,0,1-2.38-1.22h0v4.21h-1.39Zm1.39,2.06a3.15,3.15,0,0,0,.06.58A2.17,2.17,0,0,0,532,12.46c1.49,0,2.35-1.22,2.35-3,0-1.55-.82-2.88-2.3-2.88a2.25,2.25,0,0,0-2.13,1.75,2.29,2.29,0,0,0-.1.58Z" transform="translate(0 -2.03)"/><path d="M22.26,2.73a16.11,16.11,0,0,1,2.67-.21,4.43,4.43,0,0,1,3,.9,2.9,2.9,0,0,1,.94,2.26A3.17,3.17,0,0,1,28.07,8a4.47,4.47,0,0,1-3.3,1.18,4.84,4.84,0,0,1-1.12-.1v4.32H22.26Zm1.39,5.2A4.66,4.66,0,0,0,24.81,8c1.68,0,2.71-.82,2.71-2.31S26.5,3.63,25,3.63a5.89,5.89,0,0,0-1.31.11Z" transform="translate(0 -2.03)"/><path d="M37.34,9.46a3.79,3.79,0,0,1-3.86,4.11,3.68,3.68,0,0,1-3.71-4,3.78,3.78,0,0,1,3.84-4.11A3.67,3.67,0,0,1,37.34,9.46Zm-6.15.08c0,1.7,1,3,2.35,3s2.35-1.26,2.35-3c0-1.31-.66-3-2.32-3S31.19,8.06,31.19,9.54Z" transform="translate(0 -2.03)"/><path d="M39.11,8.17c0-1,0-1.79-.06-2.53h1.26L40.38,7h0a3,3,0,0,1,2.75-1.5c1.87,0,3.28,1.58,3.28,3.94,0,2.79-1.7,4.16-3.52,4.16a2.72,2.72,0,0,1-2.38-1.22h0v4.21H39.11Zm1.39,2.06a3.15,3.15,0,0,0,.06.58,2.17,2.17,0,0,0,2.11,1.65c1.49,0,2.35-1.22,2.35-3,0-1.55-.82-2.88-2.3-2.88A2.25,2.25,0,0,0,40.6,8.33a2.29,2.29,0,0,0-.1.58Z" transform="translate(0 -2.03)"/><path d="M55.23,9.46a3.79,3.79,0,0,1-3.86,4.11,3.68,3.68,0,0,1-3.71-4A3.78,3.78,0,0,1,51.5,5.47,3.67,3.67,0,0,1,55.23,9.46Zm-6.15.08c0,1.7,1,3,2.35,3s2.35-1.26,2.35-3c0-1.31-.66-3-2.32-3S49.08,8.06,49.08,9.54Z" transform="translate(0 -2.03)"/><path d="M57.43,5.65,59,10a20,20,0,0,1,.62,2h0c.18-.64.4-1.28.66-2l1.5-4.35h1.47l-3,7.75H58.87L55.93,5.65Z" transform="translate(0 -2.03)"/><path d="M65.21,9.78a2.48,2.48,0,0,0,2.66,2.69,5.1,5.1,0,0,0,2.14-.4l.24,1a6.27,6.27,0,0,1-2.58.48,3.6,3.6,0,0,1-3.81-3.91c0-2.34,1.38-4.18,3.63-4.18,2.53,0,3.2,2.22,3.2,3.65a5.17,5.17,0,0,1,0,.66Zm4.13-1a2,2,0,0,0-2-2.29,2.33,2.33,0,0,0-2.16,2.29Z" transform="translate(0 -2.03)"/><path d="M72.44,8.06c0-.91,0-1.7-.06-2.42h1.23l0,1.52h.06a2.32,2.32,0,0,1,2.14-1.7,1.52,1.52,0,0,1,.4,0V6.85a2.11,2.11,0,0,0-.48,0,2,2,0,0,0-1.89,1.81,4,4,0,0,0-.06.66v4.13H72.44Z" transform="translate(0 -2.03)"/></g></g></svg>