<!-- Generator: Adobe Illustrator 20.1.0, SVG Export Plug-In  -->
<svg version="1.1"
	 xmlns="http://www.w3.org/2000/svg" xmlns:xlink="http://www.w3.org/1999/xlink" xmlns:a="http://ns.adobe.com/AdobeSVGViewerExtensions/3.0/"
	 x="0px" y="0px" width="186.2px" height="234.7px" viewBox="0 0 186.2 234.7" enable-background="new 0 0 186.2 234.7"
	 xml:space="preserve">
<defs>
</defs>
<g>
	<path fill="#010101" d="M159.8,30.4H48.6v22.4h101L75,115.9L48.6,93.6V124l14.3,12.1c1.6,1.3,3.6,2.1,5.6,2.1h13
		c2.1,0,4.1-0.7,5.6-2.1l76.7-64.7V174c0,1.6-1.9,3-4,3H48.6v22.4h111.2c14.6,0,26.4-11.4,26.4-25.3V55.7
		C186.2,41.8,174.4,30.4,159.8,30.4z"/>
	<path fill="#010101" d="M12.8,0C5.7,0,0,7,0,15.6v25.1V61v15.3V104v69.7V194v25.1c0,8.6,5.7,15.6,12.8,15.6s12.8-7,12.8-15.6V194
		v-20.3v-48V98.1V61V40.7V15.6C25.7,7,19.9,0,12.8,0z"/>
</g>
</svg>
