<!-- Generator: Adobe Illustrator 21.0.0, SVG Export Plug-In  -->
<svg version="1.1"
	 xmlns="http://www.w3.org/2000/svg" xmlns:xlink="http://www.w3.org/1999/xlink" xmlns:a="http://ns.adobe.com/AdobeSVGViewerExtensions/3.0/"
	 x="0px" y="0px" width="846.3px" height="240px" viewBox="0 0 846.3 240" enable-background="new 0 0 846.3 240"
	 xml:space="preserve">
<defs>
</defs>
<g>
	<path fill="#FFFFFF" d="M2,239.5c-0.8,0-1.5-0.7-1.5-1.5V0.5h843.8c0.8,0,1.5,0.7,1.5,1.5v236c0,0.8-0.7,1.5-1.5,1.5H2z"/>
	<path fill="#DBDDDD" d="M844.3,1c0.6,0,1,0.4,1,1v236c0,0.6-0.4,1-1,1H2c-0.6,0-1-0.4-1-1V1H844.3 M844.3,0H0v238c0,1.1,0.9,2,2,2
		h842.3c1.1,0,2-0.9,2-2V2C846.3,0.9,845.4,0,844.3,0L844.3,0z"/>
</g>
</svg>
