<!-- Generator: Adobe Illustrator 21.0.0, SVG Export Plug-In  -->
<svg version="1.1"
	 xmlns="http://www.w3.org/2000/svg" xmlns:xlink="http://www.w3.org/1999/xlink" xmlns:a="http://ns.adobe.com/AdobeSVGViewerExtensions/3.0/"
	 x="0px" y="0px" width="407px" height="24px" viewBox="0 0 407 24" enable-background="new 0 0 407 24" xml:space="preserve">
<defs>
</defs>
<g>
	<path fill="#DBDCDD" d="M405,1c0.6,0,1,0.4,1,1v20c0,0.6-0.4,1-1,1H2c-0.6,0-1-0.4-1-1V2c0-0.6,0.4-1,1-1H405 M405,0H2
		C0.9,0,0,0.9,0,2v20c0,1.1,0.9,2,2,2h403c1.1,0,2-0.9,2-2V2C407,0.9,406.1,0,405,0L405,0z"/>
</g>
</svg>
