<!-- Generator: Adobe Illustrator 21.0.0, SVG Export Plug-In  -->
<svg version="1.1"
	 xmlns="http://www.w3.org/2000/svg" xmlns:xlink="http://www.w3.org/1999/xlink" xmlns:a="http://ns.adobe.com/AdobeSVGViewerExtensions/3.0/"
	 x="0px" y="0px" width="24px" height="23.5px" viewBox="0 0 24 23.5" enable-background="new 0 0 24 23.5" xml:space="preserve">
<defs>
</defs>
<path fill="#BCCE53" d="M0,0h22c1.1,0,2,0.9,2,2v19.6c0,1.1-0.9,2-2,2H0V0z"/>
<path fill="#FFFFFF" d="M11,16c0.8,0,1.6-0.2,2.3-0.5l3.1,3.1c0.7,0.7,1.9,0.7,2.6,0c0.7-0.7,0.7-1.9,0-2.6L16,12.8
	c0.3-0.7,0.5-1.5,0.5-2.3c0-3-2.4-5.5-5.5-5.5c-3,0-5.5,2.4-5.5,5.5C5.6,13.5,8,16,11,16L11,16z M11,6.7c2.1,0,3.9,1.7,3.9,3.9
	s-1.7,3.9-3.9,3.9c-2.1,0-3.9-1.7-3.9-3.9S8.9,6.7,11,6.7z"/>
</svg>
